solid STL generated by MeshLab
  facet normal  1.000000e+00  0.000000e+00  0.000000e+00
    outer loop
      vertex   8.310059e+01  8.755493e+00  2.357178e-01
      vertex   8.310059e+01  8.765991e+00 -1.558838e-01
      vertex   8.310059e+01  8.773560e+00  4.028320e-02
    endloop
  endfacet
  facet normal  1.000000e+00  0.000000e+00  0.000000e+00
    outer loop
      vertex   8.310059e+01  8.765991e+00 -1.558838e-01
      vertex   8.310059e+01  8.755493e+00  2.357178e-01
      vertex   8.310059e+01  8.732910e+00 -3.493042e-01
    endloop
  endfacet
  facet normal  1.000000e+00  0.000000e+00 -0.000000e+00
    outer loop
      vertex   8.310059e+01  8.732910e+00 -3.493042e-01
      vertex   8.310059e+01  8.755493e+00  2.357178e-01
      vertex   8.310059e+01  8.712036e+00  4.271240e-01
    endloop
  endfacet
  facet normal  1.000000e+00  0.000000e+00  0.000000e+00
    outer loop
      vertex   8.310059e+01  8.732910e+00 -3.493042e-01
      vertex   8.310059e+01  8.712036e+00  4.271240e-01
      vertex   8.310059e+01  8.674805e+00 -5.368042e-01
    endloop
  endfacet
  facet normal  1.000000e+00  0.000000e+00 -0.000000e+00
    outer loop
      vertex   8.310059e+01  8.674805e+00 -5.368042e-01
      vertex   8.310059e+01  8.712036e+00  4.271240e-01
      vertex   8.310059e+01  8.643921e+00  6.112061e-01
    endloop
  endfacet
  facet normal  1.000000e+00  0.000000e+00  0.000000e+00
    outer loop
      vertex   8.310059e+01  8.674805e+00 -5.368042e-01
      vertex   8.310059e+01  8.643921e+00  6.112061e-01
      vertex   8.310059e+01  8.592773e+00 -7.151489e-01
    endloop
  endfacet
  facet normal  1.000000e+00  0.000000e+00 -0.000000e+00
    outer loop
      vertex   8.310059e+01  8.592773e+00 -7.151489e-01
      vertex   8.310059e+01  8.643921e+00  6.112061e-01
      vertex   8.310059e+01  8.552490e+00  7.848511e-01
    endloop
  endfacet
  facet normal  1.000000e+00  0.000000e+00  0.000000e+00
    outer loop
      vertex   8.310059e+01  8.592773e+00 -7.151489e-01
      vertex   8.310059e+01  8.552490e+00  7.848511e-01
      vertex   8.310059e+01  8.488159e+00 -8.811646e-01
    endloop
  endfacet
  facet normal  1.000000e+00  0.000000e+00 -0.000000e+00
    outer loop
      vertex   8.310059e+01  8.488159e+00 -8.811646e-01
      vertex   8.310059e+01  8.552490e+00  7.848511e-01
      vertex   8.310059e+01  8.439087e+00  9.450684e-01
    endloop
  endfacet
  facet normal  1.000000e+00  0.000000e+00  0.000000e+00
    outer loop
      vertex   8.310059e+01  8.488159e+00 -8.811646e-01
      vertex   8.310059e+01  8.439087e+00  9.450684e-01
      vertex   8.310059e+01  8.362671e+00 -1.032166e+00
    endloop
  endfacet
  facet normal  1.000000e+00  0.000000e+00 -0.000000e+00
    outer loop
      vertex   8.310059e+01  8.362671e+00 -1.032166e+00
      vertex   8.310059e+01  8.439087e+00  9.450684e-01
      vertex   8.310059e+01  8.305786e+00  1.089111e+00
    endloop
  endfacet
  facet normal  1.000000e+00  0.000000e+00  0.000000e+00
    outer loop
      vertex   8.310059e+01  8.362671e+00 -1.032166e+00
      vertex   8.310059e+01  8.305786e+00  1.089111e+00
      vertex   8.310059e+01  8.218628e+00 -1.165527e+00
    endloop
  endfacet
  facet normal  1.000000e+00  0.000000e+00 -0.000000e+00
    outer loop
      vertex   8.310059e+01  8.218628e+00 -1.165527e+00
      vertex   8.310059e+01  8.305786e+00  1.089111e+00
      vertex   8.310059e+01  8.154785e+00  1.214539e+00
    endloop
  endfacet
  facet normal  1.000000e+00  0.000000e+00  0.000000e+00
    outer loop
      vertex   8.310059e+01  8.218628e+00 -1.165527e+00
      vertex   8.310059e+01  8.154785e+00  1.214539e+00
      vertex   8.310059e+01  8.058472e+00 -1.278931e+00
    endloop
  endfacet
  facet normal  1.000000e+00  0.000000e+00 -0.000000e+00
    outer loop
      vertex   8.310059e+01  8.058472e+00 -1.278931e+00
      vertex   8.310059e+01  8.154785e+00  1.214539e+00
      vertex   8.310059e+01  7.988647e+00  1.319153e+00
    endloop
  endfacet
  facet normal  1.000000e+00  0.000000e+00  0.000000e+00
    outer loop
      vertex   8.310059e+01  8.058472e+00 -1.278931e+00
      vertex   8.310059e+01  7.988647e+00  1.319153e+00
      vertex   8.310059e+01  7.884766e+00 -1.370422e+00
    endloop
  endfacet
  facet normal  1.000000e+00  0.000000e+00 -0.000000e+00
    outer loop
      vertex   8.310059e+01  7.884766e+00 -1.370422e+00
      vertex   8.310059e+01  7.988647e+00  1.319153e+00
      vertex   8.310059e+01  7.810425e+00  1.401245e+00
    endloop
  endfacet
  facet normal  1.000000e+00  0.000000e+00  0.000000e+00
    outer loop
      vertex   8.310059e+01  7.884766e+00 -1.370422e+00
      vertex   8.310059e+01  7.810425e+00  1.401245e+00
      vertex   8.310059e+01  7.700684e+00 -1.438477e+00
    endloop
  endfacet
  facet normal  1.000000e+00  0.000000e+00 -0.000000e+00
    outer loop
      vertex   8.310059e+01  7.700684e+00 -1.438477e+00
      vertex   8.310059e+01  7.810425e+00  1.401245e+00
      vertex   8.310059e+01  7.622925e+00  1.459290e+00
    endloop
  endfacet
  facet normal  1.000000e+00  0.000000e+00  0.000000e+00
    outer loop
      vertex   8.310059e+01  7.700684e+00 -1.438477e+00
      vertex   8.310059e+01  7.622925e+00  1.459290e+00
      vertex   8.310059e+01  7.509277e+00 -1.481934e+00
    endloop
  endfacet
  facet normal  1.000000e+00  0.000000e+00 -0.000000e+00
    outer loop
      vertex   8.310059e+01  7.509277e+00 -1.481934e+00
      vertex   8.310059e+01  7.622925e+00  1.459290e+00
      vertex   8.310059e+01  7.429443e+00  1.492432e+00
    endloop
  endfacet
  facet normal  1.000000e+00  0.000000e+00  0.000000e+00
    outer loop
      vertex   8.310059e+01  7.509277e+00 -1.481934e+00
      vertex   8.310059e+01  7.429443e+00  1.492432e+00
      vertex   8.310059e+01  7.313843e+00 -1.500000e+00
    endloop
  endfacet
  facet normal  1.000000e+00  0.000000e+00 -0.000000e+00
    outer loop
      vertex   8.310059e+01  7.313843e+00 -1.500000e+00
      vertex   8.310059e+01  7.429443e+00  1.492432e+00
      vertex   8.310059e+01  7.233276e+00  1.500000e+00
    endloop
  endfacet
  facet normal  1.000000e+00  0.000000e+00  0.000000e+00
    outer loop
      vertex   8.310059e+01  7.313843e+00 -1.500000e+00
      vertex   8.310059e+01  7.233276e+00  1.500000e+00
      vertex   8.310059e+01  7.117676e+00 -1.492432e+00
    endloop
  endfacet
  facet normal  1.000000e+00  0.000000e+00 -0.000000e+00
    outer loop
      vertex   8.310059e+01  7.117676e+00 -1.492432e+00
      vertex   8.310059e+01  7.233276e+00  1.500000e+00
      vertex   8.310059e+01  7.037842e+00  1.481873e+00
    endloop
  endfacet
  facet normal  1.000000e+00  0.000000e+00  0.000000e+00
    outer loop
      vertex   8.310059e+01  7.117676e+00 -1.492432e+00
      vertex   8.310059e+01  7.037842e+00  1.481873e+00
      vertex   8.310059e+01  6.924194e+00 -1.459351e+00
    endloop
  endfacet
  facet normal  1.000000e+00  0.000000e+00 -0.000000e+00
    outer loop
      vertex   8.310059e+01  6.924194e+00 -1.459351e+00
      vertex   8.310059e+01  7.037842e+00  1.481873e+00
      vertex   8.310059e+01  6.846436e+00  1.438477e+00
    endloop
  endfacet
  facet normal  1.000000e+00  0.000000e+00  0.000000e+00
    outer loop
      vertex   8.310059e+01  6.924194e+00 -1.459351e+00
      vertex   8.310059e+01  6.846436e+00  1.438477e+00
      vertex   8.310059e+01  6.736816e+00 -1.401245e+00
    endloop
  endfacet
  facet normal  1.000000e+00  0.000000e+00 -0.000000e+00
    outer loop
      vertex   8.310059e+01  6.736816e+00 -1.401245e+00
      vertex   8.310059e+01  6.846436e+00  1.438477e+00
      vertex   8.310059e+01  6.662354e+00  1.370422e+00
    endloop
  endfacet
  facet normal  1.000000e+00  0.000000e+00  0.000000e+00
    outer loop
      vertex   8.310059e+01  6.736816e+00 -1.401245e+00
      vertex   8.310059e+01  6.662354e+00  1.370422e+00
      vertex   8.310059e+01  6.558472e+00 -1.319214e+00
    endloop
  endfacet
  facet normal  1.000000e+00  0.000000e+00 -0.000000e+00
    outer loop
      vertex   8.310059e+01  6.558472e+00 -1.319214e+00
      vertex   8.310059e+01  6.662354e+00  1.370422e+00
      vertex   8.310059e+01  6.488647e+00  1.278870e+00
    endloop
  endfacet
  facet normal  1.000000e+00  0.000000e+00  0.000000e+00
    outer loop
      vertex   8.310059e+01  6.558472e+00 -1.319214e+00
      vertex   8.310059e+01  6.488647e+00  1.278870e+00
      vertex   8.310059e+01  6.392334e+00 -1.214539e+00
    endloop
  endfacet
  facet normal  1.000000e+00  0.000000e+00 -0.000000e+00
    outer loop
      vertex   8.310059e+01  6.392334e+00 -1.214539e+00
      vertex   8.310059e+01  6.488647e+00  1.278870e+00
      vertex   8.310059e+01  6.328491e+00  1.165527e+00
    endloop
  endfacet
  facet normal  1.000000e+00  0.000000e+00  0.000000e+00
    outer loop
      vertex   8.310059e+01  6.392334e+00 -1.214539e+00
      vertex   8.310059e+01  6.328491e+00  1.165527e+00
      vertex   8.310059e+01  6.241333e+00 -1.089172e+00
    endloop
  endfacet
  facet normal  1.000000e+00  0.000000e+00 -0.000000e+00
    outer loop
      vertex   8.310059e+01  6.241333e+00 -1.089172e+00
      vertex   8.310059e+01  6.328491e+00  1.165527e+00
      vertex   8.310059e+01  6.184448e+00  1.032166e+00
    endloop
  endfacet
  facet normal  1.000000e+00  0.000000e+00  0.000000e+00
    outer loop
      vertex   8.310059e+01  6.241333e+00 -1.089172e+00
      vertex   8.310059e+01  6.184448e+00  1.032166e+00
      vertex   8.310059e+01  6.108032e+00 -9.451294e-01
    endloop
  endfacet
  facet normal  1.000000e+00  0.000000e+00 -0.000000e+00
    outer loop
      vertex   8.310059e+01  6.108032e+00 -9.451294e-01
      vertex   8.310059e+01  6.184448e+00  1.032166e+00
      vertex   8.310059e+01  6.058960e+00  8.811646e-01
    endloop
  endfacet
  facet normal  1.000000e+00  0.000000e+00  0.000000e+00
    outer loop
      vertex   8.310059e+01  6.108032e+00 -9.451294e-01
      vertex   8.310059e+01  6.058960e+00  8.811646e-01
      vertex   8.310059e+01  5.994629e+00 -7.849121e-01
    endloop
  endfacet
  facet normal  1.000000e+00  0.000000e+00 -0.000000e+00
    outer loop
      vertex   8.310059e+01  5.994629e+00 -7.849121e-01
      vertex   8.310059e+01  6.058960e+00  8.811646e-01
      vertex   8.310059e+01  5.954346e+00  7.150879e-01
    endloop
  endfacet
  facet normal  1.000000e+00  0.000000e+00  0.000000e+00
    outer loop
      vertex   8.310059e+01  5.994629e+00 -7.849121e-01
      vertex   8.310059e+01  5.954346e+00  7.150879e-01
      vertex   8.310059e+01  5.903198e+00 -6.112671e-01
    endloop
  endfacet
  facet normal  1.000000e+00  0.000000e+00 -0.000000e+00
    outer loop
      vertex   8.310059e+01  5.903198e+00 -6.112671e-01
      vertex   8.310059e+01  5.954346e+00  7.150879e-01
      vertex   8.310059e+01  5.872314e+00  5.368042e-01
    endloop
  endfacet
  facet normal  1.000000e+00  0.000000e+00  0.000000e+00
    outer loop
      vertex   8.310059e+01  5.903198e+00 -6.112671e-01
      vertex   8.310059e+01  5.872314e+00  5.368042e-01
      vertex   8.310059e+01  5.835083e+00 -4.271240e-01
    endloop
  endfacet
  facet normal  1.000000e+00  0.000000e+00 -0.000000e+00
    outer loop
      vertex   8.310059e+01  5.835083e+00 -4.271240e-01
      vertex   8.310059e+01  5.872314e+00  5.368042e-01
      vertex   8.310059e+01  5.814209e+00  3.493042e-01
    endloop
  endfacet
  facet normal  1.000000e+00  0.000000e+00  0.000000e+00
    outer loop
      vertex   8.310059e+01  5.835083e+00 -4.271240e-01
      vertex   8.310059e+01  5.814209e+00  3.493042e-01
      vertex   8.310059e+01  5.791626e+00 -2.357178e-01
    endloop
  endfacet
  facet normal  1.000000e+00  0.000000e+00 -0.000000e+00
    outer loop
      vertex   8.310059e+01  5.791626e+00 -2.357178e-01
      vertex   8.310059e+01  5.814209e+00  3.493042e-01
      vertex   8.310059e+01  5.781128e+00  1.558228e-01
    endloop
  endfacet
  facet normal  1.000000e+00  0.000000e+00  0.000000e+00
    outer loop
      vertex   8.310059e+01  5.791626e+00 -2.357178e-01
      vertex   8.310059e+01  5.781128e+00  1.558228e-01
      vertex   8.310059e+01  5.773560e+00 -4.028320e-02
    endloop
  endfacet
  facet normal -1.000000e+00  0.000000e+00  0.000000e+00
    outer loop
      vertex  -2.977637e+01  8.765991e+00 -1.558838e-01
      vertex  -2.977637e+01  8.755493e+00  2.357178e-01
      vertex  -2.977637e+01  8.773560e+00  4.028320e-02
    endloop
  endfacet
  facet normal -1.000000e+00  0.000000e+00 -0.000000e+00
    outer loop
      vertex  -2.977637e+01  8.755493e+00  2.357178e-01
      vertex  -2.977637e+01  8.765991e+00 -1.558838e-01
      vertex  -2.977637e+01  8.732910e+00 -3.493042e-01
    endloop
  endfacet
  facet normal -1.000000e+00 -0.000000e+00  0.000000e+00
    outer loop
      vertex  -2.977637e+01  8.755493e+00  2.357178e-01
      vertex  -2.977637e+01  8.732910e+00 -3.493042e-01
      vertex  -2.977637e+01  8.712036e+00  4.271240e-01
    endloop
  endfacet
  facet normal -1.000000e+00  0.000000e+00 -0.000000e+00
    outer loop
      vertex  -2.977637e+01  8.712036e+00  4.271240e-01
      vertex  -2.977637e+01  8.732910e+00 -3.493042e-01
      vertex  -2.977637e+01  8.674805e+00 -5.368042e-01
    endloop
  endfacet
  facet normal -1.000000e+00 -0.000000e+00  0.000000e+00
    outer loop
      vertex  -2.977637e+01  8.712036e+00  4.271240e-01
      vertex  -2.977637e+01  8.674805e+00 -5.368042e-01
      vertex  -2.977637e+01  8.643921e+00  6.112061e-01
    endloop
  endfacet
  facet normal -1.000000e+00  0.000000e+00 -0.000000e+00
    outer loop
      vertex  -2.977637e+01  8.643921e+00  6.112061e-01
      vertex  -2.977637e+01  8.674805e+00 -5.368042e-01
      vertex  -2.977637e+01  8.592773e+00 -7.151489e-01
    endloop
  endfacet
  facet normal -1.000000e+00 -0.000000e+00  0.000000e+00
    outer loop
      vertex  -2.977637e+01  8.643921e+00  6.112061e-01
      vertex  -2.977637e+01  8.592773e+00 -7.151489e-01
      vertex  -2.977637e+01  8.552490e+00  7.848511e-01
    endloop
  endfacet
  facet normal -1.000000e+00  0.000000e+00 -0.000000e+00
    outer loop
      vertex  -2.977637e+01  8.552490e+00  7.848511e-01
      vertex  -2.977637e+01  8.592773e+00 -7.151489e-01
      vertex  -2.977637e+01  8.488159e+00 -8.811646e-01
    endloop
  endfacet
  facet normal -1.000000e+00 -0.000000e+00  0.000000e+00
    outer loop
      vertex  -2.977637e+01  8.552490e+00  7.848511e-01
      vertex  -2.977637e+01  8.488159e+00 -8.811646e-01
      vertex  -2.977637e+01  8.439087e+00  9.450684e-01
    endloop
  endfacet
  facet normal -1.000000e+00  0.000000e+00 -0.000000e+00
    outer loop
      vertex  -2.977637e+01  8.439087e+00  9.450684e-01
      vertex  -2.977637e+01  8.488159e+00 -8.811646e-01
      vertex  -2.977637e+01  8.362671e+00 -1.032166e+00
    endloop
  endfacet
  facet normal -1.000000e+00 -0.000000e+00  0.000000e+00
    outer loop
      vertex  -2.977637e+01  8.439087e+00  9.450684e-01
      vertex  -2.977637e+01  8.362671e+00 -1.032166e+00
      vertex  -2.977637e+01  8.305786e+00  1.089111e+00
    endloop
  endfacet
  facet normal -1.000000e+00  0.000000e+00 -0.000000e+00
    outer loop
      vertex  -2.977637e+01  8.305786e+00  1.089111e+00
      vertex  -2.977637e+01  8.362671e+00 -1.032166e+00
      vertex  -2.977637e+01  8.218628e+00 -1.165527e+00
    endloop
  endfacet
  facet normal -1.000000e+00 -0.000000e+00  0.000000e+00
    outer loop
      vertex  -2.977637e+01  8.305786e+00  1.089111e+00
      vertex  -2.977637e+01  8.218628e+00 -1.165527e+00
      vertex  -2.977637e+01  8.154785e+00  1.214539e+00
    endloop
  endfacet
  facet normal -1.000000e+00  0.000000e+00 -0.000000e+00
    outer loop
      vertex  -2.977637e+01  8.154785e+00  1.214539e+00
      vertex  -2.977637e+01  8.218628e+00 -1.165527e+00
      vertex  -2.977637e+01  8.058472e+00 -1.278931e+00
    endloop
  endfacet
  facet normal -1.000000e+00 -0.000000e+00  0.000000e+00
    outer loop
      vertex  -2.977637e+01  8.154785e+00  1.214539e+00
      vertex  -2.977637e+01  8.058472e+00 -1.278931e+00
      vertex  -2.977637e+01  7.988647e+00  1.319153e+00
    endloop
  endfacet
  facet normal -1.000000e+00  0.000000e+00 -0.000000e+00
    outer loop
      vertex  -2.977637e+01  7.988647e+00  1.319153e+00
      vertex  -2.977637e+01  8.058472e+00 -1.278931e+00
      vertex  -2.977637e+01  7.884766e+00 -1.370422e+00
    endloop
  endfacet
  facet normal -1.000000e+00 -0.000000e+00  0.000000e+00
    outer loop
      vertex  -2.977637e+01  7.988647e+00  1.319153e+00
      vertex  -2.977637e+01  7.884766e+00 -1.370422e+00
      vertex  -2.977637e+01  7.810425e+00  1.401245e+00
    endloop
  endfacet
  facet normal -1.000000e+00  0.000000e+00 -0.000000e+00
    outer loop
      vertex  -2.977637e+01  7.810425e+00  1.401245e+00
      vertex  -2.977637e+01  7.884766e+00 -1.370422e+00
      vertex  -2.977637e+01  7.700684e+00 -1.438477e+00
    endloop
  endfacet
  facet normal -1.000000e+00 -0.000000e+00  0.000000e+00
    outer loop
      vertex  -2.977637e+01  7.810425e+00  1.401245e+00
      vertex  -2.977637e+01  7.700684e+00 -1.438477e+00
      vertex  -2.977637e+01  7.622925e+00  1.459290e+00
    endloop
  endfacet
  facet normal -1.000000e+00  0.000000e+00 -0.000000e+00
    outer loop
      vertex  -2.977637e+01  7.622925e+00  1.459290e+00
      vertex  -2.977637e+01  7.700684e+00 -1.438477e+00
      vertex  -2.977637e+01  7.509277e+00 -1.481934e+00
    endloop
  endfacet
  facet normal -1.000000e+00 -0.000000e+00  0.000000e+00
    outer loop
      vertex  -2.977637e+01  7.622925e+00  1.459290e+00
      vertex  -2.977637e+01  7.509277e+00 -1.481934e+00
      vertex  -2.977637e+01  7.429443e+00  1.492432e+00
    endloop
  endfacet
  facet normal -1.000000e+00  0.000000e+00 -0.000000e+00
    outer loop
      vertex  -2.977637e+01  7.429443e+00  1.492432e+00
      vertex  -2.977637e+01  7.509277e+00 -1.481934e+00
      vertex  -2.977637e+01  7.313843e+00 -1.500000e+00
    endloop
  endfacet
  facet normal -1.000000e+00 -0.000000e+00  0.000000e+00
    outer loop
      vertex  -2.977637e+01  7.429443e+00  1.492432e+00
      vertex  -2.977637e+01  7.313843e+00 -1.500000e+00
      vertex  -2.977637e+01  7.233276e+00  1.500000e+00
    endloop
  endfacet
  facet normal -1.000000e+00  0.000000e+00 -0.000000e+00
    outer loop
      vertex  -2.977637e+01  7.233276e+00  1.500000e+00
      vertex  -2.977637e+01  7.313843e+00 -1.500000e+00
      vertex  -2.977637e+01  7.117676e+00 -1.492432e+00
    endloop
  endfacet
  facet normal -1.000000e+00  0.000000e+00  0.000000e+00
    outer loop
      vertex  -2.977637e+01  7.233276e+00  1.500000e+00
      vertex  -2.977637e+01  7.117676e+00 -1.492432e+00
      vertex  -2.977637e+01  7.037842e+00  1.481873e+00
    endloop
  endfacet
  facet normal -1.000000e+00  0.000000e+00 -0.000000e+00
    outer loop
      vertex  -2.977637e+01  7.037842e+00  1.481873e+00
      vertex  -2.977637e+01  7.117676e+00 -1.492432e+00
      vertex  -2.977637e+01  6.924194e+00 -1.459351e+00
    endloop
  endfacet
  facet normal -1.000000e+00  0.000000e+00  0.000000e+00
    outer loop
      vertex  -2.977637e+01  7.037842e+00  1.481873e+00
      vertex  -2.977637e+01  6.924194e+00 -1.459351e+00
      vertex  -2.977637e+01  6.846436e+00  1.438477e+00
    endloop
  endfacet
  facet normal -1.000000e+00  0.000000e+00 -0.000000e+00
    outer loop
      vertex  -2.977637e+01  6.846436e+00  1.438477e+00
      vertex  -2.977637e+01  6.924194e+00 -1.459351e+00
      vertex  -2.977637e+01  6.736816e+00 -1.401245e+00
    endloop
  endfacet
  facet normal -1.000000e+00  0.000000e+00  0.000000e+00
    outer loop
      vertex  -2.977637e+01  6.846436e+00  1.438477e+00
      vertex  -2.977637e+01  6.736816e+00 -1.401245e+00
      vertex  -2.977637e+01  6.662354e+00  1.370422e+00
    endloop
  endfacet
  facet normal -1.000000e+00  0.000000e+00 -0.000000e+00
    outer loop
      vertex  -2.977637e+01  6.662354e+00  1.370422e+00
      vertex  -2.977637e+01  6.736816e+00 -1.401245e+00
      vertex  -2.977637e+01  6.558472e+00 -1.319214e+00
    endloop
  endfacet
  facet normal -1.000000e+00  0.000000e+00  0.000000e+00
    outer loop
      vertex  -2.977637e+01  6.662354e+00  1.370422e+00
      vertex  -2.977637e+01  6.558472e+00 -1.319214e+00
      vertex  -2.977637e+01  6.488647e+00  1.278870e+00
    endloop
  endfacet
  facet normal -1.000000e+00  0.000000e+00 -0.000000e+00
    outer loop
      vertex  -2.977637e+01  6.488647e+00  1.278870e+00
      vertex  -2.977637e+01  6.558472e+00 -1.319214e+00
      vertex  -2.977637e+01  6.392334e+00 -1.214539e+00
    endloop
  endfacet
  facet normal -1.000000e+00  0.000000e+00  0.000000e+00
    outer loop
      vertex  -2.977637e+01  6.488647e+00  1.278870e+00
      vertex  -2.977637e+01  6.392334e+00 -1.214539e+00
      vertex  -2.977637e+01  6.328491e+00  1.165527e+00
    endloop
  endfacet
  facet normal -1.000000e+00  0.000000e+00 -0.000000e+00
    outer loop
      vertex  -2.977637e+01  6.328491e+00  1.165527e+00
      vertex  -2.977637e+01  6.392334e+00 -1.214539e+00
      vertex  -2.977637e+01  6.241333e+00 -1.089172e+00
    endloop
  endfacet
  facet normal -1.000000e+00  0.000000e+00  0.000000e+00
    outer loop
      vertex  -2.977637e+01  6.328491e+00  1.165527e+00
      vertex  -2.977637e+01  6.241333e+00 -1.089172e+00
      vertex  -2.977637e+01  6.184448e+00  1.032166e+00
    endloop
  endfacet
  facet normal -1.000000e+00  0.000000e+00 -0.000000e+00
    outer loop
      vertex  -2.977637e+01  6.184448e+00  1.032166e+00
      vertex  -2.977637e+01  6.241333e+00 -1.089172e+00
      vertex  -2.977637e+01  6.108032e+00 -9.451294e-01
    endloop
  endfacet
  facet normal -1.000000e+00  0.000000e+00  0.000000e+00
    outer loop
      vertex  -2.977637e+01  6.184448e+00  1.032166e+00
      vertex  -2.977637e+01  6.108032e+00 -9.451294e-01
      vertex  -2.977637e+01  6.058960e+00  8.811646e-01
    endloop
  endfacet
  facet normal -1.000000e+00  0.000000e+00 -0.000000e+00
    outer loop
      vertex  -2.977637e+01  6.058960e+00  8.811646e-01
      vertex  -2.977637e+01  6.108032e+00 -9.451294e-01
      vertex  -2.977637e+01  5.994629e+00 -7.849121e-01
    endloop
  endfacet
  facet normal -1.000000e+00  0.000000e+00  0.000000e+00
    outer loop
      vertex  -2.977637e+01  6.058960e+00  8.811646e-01
      vertex  -2.977637e+01  5.994629e+00 -7.849121e-01
      vertex  -2.977637e+01  5.954346e+00  7.150879e-01
    endloop
  endfacet
  facet normal -1.000000e+00  0.000000e+00 -0.000000e+00
    outer loop
      vertex  -2.977637e+01  5.954346e+00  7.150879e-01
      vertex  -2.977637e+01  5.994629e+00 -7.849121e-01
      vertex  -2.977637e+01  5.903198e+00 -6.112671e-01
    endloop
  endfacet
  facet normal -1.000000e+00  0.000000e+00  0.000000e+00
    outer loop
      vertex  -2.977637e+01  5.954346e+00  7.150879e-01
      vertex  -2.977637e+01  5.903198e+00 -6.112671e-01
      vertex  -2.977637e+01  5.872314e+00  5.368042e-01
    endloop
  endfacet
  facet normal -1.000000e+00  0.000000e+00 -0.000000e+00
    outer loop
      vertex  -2.977637e+01  5.872314e+00  5.368042e-01
      vertex  -2.977637e+01  5.903198e+00 -6.112671e-01
      vertex  -2.977637e+01  5.835083e+00 -4.271240e-01
    endloop
  endfacet
  facet normal -1.000000e+00  0.000000e+00  0.000000e+00
    outer loop
      vertex  -2.977637e+01  5.872314e+00  5.368042e-01
      vertex  -2.977637e+01  5.835083e+00 -4.271240e-01
      vertex  -2.977637e+01  5.814209e+00  3.493042e-01
    endloop
  endfacet
  facet normal -1.000000e+00  0.000000e+00 -0.000000e+00
    outer loop
      vertex  -2.977637e+01  5.814209e+00  3.493042e-01
      vertex  -2.977637e+01  5.835083e+00 -4.271240e-01
      vertex  -2.977637e+01  5.791626e+00 -2.357178e-01
    endloop
  endfacet
  facet normal -1.000000e+00  0.000000e+00  0.000000e+00
    outer loop
      vertex  -2.977637e+01  5.814209e+00  3.493042e-01
      vertex  -2.977637e+01  5.791626e+00 -2.357178e-01
      vertex  -2.977637e+01  5.781128e+00  1.558228e-01
    endloop
  endfacet
  facet normal -1.000000e+00  0.000000e+00 -0.000000e+00
    outer loop
      vertex  -2.977637e+01  5.781128e+00  1.558228e-01
      vertex  -2.977637e+01  5.791626e+00 -2.357178e-01
      vertex  -2.977637e+01  5.773560e+00 -4.028320e-02
    endloop
  endfacet
  facet normal -0.000000e+00  9.751817e-01  2.214061e-01
    outer loop
      vertex  -2.977637e+01  8.755493e+00  2.357178e-01
      vertex   8.310059e+01  8.712036e+00  4.271240e-01
      vertex   8.310059e+01  8.755493e+00  2.357178e-01
    endloop
  endfacet
  facet normal  0.000000e+00  9.751817e-01  2.214061e-01
    outer loop
      vertex   8.310059e+01  8.712036e+00  4.271240e-01
      vertex  -2.977637e+01  8.755493e+00  2.357178e-01
      vertex  -2.977637e+01  8.712036e+00  4.271240e-01
    endloop
  endfacet
  facet normal -0.000000e+00  9.378538e-01  3.470308e-01
    outer loop
      vertex  -2.977637e+01  8.712036e+00  4.271240e-01
      vertex   8.310059e+01  8.643921e+00  6.112061e-01
      vertex   8.310059e+01  8.712036e+00  4.271240e-01
    endloop
  endfacet
  facet normal  0.000000e+00  9.378538e-01  3.470308e-01
    outer loop
      vertex   8.310059e+01  8.643921e+00  6.112061e-01
      vertex  -2.977637e+01  8.712036e+00  4.271240e-01
      vertex  -2.977637e+01  8.643921e+00  6.112061e-01
    endloop
  endfacet
  facet normal -0.000000e+00  8.848373e-01  4.659002e-01
    outer loop
      vertex  -2.977637e+01  8.643921e+00  6.112061e-01
      vertex   8.310059e+01  8.552490e+00  7.848511e-01
      vertex   8.310059e+01  8.643921e+00  6.112061e-01
    endloop
  endfacet
  facet normal  0.000000e+00  8.848373e-01  4.659002e-01
    outer loop
      vertex   8.310059e+01  8.552490e+00  7.848511e-01
      vertex  -2.977637e+01  8.643921e+00  6.112061e-01
      vertex  -2.977637e+01  8.552490e+00  7.848511e-01
    endloop
  endfacet
  facet normal -0.000000e+00  8.162261e-01  5.777326e-01
    outer loop
      vertex  -2.977637e+01  8.552490e+00  7.848511e-01
      vertex   8.310059e+01  8.439087e+00  9.450684e-01
      vertex   8.310059e+01  8.552490e+00  7.848511e-01
    endloop
  endfacet
  facet normal  0.000000e+00  8.162261e-01  5.777326e-01
    outer loop
      vertex   8.310059e+01  8.439087e+00  9.450684e-01
      vertex  -2.977637e+01  8.552490e+00  7.848511e-01
      vertex  -2.977637e+01  8.439087e+00  9.450684e-01
    endloop
  endfacet
  facet normal -0.000000e+00  7.339444e-01  6.792095e-01
    outer loop
      vertex  -2.977637e+01  8.439087e+00  9.450684e-01
      vertex   8.310059e+01  8.305786e+00  1.089111e+00
      vertex   8.310059e+01  8.439087e+00  9.450684e-01
    endloop
  endfacet
  facet normal  0.000000e+00  7.339444e-01  6.792095e-01
    outer loop
      vertex   8.310059e+01  8.305786e+00  1.089111e+00
      vertex  -2.977637e+01  8.439087e+00  9.450684e-01
      vertex  -2.977637e+01  8.305786e+00  1.089111e+00
    endloop
  endfacet
  facet normal  0.000000e+00  6.389602e-01  7.692398e-01
    outer loop
      vertex   8.310059e+01  8.305786e+00  1.089111e+00
      vertex  -2.977637e+01  8.154785e+00  1.214539e+00
      vertex   8.310059e+01  8.154785e+00  1.214539e+00
    endloop
  endfacet
  facet normal  0.000000e+00  6.389602e-01  7.692398e-01
    outer loop
      vertex  -2.977637e+01  8.154785e+00  1.214539e+00
      vertex   8.310059e+01  8.305786e+00  1.089111e+00
      vertex  -2.977637e+01  8.305786e+00  1.089111e+00
    endloop
  endfacet
  facet normal  0.000000e+00  5.328463e-01  8.462121e-01
    outer loop
      vertex   8.310059e+01  8.154785e+00  1.214539e+00
      vertex  -2.977637e+01  7.988647e+00  1.319153e+00
      vertex   8.310059e+01  7.988647e+00  1.319153e+00
    endloop
  endfacet
  facet normal  0.000000e+00  5.328463e-01  8.462121e-01
    outer loop
      vertex  -2.977637e+01  7.988647e+00  1.319153e+00
      vertex   8.310059e+01  8.154785e+00  1.214539e+00
      vertex  -2.977637e+01  8.154785e+00  1.214539e+00
    endloop
  endfacet
  facet normal  0.000000e+00  4.183677e-01  9.082778e-01
    outer loop
      vertex   8.310059e+01  7.988647e+00  1.319153e+00
      vertex  -2.977637e+01  7.810425e+00  1.401245e+00
      vertex   8.310059e+01  7.810425e+00  1.401245e+00
    endloop
  endfacet
  facet normal  0.000000e+00  4.183677e-01  9.082778e-01
    outer loop
      vertex  -2.977637e+01  7.810425e+00  1.401245e+00
      vertex   8.310059e+01  7.988647e+00  1.319153e+00
      vertex  -2.977637e+01  7.988647e+00  1.319153e+00
    endloop
  endfacet
  facet normal  0.000000e+00  2.957243e-01  9.552733e-01
    outer loop
      vertex   8.310059e+01  7.810425e+00  1.401245e+00
      vertex  -2.977637e+01  7.622925e+00  1.459290e+00
      vertex   8.310059e+01  7.622925e+00  1.459290e+00
    endloop
  endfacet
  facet normal  0.000000e+00  2.957243e-01  9.552733e-01
    outer loop
      vertex  -2.977637e+01  7.622925e+00  1.459290e+00
      vertex   8.310059e+01  7.810425e+00  1.401245e+00
      vertex  -2.977637e+01  7.810425e+00  1.401245e+00
    endloop
  endfacet
  facet normal  0.000000e+00  1.688344e-01  9.856444e-01
    outer loop
      vertex   8.310059e+01  7.622925e+00  1.459290e+00
      vertex  -2.977637e+01  7.429443e+00  1.492432e+00
      vertex   8.310059e+01  7.429443e+00  1.492432e+00
    endloop
  endfacet
  facet normal  0.000000e+00  1.688344e-01  9.856444e-01
    outer loop
      vertex  -2.977637e+01  7.429443e+00  1.492432e+00
      vertex   8.310059e+01  7.622925e+00  1.459290e+00
      vertex  -2.977637e+01  7.622925e+00  1.459290e+00
    endloop
  endfacet
  facet normal -0.000000e+00  3.855252e-02  9.992566e-01
    outer loop
      vertex  -2.977637e+01  7.429443e+00  1.492432e+00
      vertex   8.310059e+01  7.233276e+00  1.500000e+00
      vertex   8.310059e+01  7.429443e+00  1.492432e+00
    endloop
  endfacet
  facet normal  0.000000e+00  3.855252e-02  9.992566e-01
    outer loop
      vertex   8.310059e+01  7.233276e+00  1.500000e+00
      vertex  -2.977637e+01  7.429443e+00  1.492432e+00
      vertex  -2.977637e+01  7.233276e+00  1.500000e+00
    endloop
  endfacet
  facet normal  0.000000e+00 -9.235808e-02  9.957259e-01
    outer loop
      vertex  -2.977637e+01  7.233276e+00  1.500000e+00
      vertex   8.310059e+01  7.037842e+00  1.481873e+00
      vertex   8.310059e+01  7.233276e+00  1.500000e+00
    endloop
  endfacet
  facet normal  0.000000e+00 -9.235808e-02  9.957259e-01
    outer loop
      vertex   8.310059e+01  7.037842e+00  1.481873e+00
      vertex  -2.977637e+01  7.233276e+00  1.500000e+00
      vertex  -2.977637e+01  7.037842e+00  1.481873e+00
    endloop
  endfacet
  facet normal  0.000000e+00 -2.211103e-01  9.752488e-01
    outer loop
      vertex  -2.977637e+01  7.037842e+00  1.481873e+00
      vertex   8.310059e+01  6.846436e+00  1.438477e+00
      vertex   8.310059e+01  7.037842e+00  1.481873e+00
    endloop
  endfacet
  facet normal  0.000000e+00 -2.211103e-01  9.752488e-01
    outer loop
      vertex   8.310059e+01  6.846436e+00  1.438477e+00
      vertex  -2.977637e+01  7.037842e+00  1.481873e+00
      vertex  -2.977637e+01  6.846436e+00  1.438477e+00
    endloop
  endfacet
  facet normal  0.000000e+00 -3.467572e-01  9.379550e-01
    outer loop
      vertex  -2.977637e+01  6.846436e+00  1.438477e+00
      vertex   8.310059e+01  6.662354e+00  1.370422e+00
      vertex   8.310059e+01  6.846436e+00  1.438477e+00
    endloop
  endfacet
  facet normal  0.000000e+00 -3.467572e-01  9.379550e-01
    outer loop
      vertex   8.310059e+01  6.662354e+00  1.370422e+00
      vertex  -2.977637e+01  6.846436e+00  1.438477e+00
      vertex  -2.977637e+01  6.662354e+00  1.370422e+00
    endloop
  endfacet
  facet normal  0.000000e+00 -4.662588e-01  8.846484e-01
    outer loop
      vertex  -2.977637e+01  6.662354e+00  1.370422e+00
      vertex   8.310059e+01  6.488647e+00  1.278870e+00
      vertex   8.310059e+01  6.662354e+00  1.370422e+00
    endloop
  endfacet
  facet normal  0.000000e+00 -4.662588e-01  8.846484e-01
    outer loop
      vertex   8.310059e+01  6.488647e+00  1.278870e+00
      vertex  -2.977637e+01  6.662354e+00  1.370422e+00
      vertex  -2.977637e+01  6.488647e+00  1.278870e+00
    endloop
  endfacet
  facet normal  0.000000e+00 -5.776720e-01  8.162689e-01
    outer loop
      vertex  -2.977637e+01  6.488647e+00  1.278870e+00
      vertex   8.310059e+01  6.328491e+00  1.165527e+00
      vertex   8.310059e+01  6.488647e+00  1.278870e+00
    endloop
  endfacet
  facet normal  0.000000e+00 -5.776720e-01  8.162689e-01
    outer loop
      vertex   8.310059e+01  6.328491e+00  1.165527e+00
      vertex  -2.977637e+01  6.488647e+00  1.278870e+00
      vertex  -2.977637e+01  6.328491e+00  1.165527e+00
    endloop
  endfacet
  facet normal  0.000000e+00 -6.793770e-01  7.337894e-01
    outer loop
      vertex  -2.977637e+01  6.328491e+00  1.165527e+00
      vertex   8.310059e+01  6.184448e+00  1.032166e+00
      vertex   8.310059e+01  6.328491e+00  1.165527e+00
    endloop
  endfacet
  facet normal  0.000000e+00 -6.793770e-01  7.337894e-01
    outer loop
      vertex   8.310059e+01  6.184448e+00  1.032166e+00
      vertex  -2.977637e+01  6.328491e+00  1.165527e+00
      vertex  -2.977637e+01  6.184448e+00  1.032166e+00
    endloop
  endfacet
  facet normal  0.000000e+00 -7.690870e-01  6.391442e-01
    outer loop
      vertex   8.310059e+01  6.184448e+00  1.032166e+00
      vertex  -2.977637e+01  6.058960e+00  8.811646e-01
      vertex   8.310059e+01  6.058960e+00  8.811646e-01
    endloop
  endfacet
  facet normal  0.000000e+00 -7.690870e-01  6.391442e-01
    outer loop
      vertex  -2.977637e+01  6.058960e+00  8.811646e-01
      vertex   8.310059e+01  6.184448e+00  1.032166e+00
      vertex  -2.977637e+01  6.184448e+00  1.032166e+00
    endloop
  endfacet
  facet normal  0.000000e+00 -8.461238e-01  5.329865e-01
    outer loop
      vertex   8.310059e+01  6.058960e+00  8.811646e-01
      vertex  -2.977637e+01  5.954346e+00  7.150879e-01
      vertex   8.310059e+01  5.954346e+00  7.150879e-01
    endloop
  endfacet
  facet normal  0.000000e+00 -8.461238e-01  5.329865e-01
    outer loop
      vertex  -2.977637e+01  5.954346e+00  7.150879e-01
      vertex   8.310059e+01  6.058960e+00  8.811646e-01
      vertex  -2.977637e+01  6.058960e+00  8.811646e-01
    endloop
  endfacet
  facet normal  0.000000e+00 -9.084504e-01  4.179929e-01
    outer loop
      vertex   8.310059e+01  5.954346e+00  7.150879e-01
      vertex  -2.977637e+01  5.872314e+00  5.368042e-01
      vertex   8.310059e+01  5.872314e+00  5.368042e-01
    endloop
  endfacet
  facet normal  0.000000e+00 -9.084504e-01  4.179929e-01
    outer loop
      vertex  -2.977637e+01  5.872314e+00  5.368042e-01
      vertex   8.310059e+01  5.954346e+00  7.150879e-01
      vertex  -2.977637e+01  5.954346e+00  7.150879e-01
    endloop
  endfacet
  facet normal  0.000000e+00 -9.551855e-01  2.960080e-01
    outer loop
      vertex   8.310059e+01  5.872314e+00  5.368042e-01
      vertex  -2.977637e+01  5.814209e+00  3.493042e-01
      vertex   8.310059e+01  5.814209e+00  3.493042e-01
    endloop
  endfacet
  facet normal  0.000000e+00 -9.551855e-01  2.960080e-01
    outer loop
      vertex  -2.977637e+01  5.814209e+00  3.493042e-01
      vertex   8.310059e+01  5.872314e+00  5.368042e-01
      vertex  -2.977637e+01  5.872314e+00  5.368042e-01
    endloop
  endfacet
  facet normal  0.000000e+00 -9.856961e-01  1.685323e-01
    outer loop
      vertex   8.310059e+01  5.814209e+00  3.493042e-01
      vertex  -2.977637e+01  5.781128e+00  1.558228e-01
      vertex   8.310059e+01  5.781128e+00  1.558228e-01
    endloop
  endfacet
  facet normal  0.000000e+00 -9.856961e-01  1.685323e-01
    outer loop
      vertex  -2.977637e+01  5.781128e+00  1.558228e-01
      vertex   8.310059e+01  5.814209e+00  3.493042e-01
      vertex  -2.977637e+01  5.814209e+00  3.493042e-01
    endloop
  endfacet
  facet normal  0.000000e+00 -9.992561e-01  3.856450e-02
    outer loop
      vertex   8.310059e+01  5.781128e+00  1.558228e-01
      vertex  -2.977637e+01  5.773560e+00 -4.028320e-02
      vertex   8.310059e+01  5.773560e+00 -4.028320e-02
    endloop
  endfacet
  facet normal  0.000000e+00 -9.992561e-01  3.856450e-02
    outer loop
      vertex  -2.977637e+01  5.773560e+00 -4.028320e-02
      vertex   8.310059e+01  5.781128e+00  1.558228e-01
      vertex  -2.977637e+01  5.781128e+00  1.558228e-01
    endloop
  endfacet
  facet normal  0.000000e+00 -9.957544e-01 -9.204976e-02
    outer loop
      vertex   8.310059e+01  5.773560e+00 -4.028320e-02
      vertex  -2.977637e+01  5.791626e+00 -2.357178e-01
      vertex   8.310059e+01  5.791626e+00 -2.357178e-01
    endloop
  endfacet
  facet normal  0.000000e+00 -9.957544e-01 -9.204976e-02
    outer loop
      vertex  -2.977637e+01  5.791626e+00 -2.357178e-01
      vertex   8.310059e+01  5.773560e+00 -4.028320e-02
      vertex  -2.977637e+01  5.773560e+00 -4.028320e-02
    endloop
  endfacet
  facet normal  0.000000e+00 -9.751817e-01 -2.214061e-01
    outer loop
      vertex   8.310059e+01  5.791626e+00 -2.357178e-01
      vertex  -2.977637e+01  5.835083e+00 -4.271240e-01
      vertex   8.310059e+01  5.835083e+00 -4.271240e-01
    endloop
  endfacet
  facet normal  0.000000e+00 -9.751817e-01 -2.214061e-01
    outer loop
      vertex  -2.977637e+01  5.835083e+00 -4.271240e-01
      vertex   8.310059e+01  5.791626e+00 -2.357178e-01
      vertex  -2.977637e+01  5.791626e+00 -2.357178e-01
    endloop
  endfacet
  facet normal  0.000000e+00 -9.378912e-01 -3.469296e-01
    outer loop
      vertex   8.310059e+01  5.835083e+00 -4.271240e-01
      vertex  -2.977637e+01  5.903198e+00 -6.112671e-01
      vertex   8.310059e+01  5.903198e+00 -6.112671e-01
    endloop
  endfacet
  facet normal  0.000000e+00 -9.378912e-01 -3.469296e-01
    outer loop
      vertex  -2.977637e+01  5.903198e+00 -6.112671e-01
      vertex   8.310059e+01  5.835083e+00 -4.271240e-01
      vertex  -2.977637e+01  5.835083e+00 -4.271240e-01
    endloop
  endfacet
  facet normal  0.000000e+00 -8.848373e-01 -4.659002e-01
    outer loop
      vertex   8.310059e+01  5.903198e+00 -6.112671e-01
      vertex  -2.977637e+01  5.994629e+00 -7.849121e-01
      vertex   8.310059e+01  5.994629e+00 -7.849121e-01
    endloop
  endfacet
  facet normal  0.000000e+00 -8.848373e-01 -4.659002e-01
    outer loop
      vertex  -2.977637e+01  5.994629e+00 -7.849121e-01
      vertex   8.310059e+01  5.903198e+00 -6.112671e-01
      vertex  -2.977637e+01  5.903198e+00 -6.112671e-01
    endloop
  endfacet
  facet normal  0.000000e+00 -8.162261e-01 -5.777326e-01
    outer loop
      vertex   8.310059e+01  5.994629e+00 -7.849121e-01
      vertex  -2.977637e+01  6.108032e+00 -9.451294e-01
      vertex   8.310059e+01  6.108032e+00 -9.451294e-01
    endloop
  endfacet
  facet normal  0.000000e+00 -8.162261e-01 -5.777326e-01
    outer loop
      vertex  -2.977637e+01  6.108032e+00 -9.451294e-01
      vertex   8.310059e+01  5.994629e+00 -7.849121e-01
      vertex  -2.977637e+01  5.994629e+00 -7.849121e-01
    endloop
  endfacet
  facet normal  0.000000e+00 -7.339444e-01 -6.792095e-01
    outer loop
      vertex   8.310059e+01  6.108032e+00 -9.451294e-01
      vertex  -2.977637e+01  6.241333e+00 -1.089172e+00
      vertex   8.310059e+01  6.241333e+00 -1.089172e+00
    endloop
  endfacet
  facet normal  0.000000e+00 -7.339444e-01 -6.792095e-01
    outer loop
      vertex  -2.977637e+01  6.241333e+00 -1.089172e+00
      vertex   8.310059e+01  6.108032e+00 -9.451294e-01
      vertex  -2.977637e+01  6.108032e+00 -9.451294e-01
    endloop
  endfacet
  facet normal  0.000000e+00 -6.387762e-01 -7.693926e-01
    outer loop
      vertex  -2.977637e+01  6.241333e+00 -1.089172e+00
      vertex   8.310059e+01  6.392334e+00 -1.214539e+00
      vertex   8.310059e+01  6.241333e+00 -1.089172e+00
    endloop
  endfacet
  facet normal -0.000000e+00 -6.387762e-01 -7.693926e-01
    outer loop
      vertex   8.310059e+01  6.392334e+00 -1.214539e+00
      vertex  -2.977637e+01  6.241333e+00 -1.089172e+00
      vertex  -2.977637e+01  6.392334e+00 -1.214539e+00
    endloop
  endfacet
  facet normal  0.000000e+00 -5.330688e-01 -8.460719e-01
    outer loop
      vertex  -2.977637e+01  6.392334e+00 -1.214539e+00
      vertex   8.310059e+01  6.558472e+00 -1.319214e+00
      vertex   8.310059e+01  6.392334e+00 -1.214539e+00
    endloop
  endfacet
  facet normal -0.000000e+00 -5.330688e-01 -8.460719e-01
    outer loop
      vertex   8.310059e+01  6.558472e+00 -1.319214e+00
      vertex  -2.977637e+01  6.392334e+00 -1.214539e+00
      vertex  -2.977637e+01  6.558472e+00 -1.319214e+00
    endloop
  endfacet
  facet normal  0.000000e+00 -4.178748e-01 -9.085046e-01
    outer loop
      vertex  -2.977637e+01  6.558472e+00 -1.319214e+00
      vertex   8.310059e+01  6.736816e+00 -1.401245e+00
      vertex   8.310059e+01  6.558472e+00 -1.319214e+00
    endloop
  endfacet
  facet normal -0.000000e+00 -4.178748e-01 -9.085046e-01
    outer loop
      vertex   8.310059e+01  6.736816e+00 -1.401245e+00
      vertex  -2.977637e+01  6.558472e+00 -1.319214e+00
      vertex  -2.977637e+01  6.736816e+00 -1.401245e+00
    endloop
  endfacet
  facet normal  0.000000e+00 -2.961839e-01 -9.551309e-01
    outer loop
      vertex  -2.977637e+01  6.736816e+00 -1.401245e+00
      vertex   8.310059e+01  6.924194e+00 -1.459351e+00
      vertex   8.310059e+01  6.736816e+00 -1.401245e+00
    endloop
  endfacet
  facet normal -0.000000e+00 -2.961839e-01 -9.551309e-01
    outer loop
      vertex   8.310059e+01  6.924194e+00 -1.459351e+00
      vertex  -2.977637e+01  6.736816e+00 -1.401245e+00
      vertex  -2.977637e+01  6.924194e+00 -1.459351e+00
    endloop
  endfacet
  facet normal  0.000000e+00 -1.685323e-01 -9.856961e-01
    outer loop
      vertex  -2.977637e+01  6.924194e+00 -1.459351e+00
      vertex   8.310059e+01  7.117676e+00 -1.492432e+00
      vertex   8.310059e+01  6.924194e+00 -1.459351e+00
    endloop
  endfacet
  facet normal -0.000000e+00 -1.685323e-01 -9.856961e-01
    outer loop
      vertex   8.310059e+01  7.117676e+00 -1.492432e+00
      vertex  -2.977637e+01  6.924194e+00 -1.459351e+00
      vertex  -2.977637e+01  7.117676e+00 -1.492432e+00
    endloop
  endfacet
  facet normal  0.000000e+00 -3.855252e-02 -9.992566e-01
    outer loop
      vertex  -2.977637e+01  7.117676e+00 -1.492432e+00
      vertex   8.310059e+01  7.313843e+00 -1.500000e+00
      vertex   8.310059e+01  7.117676e+00 -1.492432e+00
    endloop
  endfacet
  facet normal -0.000000e+00 -3.855252e-02 -9.992566e-01
    outer loop
      vertex   8.310059e+01  7.313843e+00 -1.500000e+00
      vertex  -2.977637e+01  7.117676e+00 -1.492432e+00
      vertex  -2.977637e+01  7.313843e+00 -1.500000e+00
    endloop
  endfacet
  facet normal  0.000000e+00  9.204976e-02 -9.957544e-01
    outer loop
      vertex   8.310059e+01  7.313843e+00 -1.500000e+00
      vertex  -2.977637e+01  7.509277e+00 -1.481934e+00
      vertex   8.310059e+01  7.509277e+00 -1.481934e+00
    endloop
  endfacet
  facet normal  0.000000e+00  9.204976e-02 -9.957544e-01
    outer loop
      vertex  -2.977637e+01  7.509277e+00 -1.481934e+00
      vertex   8.310059e+01  7.313843e+00 -1.500000e+00
      vertex  -2.977637e+01  7.313843e+00 -1.500000e+00
    endloop
  endfacet
  facet normal  0.000000e+00  2.214061e-01 -9.751817e-01
    outer loop
      vertex   8.310059e+01  7.509277e+00 -1.481934e+00
      vertex  -2.977637e+01  7.700684e+00 -1.438477e+00
      vertex   8.310059e+01  7.700684e+00 -1.438477e+00
    endloop
  endfacet
  facet normal  0.000000e+00  2.214061e-01 -9.751817e-01
    outer loop
      vertex  -2.977637e+01  7.700684e+00 -1.438477e+00
      vertex   8.310059e+01  7.509277e+00 -1.481934e+00
      vertex  -2.977637e+01  7.509277e+00 -1.481934e+00
    endloop
  endfacet
  facet normal  0.000000e+00  3.467572e-01 -9.379550e-01
    outer loop
      vertex   8.310059e+01  7.700684e+00 -1.438477e+00
      vertex  -2.977637e+01  7.884766e+00 -1.370422e+00
      vertex   8.310059e+01  7.884766e+00 -1.370422e+00
    endloop
  endfacet
  facet normal  0.000000e+00  3.467572e-01 -9.379550e-01
    outer loop
      vertex  -2.977637e+01  7.884766e+00 -1.370422e+00
      vertex   8.310059e+01  7.700684e+00 -1.438477e+00
      vertex  -2.977637e+01  7.700684e+00 -1.438477e+00
    endloop
  endfacet
  facet normal  0.000000e+00  4.660155e-01 -8.847766e-01
    outer loop
      vertex   8.310059e+01  7.884766e+00 -1.370422e+00
      vertex  -2.977637e+01  8.058472e+00 -1.278931e+00
      vertex   8.310059e+01  8.058472e+00 -1.278931e+00
    endloop
  endfacet
  facet normal  0.000000e+00  4.660155e-01 -8.847766e-01
    outer loop
      vertex  -2.977637e+01  8.058472e+00 -1.278931e+00
      vertex   8.310059e+01  7.884766e+00 -1.370422e+00
      vertex  -2.977637e+01  7.884766e+00 -1.370422e+00
    endloop
  endfacet
  facet normal  0.000000e+00  5.778793e-01 -8.161223e-01
    outer loop
      vertex   8.310059e+01  8.058472e+00 -1.278931e+00
      vertex  -2.977637e+01  8.218628e+00 -1.165527e+00
      vertex   8.310059e+01  8.218628e+00 -1.165527e+00
    endloop
  endfacet
  facet normal  0.000000e+00  5.778793e-01 -8.161223e-01
    outer loop
      vertex  -2.977637e+01  8.218628e+00 -1.165527e+00
      vertex   8.310059e+01  8.058472e+00 -1.278931e+00
      vertex  -2.977637e+01  8.058472e+00 -1.278931e+00
    endloop
  endfacet
  facet normal  0.000000e+00  6.793770e-01 -7.337894e-01
    outer loop
      vertex   8.310059e+01  8.218628e+00 -1.165527e+00
      vertex  -2.977637e+01  8.362671e+00 -1.032166e+00
      vertex   8.310059e+01  8.362671e+00 -1.032166e+00
    endloop
  endfacet
  facet normal  0.000000e+00  6.793770e-01 -7.337894e-01
    outer loop
      vertex  -2.977637e+01  8.362671e+00 -1.032166e+00
      vertex   8.310059e+01  8.218628e+00 -1.165527e+00
      vertex  -2.977637e+01  8.218628e+00 -1.165527e+00
    endloop
  endfacet
  facet normal  0.000000e+00  7.690870e-01 -6.391442e-01
    outer loop
      vertex  -2.977637e+01  8.362671e+00 -1.032166e+00
      vertex   8.310059e+01  8.488159e+00 -8.811646e-01
      vertex   8.310059e+01  8.362671e+00 -1.032166e+00
    endloop
  endfacet
  facet normal  0.000000e+00  7.690870e-01 -6.391442e-01
    outer loop
      vertex   8.310059e+01  8.488159e+00 -8.811646e-01
      vertex  -2.977637e+01  8.362671e+00 -1.032166e+00
      vertex  -2.977637e+01  8.488159e+00 -8.811646e-01
    endloop
  endfacet
  facet normal  0.000000e+00  8.460354e-01 -5.331267e-01
    outer loop
      vertex  -2.977637e+01  8.488159e+00 -8.811646e-01
      vertex   8.310059e+01  8.592773e+00 -7.151489e-01
      vertex   8.310059e+01  8.488159e+00 -8.811646e-01
    endloop
  endfacet
  facet normal  0.000000e+00  8.460354e-01 -5.331267e-01
    outer loop
      vertex   8.310059e+01  8.592773e+00 -7.151489e-01
      vertex  -2.977637e+01  8.488159e+00 -8.811646e-01
      vertex  -2.977637e+01  8.592773e+00 -7.151489e-01
    endloop
  endfacet
  facet normal  0.000000e+00  9.085046e-01 -4.178748e-01
    outer loop
      vertex  -2.977637e+01  8.592773e+00 -7.151489e-01
      vertex   8.310059e+01  8.674805e+00 -5.368042e-01
      vertex   8.310059e+01  8.592773e+00 -7.151489e-01
    endloop
  endfacet
  facet normal  0.000000e+00  9.085046e-01 -4.178748e-01
    outer loop
      vertex   8.310059e+01  8.674805e+00 -5.368042e-01
      vertex  -2.977637e+01  8.592773e+00 -7.151489e-01
      vertex  -2.977637e+01  8.674805e+00 -5.368042e-01
    endloop
  endfacet
  facet normal  0.000000e+00  9.551855e-01 -2.960080e-01
    outer loop
      vertex  -2.977637e+01  8.674805e+00 -5.368042e-01
      vertex   8.310059e+01  8.732910e+00 -3.493042e-01
      vertex   8.310059e+01  8.674805e+00 -5.368042e-01
    endloop
  endfacet
  facet normal  0.000000e+00  9.551855e-01 -2.960080e-01
    outer loop
      vertex   8.310059e+01  8.732910e+00 -3.493042e-01
      vertex  -2.977637e+01  8.674805e+00 -5.368042e-01
      vertex  -2.977637e+01  8.732910e+00 -3.493042e-01
    endloop
  endfacet
  facet normal  0.000000e+00  9.856873e-01 -1.685839e-01
    outer loop
      vertex  -2.977637e+01  8.732910e+00 -3.493042e-01
      vertex   8.310059e+01  8.765991e+00 -1.558838e-01
      vertex   8.310059e+01  8.732910e+00 -3.493042e-01
    endloop
  endfacet
  facet normal  0.000000e+00  9.856873e-01 -1.685839e-01
    outer loop
      vertex   8.310059e+01  8.765991e+00 -1.558838e-01
      vertex  -2.977637e+01  8.732910e+00 -3.493042e-01
      vertex  -2.977637e+01  8.765991e+00 -1.558838e-01
    endloop
  endfacet
  facet normal  0.000000e+00  9.992566e-01 -3.855252e-02
    outer loop
      vertex  -2.977637e+01  8.765991e+00 -1.558838e-01
      vertex   8.310059e+01  8.773560e+00  4.028320e-02
      vertex   8.310059e+01  8.765991e+00 -1.558838e-01
    endloop
  endfacet
  facet normal  0.000000e+00  9.992566e-01 -3.855252e-02
    outer loop
      vertex   8.310059e+01  8.773560e+00  4.028320e-02
      vertex  -2.977637e+01  8.765991e+00 -1.558838e-01
      vertex  -2.977637e+01  8.773560e+00  4.028320e-02
    endloop
  endfacet
  facet normal -0.000000e+00  9.957544e-01  9.204976e-02
    outer loop
      vertex  -2.977637e+01  8.773560e+00  4.028320e-02
      vertex   8.310059e+01  8.755493e+00  2.357178e-01
      vertex   8.310059e+01  8.773560e+00  4.028320e-02
    endloop
  endfacet
  facet normal  0.000000e+00  9.957544e-01  9.204976e-02
    outer loop
      vertex   8.310059e+01  8.755493e+00  2.357178e-01
      vertex  -2.977637e+01  8.773560e+00  4.028320e-02
      vertex  -2.977637e+01  8.755493e+00  2.357178e-01
    endloop
  endfacet
  facet normal  1.000000e+00  0.000000e+00  0.000000e+00
    outer loop
      vertex   8.310059e+01 -4.208740e+00 -1.753540e-01
      vertex   8.310059e+01 -8.772949e+00 -1.500000e+00
      vertex   8.310059e+01 -4.208374e+00 -1.500000e+00
    endloop
  endfacet
  facet normal  1.000000e+00  0.000000e+00  0.000000e+00
    outer loop
      vertex   8.310059e+01 -8.772949e+00 -1.500000e+00
      vertex   8.310059e+01 -4.208740e+00 -1.753540e-01
      vertex   8.310059e+01 -4.565796e+00 -1.458740e-01
    endloop
  endfacet
  facet normal  1.000000e+00  0.000000e+00  0.000000e+00
    outer loop
      vertex   8.310059e+01 -8.772949e+00 -1.500000e+00
      vertex   8.310059e+01 -4.565796e+00 -1.458740e-01
      vertex   8.310059e+01 -4.950317e+00 -1.199341e-01
    endloop
  endfacet
  facet normal  1.000000e+00  0.000000e+00  0.000000e+00
    outer loop
      vertex   8.310059e+01 -8.772949e+00 -1.500000e+00
      vertex   8.310059e+01 -4.950317e+00 -1.199341e-01
      vertex   8.310059e+01 -5.335205e+00 -9.973145e-02
    endloop
  endfacet
  facet normal  1.000000e+00  0.000000e+00  0.000000e+00
    outer loop
      vertex   8.310059e+01 -8.772949e+00 -1.500000e+00
      vertex   8.310059e+01 -5.335205e+00 -9.973145e-02
      vertex   8.310059e+01 -5.720337e+00 -8.526611e-02
    endloop
  endfacet
  facet normal  1.000000e+00  0.000000e+00  0.000000e+00
    outer loop
      vertex   8.310059e+01 -8.772949e+00 -1.500000e+00
      vertex   8.310059e+01 -5.720337e+00 -8.526611e-02
      vertex   8.310059e+01 -6.105591e+00 -7.659912e-02
    endloop
  endfacet
  facet normal  1.000000e+00  0.000000e+00  0.000000e+00
    outer loop
      vertex   8.310059e+01 -8.772949e+00 -1.500000e+00
      vertex   8.310059e+01 -6.105591e+00 -7.659912e-02
      vertex   8.310059e+01 -6.490967e+00 -7.373047e-02
    endloop
  endfacet
  facet normal  1.000000e+00  0.000000e+00  0.000000e+00
    outer loop
      vertex   8.310059e+01 -8.772949e+00 -1.500000e+00
      vertex   8.310059e+01 -6.490967e+00 -7.373047e-02
      vertex   8.310059e+01 -6.876343e+00 -7.659912e-02
    endloop
  endfacet
  facet normal  1.000000e+00  0.000000e+00  0.000000e+00
    outer loop
      vertex   8.310059e+01 -8.772949e+00 -1.500000e+00
      vertex   8.310059e+01 -6.876343e+00 -7.659912e-02
      vertex   8.310059e+01 -7.261719e+00 -8.526611e-02
    endloop
  endfacet
  facet normal  1.000000e+00  0.000000e+00  0.000000e+00
    outer loop
      vertex   8.310059e+01 -8.772949e+00 -1.500000e+00
      vertex   8.310059e+01 -7.261719e+00 -8.526611e-02
      vertex   8.310059e+01 -7.646851e+00 -9.973145e-02
    endloop
  endfacet
  facet normal  1.000000e+00  0.000000e+00  0.000000e+00
    outer loop
      vertex   8.310059e+01 -8.772949e+00 -1.500000e+00
      vertex   8.310059e+01 -7.646851e+00 -9.973145e-02
      vertex   8.310059e+01 -8.031738e+00 -1.199341e-01
    endloop
  endfacet
  facet normal  1.000000e+00  0.000000e+00  0.000000e+00
    outer loop
      vertex   8.310059e+01 -8.772949e+00 -1.500000e+00
      vertex   8.310059e+01 -8.031738e+00 -1.199341e-01
      vertex   8.310059e+01 -8.416260e+00 -1.458740e-01
    endloop
  endfacet
  facet normal  1.000000e+00  0.000000e+00 -0.000000e+00
    outer loop
      vertex   8.310059e+01 -8.772949e+00 -1.500000e+00
      vertex   8.310059e+01 -8.416260e+00 -1.458740e-01
      vertex   8.310059e+01 -8.773438e+00 -1.753540e-01
    endloop
  endfacet
  facet normal -1.000000e+00  0.000000e+00  0.000000e+00
    outer loop
      vertex  -8.309961e+01 -8.772949e+00 -1.500000e+00
      vertex  -8.309961e+01 -4.208740e+00 -1.753540e-01
      vertex  -8.309961e+01 -4.208374e+00 -1.500000e+00
    endloop
  endfacet
  facet normal -1.000000e+00 -0.000000e+00  0.000000e+00
    outer loop
      vertex  -8.309961e+01 -4.208740e+00 -1.753540e-01
      vertex  -8.309961e+01 -8.772949e+00 -1.500000e+00
      vertex  -8.309961e+01 -4.565796e+00 -1.458740e-01
    endloop
  endfacet
  facet normal -1.000000e+00 -0.000000e+00  0.000000e+00
    outer loop
      vertex  -8.309961e+01 -4.565796e+00 -1.458740e-01
      vertex  -8.309961e+01 -8.772949e+00 -1.500000e+00
      vertex  -8.309961e+01 -4.950317e+00 -1.199341e-01
    endloop
  endfacet
  facet normal -1.000000e+00 -0.000000e+00  0.000000e+00
    outer loop
      vertex  -8.309961e+01 -4.950317e+00 -1.199341e-01
      vertex  -8.309961e+01 -8.772949e+00 -1.500000e+00
      vertex  -8.309961e+01 -5.335205e+00 -9.973145e-02
    endloop
  endfacet
  facet normal -1.000000e+00 -0.000000e+00  0.000000e+00
    outer loop
      vertex  -8.309961e+01 -5.335205e+00 -9.973145e-02
      vertex  -8.309961e+01 -8.772949e+00 -1.500000e+00
      vertex  -8.309961e+01 -5.720337e+00 -8.526611e-02
    endloop
  endfacet
  facet normal -1.000000e+00 -0.000000e+00  0.000000e+00
    outer loop
      vertex  -8.309961e+01 -5.720337e+00 -8.526611e-02
      vertex  -8.309961e+01 -8.772949e+00 -1.500000e+00
      vertex  -8.309961e+01 -6.105591e+00 -7.659912e-02
    endloop
  endfacet
  facet normal -1.000000e+00 -0.000000e+00  0.000000e+00
    outer loop
      vertex  -8.309961e+01 -6.105591e+00 -7.659912e-02
      vertex  -8.309961e+01 -8.772949e+00 -1.500000e+00
      vertex  -8.309961e+01 -6.490967e+00 -7.373047e-02
    endloop
  endfacet
  facet normal -1.000000e+00  0.000000e+00  0.000000e+00
    outer loop
      vertex  -8.309961e+01 -6.490967e+00 -7.373047e-02
      vertex  -8.309961e+01 -8.772949e+00 -1.500000e+00
      vertex  -8.309961e+01 -6.876343e+00 -7.659912e-02
    endloop
  endfacet
  facet normal -1.000000e+00  0.000000e+00  0.000000e+00
    outer loop
      vertex  -8.309961e+01 -6.876343e+00 -7.659912e-02
      vertex  -8.309961e+01 -8.772949e+00 -1.500000e+00
      vertex  -8.309961e+01 -7.261719e+00 -8.526611e-02
    endloop
  endfacet
  facet normal -1.000000e+00  0.000000e+00  0.000000e+00
    outer loop
      vertex  -8.309961e+01 -7.261719e+00 -8.526611e-02
      vertex  -8.309961e+01 -8.772949e+00 -1.500000e+00
      vertex  -8.309961e+01 -7.646851e+00 -9.973145e-02
    endloop
  endfacet
  facet normal -1.000000e+00  0.000000e+00  0.000000e+00
    outer loop
      vertex  -8.309961e+01 -7.646851e+00 -9.973145e-02
      vertex  -8.309961e+01 -8.772949e+00 -1.500000e+00
      vertex  -8.309961e+01 -8.031738e+00 -1.199341e-01
    endloop
  endfacet
  facet normal -1.000000e+00  0.000000e+00  0.000000e+00
    outer loop
      vertex  -8.309961e+01 -8.031738e+00 -1.199341e-01
      vertex  -8.309961e+01 -8.772949e+00 -1.500000e+00
      vertex  -8.309961e+01 -8.416260e+00 -1.458740e-01
    endloop
  endfacet
  facet normal -1.000000e+00  0.000000e+00  0.000000e+00
    outer loop
      vertex  -8.309961e+01 -8.416260e+00 -1.458740e-01
      vertex  -8.309961e+01 -8.772949e+00 -1.500000e+00
      vertex  -8.309961e+01 -8.773438e+00 -1.753540e-01
    endloop
  endfacet
  facet normal  0.000000e+00 -9.999999e-01 -3.686126e-04
    outer loop
      vertex   8.310059e+01 -8.773438e+00 -1.753540e-01
      vertex  -8.309961e+01 -8.772949e+00 -1.500000e+00
      vertex   8.310059e+01 -8.772949e+00 -1.500000e+00
    endloop
  endfacet
  facet normal  0.000000e+00 -9.999999e-01 -3.686126e-04
    outer loop
      vertex  -8.309961e+01 -8.772949e+00 -1.500000e+00
      vertex   8.310059e+01 -8.773438e+00 -1.753540e-01
      vertex  -8.309961e+01 -8.773438e+00 -1.753540e-01
    endloop
  endfacet
  facet normal  0.000000e+00 -8.225619e-02  9.966112e-01
    outer loop
      vertex  -8.309961e+01 -8.416260e+00 -1.458740e-01
      vertex   8.310059e+01 -8.773438e+00 -1.753540e-01
      vertex   8.310059e+01 -8.416260e+00 -1.458740e-01
    endloop
  endfacet
  facet normal  0.000000e+00 -8.225619e-02  9.966112e-01
    outer loop
      vertex   8.310059e+01 -8.773438e+00 -1.753540e-01
      vertex  -8.309961e+01 -8.416260e+00 -1.458740e-01
      vertex  -8.309961e+01 -8.773438e+00 -1.753540e-01
    endloop
  endfacet
  facet normal  0.000000e+00 -6.730734e-02  9.977322e-01
    outer loop
      vertex  -8.309961e+01 -8.031738e+00 -1.199341e-01
      vertex   8.310059e+01 -8.416260e+00 -1.458740e-01
      vertex   8.310059e+01 -8.031738e+00 -1.199341e-01
    endloop
  endfacet
  facet normal  0.000000e+00 -6.730734e-02  9.977322e-01
    outer loop
      vertex   8.310059e+01 -8.416260e+00 -1.458740e-01
      vertex  -8.309961e+01 -8.031738e+00 -1.199341e-01
      vertex  -8.309961e+01 -8.416260e+00 -1.458740e-01
    endloop
  endfacet
  facet normal  0.000000e+00 -5.241753e-02  9.986252e-01
    outer loop
      vertex  -8.309961e+01 -7.646851e+00 -9.973145e-02
      vertex   8.310059e+01 -8.031738e+00 -1.199341e-01
      vertex   8.310059e+01 -7.646851e+00 -9.973145e-02
    endloop
  endfacet
  facet normal  0.000000e+00 -5.241753e-02  9.986252e-01
    outer loop
      vertex   8.310059e+01 -8.031738e+00 -1.199341e-01
      vertex  -8.309961e+01 -7.646851e+00 -9.973145e-02
      vertex  -8.309961e+01 -8.031738e+00 -1.199341e-01
    endloop
  endfacet
  facet normal  0.000000e+00 -3.753296e-02  9.992954e-01
    outer loop
      vertex  -8.309961e+01 -7.261719e+00 -8.526611e-02
      vertex   8.310059e+01 -7.646851e+00 -9.973145e-02
      vertex   8.310059e+01 -7.261719e+00 -8.526611e-02
    endloop
  endfacet
  facet normal  0.000000e+00 -3.753296e-02  9.992954e-01
    outer loop
      vertex   8.310059e+01 -7.646851e+00 -9.973145e-02
      vertex  -8.309961e+01 -7.261719e+00 -8.526611e-02
      vertex  -8.309961e+01 -7.646851e+00 -9.973145e-02
    endloop
  endfacet
  facet normal  0.000000e+00 -2.248402e-02  9.997472e-01
    outer loop
      vertex  -8.309961e+01 -6.876343e+00 -7.659912e-02
      vertex   8.310059e+01 -7.261719e+00 -8.526611e-02
      vertex   8.310059e+01 -6.876343e+00 -7.659912e-02
    endloop
  endfacet
  facet normal  0.000000e+00 -2.248402e-02  9.997472e-01
    outer loop
      vertex   8.310059e+01 -7.261719e+00 -8.526611e-02
      vertex  -8.309961e+01 -6.876343e+00 -7.659912e-02
      vertex  -8.309961e+01 -7.261719e+00 -8.526611e-02
    endloop
  endfacet
  facet normal  0.000000e+00 -7.443570e-03  9.999722e-01
    outer loop
      vertex  -8.309961e+01 -6.490967e+00 -7.373047e-02
      vertex   8.310059e+01 -6.876343e+00 -7.659912e-02
      vertex   8.310059e+01 -6.490967e+00 -7.373047e-02
    endloop
  endfacet
  facet normal  0.000000e+00 -7.443570e-03  9.999722e-01
    outer loop
      vertex   8.310059e+01 -6.876343e+00 -7.659912e-02
      vertex  -8.309961e+01 -6.490967e+00 -7.373047e-02
      vertex  -8.309961e+01 -6.876343e+00 -7.659912e-02
    endloop
  endfacet
  facet normal  0.000000e+00  7.443570e-03  9.999722e-01
    outer loop
      vertex   8.310059e+01 -6.105591e+00 -7.659912e-02
      vertex  -8.309961e+01 -6.490967e+00 -7.373047e-02
      vertex   8.310059e+01 -6.490967e+00 -7.373047e-02
    endloop
  endfacet
  facet normal  0.000000e+00  7.443570e-03  9.999722e-01
    outer loop
      vertex  -8.309961e+01 -6.490967e+00 -7.373047e-02
      vertex   8.310059e+01 -6.105591e+00 -7.659912e-02
      vertex  -8.309961e+01 -6.105591e+00 -7.659912e-02
    endloop
  endfacet
  facet normal  0.000000e+00  2.249114e-02  9.997471e-01
    outer loop
      vertex   8.310059e+01 -5.720337e+00 -8.526611e-02
      vertex  -8.309961e+01 -6.105591e+00 -7.659912e-02
      vertex   8.310059e+01 -6.105591e+00 -7.659912e-02
    endloop
  endfacet
  facet normal  0.000000e+00  2.249114e-02  9.997471e-01
    outer loop
      vertex  -8.309961e+01 -6.105591e+00 -7.659912e-02
      vertex   8.310059e+01 -5.720337e+00 -8.526611e-02
      vertex  -8.309961e+01 -5.720337e+00 -8.526611e-02
    endloop
  endfacet
  facet normal  0.000000e+00  3.753296e-02  9.992954e-01
    outer loop
      vertex   8.310059e+01 -5.335205e+00 -9.973145e-02
      vertex  -8.309961e+01 -5.720337e+00 -8.526611e-02
      vertex   8.310059e+01 -5.720337e+00 -8.526611e-02
    endloop
  endfacet
  facet normal  0.000000e+00  3.753296e-02  9.992954e-01
    outer loop
      vertex  -8.309961e+01 -5.720337e+00 -8.526611e-02
      vertex   8.310059e+01 -5.335205e+00 -9.973145e-02
      vertex  -8.309961e+01 -5.335205e+00 -9.973145e-02
    endloop
  endfacet
  facet normal  0.000000e+00  5.241753e-02  9.986252e-01
    outer loop
      vertex   8.310059e+01 -4.950317e+00 -1.199341e-01
      vertex  -8.309961e+01 -5.335205e+00 -9.973145e-02
      vertex   8.310059e+01 -5.335205e+00 -9.973145e-02
    endloop
  endfacet
  facet normal  0.000000e+00  5.241753e-02  9.986252e-01
    outer loop
      vertex  -8.309961e+01 -5.335205e+00 -9.973145e-02
      vertex   8.310059e+01 -4.950317e+00 -1.199341e-01
      vertex  -8.309961e+01 -4.950317e+00 -1.199341e-01
    endloop
  endfacet
  facet normal  0.000000e+00  6.730734e-02  9.977322e-01
    outer loop
      vertex   8.310059e+01 -4.565796e+00 -1.458740e-01
      vertex  -8.309961e+01 -4.950317e+00 -1.199341e-01
      vertex   8.310059e+01 -4.950317e+00 -1.199341e-01
    endloop
  endfacet
  facet normal  0.000000e+00  6.730734e-02  9.977322e-01
    outer loop
      vertex  -8.309961e+01 -4.950317e+00 -1.199341e-01
      vertex   8.310059e+01 -4.565796e+00 -1.458740e-01
      vertex  -8.309961e+01 -4.565796e+00 -1.458740e-01
    endloop
  endfacet
  facet normal  0.000000e+00  8.228412e-02  9.966089e-01
    outer loop
      vertex   8.310059e+01 -4.208740e+00 -1.753540e-01
      vertex  -8.309961e+01 -4.565796e+00 -1.458740e-01
      vertex   8.310059e+01 -4.565796e+00 -1.458740e-01
    endloop
  endfacet
  facet normal  0.000000e+00  8.228412e-02  9.966089e-01
    outer loop
      vertex  -8.309961e+01 -4.565796e+00 -1.458740e-01
      vertex   8.310059e+01 -4.208740e+00 -1.753540e-01
      vertex  -8.309961e+01 -4.208740e+00 -1.753540e-01
    endloop
  endfacet
  facet normal -0.000000e+00  1.000000e+00  2.764595e-04
    outer loop
      vertex  -8.309961e+01 -4.208374e+00 -1.500000e+00
      vertex   8.310059e+01 -4.208740e+00 -1.753540e-01
      vertex   8.310059e+01 -4.208374e+00 -1.500000e+00
    endloop
  endfacet
  facet normal  0.000000e+00  1.000000e+00  2.764595e-04
    outer loop
      vertex   8.310059e+01 -4.208740e+00 -1.753540e-01
      vertex  -8.309961e+01 -4.208374e+00 -1.500000e+00
      vertex  -8.309961e+01 -4.208740e+00 -1.753540e-01
    endloop
  endfacet
  facet normal  0.000000e+00  0.000000e+00 -1.000000e+00
    outer loop
      vertex  -8.309961e+01 -8.772949e+00 -1.500000e+00
      vertex   8.310059e+01 -4.208374e+00 -1.500000e+00
      vertex   8.310059e+01 -8.772949e+00 -1.500000e+00
    endloop
  endfacet
  facet normal -0.000000e+00  0.000000e+00 -1.000000e+00
    outer loop
      vertex   8.310059e+01 -4.208374e+00 -1.500000e+00
      vertex  -8.309961e+01 -8.772949e+00 -1.500000e+00
      vertex  -8.309961e+01 -4.208374e+00 -1.500000e+00
    endloop
  endfacet
endsolid vcg
