solid Sketch 2017 t
facet normal 0.9999999999999999 2.6828299946566186e-16 -2.2139965518271625e-13
  outer loop
    vertex 11440.096704898135 -1197.6886126556901 771.1928695770774
    vertex 11440.096704898135 -1197.678097163659 770.8012910004178
    vertex 11440.096704898135 -1197.6705222017351 770.9974248996281
  endloop
endfacet
facet normal 0.9999999999999999 2.6828299946566186e-16 -2.2139965518271625e-13
  outer loop
    vertex 11440.096704898135 -1197.678097163659 770.8012910004178
    vertex 11440.096704898135 -1197.6886126556901 771.1928695770774
    vertex 11440.096704898135 -1197.7112079317626 770.6078237848407
  endloop
endfacet
facet normal 0.9999999999999999 2.6828299946566186e-16 -2.2139965518271625e-13
  outer loop
    vertex 11440.096704898135 -1197.7112079317626 770.6078237848407
    vertex 11440.096704898135 -1197.6886126556901 771.1928695770774
    vertex 11440.096704898135 -1197.7320589928404 771.3842809201473
  endloop
endfacet
facet normal 0.9999999999999999 2.6828299946566186e-16 -2.2139965518271625e-13
  outer loop
    vertex 11440.096704898135 -1197.7112079317626 770.6078237848407
    vertex 11440.096704898135 -1197.7320589928404 771.3842809201473
    vertex 11440.096704898135 -1197.769287971624 770.4203335305945
  endloop
endfacet
facet normal 0.9999999999999999 2.6828299946566186e-16 -2.2139965518271625e-13
  outer loop
    vertex 11440.096704898135 -1197.769287971624 770.4203335305945
    vertex 11440.096704898135 -1197.7320589928404 771.3842809201473
    vertex 11440.096704898135 -1197.8001178343122 771.5683838276883
  endloop
endfacet
facet normal 0.9999999999999999 2.6828299946566186e-16 -2.2139965518271625e-13
  outer loop
    vertex 11440.096704898135 -1197.769287971624 770.4203335305945
    vertex 11440.096704898135 -1197.8001178343122 771.5683838276883
    vertex 11440.096704898135 -1197.8513435176578 770.2420282479114
  endloop
endfacet
facet normal 0.9999999999999999 2.6828299946566186e-16 -2.2139965518271625e-13
  outer loop
    vertex 11440.096704898135 -1197.8513435176578 770.2420282479114
    vertex 11440.096704898135 -1197.8001178343122 771.5683838276883
    vertex 11440.096704898135 -1197.8916246744589 771.7420282479097
  endloop
endfacet
facet normal 0.9999999999999999 2.6828299946566186e-16 -2.2139965518271625e-13
  outer loop
    vertex 11440.096704898135 -1197.8513435176578 770.2420282479114
    vertex 11440.096704898135 -1197.8916246744589 771.7420282479097
    vertex 11440.096704898135 -1197.9559705767217 770.075958789614
  endloop
endfacet
facet normal 0.9999999999999999 2.6828299946566186e-16 -2.2139965518271625e-13
  outer loop
    vertex 11440.096704898135 -1197.9559705767217 770.075958789614
    vertex 11440.096704898135 -1197.8916246744589 771.7420282479097
    vertex 11440.096704898135 -1198.0050138058743 771.9022430766379
  endloop
endfacet
facet normal 0.9999999999999999 2.6828299946566186e-16 -2.2139965518271625e-13
  outer loop
    vertex 11440.096704898135 -1197.9559705767217 770.075958789614
    vertex 11440.096704898135 -1198.0050138058743 771.9022430766379
    vertex 11440.096704898135 -1198.081378950827 769.9249666501765
  endloop
endfacet
facet normal 0.9999999999999999 2.6828299946566186e-16 -2.2139965518271625e-13
  outer loop
    vertex 11440.096704898135 -1198.081378950827 769.9249666501765
    vertex 11440.096704898135 -1198.0050138058743 771.9022430766379
    vertex 11440.096704898135 -1198.1383451090828 772.0462869937336
  endloop
endfacet
facet normal 0.9999999999999999 2.6828299946566186e-16 -2.2139965518271625e-13
  outer loop
    vertex 11440.096704898135 -1198.081378950827 769.9249666501765
    vertex 11440.096704898135 -1198.1383451090828 772.0462869937336
    vertex 11440.096704898135 -1198.2254228679226 769.791635346968
  endloop
endfacet
facet normal 0.9999999999999999 2.6828299946566186e-16 -2.2139965518271625e-13
  outer loop
    vertex 11440.096704898135 -1198.2254228679226 769.791635346968
    vertex 11440.096704898135 -1198.1383451090828 772.0462869937336
    vertex 11440.096704898135 -1198.2893372485203 772.1716953678388
  endloop
endfacet
facet normal 0.9999999999999999 2.6828299946566186e-16 -2.2139965518271625e-13
  outer loop
    vertex 11440.096704898135 -1198.2254228679226 769.791635346968
    vertex 11440.096704898135 -1198.2893372485203 772.1716953678388
    vertex 11440.096704898135 -1198.385637696651 769.6782462155525
  endloop
endfacet
facet normal 0.9999999999999999 2.6828299946566186e-16 -2.2139965518271625e-13
  outer loop
    vertex 11440.096704898135 -1198.385637696651 769.6782462155525
    vertex 11440.096704898135 -1198.2893372485203 772.1716953678388
    vertex 11440.096704898135 -1198.4554067068177 772.2763224269027
  endloop
endfacet
facet normal 0.9999999999999999 2.6828299946566186e-16 -2.2139965518271625e-13
  outer loop
    vertex 11440.096704898135 -1198.385637696651 769.6782462155525
    vertex 11440.096704898135 -1198.4554067068177 772.2763224269027
    vertex 11440.096704898135 -1198.5592821168723 769.5867393754061
  endloop
endfacet
facet normal 0.9999999999999999 2.6828299946566186e-16 -2.2139965518271625e-13
  outer loop
    vertex 11440.096704898135 -1198.5592821168723 769.5867393754061
    vertex 11440.096704898135 -1198.4554067068177 772.2763224269027
    vertex 11440.096704898135 -1198.6337119895009 772.3583779729366
  endloop
endfacet
facet normal 0.9999999999999999 2.6828299946566186e-16 -2.2139965518271625e-13
  outer loop
    vertex 11440.096704898135 -1198.5592821168723 769.5867393754061
    vertex 11440.096704898135 -1198.6337119895009 772.3583779729366
    vertex 11440.096704898135 -1198.7433850244133 769.5186805339341
  endloop
endfacet
facet normal 0.9999999999999999 2.6828299946566186e-16 -2.2139965518271625e-13
  outer loop
    vertex 11440.096704898135 -1198.7433850244133 769.5186805339341
    vertex 11440.096704898135 -1198.6337119895009 772.3583779729366
    vertex 11440.096704898135 -1198.821202243747 772.4164580127978
  endloop
endfacet
facet normal 0.9999999999999999 2.6828299946566186e-16 -2.2139965518271625e-13
  outer loop
    vertex 11440.096704898135 -1198.7433850244133 769.5186805339341
    vertex 11440.096704898135 -1198.821202243747 772.4164580127978
    vertex 11440.096704898135 -1198.9347963674832 769.4752341967836
  endloop
endfacet
facet normal 0.9999999999999999 2.6828299946566186e-16 -2.2139965518271625e-13
  outer loop
    vertex 11440.096704898135 -1198.9347963674832 769.4752341967836
    vertex 11440.096704898135 -1198.821202243747 772.4164580127978
    vertex 11440.096704898135 -1199.014669459324 772.4495687809015
  endloop
endfacet
facet normal 0.9999999999999999 2.6828299946566186e-16 -2.2139965518271625e-13
  outer loop
    vertex 11440.096704898135 -1198.9347963674832 769.4752341967836
    vertex 11440.096704898135 -1199.014669459324 772.4495687809015
    vertex 11440.096704898135 -1199.1302410449325 769.4571437428289
  endloop
endfacet
facet normal 0.9999999999999999 2.6828299946566186e-16 -2.2139965518271625e-13
  outer loop
    vertex 11440.096704898135 -1199.1302410449325 769.4571437428289
    vertex 11440.096704898135 -1199.014669459324 772.4495687809015
    vertex 11440.096704898135 -1199.2108033585343 772.4571437428253
  endloop
endfacet
facet normal 0.9999999999999999 2.6828299946566186e-16 -2.2139965518271625e-13
  outer loop
    vertex 11440.096704898135 -1199.1302410449325 769.4571437428289
    vertex 11440.096704898135 -1199.2108033585343 772.4571437428253
    vertex 11440.096704898135 -1199.3263749441428 769.4647187047527
  endloop
endfacet
facet normal 0.9999999999999999 2.6828299946566186e-16 -2.2139965518271625e-13
  outer loop
    vertex 11440.096704898135 -1199.3263749441428 769.4647187047527
    vertex 11440.096704898135 -1199.2108033585343 772.4571437428253
    vertex 11440.096704898135 -1199.4062480359837 772.4390532888706
  endloop
endfacet
facet normal 0.9999999999999999 2.6828299946566186e-16 -2.2139965518271625e-13
  outer loop
    vertex 11440.096704898135 -1199.3263749441428 769.4647187047527
    vertex 11440.096704898135 -1199.4062480359837 772.4390532888706
    vertex 11440.096704898135 -1199.51984215972 769.4978294728564
  endloop
endfacet
facet normal 0.9999999999999999 2.6828299946566186e-16 -2.2139965518271625e-13
  outer loop
    vertex 11440.096704898135 -1199.51984215972 769.4978294728564
    vertex 11440.096704898135 -1199.4062480359837 772.4390532888706
    vertex 11440.096704898135 -1199.5976593790535 772.3956069517201
  endloop
endfacet
facet normal 0.9999999999999999 2.6828299946566186e-16 -2.2139965518271625e-13
  outer loop
    vertex 11440.096704898135 -1199.51984215972 769.4978294728564
    vertex 11440.096704898135 -1199.5976593790535 772.3956069517201
    vertex 11440.096704898135 -1199.707332413966 769.5559095127176
  endloop
endfacet
facet normal 0.9999999999999999 2.6828299946566186e-16 -2.2139965518271625e-13
  outer loop
    vertex 11440.096704898135 -1199.707332413966 769.5559095127176
    vertex 11440.096704898135 -1199.5976593790535 772.3956069517201
    vertex 11440.096704898135 -1199.7817622865946 772.3275481102481
  endloop
endfacet
facet normal 0.9999999999999999 2.6828299946566186e-16 -2.2139965518271625e-13
  outer loop
    vertex 11440.096704898135 -1199.707332413966 769.5559095127176
    vertex 11440.096704898135 -1199.7817622865946 772.3275481102481
    vertex 11440.096704898135 -1199.8856376966492 769.6379650587514
  endloop
endfacet
facet normal 0.9999999999999999 2.6828299946566186e-16 -2.2139965518271625e-13
  outer loop
    vertex 11440.096704898135 -1199.8856376966492 769.6379650587514
    vertex 11440.096704898135 -1199.7817622865946 772.3275481102481
    vertex 11440.096704898135 -1199.955406706816 772.2360412701016
  endloop
endfacet
facet normal 0.9999999999999999 2.6828299946566186e-16 -2.2139965518271625e-13
  outer loop
    vertex 11440.096704898135 -1199.8856376966492 769.6379650587514
    vertex 11440.096704898135 -1199.955406706816 772.2360412701016
    vertex 11440.096704898135 -1200.0517071549466 769.7425921178154
  endloop
endfacet
facet normal 0.9999999999999999 2.6828299946566186e-16 -2.2139965518271625e-13
  outer loop
    vertex 11440.096704898135 -1200.0517071549466 769.7425921178154
    vertex 11440.096704898135 -1199.955406706816 772.2360412701016
    vertex 11440.096704898135 -1200.1156215355443 772.1226521386862
  endloop
endfacet
facet normal 0.9999999999999999 2.6828299946566186e-16 -2.2139965518271625e-13
  outer loop
    vertex 11440.096704898135 -1200.0517071549466 769.7425921178154
    vertex 11440.096704898135 -1200.1156215355443 772.1226521386862
    vertex 11440.096704898135 -1200.202699294384 769.8680004919205
  endloop
endfacet
facet normal 0.9999999999999999 2.6828299946566186e-16 -2.2139965518271625e-13
  outer loop
    vertex 11440.096704898135 -1200.202699294384 769.8680004919205
    vertex 11440.096704898135 -1200.1156215355443 772.1226521386862
    vertex 11440.096704898135 -1200.25966545264 771.9893208354777
  endloop
endfacet
facet normal 0.9999999999999999 2.6828299946566186e-16 -2.2139965518271625e-13
  outer loop
    vertex 11440.096704898135 -1200.202699294384 769.8680004919205
    vertex 11440.096704898135 -1200.25966545264 771.9893208354777
    vertex 11440.096704898135 -1200.3360305975928 770.0120444090163
  endloop
endfacet
facet normal 0.9999999999999999 2.6828299946566186e-16 -2.2139965518271625e-13
  outer loop
    vertex 11440.096704898135 -1200.3360305975928 770.0120444090163
    vertex 11440.096704898135 -1200.25966545264 771.9893208354777
    vertex 11440.096704898135 -1200.3850738267452 771.8383286960402
  endloop
endfacet
facet normal 0.9999999999999999 2.6828299946566186e-16 -2.2139965518271625e-13
  outer loop
    vertex 11440.096704898135 -1200.3360305975928 770.0120444090163
    vertex 11440.096704898135 -1200.3850738267452 771.8383286960402
    vertex 11440.096704898135 -1200.449419729008 770.1722592377445
  endloop
endfacet
facet normal 0.9999999999999999 2.6828299946566186e-16 -2.2139965518271625e-13
  outer loop
    vertex 11440.096704898135 -1200.449419729008 770.1722592377445
    vertex 11440.096704898135 -1200.3850738267452 771.8383286960402
    vertex 11440.096704898135 -1200.489700885809 771.6722592377428
  endloop
endfacet
facet normal 0.9999999999999999 2.6828299946566186e-16 -2.2139965518271625e-13
  outer loop
    vertex 11440.096704898135 -1200.449419729008 770.1722592377445
    vertex 11440.096704898135 -1200.489700885809 771.6722592377428
    vertex 11440.096704898135 -1200.5409265691546 770.3459036579659
  endloop
endfacet
facet normal 0.9999999999999999 2.6828299946566186e-16 -2.2139965518271625e-13
  outer loop
    vertex 11440.096704898135 -1200.5409265691546 770.3459036579659
    vertex 11440.096704898135 -1200.489700885809 771.6722592377428
    vertex 11440.096704898135 -1200.571756431843 771.4939539550597
  endloop
endfacet
facet normal 0.9999999999999999 2.6828299946566186e-16 -2.2139965518271625e-13
  outer loop
    vertex 11440.096704898135 -1200.5409265691546 770.3459036579659
    vertex 11440.096704898135 -1200.571756431843 771.4939539550597
    vertex 11440.096704898135 -1200.6089854106265 770.5300065655069
  endloop
endfacet
facet normal 0.9999999999999999 2.6828299946566186e-16 -2.2139965518271625e-13
  outer loop
    vertex 11440.096704898135 -1200.6089854106265 770.5300065655069
    vertex 11440.096704898135 -1200.571756431843 771.4939539550597
    vertex 11440.096704898135 -1200.6298364717043 771.3064637008135
  endloop
endfacet
facet normal 0.9999999999999999 2.6828299946566186e-16 -2.2139965518271625e-13
  outer loop
    vertex 11440.096704898135 -1200.6089854106265 770.5300065655069
    vertex 11440.096704898135 -1200.6298364717043 771.3064637008135
    vertex 11440.096704898135 -1200.6524317477767 770.7214179085768
  endloop
endfacet
facet normal 0.9999999999999999 2.6828299946566186e-16 -2.2139965518271625e-13
  outer loop
    vertex 11440.096704898135 -1200.6524317477767 770.7214179085768
    vertex 11440.096704898135 -1200.6298364717043 771.3064637008135
    vertex 11440.096704898135 -1200.6629472398079 771.1129964852364
  endloop
endfacet
facet normal 0.9999999999999999 2.6828299946566186e-16 -2.2139965518271625e-13
  outer loop
    vertex 11440.096704898135 -1200.6524317477767 770.7214179085768
    vertex 11440.096704898135 -1200.6629472398079 771.1129964852364
    vertex 11440.096704898135 -1200.6705222017317 770.9168625860261
  endloop
endfacet
facet normal -0.9999999999999999 -2.6828299946566186e-16 2.2139965518271625e-13
  outer loop
    vertex 11327.219305932858 -1197.678097163659 770.8012910004436
    vertex 11327.219305932858 -1197.6886126556901 771.1928695771032
    vertex 11327.219305932858 -1197.6705222017351 770.9974248996539
  endloop
endfacet
facet normal -0.9999999999999999 -2.6828299946566186e-16 2.2139965518271625e-13
  outer loop
    vertex 11327.219305932858 -1197.6886126556901 771.1928695771032
    vertex 11327.219305932858 -1197.678097163659 770.8012910004436
    vertex 11327.219305932857 -1197.7112079317626 770.6078237848665
  endloop
endfacet
facet normal -0.9999999999999999 -2.6828299946566186e-16 2.2139965518271625e-13
  outer loop
    vertex 11327.219305932858 -1197.6886126556901 771.1928695771032
    vertex 11327.219305932857 -1197.7112079317626 770.6078237848665
    vertex 11327.219305932858 -1197.7320589928404 771.3842809201731
  endloop
endfacet
facet normal -0.9999999999999999 -2.6828299946566186e-16 2.2139965518271625e-13
  outer loop
    vertex 11327.219305932858 -1197.7320589928404 771.3842809201731
    vertex 11327.219305932857 -1197.7112079317626 770.6078237848665
    vertex 11327.219305932857 -1197.769287971624 770.4203335306203
  endloop
endfacet
facet normal -0.9999999999999999 -2.6828299946566186e-16 2.2139965518271625e-13
  outer loop
    vertex 11327.219305932858 -1197.7320589928404 771.3842809201731
    vertex 11327.219305932857 -1197.769287971624 770.4203335306203
    vertex 11327.219305932858 -1197.8001178343122 771.5683838277141
  endloop
endfacet
facet normal -0.9999999999999999 -2.6828299946566186e-16 2.2139965518271625e-13
  outer loop
    vertex 11327.219305932858 -1197.8001178343122 771.5683838277141
    vertex 11327.219305932857 -1197.769287971624 770.4203335306203
    vertex 11327.219305932857 -1197.8513435176578 770.2420282479372
  endloop
endfacet
facet normal -0.9999999999999999 -2.6828299946566186e-16 2.2139965518271625e-13
  outer loop
    vertex 11327.219305932858 -1197.8001178343122 771.5683838277141
    vertex 11327.219305932857 -1197.8513435176578 770.2420282479372
    vertex 11327.219305932858 -1197.8916246744589 771.7420282479355
  endloop
endfacet
facet normal -0.9999999999999999 -2.6828299946566186e-16 2.2139965518271625e-13
  outer loop
    vertex 11327.219305932858 -1197.8916246744589 771.7420282479355
    vertex 11327.219305932857 -1197.8513435176578 770.2420282479372
    vertex 11327.219305932857 -1197.9559705767217 770.0759587896398
  endloop
endfacet
facet normal -0.9999999999999999 -2.6828299946566186e-16 2.2139965518271625e-13
  outer loop
    vertex 11327.219305932858 -1197.8916246744589 771.7420282479355
    vertex 11327.219305932857 -1197.9559705767217 770.0759587896398
    vertex 11327.219305932858 -1198.0050138058743 771.9022430766637
  endloop
endfacet
facet normal -0.9999999999999999 -2.6828299946566186e-16 2.2139965518271625e-13
  outer loop
    vertex 11327.219305932858 -1198.0050138058743 771.9022430766637
    vertex 11327.219305932857 -1197.9559705767217 770.0759587896398
    vertex 11327.219305932857 -1198.081378950827 769.9249666502022
  endloop
endfacet
facet normal -0.9999999999999999 -2.6828299946566186e-16 2.2139965518271625e-13
  outer loop
    vertex 11327.219305932858 -1198.0050138058743 771.9022430766637
    vertex 11327.219305932857 -1198.081378950827 769.9249666502022
    vertex 11327.219305932858 -1198.1383451090828 772.0462869937594
  endloop
endfacet
facet normal -0.9999999999999999 -2.6828299946566186e-16 2.2139965518271625e-13
  outer loop
    vertex 11327.219305932858 -1198.1383451090828 772.0462869937594
    vertex 11327.219305932857 -1198.081378950827 769.9249666502022
    vertex 11327.219305932857 -1198.2254228679226 769.7916353469938
  endloop
endfacet
facet normal -0.9999999999999999 -2.6828299946566186e-16 2.2139965518271625e-13
  outer loop
    vertex 11327.219305932858 -1198.1383451090828 772.0462869937594
    vertex 11327.219305932857 -1198.2254228679226 769.7916353469938
    vertex 11327.219305932858 -1198.2893372485203 772.1716953678646
  endloop
endfacet
facet normal -0.9999999999999999 -2.6828299946566186e-16 2.2139965518271625e-13
  outer loop
    vertex 11327.219305932858 -1198.2893372485203 772.1716953678646
    vertex 11327.219305932857 -1198.2254228679226 769.7916353469938
    vertex 11327.219305932857 -1198.385637696651 769.6782462155783
  endloop
endfacet
facet normal -0.9999999999999999 -2.6828299946566186e-16 2.2139965518271625e-13
  outer loop
    vertex 11327.219305932858 -1198.2893372485203 772.1716953678646
    vertex 11327.219305932857 -1198.385637696651 769.6782462155783
    vertex 11327.219305932858 -1198.4554067068177 772.2763224269285
  endloop
endfacet
facet normal -0.9999999999999999 -2.6828299946566186e-16 2.2139965518271625e-13
  outer loop
    vertex 11327.219305932858 -1198.4554067068177 772.2763224269285
    vertex 11327.219305932857 -1198.385637696651 769.6782462155783
    vertex 11327.219305932857 -1198.5592821168723 769.5867393754318
  endloop
endfacet
facet normal -0.9999999999999999 -2.6828299946566186e-16 2.2139965518271625e-13
  outer loop
    vertex 11327.219305932858 -1198.4554067068177 772.2763224269285
    vertex 11327.219305932857 -1198.5592821168723 769.5867393754318
    vertex 11327.219305932858 -1198.6337119895009 772.3583779729624
  endloop
endfacet
facet normal -0.9999999999999999 -2.6828299946566186e-16 2.2139965518271625e-13
  outer loop
    vertex 11327.219305932858 -1198.6337119895009 772.3583779729624
    vertex 11327.219305932857 -1198.5592821168723 769.5867393754318
    vertex 11327.219305932857 -1198.7433850244133 769.5186805339598
  endloop
endfacet
facet normal -0.9999999999999999 -2.6828299946566186e-16 2.2139965518271625e-13
  outer loop
    vertex 11327.219305932858 -1198.6337119895009 772.3583779729624
    vertex 11327.219305932857 -1198.7433850244133 769.5186805339598
    vertex 11327.219305932858 -1198.821202243747 772.4164580128236
  endloop
endfacet
facet normal -0.9999999999999999 -2.6828299946566186e-16 2.2139965518271625e-13
  outer loop
    vertex 11327.219305932858 -1198.821202243747 772.4164580128236
    vertex 11327.219305932857 -1198.7433850244133 769.5186805339598
    vertex 11327.219305932857 -1198.9347963674832 769.4752341968094
  endloop
endfacet
facet normal -0.9999999999999999 -2.6828299946566186e-16 2.2139965518271625e-13
  outer loop
    vertex 11327.219305932858 -1198.821202243747 772.4164580128236
    vertex 11327.219305932857 -1198.9347963674832 769.4752341968094
    vertex 11327.219305932858 -1199.014669459324 772.4495687809273
  endloop
endfacet
facet normal -0.9999999999999999 -2.6828299946566186e-16 2.2139965518271625e-13
  outer loop
    vertex 11327.219305932858 -1199.014669459324 772.4495687809273
    vertex 11327.219305932857 -1198.9347963674832 769.4752341968094
    vertex 11327.219305932857 -1199.1302410449325 769.4571437428547
  endloop
endfacet
facet normal -0.9999999999999999 -2.6828299946566186e-16 2.2139965518271625e-13
  outer loop
    vertex 11327.219305932858 -1199.014669459324 772.4495687809273
    vertex 11327.219305932857 -1199.1302410449325 769.4571437428547
    vertex 11327.219305932858 -1199.2108033585343 772.4571437428511
  endloop
endfacet
facet normal -0.9999999999999999 -2.6828299946566186e-16 2.2139965518271625e-13
  outer loop
    vertex 11327.219305932858 -1199.2108033585343 772.4571437428511
    vertex 11327.219305932857 -1199.1302410449325 769.4571437428547
    vertex 11327.219305932857 -1199.3263749441428 769.4647187047785
  endloop
endfacet
facet normal -0.9999999999999999 -2.6828299946566186e-16 2.2139965518271625e-13
  outer loop
    vertex 11327.219305932858 -1199.2108033585343 772.4571437428511
    vertex 11327.219305932857 -1199.3263749441428 769.4647187047785
    vertex 11327.219305932858 -1199.4062480359837 772.4390532888964
  endloop
endfacet
facet normal -0.9999999999999999 -2.6828299946566186e-16 2.2139965518271625e-13
  outer loop
    vertex 11327.219305932858 -1199.4062480359837 772.4390532888964
    vertex 11327.219305932857 -1199.3263749441428 769.4647187047785
    vertex 11327.219305932857 -1199.51984215972 769.4978294728822
  endloop
endfacet
facet normal -0.9999999999999999 -2.6828299946566186e-16 2.2139965518271625e-13
  outer loop
    vertex 11327.219305932858 -1199.4062480359837 772.4390532888964
    vertex 11327.219305932857 -1199.51984215972 769.4978294728822
    vertex 11327.219305932858 -1199.5976593790535 772.3956069517459
  endloop
endfacet
facet normal -0.9999999999999999 -2.6828299946566186e-16 2.2139965518271625e-13
  outer loop
    vertex 11327.219305932858 -1199.5976593790535 772.3956069517459
    vertex 11327.219305932857 -1199.51984215972 769.4978294728822
    vertex 11327.219305932857 -1199.707332413966 769.5559095127434
  endloop
endfacet
facet normal -0.9999999999999999 -2.6828299946566186e-16 2.2139965518271625e-13
  outer loop
    vertex 11327.219305932858 -1199.5976593790535 772.3956069517459
    vertex 11327.219305932857 -1199.707332413966 769.5559095127434
    vertex 11327.219305932858 -1199.7817622865946 772.3275481102739
  endloop
endfacet
facet normal -0.9999999999999999 -2.6828299946566186e-16 2.2139965518271625e-13
  outer loop
    vertex 11327.219305932858 -1199.7817622865946 772.3275481102739
    vertex 11327.219305932857 -1199.707332413966 769.5559095127434
    vertex 11327.219305932857 -1199.8856376966492 769.6379650587774
  endloop
endfacet
facet normal -0.9999999999999999 -2.6828299946566186e-16 2.2139965518271625e-13
  outer loop
    vertex 11327.219305932858 -1199.7817622865946 772.3275481102739
    vertex 11327.219305932857 -1199.8856376966492 769.6379650587774
    vertex 11327.219305932858 -1199.955406706816 772.2360412701274
  endloop
endfacet
facet normal -0.9999999999999999 -2.6828299946566186e-16 2.2139965518271625e-13
  outer loop
    vertex 11327.219305932858 -1199.955406706816 772.2360412701274
    vertex 11327.219305932857 -1199.8856376966492 769.6379650587774
    vertex 11327.219305932857 -1200.0517071549466 769.7425921178412
  endloop
endfacet
facet normal -0.9999999999999999 -2.6828299946566186e-16 2.2139965518271625e-13
  outer loop
    vertex 11327.219305932858 -1199.955406706816 772.2360412701274
    vertex 11327.219305932857 -1200.0517071549466 769.7425921178412
    vertex 11327.219305932858 -1200.1156215355443 772.122652138712
  endloop
endfacet
facet normal -0.9999999999999999 -2.6828299946566186e-16 2.2139965518271625e-13
  outer loop
    vertex 11327.219305932858 -1200.1156215355443 772.122652138712
    vertex 11327.219305932857 -1200.0517071549466 769.7425921178412
    vertex 11327.219305932857 -1200.202699294384 769.8680004919463
  endloop
endfacet
facet normal -0.9999999999999999 -2.6828299946566186e-16 2.2139965518271625e-13
  outer loop
    vertex 11327.219305932858 -1200.1156215355443 772.122652138712
    vertex 11327.219305932857 -1200.202699294384 769.8680004919463
    vertex 11327.219305932858 -1200.25966545264 771.9893208355035
  endloop
endfacet
facet normal -0.9999999999999999 -2.6828299946566186e-16 2.2139965518271625e-13
  outer loop
    vertex 11327.219305932858 -1200.25966545264 771.9893208355035
    vertex 11327.219305932857 -1200.202699294384 769.8680004919463
    vertex 11327.219305932857 -1200.3360305975928 770.012044409042
  endloop
endfacet
facet normal -0.9999999999999999 -2.6828299946566186e-16 2.2139965518271625e-13
  outer loop
    vertex 11327.219305932858 -1200.25966545264 771.9893208355035
    vertex 11327.219305932857 -1200.3360305975928 770.012044409042
    vertex 11327.219305932858 -1200.3850738267452 771.838328696066
  endloop
endfacet
facet normal -0.9999999999999999 -2.6828299946566186e-16 2.2139965518271625e-13
  outer loop
    vertex 11327.219305932858 -1200.3850738267452 771.838328696066
    vertex 11327.219305932857 -1200.3360305975928 770.012044409042
    vertex 11327.219305932857 -1200.449419729008 770.1722592377703
  endloop
endfacet
facet normal -0.9999999999999999 -2.6828299946566186e-16 2.2139965518271625e-13
  outer loop
    vertex 11327.219305932858 -1200.3850738267452 771.838328696066
    vertex 11327.219305932857 -1200.449419729008 770.1722592377703
    vertex 11327.219305932858 -1200.489700885809 771.6722592377686
  endloop
endfacet
facet normal -0.9999999999999999 -2.6828299946566186e-16 2.2139965518271625e-13
  outer loop
    vertex 11327.219305932858 -1200.489700885809 771.6722592377686
    vertex 11327.219305932857 -1200.449419729008 770.1722592377703
    vertex 11327.219305932857 -1200.5409265691546 770.3459036579917
  endloop
endfacet
facet normal -0.9999999999999999 -2.6828299946566186e-16 2.2139965518271625e-13
  outer loop
    vertex 11327.219305932858 -1200.489700885809 771.6722592377686
    vertex 11327.219305932857 -1200.5409265691546 770.3459036579917
    vertex 11327.219305932858 -1200.571756431843 771.4939539550855
  endloop
endfacet
facet normal -0.9999999999999999 -2.6828299946566186e-16 2.2139965518271625e-13
  outer loop
    vertex 11327.219305932858 -1200.571756431843 771.4939539550855
    vertex 11327.219305932857 -1200.5409265691546 770.3459036579917
    vertex 11327.219305932857 -1200.6089854106265 770.5300065655327
  endloop
endfacet
facet normal -0.9999999999999999 -2.6828299946566186e-16 2.2139965518271625e-13
  outer loop
    vertex 11327.219305932858 -1200.571756431843 771.4939539550855
    vertex 11327.219305932857 -1200.6089854106265 770.5300065655327
    vertex 11327.219305932858 -1200.6298364717043 771.3064637008393
  endloop
endfacet
facet normal -0.9999999999999999 -2.6828299946566186e-16 2.2139965518271625e-13
  outer loop
    vertex 11327.219305932858 -1200.6298364717043 771.3064637008393
    vertex 11327.219305932857 -1200.6089854106265 770.5300065655327
    vertex 11327.219305932858 -1200.6524317477767 770.7214179086025
  endloop
endfacet
facet normal -0.9999999999999999 -2.6828299946566186e-16 2.2139965518271625e-13
  outer loop
    vertex 11327.219305932858 -1200.6298364717043 771.3064637008393
    vertex 11327.219305932858 -1200.6524317477767 770.7214179086025
    vertex 11327.219305932858 -1200.6629472398079 771.1129964852622
  endloop
endfacet
facet normal -0.9999999999999999 -2.6828299946566186e-16 2.2139965518271625e-13
  outer loop
    vertex 11327.219305932858 -1200.6629472398079 771.1129964852622
    vertex 11327.219305932858 -1200.6524317477767 770.7214179086025
    vertex 11327.219305932858 -1200.6705222017317 770.9168625860519
  endloop
endfacet
facet normal 4.874488325951642e-14 0.9751947404764043 0.22134863484367479
  outer loop
    vertex 11327.219305932858 -1197.6886126556901 771.1928695771032
    vertex 11440.096704898135 -1197.7320589928404 771.3842809201473
    vertex 11440.096704898135 -1197.6886126556901 771.1928695770774
  endloop
endfacet
facet normal 4.874488325951642e-14 0.9751947404764043 0.22134863484367479
  outer loop
    vertex 11440.096704898135 -1197.7320589928404 771.3842809201473
    vertex 11327.219305932858 -1197.6886126556901 771.1928695771032
    vertex 11327.219305932858 -1197.7320589928404 771.3842809201731
  endloop
endfacet
facet normal 7.651723550288377e-14 0.9379600198249859 0.3467434227348982
  outer loop
    vertex 11327.219305932858 -1197.7320589928404 771.3842809201731
    vertex 11440.096704898135 -1197.8001178343122 771.5683838276883
    vertex 11440.096704898135 -1197.7320589928404 771.3842809201473
  endloop
endfacet
facet normal 7.651723550288377e-14 0.9379600198249859 0.3467434227348982
  outer loop
    vertex 11440.096704898135 -1197.8001178343122 771.5683838276883
    vertex 11327.219305932858 -1197.7320589928404 771.3842809201731
    vertex 11327.219305932858 -1197.8001178343122 771.5683838277141
  endloop
endfacet
facet normal 1.0298035663246465e-13 0.8846765431822292 0.46620533452883295
  outer loop
    vertex 11327.219305932858 -1197.8001178343122 771.5683838277141
    vertex 11440.096704898135 -1197.8916246744589 771.7420282479097
    vertex 11440.096704898135 -1197.8001178343122 771.5683838276883
  endloop
endfacet
facet normal 1.0298035663246465e-13 0.8846765431822292 0.46620533452883295
  outer loop
    vertex 11440.096704898135 -1197.8916246744589 771.7420282479097
    vertex 11327.219305932858 -1197.8001178343122 771.5683838277141
    vertex 11327.219305932858 -1197.8916246744589 771.7420282479355
  endloop
endfacet
facet normal 1.276814553082368e-13 0.8162560056075685 0.5776903437911844
  outer loop
    vertex 11327.219305932858 -1197.8916246744589 771.7420282479355
    vertex 11440.096704898135 -1198.0050138058743 771.9022430766379
    vertex 11440.096704898135 -1197.8916246744589 771.7420282479097
  endloop
endfacet
facet normal 1.276814553082368e-13 0.8162560056075685 0.5776903437911844
  outer loop
    vertex 11440.096704898135 -1198.0050138058743 771.9022430766379
    vertex 11327.219305932858 -1197.8916246744589 771.7420282479355
    vertex 11327.219305932858 -1198.0050138058743 771.9022430766637
  endloop
endfacet
facet normal 1.5019788888385244e-13 0.7338691014675951 0.6792909111059448
  outer loop
    vertex 11327.219305932858 -1198.0050138058743 771.9022430766637
    vertex 11440.096704898135 -1198.1383451090828 772.0462869937336
    vertex 11440.096704898135 -1198.0050138058743 771.9022430766379
  endloop
endfacet
facet normal 1.5019788888385244e-13 0.7338691014675951 0.6792909111059448
  outer loop
    vertex 11440.096704898135 -1198.1383451090828 772.0462869937336
    vertex 11327.219305932858 -1198.0050138058743 771.9022430766637
    vertex 11327.219305932858 -1198.1383451090828 772.0462869937594
  endloop
endfacet
facet normal 1.7014439493784911e-13 0.6389254935349581 0.7692686225962362
  outer loop
    vertex 11440.096704898135 -1198.1383451090828 772.0462869937336
    vertex 11327.219305932858 -1198.2893372485203 772.1716953678646
    vertex 11440.096704898135 -1198.2893372485203 772.1716953678388
  endloop
endfacet
facet normal 1.7014439493784911e-13 0.6389254935349581 0.7692686225962362
  outer loop
    vertex 11327.219305932858 -1198.2893372485203 772.1716953678646
    vertex 11440.096704898135 -1198.1383451090828 772.0462869937336
    vertex 11327.219305932858 -1198.1383451090828 772.0462869937594
  endloop
endfacet
facet normal 1.8717968322158442e-13 0.5330496932640236 0.8460839346726365
  outer loop
    vertex 11440.096704898135 -1198.2893372485203 772.1716953678388
    vertex 11327.219305932858 -1198.4554067068177 772.2763224269285
    vertex 11440.096704898135 -1198.4554067068177 772.2763224269027
  endloop
endfacet
facet normal 1.8717968322158442e-13 0.5330496932640236 0.8460839346726365
  outer loop
    vertex 11327.219305932858 -1198.4554067068177 772.2763224269285
    vertex 11440.096704898135 -1198.2893372485203 772.1716953678388
    vertex 11327.219305932858 -1198.2893372485203 772.1716953678646
  endloop
endfacet
facet normal 2.0101227522939847e-13 0.4180532649518612 0.9084225160480607
  outer loop
    vertex 11440.096704898135 -1198.4554067068177 772.2763224269027
    vertex 11327.219305932858 -1198.6337119895009 772.3583779729624
    vertex 11440.096704898135 -1198.6337119895009 772.3583779729366
  endloop
endfacet
facet normal 2.0101227522939847e-13 0.4180532649518612 0.9084225160480607
  outer loop
    vertex 11327.219305932858 -1198.6337119895009 772.3583779729624
    vertex 11440.096704898135 -1198.4554067068177 772.2763224269027
    vertex 11327.219305932858 -1198.4554067068177 772.2763224269285
  endloop
endfacet
facet normal 2.1140549147685687e-13 0.29590382937057036 0.9552177363113776
  outer loop
    vertex 11440.096704898135 -1198.6337119895009 772.3583779729366
    vertex 11327.219305932858 -1198.821202243747 772.4164580128236
    vertex 11440.096704898135 -1198.821202243747 772.4164580127978
  endloop
endfacet
facet normal 2.1140549147685687e-13 0.29590382937057036 0.9552177363113776
  outer loop
    vertex 11327.219305932858 -1198.821202243747 772.4164580128236
    vertex 11440.096704898135 -1198.6337119895009 772.3583779729366
    vertex 11327.219305932858 -1198.6337119895009 772.3583779729624
  endloop
endfacet
facet normal 2.1818150115248963e-13 0.16869139722855847 0.9856689162701016
  outer loop
    vertex 11440.096704898135 -1198.821202243747 772.4164580127978
    vertex 11327.219305932858 -1199.014669459324 772.4495687809273
    vertex 11440.096704898135 -1199.014669459324 772.4495687809015
  endloop
endfacet
facet normal 2.1818150115248963e-13 0.16869139722855847 0.9856689162701016
  outer loop
    vertex 11327.219305932858 -1199.014669459324 772.4495687809273
    vertex 11440.096704898135 -1198.821202243747 772.4164580127978
    vertex 11327.219305932858 -1198.821202243747 772.4164580128236
  endloop
endfacet
facet normal 2.212243648520674e-13 0.03859260850973657 0.9992550277924119
  outer loop
    vertex 11327.219305932858 -1199.014669459324 772.4495687809273
    vertex 11440.096704898135 -1199.2108033585343 772.4571437428253
    vertex 11440.096704898135 -1199.014669459324 772.4495687809015
  endloop
endfacet
facet normal 2.212243648520674e-13 0.03859260850973657 0.9992550277924119
  outer loop
    vertex 11440.096704898135 -1199.2108033585343 772.4571437428253
    vertex 11327.219305932858 -1199.014669459324 772.4495687809273
    vertex 11327.219305932858 -1199.2108033585343 772.4571437428511
  endloop
endfacet
facet normal 2.204820183340416e-13 -0.09216651044049806 0.995743608743346
  outer loop
    vertex 11327.219305932858 -1199.2108033585343 772.4571437428511
    vertex 11440.096704898135 -1199.4062480359837 772.4390532888706
    vertex 11440.096704898135 -1199.2108033585343 772.4571437428253
  endloop
endfacet
facet normal 2.204820183340416e-13 -0.09216651044049806 0.995743608743346
  outer loop
    vertex 11440.096704898135 -1199.4062480359837 772.4390532888706
    vertex 11327.219305932858 -1199.2108033585343 772.4571437428511
    vertex 11327.219305932858 -1199.4062480359837 772.4390532888964
  endloop
endfacet
facet normal 2.1596716335315786e-13 -0.22134863484367479 0.9751947404764043
  outer loop
    vertex 11327.219305932858 -1199.4062480359837 772.4390532888964
    vertex 11440.096704898135 -1199.5976593790535 772.3956069517201
    vertex 11440.096704898135 -1199.4062480359837 772.4390532888706
  endloop
endfacet
facet normal 2.1596716335315786e-13 -0.22134863484367479 0.9751947404764043
  outer loop
    vertex 11440.096704898135 -1199.5976593790535 772.3956069517201
    vertex 11327.219305932858 -1199.4062480359837 772.4390532888964
    vertex 11327.219305932858 -1199.5976593790535 772.3956069517459
  endloop
endfacet
facet normal 2.0775705032988712e-13 -0.34674342273532377 0.9379600198248284
  outer loop
    vertex 11327.219305932858 -1199.5976593790535 772.3956069517459
    vertex 11440.096704898135 -1199.7817622865946 772.3275481102481
    vertex 11440.096704898135 -1199.5976593790535 772.3956069517201
  endloop
endfacet
facet normal 2.0775705032988712e-13 -0.34674342273532377 0.9379600198248284
  outer loop
    vertex 11440.096704898135 -1199.7817622865946 772.3275481102481
    vertex 11327.219305932858 -1199.5976593790535 772.3956069517459
    vertex 11327.219305932858 -1199.7817622865946 772.3275481102739
  endloop
endfacet
facet normal 1.959921565743299e-13 -0.4662053345285528 0.8846765431823769
  outer loop
    vertex 11327.219305932858 -1199.7817622865946 772.3275481102739
    vertex 11440.096704898135 -1199.955406706816 772.2360412701016
    vertex 11440.096704898135 -1199.7817622865946 772.3275481102481
  endloop
endfacet
facet normal 1.959921565743299e-13 -0.4662053345285528 0.8846765431823769
  outer loop
    vertex 11440.096704898135 -1199.955406706816 772.2360412701016
    vertex 11327.219305932858 -1199.7817622865946 772.3275481102739
    vertex 11327.219305932858 -1199.955406706816 772.2360412701274
  endloop
endfacet
facet normal 1.808737826805532e-13 -0.5776903437910469 0.8162560056076661
  outer loop
    vertex 11327.219305932858 -1199.955406706816 772.2360412701274
    vertex 11440.096704898135 -1200.1156215355443 772.1226521386862
    vertex 11440.096704898135 -1199.955406706816 772.2360412701016
  endloop
endfacet
facet normal 1.808737826805532e-13 -0.5776903437910469 0.8162560056076661
  outer loop
    vertex 11440.096704898135 -1200.1156215355443 772.1226521386862
    vertex 11327.219305932858 -1199.955406706816 772.2360412701274
    vertex 11327.219305932858 -1200.1156215355443 772.122652138712
  endloop
endfacet
facet normal 1.6266060821730094e-13 -0.6792909111060218 0.7338691014675238
  outer loop
    vertex 11327.219305932858 -1200.1156215355443 772.122652138712
    vertex 11440.096704898135 -1200.25966545264 771.9893208354777
    vertex 11440.096704898135 -1200.1156215355443 772.1226521386862
  endloop
endfacet
facet normal 1.6266060821730094e-13 -0.6792909111060218 0.7338691014675238
  outer loop
    vertex 11440.096704898135 -1200.25966545264 771.9893208354777
    vertex 11327.219305932858 -1200.1156215355443 772.122652138712
    vertex 11327.219305932858 -1200.25966545264 771.9893208355035
  endloop
endfacet
facet normal 1.4166426564958779e-13 -0.7692686225960997 0.6389254935351223
  outer loop
    vertex 11440.096704898135 -1200.25966545264 771.9893208354777
    vertex 11327.219305932858 -1200.3850738267452 771.838328696066
    vertex 11440.096704898135 -1200.3850738267452 771.8383286960402
  endloop
endfacet
facet normal 1.4166426564958779e-13 -0.7692686225960997 0.6389254935351223
  outer loop
    vertex 11327.219305932858 -1200.3850738267452 771.838328696066
    vertex 11440.096704898135 -1200.25966545264 771.9893208354777
    vertex 11327.219305932858 -1200.25966545264 771.9893208355035
  endloop
endfacet
facet normal 1.1824400821965376e-13 -0.8460839346727717 0.5330496932638091
  outer loop
    vertex 11440.096704898135 -1200.3850738267452 771.8383286960402
    vertex 11327.219305932858 -1200.489700885809 771.6722592377686
    vertex 11440.096704898135 -1200.489700885809 771.6722592377428
  endloop
endfacet
facet normal 1.1824400821965376e-13 -0.8460839346727717 0.5330496932638091
  outer loop
    vertex 11327.219305932858 -1200.489700885809 771.6722592377686
    vertex 11440.096704898135 -1200.3850738267452 771.8383286960402
    vertex 11327.219305932858 -1200.3850738267452 771.838328696066
  endloop
endfacet
facet normal 9.280056302573297e-14 -0.9084225160480718 0.41805326495183703
  outer loop
    vertex 11440.096704898135 -1200.489700885809 771.6722592377428
    vertex 11327.219305932858 -1200.571756431843 771.4939539550855
    vertex 11440.096704898135 -1200.571756431843 771.4939539550597
  endloop
endfacet
facet normal 9.280056302573297e-14 -0.9084225160480718 0.41805326495183703
  outer loop
    vertex 11327.219305932858 -1200.571756431843 771.4939539550855
    vertex 11440.096704898135 -1200.489700885809 771.6722592377428
    vertex 11327.219305932858 -1200.489700885809 771.6722592377686
  endloop
endfacet
facet normal 6.576927446940691e-14 -0.9552177363112699 0.2959038293709178
  outer loop
    vertex 11440.096704898135 -1200.571756431843 771.4939539550597
    vertex 11327.219305932858 -1200.6298364717043 771.3064637008393
    vertex 11440.096704898135 -1200.6298364717043 771.3064637008135
  endloop
endfacet
facet normal 6.576927446940691e-14 -0.9552177363112699 0.2959038293709178
  outer loop
    vertex 11327.219305932858 -1200.6298364717043 771.3064637008393
    vertex 11440.096704898135 -1200.571756431843 771.4939539550597
    vertex 11327.219305932858 -1200.571756431843 771.4939539550855
  endloop
endfacet
facet normal 3.761265539195816e-14 -0.9856689162701576 0.16869139722823173
  outer loop
    vertex 11440.096704898135 -1200.6298364717043 771.3064637008135
    vertex 11327.219305932858 -1200.6629472398079 771.1129964852622
    vertex 11440.096704898135 -1200.6629472398079 771.1129964852364
  endloop
endfacet
facet normal 3.761265539195816e-14 -0.9856689162701576 0.16869139722823173
  outer loop
    vertex 11327.219305932858 -1200.6629472398079 771.1129964852622
    vertex 11440.096704898135 -1200.6298364717043 771.3064637008135
    vertex 11327.219305932858 -1200.6298364717043 771.3064637008393
  endloop
endfacet
facet normal 8.812473352741393e-15 -0.9992550277924127 0.0385926085097224
  outer loop
    vertex 11440.096704898135 -1200.6629472398079 771.1129964852364
    vertex 11327.219305932858 -1200.6705222017317 770.9168625860519
    vertex 11440.096704898135 -1200.6705222017317 770.9168625860261
  endloop
endfacet
facet normal 8.812473352741393e-15 -0.9992550277924127 0.0385926085097224
  outer loop
    vertex 11327.219305932858 -1200.6705222017317 770.9168625860519
    vertex 11440.096704898135 -1200.6629472398079 771.1129964852364
    vertex 11327.219305932858 -1200.6629472398079 771.1129964852622
  endloop
endfacet
facet normal -2.0138492548912175e-14 -0.9957436087433276 -0.09216651044069728
  outer loop
    vertex 11440.096704898135 -1200.6705222017317 770.9168625860261
    vertex 11327.219305932858 -1200.6524317477767 770.7214179086025
    vertex 11440.096704898135 -1200.6524317477767 770.7214179085768
  endloop
endfacet
facet normal -2.0138492548912175e-14 -0.9957436087433276 -0.09216651044069728
  outer loop
    vertex 11327.219305932858 -1200.6524317477767 770.7214179086025
    vertex 11440.096704898135 -1200.6705222017317 770.9168625860261
    vertex 11327.219305932858 -1200.6705222017317 770.9168625860519
  endloop
endfacet
facet normal -4.874488325951642e-14 -0.9751947404764043 -0.22134863484367479
  outer loop
    vertex 11440.096704898135 -1200.6524317477767 770.7214179085768
    vertex 11327.219305932857 -1200.6089854106265 770.5300065655327
    vertex 11440.096704898135 -1200.6089854106265 770.5300065655069
  endloop
endfacet
facet normal -4.874488325951642e-14 -0.9751947404764043 -0.22134863484367479
  outer loop
    vertex 11327.219305932857 -1200.6089854106265 770.5300065655327
    vertex 11440.096704898135 -1200.6524317477767 770.7214179085768
    vertex 11327.219305932858 -1200.6524317477767 770.7214179086025
  endloop
endfacet
facet normal -7.651723550288377e-14 -0.9379600198249859 -0.3467434227348982
  outer loop
    vertex 11440.096704898135 -1200.6089854106265 770.5300065655069
    vertex 11327.219305932857 -1200.5409265691546 770.3459036579917
    vertex 11440.096704898135 -1200.5409265691546 770.3459036579659
  endloop
endfacet
facet normal -7.651723550288377e-14 -0.9379600198249859 -0.3467434227348982
  outer loop
    vertex 11327.219305932857 -1200.5409265691546 770.3459036579917
    vertex 11440.096704898135 -1200.6089854106265 770.5300065655069
    vertex 11327.219305932857 -1200.6089854106265 770.5300065655327
  endloop
endfacet
facet normal -1.0298035663246465e-13 -0.8846765431822292 -0.46620533452883295
  outer loop
    vertex 11440.096704898135 -1200.5409265691546 770.3459036579659
    vertex 11327.219305932857 -1200.449419729008 770.1722592377703
    vertex 11440.096704898135 -1200.449419729008 770.1722592377445
  endloop
endfacet
facet normal -1.0298035663246465e-13 -0.8846765431822292 -0.46620533452883295
  outer loop
    vertex 11327.219305932857 -1200.449419729008 770.1722592377703
    vertex 11440.096704898135 -1200.5409265691546 770.3459036579659
    vertex 11327.219305932857 -1200.5409265691546 770.3459036579917
  endloop
endfacet
facet normal -1.276814553082368e-13 -0.8162560056075685 -0.5776903437911844
  outer loop
    vertex 11440.096704898135 -1200.449419729008 770.1722592377445
    vertex 11327.219305932857 -1200.3360305975928 770.012044409042
    vertex 11440.096704898135 -1200.3360305975928 770.0120444090163
  endloop
endfacet
facet normal -1.276814553082368e-13 -0.8162560056075685 -0.5776903437911844
  outer loop
    vertex 11327.219305932857 -1200.3360305975928 770.012044409042
    vertex 11440.096704898135 -1200.449419729008 770.1722592377445
    vertex 11327.219305932857 -1200.449419729008 770.1722592377703
  endloop
endfacet
facet normal -1.5019788888385244e-13 -0.7338691014675951 -0.6792909111059448
  outer loop
    vertex 11440.096704898135 -1200.3360305975928 770.0120444090163
    vertex 11327.219305932857 -1200.202699294384 769.8680004919463
    vertex 11440.096704898135 -1200.202699294384 769.8680004919205
  endloop
endfacet
facet normal -1.5019788888385244e-13 -0.7338691014675951 -0.6792909111059448
  outer loop
    vertex 11327.219305932857 -1200.202699294384 769.8680004919463
    vertex 11440.096704898135 -1200.3360305975928 770.0120444090163
    vertex 11327.219305932857 -1200.3360305975928 770.012044409042
  endloop
endfacet
facet normal -1.7014439493784911e-13 -0.6389254935349581 -0.7692686225962362
  outer loop
    vertex 11327.219305932857 -1200.202699294384 769.8680004919463
    vertex 11440.096704898135 -1200.0517071549466 769.7425921178154
    vertex 11440.096704898135 -1200.202699294384 769.8680004919205
  endloop
endfacet
facet normal -1.7014439493784911e-13 -0.6389254935349581 -0.7692686225962362
  outer loop
    vertex 11440.096704898135 -1200.0517071549466 769.7425921178154
    vertex 11327.219305932857 -1200.202699294384 769.8680004919463
    vertex 11327.219305932857 -1200.0517071549466 769.7425921178412
  endloop
endfacet
facet normal -1.8717968322158442e-13 -0.5330496932640236 -0.8460839346726365
  outer loop
    vertex 11327.219305932857 -1200.0517071549466 769.7425921178412
    vertex 11440.096704898135 -1199.8856376966492 769.6379650587514
    vertex 11440.096704898135 -1200.0517071549466 769.7425921178154
  endloop
endfacet
facet normal -1.8717968322158442e-13 -0.5330496932640236 -0.8460839346726365
  outer loop
    vertex 11440.096704898135 -1199.8856376966492 769.6379650587514
    vertex 11327.219305932857 -1200.0517071549466 769.7425921178412
    vertex 11327.219305932857 -1199.8856376966492 769.6379650587774
  endloop
endfacet
facet normal -2.0101227522939847e-13 -0.4180532649518612 -0.9084225160480607
  outer loop
    vertex 11327.219305932857 -1199.8856376966492 769.6379650587774
    vertex 11440.096704898135 -1199.707332413966 769.5559095127176
    vertex 11440.096704898135 -1199.8856376966492 769.6379650587514
  endloop
endfacet
facet normal -2.0101227522939847e-13 -0.4180532649518612 -0.9084225160480607
  outer loop
    vertex 11440.096704898135 -1199.707332413966 769.5559095127176
    vertex 11327.219305932857 -1199.8856376966492 769.6379650587774
    vertex 11327.219305932857 -1199.707332413966 769.5559095127434
  endloop
endfacet
facet normal -2.1140549147685687e-13 -0.29590382937057036 -0.9552177363113776
  outer loop
    vertex 11327.219305932857 -1199.707332413966 769.5559095127434
    vertex 11440.096704898135 -1199.51984215972 769.4978294728564
    vertex 11440.096704898135 -1199.707332413966 769.5559095127176
  endloop
endfacet
facet normal -2.1140549147685687e-13 -0.29590382937057036 -0.9552177363113776
  outer loop
    vertex 11440.096704898135 -1199.51984215972 769.4978294728564
    vertex 11327.219305932857 -1199.707332413966 769.5559095127434
    vertex 11327.219305932857 -1199.51984215972 769.4978294728822
  endloop
endfacet
facet normal -2.1818150115248963e-13 -0.16869139722855847 -0.9856689162701016
  outer loop
    vertex 11327.219305932857 -1199.51984215972 769.4978294728822
    vertex 11440.096704898135 -1199.3263749441428 769.4647187047527
    vertex 11440.096704898135 -1199.51984215972 769.4978294728564
  endloop
endfacet
facet normal -2.1818150115248963e-13 -0.16869139722855847 -0.9856689162701016
  outer loop
    vertex 11440.096704898135 -1199.3263749441428 769.4647187047527
    vertex 11327.219305932857 -1199.51984215972 769.4978294728822
    vertex 11327.219305932857 -1199.3263749441428 769.4647187047785
  endloop
endfacet
facet normal -2.212243648520674e-13 -0.03859260850973657 -0.9992550277924119
  outer loop
    vertex 11327.219305932857 -1199.3263749441428 769.4647187047785
    vertex 11440.096704898135 -1199.1302410449325 769.4571437428289
    vertex 11440.096704898135 -1199.3263749441428 769.4647187047527
  endloop
endfacet
facet normal -2.212243648520674e-13 -0.03859260850973657 -0.9992550277924119
  outer loop
    vertex 11440.096704898135 -1199.1302410449325 769.4571437428289
    vertex 11327.219305932857 -1199.3263749441428 769.4647187047785
    vertex 11327.219305932857 -1199.1302410449325 769.4571437428547
  endloop
endfacet
facet normal -2.204820183340416e-13 0.09216651044049806 -0.995743608743346
  outer loop
    vertex 11440.096704898135 -1199.1302410449325 769.4571437428289
    vertex 11327.219305932857 -1198.9347963674832 769.4752341968094
    vertex 11440.096704898135 -1198.9347963674832 769.4752341967836
  endloop
endfacet
facet normal -2.204820183340416e-13 0.09216651044049806 -0.995743608743346
  outer loop
    vertex 11327.219305932857 -1198.9347963674832 769.4752341968094
    vertex 11440.096704898135 -1199.1302410449325 769.4571437428289
    vertex 11327.219305932857 -1199.1302410449325 769.4571437428547
  endloop
endfacet
facet normal -2.1596716335315786e-13 0.22134863484367479 -0.9751947404764043
  outer loop
    vertex 11440.096704898135 -1198.9347963674832 769.4752341967836
    vertex 11327.219305932857 -1198.7433850244133 769.5186805339598
    vertex 11440.096704898135 -1198.7433850244133 769.5186805339341
  endloop
endfacet
facet normal -2.1596716335315786e-13 0.22134863484367479 -0.9751947404764043
  outer loop
    vertex 11327.219305932857 -1198.7433850244133 769.5186805339598
    vertex 11440.096704898135 -1198.9347963674832 769.4752341967836
    vertex 11327.219305932857 -1198.9347963674832 769.4752341968094
  endloop
endfacet
facet normal -2.0775705032988712e-13 0.34674342273532377 -0.9379600198248284
  outer loop
    vertex 11440.096704898135 -1198.7433850244133 769.5186805339341
    vertex 11327.219305932857 -1198.5592821168723 769.5867393754318
    vertex 11440.096704898135 -1198.5592821168723 769.5867393754061
  endloop
endfacet
facet normal -2.0775705032988712e-13 0.34674342273532377 -0.9379600198248284
  outer loop
    vertex 11327.219305932857 -1198.5592821168723 769.5867393754318
    vertex 11440.096704898135 -1198.7433850244133 769.5186805339341
    vertex 11327.219305932857 -1198.7433850244133 769.5186805339598
  endloop
endfacet
facet normal -1.959921565743299e-13 0.4662053345285528 -0.8846765431823769
  outer loop
    vertex 11440.096704898135 -1198.5592821168723 769.5867393754061
    vertex 11327.219305932857 -1198.385637696651 769.6782462155783
    vertex 11440.096704898135 -1198.385637696651 769.6782462155525
  endloop
endfacet
facet normal -1.959921565743299e-13 0.4662053345285528 -0.8846765431823769
  outer loop
    vertex 11327.219305932857 -1198.385637696651 769.6782462155783
    vertex 11440.096704898135 -1198.5592821168723 769.5867393754061
    vertex 11327.219305932857 -1198.5592821168723 769.5867393754318
  endloop
endfacet
facet normal -1.808737826805532e-13 0.5776903437910469 -0.8162560056076661
  outer loop
    vertex 11440.096704898135 -1198.385637696651 769.6782462155525
    vertex 11327.219305932857 -1198.2254228679226 769.7916353469938
    vertex 11440.096704898135 -1198.2254228679226 769.791635346968
  endloop
endfacet
facet normal -1.808737826805532e-13 0.5776903437910469 -0.8162560056076661
  outer loop
    vertex 11327.219305932857 -1198.2254228679226 769.7916353469938
    vertex 11440.096704898135 -1198.385637696651 769.6782462155525
    vertex 11327.219305932857 -1198.385637696651 769.6782462155783
  endloop
endfacet
facet normal -1.6266060821730094e-13 0.6792909111060218 -0.7338691014675238
  outer loop
    vertex 11440.096704898135 -1198.2254228679226 769.791635346968
    vertex 11327.219305932857 -1198.081378950827 769.9249666502022
    vertex 11440.096704898135 -1198.081378950827 769.9249666501765
  endloop
endfacet
facet normal -1.6266060821730094e-13 0.6792909111060218 -0.7338691014675238
  outer loop
    vertex 11327.219305932857 -1198.081378950827 769.9249666502022
    vertex 11440.096704898135 -1198.2254228679226 769.791635346968
    vertex 11327.219305932857 -1198.2254228679226 769.7916353469938
  endloop
endfacet
facet normal -1.4166426564958779e-13 0.7692686225960997 -0.6389254935351223
  outer loop
    vertex 11327.219305932857 -1198.081378950827 769.9249666502022
    vertex 11440.096704898135 -1197.9559705767217 770.075958789614
    vertex 11440.096704898135 -1198.081378950827 769.9249666501765
  endloop
endfacet
facet normal -1.4166426564958779e-13 0.7692686225960997 -0.6389254935351223
  outer loop
    vertex 11440.096704898135 -1197.9559705767217 770.075958789614
    vertex 11327.219305932857 -1198.081378950827 769.9249666502022
    vertex 11327.219305932857 -1197.9559705767217 770.0759587896398
  endloop
endfacet
facet normal -1.1824400821965376e-13 0.8460839346727717 -0.5330496932638091
  outer loop
    vertex 11327.219305932857 -1197.9559705767217 770.0759587896398
    vertex 11440.096704898135 -1197.8513435176578 770.2420282479114
    vertex 11440.096704898135 -1197.9559705767217 770.075958789614
  endloop
endfacet
facet normal -1.1824400821965376e-13 0.8460839346727717 -0.5330496932638091
  outer loop
    vertex 11440.096704898135 -1197.8513435176578 770.2420282479114
    vertex 11327.219305932857 -1197.9559705767217 770.0759587896398
    vertex 11327.219305932857 -1197.8513435176578 770.2420282479372
  endloop
endfacet
facet normal -9.280056302573297e-14 0.9084225160480718 -0.41805326495183703
  outer loop
    vertex 11327.219305932857 -1197.8513435176578 770.2420282479372
    vertex 11440.096704898135 -1197.769287971624 770.4203335305945
    vertex 11440.096704898135 -1197.8513435176578 770.2420282479114
  endloop
endfacet
facet normal -9.280056302573297e-14 0.9084225160480718 -0.41805326495183703
  outer loop
    vertex 11440.096704898135 -1197.769287971624 770.4203335305945
    vertex 11327.219305932857 -1197.8513435176578 770.2420282479372
    vertex 11327.219305932857 -1197.769287971624 770.4203335306203
  endloop
endfacet
facet normal -6.576927446940691e-14 0.9552177363112699 -0.2959038293709178
  outer loop
    vertex 11327.219305932857 -1197.769287971624 770.4203335306203
    vertex 11440.096704898135 -1197.7112079317626 770.6078237848407
    vertex 11440.096704898135 -1197.769287971624 770.4203335305945
  endloop
endfacet
facet normal -6.576927446940691e-14 0.9552177363112699 -0.2959038293709178
  outer loop
    vertex 11440.096704898135 -1197.7112079317626 770.6078237848407
    vertex 11327.219305932857 -1197.769287971624 770.4203335306203
    vertex 11327.219305932857 -1197.7112079317626 770.6078237848665
  endloop
endfacet
facet normal -3.761265539195816e-14 0.9856689162701576 -0.16869139722823173
  outer loop
    vertex 11327.219305932857 -1197.7112079317626 770.6078237848665
    vertex 11440.096704898135 -1197.678097163659 770.8012910004178
    vertex 11440.096704898135 -1197.7112079317626 770.6078237848407
  endloop
endfacet
facet normal -3.761265539195816e-14 0.9856689162701576 -0.16869139722823173
  outer loop
    vertex 11440.096704898135 -1197.678097163659 770.8012910004178
    vertex 11327.219305932857 -1197.7112079317626 770.6078237848665
    vertex 11327.219305932858 -1197.678097163659 770.8012910004436
  endloop
endfacet
facet normal -8.812473352741393e-15 0.9992550277924127 -0.0385926085097224
  outer loop
    vertex 11327.219305932858 -1197.678097163659 770.8012910004436
    vertex 11440.096704898135 -1197.6705222017351 770.9974248996281
    vertex 11440.096704898135 -1197.678097163659 770.8012910004178
  endloop
endfacet
facet normal -8.812473352741393e-15 0.9992550277924127 -0.0385926085097224
  outer loop
    vertex 11440.096704898135 -1197.6705222017351 770.9974248996281
    vertex 11327.219305932858 -1197.678097163659 770.8012910004436
    vertex 11327.219305932858 -1197.6705222017351 770.9974248996539
  endloop
endfacet
facet normal 2.0138492548912175e-14 0.9957436087433276 0.09216651044069728
  outer loop
    vertex 11327.219305932858 -1197.6705222017351 770.9974248996539
    vertex 11440.096704898135 -1197.6886126556901 771.1928695770774
    vertex 11440.096704898135 -1197.6705222017351 770.9974248996281
  endloop
endfacet
facet normal 2.0138492548912175e-14 0.9957436087433276 0.09216651044069728
  outer loop
    vertex 11440.096704898135 -1197.6886126556901 771.1928695770774
    vertex 11327.219305932858 -1197.6705222017351 770.9974248996539
    vertex 11327.219305932858 -1197.6886126556901 771.1928695771032
  endloop
endfacet
facet normal 0.9999999999999999 3.057909765477822e-13 -1.1820006175069604e-12
  outer loop
    vertex 11440.096704898135 -1210.6528413944643 770.7817929594124
    vertex 11440.096704898135 -1215.2170727352159 769.457143742829
    vertex 11440.096704898133 -1210.6524317477767 769.457143742829
  endloop
endfacet
facet normal 0.9999999999999999 3.057909765477822e-13 -1.1820006175069604e-12
  outer loop
    vertex 11440.096704898135 -1215.2170727352159 769.457143742829
    vertex 11440.096704898135 -1210.6528413944643 770.7817929594124
    vertex 11440.096704898135 -1211.0098390662913 770.8112803998932
  endloop
endfacet
facet normal 0.9999999999999999 3.057909765477822e-13 -1.1820006175069604e-12
  outer loop
    vertex 11440.096704898135 -1215.2170727352159 769.457143742829
    vertex 11440.096704898135 -1211.0098390662913 770.8112803998932
    vertex 11440.096704898135 -1211.3943660507143 770.8372474163974
  endloop
endfacet
facet normal 0.9999999999999999 3.057909765477822e-13 -1.1820006175069604e-12
  outer loop
    vertex 11440.096704898135 -1215.2170727352159 769.457143742829
    vertex 11440.096704898135 -1211.3943660507143 770.8372474163974
    vertex 11440.096704898137 -1211.7792389429248 770.8574500037812
  endloop
endfacet
facet normal 0.9999999999999999 3.057909765477822e-13 -1.1820006175069604e-12
  outer loop
    vertex 11440.096704898135 -1215.2170727352159 769.457143742829
    vertex 11440.096704898137 -1211.7792389429248 770.8574500037812
    vertex 11440.096704898137 -1212.1643713334574 770.871883626275
  endloop
endfacet
facet normal 0.9999999999999999 3.057909765477822e-13 -1.1820006175069604e-12
  outer loop
    vertex 11440.096704898135 -1215.2170727352159 769.457143742829
    vertex 11440.096704898137 -1212.1643713334574 770.871883626275
    vertex 11440.096704898137 -1212.5496767545847 770.8805450433241
  endloop
endfacet
facet normal 0.9999999999999999 3.057909765477822e-13 -1.1820006175069604e-12
  outer loop
    vertex 11440.096704898135 -1215.2170727352159 769.457143742829
    vertex 11440.096704898137 -1212.5496767545847 770.8805450433241
    vertex 11440.096704898137 -1212.9350686997325 770.883432310317
  endloop
endfacet
facet normal 0.9999999999999999 3.057909765477822e-13 -1.1820006175069604e-12
  outer loop
    vertex 11440.096704898135 -1215.2170727352159 769.457143742829
    vertex 11440.096704898137 -1212.9350686997325 770.883432310317
    vertex 11440.096704898137 -1213.3204606429001 770.8805447790204
  endloop
endfacet
facet normal 0.9999999999999999 3.057909765477822e-13 -1.1820006175069604e-12
  outer loop
    vertex 11440.096704898135 -1215.2170727352159 769.457143742829
    vertex 11440.096704898137 -1213.3204606429001 770.8805447790204
    vertex 11440.096704898137 -1213.7057660580874 770.8718830977268
  endloop
endfacet
facet normal 0.9999999999999999 3.057909765477822e-13 -1.1820006175069604e-12
  outer loop
    vertex 11440.096704898135 -1215.2170727352159 769.457143742829
    vertex 11440.096704898137 -1213.7057660580874 770.8718830977268
    vertex 11440.096704898137 -1214.0908984387213 770.8574492111073
  endloop
endfacet
facet normal 0.9999999999999999 3.057909765477822e-13 -1.1820006175069604e-12
  outer loop
    vertex 11440.096704898135 -1215.2170727352159 769.457143742829
    vertex 11440.096704898137 -1214.0908984387213 770.8574492111073
    vertex 11440.096704898137 -1214.4757713170766 770.8372463597758
  endloop
endfacet
facet normal 0.9999999999999999 3.057909765477822e-13 -1.1820006175069604e-12
  outer loop
    vertex 11440.096704898135 -1215.2170727352159 769.457143742829
    vertex 11440.096704898137 -1214.4757713170766 770.8372463597758
    vertex 11440.096704898137 -1214.8602982836915 770.8112790795611
  endloop
endfacet
facet normal 0.9999999999999999 3.057909765477822e-13 -1.1820006175069604e-12
  outer loop
    vertex 11440.096704898135 -1215.2170727352159 769.457143742829
    vertex 11440.096704898137 -1214.8602982836915 770.8112790795611
    vertex 11440.096704898137 -1215.2174823766566 770.7817759943605
  endloop
endfacet
facet normal -0.9999999999999999 -3.057909765477822e-13 1.1820006175069604e-12
  outer loop
    vertex 11273.896704898136 -1215.2170727352661 769.4571437430252
    vertex 11273.896704898136 -1210.652841394515 770.7817929596087
    vertex 11273.896704898136 -1210.6524317478272 769.4571437430252
  endloop
endfacet
facet normal -0.9999999999999999 -3.057909765477822e-13 1.1820006175069604e-12
  outer loop
    vertex 11273.896704898136 -1210.652841394515 770.7817929596087
    vertex 11273.896704898136 -1215.2170727352661 769.4571437430252
    vertex 11273.896704898136 -1211.0098390663418 770.8112804000895
  endloop
endfacet
facet normal -0.9999999999999999 -3.057909765477822e-13 1.1820006175069604e-12
  outer loop
    vertex 11273.896704898136 -1211.0098390663418 770.8112804000895
    vertex 11273.896704898136 -1215.2170727352661 769.4571437430252
    vertex 11273.896704898136 -1211.3943660507648 770.8372474165936
  endloop
endfacet
facet normal -0.9999999999999999 -3.057909765477822e-13 1.1820006175069604e-12
  outer loop
    vertex 11273.896704898136 -1211.3943660507648 770.8372474165936
    vertex 11273.896704898136 -1215.2170727352661 769.4571437430252
    vertex 11273.896704898136 -1211.7792389429753 770.8574500039774
  endloop
endfacet
facet normal -0.9999999999999999 -3.057909765477822e-13 1.1820006175069604e-12
  outer loop
    vertex 11273.896704898136 -1211.7792389429753 770.8574500039774
    vertex 11273.896704898136 -1215.2170727352661 769.4571437430252
    vertex 11273.896704898136 -1212.1643713335077 770.8718836264711
  endloop
endfacet
facet normal -0.9999999999999999 -3.057909765477822e-13 1.1820006175069604e-12
  outer loop
    vertex 11273.896704898136 -1212.1643713335077 770.8718836264711
    vertex 11273.896704898136 -1215.2170727352661 769.4571437430252
    vertex 11273.896704898136 -1212.5496767546351 770.8805450435204
  endloop
endfacet
facet normal -0.9999999999999999 -3.057909765477822e-13 1.1820006175069604e-12
  outer loop
    vertex 11273.896704898136 -1212.5496767546351 770.8805450435204
    vertex 11273.896704898136 -1215.2170727352661 769.4571437430252
    vertex 11273.896704898138 -1212.935068699783 770.8834323105132
  endloop
endfacet
facet normal -0.9999999999999999 -3.057909765477822e-13 1.1820006175069604e-12
  outer loop
    vertex 11273.896704898138 -1212.935068699783 770.8834323105132
    vertex 11273.896704898136 -1215.2170727352661 769.4571437430252
    vertex 11273.896704898138 -1213.3204606429506 770.8805447792166
  endloop
endfacet
facet normal -0.9999999999999999 -3.057909765477822e-13 1.1820006175069604e-12
  outer loop
    vertex 11273.896704898138 -1213.3204606429506 770.8805447792166
    vertex 11273.896704898136 -1215.2170727352661 769.4571437430252
    vertex 11273.896704898138 -1213.705766058138 770.871883097923
  endloop
endfacet
facet normal -0.9999999999999999 -3.057909765477822e-13 1.1820006175069604e-12
  outer loop
    vertex 11273.896704898138 -1213.705766058138 770.871883097923
    vertex 11273.896704898136 -1215.2170727352661 769.4571437430252
    vertex 11273.896704898138 -1214.0908984387715 770.8574492113036
  endloop
endfacet
facet normal -0.9999999999999999 -3.057909765477822e-13 1.1820006175069604e-12
  outer loop
    vertex 11273.896704898138 -1214.0908984387715 770.8574492113036
    vertex 11273.896704898136 -1215.2170727352661 769.4571437430252
    vertex 11273.896704898138 -1214.4757713171273 770.837246359972
  endloop
endfacet
facet normal -0.9999999999999999 -3.057909765477822e-13 1.1820006175069604e-12
  outer loop
    vertex 11273.896704898138 -1214.4757713171273 770.837246359972
    vertex 11273.896704898136 -1215.2170727352661 769.4571437430252
    vertex 11273.896704898138 -1214.8602982837417 770.8112790797574
  endloop
endfacet
facet normal -0.9999999999999999 -3.057909765477822e-13 1.1820006175069604e-12
  outer loop
    vertex 11273.896704898138 -1214.8602982837417 770.8112790797574
    vertex 11273.896704898136 -1215.2170727352661 769.4571437430252
    vertex 11273.896704898136 -1215.217482376707 770.7817759945568
  endloop
endfacet
facet normal 3.0542542921845313e-13 -0.9999999521824752 -0.00030924916768017285
  outer loop
    vertex 11440.096704898137 -1215.2174823766566 770.7817759943605
    vertex 11273.896704898136 -1215.2170727352661 769.4571437430252
    vertex 11440.096704898135 -1215.2170727352159 769.457143742829
  endloop
endfacet
facet normal 3.0542542921845313e-13 -0.9999999521824752 -0.00030924916768017285
  outer loop
    vertex 11273.896704898136 -1215.2170727352661 769.4571437430252
    vertex 11440.096704898137 -1215.2174823766566 770.7817759943605
    vertex 11273.896704898136 -1215.217482376707 770.7817759945568
  endloop
endfacet
facet normal 1.2031613031520788e-12 -0.08231876451088173 0.9966060510599973
  outer loop
    vertex 11273.896704898138 -1214.8602982837417 770.8112790797574
    vertex 11440.096704898137 -1215.2174823766566 770.7817759943605
    vertex 11440.096704898137 -1214.8602982836915 770.8112790795611
  endloop
endfacet
facet normal 1.2031613031520788e-12 -0.08231876451088173 0.9966060510599973
  outer loop
    vertex 11440.096704898137 -1215.2174823766566 770.7817759943605
    vertex 11273.896704898138 -1214.8602982837417 770.8112790797574
    vertex 11273.896704898136 -1215.217482376707 770.7817759945568
  endloop
endfacet
facet normal 1.199917902834564e-12 -0.06737699592541395 0.9977275882825264
  outer loop
    vertex 11273.896704898138 -1214.4757713171273 770.837246359972
    vertex 11440.096704898137 -1214.8602982836915 770.8112790795611
    vertex 11440.096704898137 -1214.4757713170766 770.8372463597758
  endloop
endfacet
facet normal 1.199917902834564e-12 -0.06737699592541395 0.9977275882825264
  outer loop
    vertex 11440.096704898137 -1214.8602982836915 770.8112790795611
    vertex 11273.896704898138 -1214.4757713171273 770.837246359972
    vertex 11273.896704898138 -1214.8602982837417 770.8112790797574
  endloop
endfacet
facet normal 1.1964051037960029e-12 -0.05242010024130022 0.9986251213997633
  outer loop
    vertex 11273.896704898138 -1214.0908984387715 770.8574492113036
    vertex 11440.096704898137 -1214.4757713170766 770.8372463597758
    vertex 11440.096704898137 -1214.0908984387213 770.8574492111073
  endloop
endfacet
facet normal 1.1964051037960029e-12 -0.05242010024130022 0.9986251213997633
  outer loop
    vertex 11440.096704898137 -1214.4757713170766 770.8372463597758
    vertex 11273.896704898138 -1214.0908984387715 770.8574492113036
    vertex 11273.896704898138 -1214.4757713171273 770.837246359972
  endloop
endfacet
facet normal 1.1926236947100016e-12 -0.03745143549544968 0.9992984489026941
  outer loop
    vertex 11273.896704898138 -1213.705766058138 770.871883097923
    vertex 11440.096704898137 -1214.0908984387213 770.8574492111073
    vertex 11440.096704898137 -1213.7057660580874 770.8718830977268
  endloop
endfacet
facet normal 1.1926236947100016e-12 -0.03745143549544968 0.9992984489026941
  outer loop
    vertex 11440.096704898137 -1214.0908984387213 770.8574492111073
    vertex 11273.896704898138 -1213.705766058138 770.871883097923
    vertex 11273.896704898138 -1214.0908984387715 770.8574492113036
  endloop
endfacet
facet normal 1.1885745245569091e-12 -0.02247436236689562 0.9997474196196765
  outer loop
    vertex 11273.896704898138 -1213.3204606429506 770.8805447792166
    vertex 11440.096704898137 -1213.7057660580874 770.8718830977268
    vertex 11440.096704898137 -1213.3204606429001 770.8805447790204
  endloop
endfacet
facet normal 1.1885745245569091e-12 -0.02247436236689562 0.9997474196196765
  outer loop
    vertex 11440.096704898137 -1213.7057660580874 770.8718830977268
    vertex 11273.896704898138 -1213.3204606429506 770.8805447792166
    vertex 11273.896704898138 -1213.705766058138 770.871883097923
  endloop
endfacet
facet normal 1.184258502433375e-12 -0.007492243422894255 0.9999719327503609
  outer loop
    vertex 11273.896704898138 -1212.935068699783 770.8834323105132
    vertex 11440.096704898137 -1213.3204606429001 770.8805447790204
    vertex 11440.096704898137 -1212.9350686997325 770.883432310317
  endloop
endfacet
facet normal 1.184258502433375e-12 -0.007492243422894255 0.9999719327503609
  outer loop
    vertex 11440.096704898137 -1213.3204606429001 770.8805447790204
    vertex 11273.896704898138 -1212.935068699783 770.8834323105132
    vertex 11273.896704898138 -1213.3204606429506 770.8805447792166
  endloop
endfacet
facet normal 1.1796765973479294e-12 0.007491557637136455 0.9999719378883436
  outer loop
    vertex 11440.096704898137 -1212.5496767545847 770.8805450433241
    vertex 11273.896704898138 -1212.935068699783 770.8834323105132
    vertex 11440.096704898137 -1212.9350686997325 770.883432310317
  endloop
endfacet
facet normal 1.1796765973479294e-12 0.007491557637136455 0.9999719378883436
  outer loop
    vertex 11273.896704898138 -1212.935068699783 770.8834323105132
    vertex 11440.096704898137 -1212.5496767545847 770.8805450433241
    vertex 11273.896704898136 -1212.5496767546351 770.8805450435204
  endloop
endfacet
facet normal 1.1748298380039473e-12 0.022473676735064726 0.9997474350324725
  outer loop
    vertex 11440.096704898137 -1212.1643713334574 770.871883626275
    vertex 11273.896704898136 -1212.5496767546351 770.8805450435204
    vertex 11440.096704898137 -1212.5496767545847 770.8805450433241
  endloop
endfacet
facet normal 1.1748298380039473e-12 0.022473676735064726 0.9997474350324725
  outer loop
    vertex 11273.896704898136 -1212.5496767546351 770.8805450435204
    vertex 11440.096704898137 -1212.1643713334574 770.871883626275
    vertex 11273.896704898136 -1212.1643713335077 770.8718836264711
  endloop
endfacet
facet normal 1.1697193125679954e-12 0.03745075017157619 0.9992984745868405
  outer loop
    vertex 11440.096704898137 -1211.7792389429248 770.8574500037812
    vertex 11273.896704898136 -1212.1643713335077 770.8718836264711
    vertex 11440.096704898137 -1212.1643713334574 770.871883626275
  endloop
endfacet
facet normal 1.1697193125679954e-12 0.03745075017157619 0.9992984745868405
  outer loop
    vertex 11273.896704898136 -1212.1643713335077 770.8718836264711
    vertex 11440.096704898137 -1211.7792389429248 770.8574500037812
    vertex 11273.896704898136 -1211.7792389429753 770.8574500039774
  endloop
endfacet
facet normal 1.1643461684262232e-12 0.052419415379186554 0.9986251573494952
  outer loop
    vertex 11440.096704898135 -1211.3943660507143 770.8372474163974
    vertex 11273.896704898136 -1211.7792389429753 770.8574500039774
    vertex 11440.096704898137 -1211.7792389429248 770.8574500037812
  endloop
endfacet
facet normal 1.1643461684262232e-12 0.052419415379186554 0.9986251573494952
  outer loop
    vertex 11273.896704898136 -1211.7792389429753 770.8574500039774
    vertex 11440.096704898135 -1211.3943660507143 770.8372474163974
    vertex 11273.896704898136 -1211.3943660507648 770.8372474165936
  endloop
endfacet
facet normal 1.1587116119261761e-12 0.067376311678924 0.9977276344897661
  outer loop
    vertex 11440.096704898135 -1211.0098390662913 770.8112803998932
    vertex 11273.896704898136 -1211.3943660507648 770.8372474165936
    vertex 11440.096704898135 -1211.3943660507143 770.8372474163974
  endloop
endfacet
facet normal 1.1587116119261761e-12 0.067376311678924 0.9977276344897661
  outer loop
    vertex 11273.896704898136 -1211.3943660507648 770.8372474165936
    vertex 11440.096704898135 -1211.0098390662913 770.8112803998932
    vertex 11273.896704898136 -1211.0098390663418 770.8112804000895
  endloop
endfacet
facet normal 1.1528169081065188e-12 0.08231808103328091 0.9966061075143973
  outer loop
    vertex 11440.096704898135 -1210.6528413944643 770.7817929594124
    vertex 11273.896704898136 -1211.0098390663418 770.8112804000895
    vertex 11440.096704898135 -1211.0098390662913 770.8112803998932
  endloop
endfacet
facet normal 1.1528169081065188e-12 0.08231808103328091 0.9966061075143973
  outer loop
    vertex 11273.896704898136 -1211.0098390663418 770.8112804000895
    vertex 11440.096704898135 -1210.6528413944643 770.7817929594124
    vertex 11273.896704898136 -1210.652841394515 770.7817929596087
  endloop
endfacet
facet normal -3.0542542921811275e-13 0.999999952182475 0.00030924916796799806
  outer loop
    vertex 11273.896704898136 -1210.6524317478272 769.4571437430252
    vertex 11440.096704898135 -1210.6528413944643 770.7817929594124
    vertex 11440.096704898133 -1210.6524317477767 769.457143742829
  endloop
endfacet
facet normal -3.0542542921811275e-13 0.999999952182475 0.00030924916796799806
  outer loop
    vertex 11440.096704898135 -1210.6528413944643 770.7817929594124
    vertex 11273.896704898136 -1210.6524317478272 769.4571437430252
    vertex 11273.896704898136 -1210.652841394515 770.7817929596087
  endloop
endfacet
facet normal -1.182000617506961e-12 2.602085213591723e-15 -1.0
  outer loop
    vertex 11273.896704898136 -1215.2170727352661 769.4571437430252
    vertex 11440.096704898133 -1210.6524317477767 769.457143742829
    vertex 11440.096704898135 -1215.2170727352159 769.457143742829
  endloop
endfacet
facet normal -1.182000617506961e-12 2.602085213591723e-15 -1.0
  outer loop
    vertex 11440.096704898133 -1210.6524317477767 769.457143742829
    vertex 11273.896704898136 -1215.2170727352661 769.4571437430252
    vertex 11273.896704898136 -1210.6524317478272 769.4571437430252
  endloop
endfacet
endsolid Sketch 2017 t
