solid OpenSCAD_Model
  facet normal 0 -1 0
    outer loop
      vertex 52 -102 30.32
      vertex 52 -102 31.6
      vertex -52 -102 31.6
    endloop
  endfacet
  facet normal 0 -1 0
    outer loop
      vertex 52 -102 30.32
      vertex -52 -102 31.6
      vertex -52 -102 30.32
    endloop
  endfacet
  facet normal 1 0 0
    outer loop
      vertex 52 -102 31.6
      vertex 52 -102 30.32
      vertex 52 102 30.32
    endloop
  endfacet
  facet normal 1 0 0
    outer loop
      vertex 52 102 31.6
      vertex 52 -102 31.6
      vertex 52 102 30.32
    endloop
  endfacet
  facet normal 0.707107 0 -0.707107
    outer loop
      vertex 52 -102 30.32
      vertex 50.08 -100.08 28.4
      vertex 50.08 100.08 28.4
    endloop
  endfacet
  facet normal 0.707107 0 -0.707107
    outer loop
      vertex 52 102 30.32
      vertex 52 -102 30.32
      vertex 50.08 100.08 28.4
    endloop
  endfacet
  facet normal 0 -0.707107 -0.707107
    outer loop
      vertex -50.08 -100.08 28.4
      vertex 50.08 -100.08 28.4
      vertex -52 -102 30.32
    endloop
  endfacet
  facet normal 0 -0.707107 -0.707107
    outer loop
      vertex -52 -102 30.32
      vertex 50.08 -100.08 28.4
      vertex 52 -102 30.32
    endloop
  endfacet
  facet normal -0.707107 0 -0.707107
    outer loop
      vertex -52 -102 30.32
      vertex -52 102 30.32
      vertex -50.08 100.08 28.4
    endloop
  endfacet
  facet normal -0.707107 0 -0.707107
    outer loop
      vertex -52 -102 30.32
      vertex -50.08 100.08 28.4
      vertex -50.08 -100.08 28.4
    endloop
  endfacet
  facet normal -1 0 0
    outer loop
      vertex -52 -102 30.32
      vertex -52 -102 31.6
      vertex -52 102 30.32
    endloop
  endfacet
  facet normal -1 0 0
    outer loop
      vertex -52 102 30.32
      vertex -52 -102 31.6
      vertex -52 102 31.6
    endloop
  endfacet
  facet normal -0 0 1
    outer loop
      vertex 50.4 -100.4 31.6
      vertex 52 -102 31.6
      vertex 52 102 31.6
    endloop
  endfacet
  facet normal 0 0 1
    outer loop
      vertex -52 -102 31.6
      vertex 52 -102 31.6
      vertex 50.4 -100.4 31.6
    endloop
  endfacet
  facet normal 0 -0 1
    outer loop
      vertex -50.4 -100.4 31.6
      vertex -50.4 100.4 31.6
      vertex -52 -102 31.6
    endloop
  endfacet
  facet normal 0 0 1
    outer loop
      vertex -52 -102 31.6
      vertex 50.4 -100.4 31.6
      vertex -50.4 -100.4 31.6
    endloop
  endfacet
  facet normal -0 0 1
    outer loop
      vertex -52 102 31.6
      vertex -50.4 100.4 31.6
      vertex 52 102 31.6
    endloop
  endfacet
  facet normal 0 0 1
    outer loop
      vertex -52 102 31.6
      vertex -52 -102 31.6
      vertex -50.4 100.4 31.6
    endloop
  endfacet
  facet normal 0 0 1
    outer loop
      vertex -50.4 100.4 31.6
      vertex 50.4 100.4 31.6
      vertex 52 102 31.6
    endloop
  endfacet
  facet normal -0 0 1
    outer loop
      vertex 50.4 100.4 31.6
      vertex 50.4 -100.4 31.6
      vertex 52 102 31.6
    endloop
  endfacet
  facet normal 0 1 0
    outer loop
      vertex -52 102 30.32
      vertex 52 102 31.6
      vertex 52 102 30.32
    endloop
  endfacet
  facet normal -0 1 0
    outer loop
      vertex -52 102 31.6
      vertex 52 102 31.6
      vertex -52 102 30.32
    endloop
  endfacet
  facet normal 0 0.707107 -0.707107
    outer loop
      vertex -52 102 30.32
      vertex 52 102 30.32
      vertex -50.08 100.08 28.4
    endloop
  endfacet
  facet normal 0 0.707107 -0.707107
    outer loop
      vertex -50.08 100.08 28.4
      vertex 52 102 30.32
      vertex 50.08 100.08 28.4
    endloop
  endfacet
  facet normal -0 0 -1
    outer loop
      vertex -50 100 28.4
      vertex -50.08 -100.08 28.4
      vertex -50.08 100.08 28.4
    endloop
  endfacet
  facet normal 0 0 -1
    outer loop
      vertex 50.08 -100.08 28.4
      vertex -50.08 -100.08 28.4
      vertex -50 -100 28.4
    endloop
  endfacet
  facet normal 0 0 -1
    outer loop
      vertex 50.08 -100.08 28.4
      vertex -50 -100 28.4
      vertex 50 -100 28.4
    endloop
  endfacet
  facet normal 0 0 -1
    outer loop
      vertex 50.08 -100.08 28.4
      vertex 50 -100 28.4
      vertex 50.08 100.08 28.4
    endloop
  endfacet
  facet normal -0 0 -1
    outer loop
      vertex -50 -100 28.4
      vertex -50.08 -100.08 28.4
      vertex -50 100 28.4
    endloop
  endfacet
  facet normal -0 0 -1
    outer loop
      vertex 50.08 100.08 28.4
      vertex 50 100 28.4
      vertex -50.08 100.08 28.4
    endloop
  endfacet
  facet normal 0 0 -1
    outer loop
      vertex 50 100 28.4
      vertex -50 100 28.4
      vertex -50.08 100.08 28.4
    endloop
  endfacet
  facet normal 0 0 -1
    outer loop
      vertex 50 100 28.4
      vertex 50.08 100.08 28.4
      vertex 50 -100 28.4
    endloop
  endfacet
  facet normal 0 1 0
    outer loop
      vertex -50.4 -100.4 30.1
      vertex -50.4 -100.4 31.6
      vertex 50.4 -100.4 31.6
    endloop
  endfacet
  facet normal 0 1 -0
    outer loop
      vertex 50.4 -100.4 30.1
      vertex -50.4 -100.4 30.1
      vertex 50.4 -100.4 31.6
    endloop
  endfacet
  facet normal -1 -0 -0
    outer loop
      vertex 50.4 100.4 31.6
      vertex 50.4 100.4 30.1
      vertex 50.4 -100.4 31.6
    endloop
  endfacet
  facet normal -1 0 0
    outer loop
      vertex 50.4 -100.4 31.6
      vertex 50.4 100.4 30.1
      vertex 50.4 -100.4 30.1
    endloop
  endfacet
  facet normal 0 -1 0
    outer loop
      vertex -50.4 100.4 31.6
      vertex -50.4 100.4 30.1
      vertex 50.4 100.4 31.6
    endloop
  endfacet
  facet normal 0 -1 -0
    outer loop
      vertex 50.4 100.4 31.6
      vertex -50.4 100.4 30.1
      vertex 50.4 100.4 30.1
    endloop
  endfacet
  facet normal 1 0 -0
    outer loop
      vertex -50.4 100.4 30.1
      vertex -50.4 100.4 31.6
      vertex -50.4 -100.4 31.6
    endloop
  endfacet
  facet normal 1 0 0
    outer loop
      vertex -50.4 -100.4 30.1
      vertex -50.4 100.4 30.1
      vertex -50.4 -100.4 31.6
    endloop
  endfacet
  facet normal 0 -1 0
    outer loop
      vertex 50 -100 0
      vertex 50 -100 28.4
      vertex -50 -100 0
    endloop
  endfacet
  facet normal 0 -1 0
    outer loop
      vertex -50 -100 0
      vertex 50 -100 28.4
      vertex -50 -100 28.4
    endloop
  endfacet
  facet normal -1 0 0
    outer loop
      vertex -50 -100 0
      vertex -50 -100 28.4
      vertex -50 100 0
    endloop
  endfacet
  facet normal -1 0 0
    outer loop
      vertex -50 100 0
      vertex -50 -100 28.4
      vertex -50 -100 30
    endloop
  endfacet
  facet normal -1 0 0
    outer loop
      vertex -50 100 28.4
      vertex -50 -100 30
      vertex -50 100 30
    endloop
  endfacet
  facet normal -1 0 0
    outer loop
      vertex -50 100 0
      vertex -50 -100 30
      vertex -50 100 28.4
    endloop
  endfacet
  facet normal 0 1 0
    outer loop
      vertex 50 -100 30.1
      vertex -50 -100 30
      vertex -50 -100 30.1
    endloop
  endfacet
  facet normal 0 0 0
    outer loop
      vertex -50 -100 30.1
      vertex -50 -100 30
      vertex -50 -100 28.4
    endloop
  endfacet
  facet normal 0 1 -0
    outer loop
      vertex 50 -100 30
      vertex -50 -100 30
      vertex 50 -100 30.1
    endloop
  endfacet
  facet normal 1 0 -0
    outer loop
      vertex -50 100 28.4
      vertex -50 100 30.1
      vertex -50 -100 30.1
    endloop
  endfacet
  facet normal 1 0 0
    outer loop
      vertex -50 -100 28.4
      vertex -50 100 28.4
      vertex -50 -100 30.1
    endloop
  endfacet
  facet normal 0 -1 0
    outer loop
      vertex 50 100 30
      vertex 50 100 30.1
      vertex -50 100 30
    endloop
  endfacet
  facet normal 0 0 0
    outer loop
      vertex -50 100 30.1
      vertex -50 100 28.4
      vertex -50 100 30
    endloop
  endfacet
  facet normal 0 -1 0
    outer loop
      vertex -50 100 30.1
      vertex -50 100 30
      vertex 50 100 30.1
    endloop
  endfacet
  facet normal 0 1 0
    outer loop
      vertex 50 100 28.4
      vertex 50 100 0
      vertex -50 100 0
    endloop
  endfacet
  facet normal -0 1 0
    outer loop
      vertex -50 100 28.4
      vertex 50 100 28.4
      vertex -50 100 0
    endloop
  endfacet
  facet normal 1 0 0
    outer loop
      vertex 50 -100 28.4
      vertex 50 -100 0
      vertex 50 100 0
    endloop
  endfacet
  facet normal 1 0 0
    outer loop
      vertex 50 100 28.4
      vertex 50 -100 28.4
      vertex 50 100 0
    endloop
  endfacet
  facet normal 0 0 1
    outer loop
      vertex -50 100 30.1
      vertex -50.4 100.4 30.1
      vertex -50.4 -100.4 30.1
    endloop
  endfacet
  facet normal 0 0 1
    outer loop
      vertex 50.4 -100.4 30.1
      vertex -50 -100 30.1
      vertex -50.4 -100.4 30.1
    endloop
  endfacet
  facet normal 0 0 1
    outer loop
      vertex 50.4 100.4 30.1
      vertex -50.4 100.4 30.1
      vertex -50 100 30.1
    endloop
  endfacet
  facet normal -0 0 1
    outer loop
      vertex 50 100 30.1
      vertex 50 -100 30.1
      vertex 50.4 100.4 30.1
    endloop
  endfacet
  facet normal 0 0 1
    outer loop
      vertex 50.4 100.4 30.1
      vertex -50 100 30.1
      vertex 50 100 30.1
    endloop
  endfacet
  facet normal 0 0 1
    outer loop
      vertex 50.4 -100.4 30.1
      vertex 50 -100 30.1
      vertex -50 -100 30.1
    endloop
  endfacet
  facet normal 0 -0 1
    outer loop
      vertex 50.4 -100.4 30.1
      vertex 50.4 100.4 30.1
      vertex 50 -100 30.1
    endloop
  endfacet
  facet normal 0 -0 1
    outer loop
      vertex -50 -100 30.1
      vertex -50 100 30.1
      vertex -50.4 -100.4 30.1
    endloop
  endfacet
  facet normal 0 0 -1
    outer loop
      vertex 50 -100 0
      vertex -50 -100 0
      vertex 50 100 0
    endloop
  endfacet
  facet normal -0 0 -1
    outer loop
      vertex 50 100 0
      vertex -50 -100 0
      vertex -50 100 0
    endloop
  endfacet
  facet normal -0 0 1
    outer loop
      vertex 48.4 -98.4 30
      vertex 50 -100 30
      vertex 50 100 30
    endloop
  endfacet
  facet normal -0 0 1
    outer loop
      vertex 48.4 -33.8667 30
      vertex 48.4 -98.4 30
      vertex 50 100 30
    endloop
  endfacet
  facet normal 0 0 1
    outer loop
      vertex -50 -100 30
      vertex 50 -100 30
      vertex 48.4 -98.4 30
    endloop
  endfacet
  facet normal -0 0 1
    outer loop
      vertex 48.4 98.4 30
      vertex 48.4 33.8667 30
      vertex 50 100 30
    endloop
  endfacet
  facet normal 0 0 1
    outer loop
      vertex -50 -100 30
      vertex 48.4 -98.4 30
      vertex -48.4 -98.4 30
    endloop
  endfacet
  facet normal 0 0 1
    outer loop
      vertex -50 100 30
      vertex -50 -100 30
      vertex -48.4 -33.8667 30
    endloop
  endfacet
  facet normal -0 0 1
    outer loop
      vertex 48.4 -32.2667 30
      vertex 48.4 -33.8667 30
      vertex 50 100 30
    endloop
  endfacet
  facet normal -0 0 1
    outer loop
      vertex 48.4 32.2667 30
      vertex 48.4 -32.2667 30
      vertex 50 100 30
    endloop
  endfacet
  facet normal 0 0 1
    outer loop
      vertex 48.4 33.8667 30
      vertex -48.4 33.8667 30
      vertex -48.4 32.2667 30
    endloop
  endfacet
  facet normal 0 0 1
    outer loop
      vertex -50 100 30
      vertex -48.4 -33.8667 30
      vertex -48.4 -32.2667 30
    endloop
  endfacet
  facet normal 0 0 1
    outer loop
      vertex -50 100 30
      vertex -48.4 -32.2667 30
      vertex -48.4 32.2667 30
    endloop
  endfacet
  facet normal -0 0 1
    outer loop
      vertex 48.4 33.8667 30
      vertex 48.4 32.2667 30
      vertex 50 100 30
    endloop
  endfacet
  facet normal 0 0 1
    outer loop
      vertex 48.4 -32.2667 30
      vertex -48.4 -32.2667 30
      vertex -48.4 -33.8667 30
    endloop
  endfacet
  facet normal 0 0 1
    outer loop
      vertex -50 100 30
      vertex -48.4 32.2667 30
      vertex -48.4 33.8667 30
    endloop
  endfacet
  facet normal -0 0 1
    outer loop
      vertex -50 100 30
      vertex -48.4 98.4 30
      vertex 50 100 30
    endloop
  endfacet
  facet normal 0 0 1
    outer loop
      vertex -50 100 30
      vertex -48.4 33.8667 30
      vertex -48.4 98.4 30
    endloop
  endfacet
  facet normal 0 0 1
    outer loop
      vertex -48.4 98.4 30
      vertex 48.4 98.4 30
      vertex 50 100 30
    endloop
  endfacet
  facet normal 0 -0 1
    outer loop
      vertex -48.4 -98.4 30
      vertex -48.4 -33.8667 30
      vertex -50 -100 30
    endloop
  endfacet
  facet normal 0 0 1
    outer loop
      vertex -48.4 32.2667 30
      vertex 48.4 32.2667 30
      vertex 48.4 33.8667 30
    endloop
  endfacet
  facet normal 0 0 1
    outer loop
      vertex -48.4 -33.8667 30
      vertex 48.4 -33.8667 30
      vertex 48.4 -32.2667 30
    endloop
  endfacet
  facet normal -1 -0 -0
    outer loop
      vertex 50 100 30.1
      vertex 50 100 30
      vertex 50 -100 30.1
    endloop
  endfacet
  facet normal -1 0 0
    outer loop
      vertex 50 -100 30.1
      vertex 50 100 30
      vertex 50 -100 30
    endloop
  endfacet
  facet normal 0 1 0
    outer loop
      vertex -48.4 -98.4 1.65
      vertex -48.4 -98.4 30
      vertex 48.4 -98.4 30
    endloop
  endfacet
  facet normal 0 1 -0
    outer loop
      vertex 48.4 -98.4 1.65
      vertex -48.4 -98.4 1.65
      vertex 48.4 -98.4 30
    endloop
  endfacet
  facet normal -1 -0 -0
    outer loop
      vertex 48.4 -33.8667 30
      vertex 48.4 -33.8667 1.65
      vertex 48.4 -98.4 30
    endloop
  endfacet
  facet normal -1 0 0
    outer loop
      vertex 48.4 -98.4 30
      vertex 48.4 -33.8667 1.65
      vertex 48.4 -98.4 1.65
    endloop
  endfacet
  facet normal 0 -1 0
    outer loop
      vertex 48.4 -33.8667 1.65
      vertex 48.4 -33.8667 30
      vertex -48.4 -33.8667 1.65
    endloop
  endfacet
  facet normal 0 -1 0
    outer loop
      vertex -48.4 -33.8667 1.65
      vertex 48.4 -33.8667 30
      vertex -48.4 -33.8667 30
    endloop
  endfacet
  facet normal 1 0 -0
    outer loop
      vertex -48.4 -33.8667 1.65
      vertex -48.4 -33.8667 30
      vertex -48.4 -98.4 30
    endloop
  endfacet
  facet normal 1 0 0
    outer loop
      vertex -48.4 -98.4 1.65
      vertex -48.4 -33.8667 1.65
      vertex -48.4 -98.4 30
    endloop
  endfacet
  facet normal 0 1 0
    outer loop
      vertex 48.4 -32.2667 30
      vertex 48.4 -32.2667 1.65
      vertex -48.4 -32.2667 1.65
    endloop
  endfacet
  facet normal -0 1 0
    outer loop
      vertex -48.4 -32.2667 30
      vertex 48.4 -32.2667 30
      vertex -48.4 -32.2667 1.65
    endloop
  endfacet
  facet normal -1 -0 -0
    outer loop
      vertex 48.4 32.2667 30
      vertex 48.4 32.2667 1.65
      vertex 48.4 -32.2667 30
    endloop
  endfacet
  facet normal -1 0 0
    outer loop
      vertex 48.4 -32.2667 30
      vertex 48.4 32.2667 1.65
      vertex 48.4 -32.2667 1.65
    endloop
  endfacet
  facet normal 0 -1 0
    outer loop
      vertex 48.4 32.2667 1.65
      vertex 48.4 32.2667 30
      vertex -48.4 32.2667 1.65
    endloop
  endfacet
  facet normal 0 -1 0
    outer loop
      vertex -48.4 32.2667 1.65
      vertex 48.4 32.2667 30
      vertex -48.4 32.2667 30
    endloop
  endfacet
  facet normal 1 0 -0
    outer loop
      vertex -48.4 32.2667 1.65
      vertex -48.4 32.2667 30
      vertex -48.4 -32.2667 30
    endloop
  endfacet
  facet normal 1 0 0
    outer loop
      vertex -48.4 -32.2667 1.65
      vertex -48.4 32.2667 1.65
      vertex -48.4 -32.2667 30
    endloop
  endfacet
  facet normal 0 1 0
    outer loop
      vertex 48.4 33.8667 30
      vertex 48.4 33.8667 1.65
      vertex -48.4 33.8667 1.65
    endloop
  endfacet
  facet normal -0 1 0
    outer loop
      vertex -48.4 33.8667 30
      vertex 48.4 33.8667 30
      vertex -48.4 33.8667 1.65
    endloop
  endfacet
  facet normal -1 -0 -0
    outer loop
      vertex 48.4 98.4 30
      vertex 48.4 98.4 1.65
      vertex 48.4 33.8667 30
    endloop
  endfacet
  facet normal -1 0 0
    outer loop
      vertex 48.4 33.8667 30
      vertex 48.4 98.4 1.65
      vertex 48.4 33.8667 1.65
    endloop
  endfacet
  facet normal 0 -1 0
    outer loop
      vertex -48.4 98.4 30
      vertex -48.4 98.4 1.65
      vertex 48.4 98.4 30
    endloop
  endfacet
  facet normal 0 -1 -0
    outer loop
      vertex 48.4 98.4 30
      vertex -48.4 98.4 1.65
      vertex 48.4 98.4 1.65
    endloop
  endfacet
  facet normal 1 0 -0
    outer loop
      vertex -48.4 98.4 1.65
      vertex -48.4 98.4 30
      vertex -48.4 33.8667 30
    endloop
  endfacet
  facet normal 1 0 0
    outer loop
      vertex -48.4 33.8667 1.65
      vertex -48.4 98.4 1.65
      vertex -48.4 33.8667 30
    endloop
  endfacet
  facet normal 0 0 1
    outer loop
      vertex 48.4 -33.8667 1.65
      vertex -48.4 -33.8667 1.65
      vertex -48.4 -98.4 1.65
    endloop
  endfacet
  facet normal 0 -0 1
    outer loop
      vertex 48.4 -98.4 1.65
      vertex 48.4 -33.8667 1.65
      vertex -48.4 -98.4 1.65
    endloop
  endfacet
  facet normal 0 0 1
    outer loop
      vertex 48.4 32.2667 1.65
      vertex -48.4 32.2667 1.65
      vertex -48.4 -32.2667 1.65
    endloop
  endfacet
  facet normal 0 -0 1
    outer loop
      vertex 48.4 -32.2667 1.65
      vertex 48.4 32.2667 1.65
      vertex -48.4 -32.2667 1.65
    endloop
  endfacet
  facet normal 0 0 1
    outer loop
      vertex 48.4 98.4 1.65
      vertex -48.4 98.4 1.65
      vertex -48.4 33.8667 1.65
    endloop
  endfacet
  facet normal 0 -0 1
    outer loop
      vertex 48.4 33.8667 1.65
      vertex 48.4 98.4 1.65
      vertex -48.4 33.8667 1.65
    endloop
  endfacet
endsolid OpenSCAD_Model
