solid Exported from Blender-2.77 (sub 0)
facet normal -0.600000 -0.565685 -0.565685
outer loop
vertex 0.000000 -2.154414 7.069252
vertex 0.000000 -8.494398 13.409235
vertex -2.500000 -5.842749 13.409237
endloop
endfacet
facet normal -0.600483 -0.565492 -0.565366
outer loop
vertex -2.500000 0.344437 7.222053
vertex -2.498839 0.344437 7.220820
vertex -2.498924 0.331580 7.233768
endloop
endfacet
facet normal -0.600123 -0.565540 -0.565700
outer loop
vertex -2.500000 -5.842749 13.409237
vertex -2.500000 0.344437 7.222053
vertex -2.498924 0.331580 7.233768
endloop
endfacet
facet normal -0.599985 -0.565690 -0.565697
outer loop
vertex -0.019781 -2.154433 7.090252
vertex 0.000000 -2.154414 7.069252
vertex -2.500000 -5.842749 13.409237
endloop
endfacet
facet normal -0.600002 -0.565685 -0.565684
outer loop
vertex -0.545099 -2.094784 7.587787
vertex -0.019781 -2.154433 7.090252
vertex -2.500000 -5.842749 13.409237
endloop
endfacet
facet normal -0.600002 -0.565686 -0.565683
outer loop
vertex -2.500000 -5.842749 13.409237
vertex -2.498924 0.331580 7.233768
vertex -2.438250 -0.203920 7.704913
endloop
endfacet
facet normal -0.600237 -0.565560 -0.565559
outer loop
vertex -2.500000 -5.842749 13.409237
vertex -2.438250 -0.203920 7.704913
vertex -2.435012 -0.218598 7.716157
endloop
endfacet
facet normal -0.599983 -0.565689 -0.565700
outer loop
vertex -0.567502 -2.089596 7.606361
vertex -0.545099 -2.094784 7.587787
vertex -2.500000 -5.842749 13.409237
endloop
endfacet
facet normal -0.600001 -0.565685 -0.565685
outer loop
vertex -1.079874 -1.909932 7.970150
vertex -0.567502 -2.089596 7.606361
vertex -2.500000 -5.842749 13.409237
endloop
endfacet
facet normal -0.599998 -0.565686 -0.565687
outer loop
vertex -2.500000 -5.842749 13.409237
vertex -2.435012 -0.218598 7.716157
vertex -2.253391 -0.737009 8.041929
endloop
endfacet
facet normal -0.599993 -0.565679 -0.565699
outer loop
vertex -2.500000 -5.842749 13.409237
vertex -2.253391 -0.737009 8.041929
vertex -2.250591 -0.742942 8.044893
endloop
endfacet
facet normal -0.599952 -0.565717 -0.565705
outer loop
vertex -1.089500 -1.905209 7.975636
vertex -1.079874 -1.909932 7.970150
vertex -2.500000 -5.842749 13.409237
endloop
endfacet
facet normal -0.600001 -0.565684 -0.565685
outer loop
vertex -1.556989 -1.611202 8.177477
vertex -1.089500 -1.905209 7.975636
vertex -2.500000 -5.842749 13.409237
endloop
endfacet
facet normal -0.599997 -0.565687 -0.565687
outer loop
vertex -2.500000 -5.842749 13.409237
vertex -2.250591 -0.742942 8.044893
vertex -1.955041 -1.213170 8.201644
endloop
endfacet
facet normal -0.600509 -0.565309 -0.565522
outer loop
vertex -2.500000 -5.842749 13.409237
vertex -1.955041 -1.213170 8.201644
vertex -1.953480 -1.215163 8.201980
endloop
endfacet
facet normal -0.600079 -0.565653 -0.565634
outer loop
vertex -1.559728 -1.609005 8.178185
vertex -1.556989 -1.611202 8.177477
vertex -2.500000 -5.842749 13.409237
endloop
endfacet
facet normal -0.600000 -0.565685 -0.565685
outer loop
vertex -2.500000 -5.842749 13.409237
vertex -1.953480 -1.215163 8.201980
vertex -1.559728 -1.609005 8.178185
endloop
endfacet
facet normal 0.600000 -0.565685 -0.565685
outer loop
vertex 2.500000 -5.842749 13.409237
vertex 0.000000 -8.494398 13.409235
vertex 0.000000 -2.154414 7.069252
endloop
endfacet
facet normal 0.599981 -0.565685 -0.565706
outer loop
vertex 2.500000 -5.842749 13.409237
vertex 0.000000 -2.154414 7.069252
vertex 0.019781 -2.154433 7.090253
endloop
endfacet
facet normal 0.600404 -0.565605 -0.565338
outer loop
vertex 2.498924 0.331580 7.233768
vertex 2.498839 0.344437 7.220820
vertex 2.500000 0.344437 7.222053
endloop
endfacet
facet normal 0.600274 -0.565431 -0.565649
outer loop
vertex 2.498924 0.331580 7.233768
vertex 2.500000 0.344437 7.222053
vertex 2.500000 -5.842749 13.409237
endloop
endfacet
facet normal 0.600001 -0.565685 -0.565684
outer loop
vertex 2.500000 -5.842749 13.409237
vertex 0.019781 -2.154433 7.090253
vertex 0.545099 -2.094784 7.587787
endloop
endfacet
facet normal 0.599985 -0.565688 -0.565699
outer loop
vertex 2.500000 -5.842749 13.409237
vertex 0.545099 -2.094784 7.587787
vertex 0.567502 -2.089597 7.606362
endloop
endfacet
facet normal 0.600005 -0.565684 -0.565681
outer loop
vertex 2.438250 -0.203920 7.704913
vertex 2.498924 0.331580 7.233768
vertex 2.500000 -5.842749 13.409237
endloop
endfacet
facet normal 0.600270 -0.565539 -0.565545
outer loop
vertex 2.435012 -0.218598 7.716157
vertex 2.438250 -0.203920 7.704913
vertex 2.500000 -5.842749 13.409237
endloop
endfacet
facet normal 0.600000 -0.565685 -0.565685
outer loop
vertex 2.500000 -5.842749 13.409237
vertex 0.567502 -2.089597 7.606362
vertex 1.079874 -1.909932 7.970150
endloop
endfacet
facet normal 0.599927 -0.565727 -0.565721
outer loop
vertex 2.500000 -5.842749 13.409237
vertex 1.079874 -1.909932 7.970150
vertex 1.089500 -1.905209 7.975636
endloop
endfacet
facet normal 0.599998 -0.565686 -0.565687
outer loop
vertex 2.253391 -0.737009 8.041929
vertex 2.435012 -0.218598 7.716157
vertex 2.500000 -5.842749 13.409237
endloop
endfacet
facet normal 0.599904 -0.565732 -0.565740
outer loop
vertex 2.250591 -0.742942 8.044893
vertex 2.253391 -0.737009 8.041929
vertex 2.500000 -5.842749 13.409237
endloop
endfacet
facet normal 0.600001 -0.565684 -0.565685
outer loop
vertex 2.500000 -5.842749 13.409237
vertex 1.089500 -1.905209 7.975636
vertex 1.556989 -1.611202 8.177477
endloop
endfacet
facet normal 0.600909 -0.565045 -0.565361
outer loop
vertex 2.500000 -5.842749 13.409237
vertex 1.556989 -1.611202 8.177477
vertex 1.557293 -1.610984 8.177581
endloop
endfacet
facet normal 0.599997 -0.565688 -0.565686
outer loop
vertex 1.955041 -1.213170 8.201644
vertex 2.250591 -0.742942 8.044893
vertex 2.500000 -5.842749 13.409237
endloop
endfacet
facet normal 0.600568 -0.565271 -0.565498
outer loop
vertex 1.953480 -1.215163 8.201980
vertex 1.955041 -1.213170 8.201644
vertex 2.500000 -5.842749 13.409237
endloop
endfacet
facet normal 0.600043 -0.565712 -0.565614
outer loop
vertex 2.500000 -5.842749 13.409237
vertex 1.557293 -1.610984 8.177581
vertex 1.559728 -1.609005 8.178185
endloop
endfacet
facet normal 0.600000 -0.565685 -0.565685
outer loop
vertex 2.500000 -5.842749 13.409237
vertex 1.559728 -1.609005 8.178185
vertex 1.953480 -1.215163 8.201980
endloop
endfacet
facet normal -0.600001 -0.565685 0.565685
outer loop
vertex 0.000000 -8.494398 13.409235
vertex 0.000000 0.344436 22.248074
vertex -2.500000 0.344436 19.596420
endloop
endfacet
facet normal -0.599999 -0.565686 0.565686
outer loop
vertex -2.500000 0.344436 19.596420
vertex -2.500000 -5.842749 13.409237
vertex 0.000000 -8.494398 13.409235
endloop
endfacet
facet normal -0.600126 0.565585 -0.565652
outer loop
vertex -2.498839 0.344437 7.220820
vertex -2.500000 0.344437 7.222053
vertex -2.500000 6.531621 13.409237
endloop
endfacet
facet normal -0.600000 0.565686 -0.565685
outer loop
vertex -2.500000 6.531621 13.409237
vertex 0.000000 9.183271 13.409238
vertex 0.000000 2.843560 7.069525
endloop
endfacet
facet normal -0.599985 0.565675 -0.565711
outer loop
vertex -2.500000 6.531621 13.409237
vertex 0.000000 2.843560 7.069525
vertex -0.015453 2.843572 7.085927
endloop
endfacet
facet normal -0.595602 0.568529 -0.567479
outer loop
vertex -2.498764 0.358709 7.235013
vertex -2.498839 0.344437 7.220820
vertex -2.500000 6.531621 13.409237
endloop
endfacet
facet normal -0.600014 0.565677 -0.565678
outer loop
vertex -2.438159 0.893602 7.705625
vertex -2.498764 0.358709 7.235013
vertex -2.500000 6.531621 13.409237
endloop
endfacet
facet normal -0.600000 0.565686 -0.565685
outer loop
vertex -2.500000 6.531621 13.409237
vertex -0.015453 2.843572 7.085927
vertex -0.547211 2.783285 7.589654
endloop
endfacet
facet normal -0.600017 0.565668 -0.565685
outer loop
vertex -2.500000 6.531621 13.409237
vertex -0.547211 2.783285 7.589654
vertex -0.564680 2.779323 7.604222
endloop
endfacet
facet normal -0.599797 0.565813 -0.565773
outer loop
vertex -2.434754 0.908212 7.716623
vertex -2.438159 0.893602 7.705625
vertex -2.500000 6.531621 13.409237
endloop
endfacet
facet normal -0.600003 0.565684 -0.565684
outer loop
vertex -2.253274 1.426215 8.042138
vertex -2.434754 0.908212 7.716623
vertex -2.500000 6.531621 13.409237
endloop
endfacet
facet normal -0.599999 0.565686 -0.565686
outer loop
vertex -2.500000 6.531621 13.409237
vertex -0.564680 2.779323 7.604222
vertex -1.080581 2.598493 7.970587
endloop
endfacet
facet normal -0.600069 0.565650 -0.565648
outer loop
vertex -2.500000 6.531621 13.409237
vertex -1.080581 2.598493 7.970587
vertex -1.088116 2.594883 7.974969
endloop
endfacet
facet normal -0.599898 0.565758 -0.565720
outer loop
vertex -2.250408 1.432107 8.044991
vertex -2.253274 1.426215 8.042138
vertex -2.500000 6.531621 13.409237
endloop
endfacet
facet normal -0.600000 0.565686 -0.565685
outer loop
vertex -1.954970 1.902158 8.201681
vertex -2.250408 1.432107 8.044991
vertex -2.500000 6.531621 13.409237
endloop
endfacet
facet normal -0.599999 0.565686 -0.565686
outer loop
vertex -2.500000 6.531621 13.409237
vertex -1.088116 2.594883 7.974969
vertex -1.557151 2.299946 8.177520
endloop
endfacet
facet normal -0.600013 0.565668 -0.565689
outer loop
vertex -2.500000 6.531621 13.409237
vertex -1.557151 2.299946 8.177520
vertex -1.559611 2.297995 8.178178
endloop
endfacet
facet normal -0.599776 0.565756 -0.565852
outer loop
vertex -1.953386 1.904130 8.201975
vertex -1.954970 1.902158 8.201681
vertex -2.500000 6.531621 13.409237
endloop
endfacet
facet normal -0.600001 0.565685 -0.565685
outer loop
vertex -2.500000 6.531621 13.409237
vertex -1.559611 2.297995 8.178178
vertex -1.953386 1.904130 8.201975
endloop
endfacet
facet normal 0.600000 -0.565685 0.565685
outer loop
vertex 0.000000 0.344436 22.248074
vertex 0.000000 -8.494398 13.409235
vertex 2.500000 -5.842749 13.409237
endloop
endfacet
facet normal 0.600000 -0.565685 0.565685
outer loop
vertex 2.500000 -5.842749 13.409237
vertex 2.500000 0.344436 19.596420
vertex 0.000000 0.344436 22.248074
endloop
endfacet
facet normal 0.599962 0.565706 -0.565706
outer loop
vertex 0.015453 2.843572 7.085927
vertex 0.000000 2.843560 7.069525
vertex 0.000000 9.183271 13.409238
endloop
endfacet
facet normal 0.600287 0.565518 -0.565548
outer loop
vertex 2.500000 6.531621 13.409237
vertex 2.500000 0.344437 7.222053
vertex 2.498839 0.344437 7.220820
endloop
endfacet
facet normal 0.596532 0.567574 -0.567459
outer loop
vertex 2.500000 6.531621 13.409237
vertex 2.498839 0.344437 7.220820
vertex 2.498764 0.358709 7.235013
endloop
endfacet
facet normal 0.600000 0.565686 -0.565686
outer loop
vertex 0.015453 2.843572 7.085927
vertex 0.000000 9.183271 13.409238
vertex 2.500000 6.531621 13.409237
endloop
endfacet
facet normal 0.600002 0.565684 -0.565685
outer loop
vertex 0.547211 2.783285 7.589655
vertex 0.015453 2.843572 7.085927
vertex 2.500000 6.531621 13.409237
endloop
endfacet
facet normal 0.600013 0.565678 -0.565679
outer loop
vertex 2.500000 6.531621 13.409237
vertex 2.498764 0.358709 7.235013
vertex 2.438159 0.893602 7.705625
endloop
endfacet
facet normal 0.599774 0.565834 -0.565777
outer loop
vertex 2.500000 6.531621 13.409237
vertex 2.438159 0.893602 7.705625
vertex 2.434754 0.908212 7.716623
endloop
endfacet
facet normal 0.599971 0.565708 -0.565693
outer loop
vertex 0.564680 2.779323 7.604222
vertex 0.547211 2.783285 7.589655
vertex 2.500000 6.531621 13.409237
endloop
endfacet
facet normal 0.600000 0.565686 -0.565685
outer loop
vertex 1.080581 2.598492 7.970586
vertex 0.564680 2.779323 7.604222
vertex 2.500000 6.531621 13.409237
endloop
endfacet
facet normal 0.600003 0.565683 -0.565684
outer loop
vertex 2.500000 6.531621 13.409237
vertex 2.434754 0.908212 7.716623
vertex 2.253274 1.426215 8.042138
endloop
endfacet
facet normal 0.599940 0.565728 -0.565706
outer loop
vertex 2.500000 6.531621 13.409237
vertex 2.253274 1.426215 8.042138
vertex 2.250408 1.432107 8.044991
endloop
endfacet
facet normal 0.600050 0.565659 -0.565659
outer loop
vertex 1.088116 2.594883 7.974969
vertex 1.080581 2.598492 7.970586
vertex 2.500000 6.531621 13.409237
endloop
endfacet
facet normal 0.599999 0.565686 -0.565686
outer loop
vertex 1.557151 2.299946 8.177520
vertex 1.088116 2.594883 7.974969
vertex 2.500000 6.531621 13.409237
endloop
endfacet
facet normal 0.599999 0.565686 -0.565686
outer loop
vertex 2.500000 6.531621 13.409237
vertex 2.250408 1.432107 8.044991
vertex 1.954970 1.902158 8.201681
endloop
endfacet
facet normal 0.599897 0.565692 -0.565787
outer loop
vertex 2.500000 6.531621 13.409237
vertex 1.954970 1.902158 8.201681
vertex 1.953386 1.904130 8.201975
endloop
endfacet
facet normal 0.600010 0.565658 -0.565702
outer loop
vertex 1.559611 2.297995 8.178178
vertex 1.557151 2.299946 8.177520
vertex 2.500000 6.531621 13.409237
endloop
endfacet
facet normal 0.600001 0.565685 -0.565685
outer loop
vertex 2.500000 6.531621 13.409237
vertex 1.953386 1.904130 8.201975
vertex 1.559611 2.297995 8.178178
endloop
endfacet
facet normal -0.600001 0.565685 0.565685
outer loop
vertex -2.500000 0.344436 19.596420
vertex 0.000000 0.344436 22.248074
vertex 0.000000 9.183271 13.409238
endloop
endfacet
facet normal -0.600000 0.565686 0.565686
outer loop
vertex 0.000000 9.183271 13.409238
vertex -2.500000 6.531621 13.409237
vertex -2.500000 0.344436 19.596420
endloop
endfacet
facet normal -0.599999 0.565685 -0.565686
outer loop
vertex 0.000000 0.344436 16.944769
vertex 0.000000 -3.191098 13.409237
vertex -2.500000 -5.842749 13.409237
endloop
endfacet
facet normal -0.600000 0.565685 -0.565685
outer loop
vertex -2.500000 -5.842749 13.409237
vertex -2.500000 0.344436 19.596420
vertex 0.000000 0.344436 16.944769
endloop
endfacet
facet normal 0.600000 0.565685 -0.565686
outer loop
vertex 2.500000 0.344436 19.596420
vertex 2.500000 -5.842749 13.409237
vertex 0.000000 -3.191098 13.409237
endloop
endfacet
facet normal 0.600000 0.565685 -0.565686
outer loop
vertex 0.000000 -3.191098 13.409237
vertex 0.000000 0.344436 16.944769
vertex 2.500000 0.344436 19.596420
endloop
endfacet
facet normal 0.600001 0.565685 0.565685
outer loop
vertex 0.000000 0.344436 22.248074
vertex 2.500000 0.344436 19.596420
vertex 2.500000 6.531621 13.409237
endloop
endfacet
facet normal 0.599999 0.565686 0.565686
outer loop
vertex 2.500000 6.531621 13.409237
vertex 0.000000 9.183271 13.409238
vertex 0.000000 0.344436 22.248074
endloop
endfacet
facet normal -0.600000 -0.565685 -0.565686
outer loop
vertex -2.500000 0.344436 19.596420
vertex -2.500000 6.531621 13.409237
vertex 0.000000 3.879970 13.409236
endloop
endfacet
facet normal -0.600001 -0.565685 -0.565685
outer loop
vertex 0.000000 3.879970 13.409236
vertex 0.000000 0.344436 16.944769
vertex -2.500000 0.344436 19.596420
endloop
endfacet
facet normal 0.600001 -0.565685 -0.565685
outer loop
vertex 0.000000 0.344436 16.944769
vertex 0.000000 3.879970 13.409236
vertex 2.500000 6.531621 13.409237
endloop
endfacet
facet normal 0.600000 -0.565686 -0.565686
outer loop
vertex 2.500000 6.531621 13.409237
vertex 2.500000 0.344436 19.596420
vertex 0.000000 0.344436 16.944769
endloop
endfacet
facet normal -0.000004 0.000001 1.000000
outer loop
vertex -1.350627 -1.759324 -9.131788
vertex -2.500000 -8.655563 -9.131788
vertex -0.839468 -2.010406 -9.131786
endloop
endfacet
facet normal -0.440885 -0.897563 -0.000924
outer loop
vertex -1.089500 -1.905209 7.975636
vertex -1.350627 -1.759324 -9.131788
vertex -0.839468 -2.010406 -9.131786
endloop
endfacet
facet normal -0.440904 -0.897554 -0.000925
outer loop
vertex -0.839468 -2.010406 -9.131786
vertex -1.079874 -1.909932 7.970150
vertex -1.089500 -1.905209 7.975636
endloop
endfacet
facet normal -0.986394 0.164399 0.000000
outer loop
vertex -2.500000 -8.655563 -9.131788
vertex -1.350627 -1.759324 -9.131788
vertex -2.500000 -8.655563 -13.631788
endloop
endfacet
facet normal 0.000004 -0.000001 1.000000
outer loop
vertex -0.839468 -2.010406 -9.131786
vertex -2.500000 -8.655563 -9.131788
vertex -0.284748 -2.139295 -9.131788
endloop
endfacet
facet normal -0.532096 -0.846684 0.000902
outer loop
vertex -1.556989 -1.611202 8.177477
vertex -1.350627 -1.759324 -9.131788
vertex -1.089500 -1.905209 7.975636
endloop
endfacet
facet normal -0.330329 -0.943866 0.000902
outer loop
vertex -1.079874 -1.909932 7.970150
vertex -0.839468 -2.010406 -9.131786
vertex -0.567502 -2.089596 7.606361
endloop
endfacet
facet normal 0.000000 -1.000000 0.000000
outer loop
vertex 2.500000 -8.655563 -13.631788
vertex -2.500000 -8.655563 -9.131788
vertex -2.500000 -8.655563 -13.631788
endloop
endfacet
facet normal -0.986394 0.164399 0.000000
outer loop
vertex -2.500000 -8.655563 -13.631788
vertex -1.350627 -1.759324 -9.131788
vertex -1.350627 -1.759322 -13.631786
endloop
endfacet
facet normal -0.226319 -0.974053 -0.000931
outer loop
vertex -0.567502 -2.089596 7.606361
vertex -0.839468 -2.010406 -9.131786
vertex -0.284748 -2.139295 -9.131788
endloop
endfacet
facet normal -0.226322 -0.974052 -0.000931
outer loop
vertex -0.284748 -2.139295 -9.131788
vertex -0.545099 -2.094784 7.587787
vertex -0.567502 -2.089596 7.606361
endloop
endfacet
facet normal 0.000000 0.000000 1.000000
outer loop
vertex -0.284748 -2.139295 -9.131788
vertex -2.500000 -8.655563 -9.131788
vertex 2.500000 -8.655563 -9.131788
endloop
endfacet
facet normal -0.625807 -0.779978 -0.000786
outer loop
vertex -1.559728 -1.609005 8.178185
vertex -1.783412 -1.407547 -13.631788
vertex -1.350627 -1.759324 -9.131788
endloop
endfacet
facet normal -0.625896 -0.779906 -0.000788
outer loop
vertex -1.350627 -1.759324 -9.131788
vertex -1.556989 -1.611202 8.177477
vertex -1.559728 -1.609005 8.178185
endloop
endfacet
facet normal 0.000000 0.000000 -1.000000
outer loop
vertex 2.500000 -8.655563 -13.631788
vertex -2.500000 -8.655563 -13.631788
vertex 1.350627 -1.759322 -13.631786
endloop
endfacet
facet normal 0.000000 -1.000000 0.000000
outer loop
vertex 2.500000 -8.655563 -9.131788
vertex -2.500000 -8.655563 -9.131788
vertex 2.500000 -8.655563 -13.631788
endloop
endfacet
facet normal 0.000000 0.000000 -1.000000
outer loop
vertex 1.350627 -1.759322 -13.631786
vertex -2.500000 -8.655563 -13.631788
vertex -1.350627 -1.759322 -13.631786
endloop
endfacet
facet normal -0.630741 -0.775994 -0.000000
outer loop
vertex -1.783412 -1.407547 -13.631788
vertex -1.350627 -1.759322 -13.631786
vertex -1.350627 -1.759324 -9.131788
endloop
endfacet
facet normal -0.111981 -0.993710 0.000902
outer loop
vertex -0.545099 -2.094784 7.587787
vertex -0.284748 -2.139295 -9.131788
vertex -0.019781 -2.154433 7.090252
endloop
endfacet
facet normal 0.000000 0.000000 1.000000
outer loop
vertex -0.284748 -2.139295 -9.131788
vertex 2.500000 -8.655563 -9.131788
vertex 0.284748 -2.139295 -9.131788
endloop
endfacet
facet normal -0.707166 -0.707048 0.000722
outer loop
vertex -1.953480 -1.215163 8.201980
vertex -1.783412 -1.407547 -13.631788
vertex -1.559728 -1.609005 8.178185
endloop
endfacet
facet normal 0.986394 0.164399 0.000000
outer loop
vertex 1.350627 -1.759322 -13.631786
vertex 2.500000 -8.655563 -9.131788
vertex 2.500000 -8.655563 -13.631788
endloop
endfacet
facet normal 0.000000 -0.000005 -1.000000
outer loop
vertex 1.350627 -1.759322 -13.631786
vertex -1.350627 -1.759322 -13.631786
vertex 1.783412 -1.407547 -13.631788
endloop
endfacet
facet normal 0.000000 -0.000005 -1.000000
outer loop
vertex 1.783412 -1.407547 -13.631788
vertex -1.350627 -1.759322 -13.631786
vertex -1.783412 -1.407547 -13.631788
endloop
endfacet
facet normal 0.000000 -0.999999 -0.000933
outer loop
vertex -0.284748 -2.139295 -9.131788
vertex 0.284748 -2.139295 -9.131788
vertex 0.019781 -2.154433 7.090253
endloop
endfacet
facet normal -0.000014 -1.000000 -0.000933
outer loop
vertex 0.000000 -2.154414 7.069252
vertex -0.019781 -2.154433 7.090252
vertex -0.284748 -2.139295 -9.131788
endloop
endfacet
facet normal 0.000039 -1.000000 -0.000934
outer loop
vertex 0.019781 -2.154433 7.090253
vertex 0.000000 -2.154414 7.069252
vertex -0.284748 -2.139295 -9.131788
endloop
endfacet
facet normal -0.000004 -0.000001 1.000000
outer loop
vertex 0.284748 -2.139295 -9.131788
vertex 2.500000 -8.655563 -9.131788
vertex 0.839468 -2.010406 -9.131786
endloop
endfacet
facet normal -0.787083 -0.616847 -0.000696
outer loop
vertex -1.955041 -1.213170 8.201644
vertex -2.127440 -0.968575 -13.631788
vertex -1.783412 -1.407547 -13.631788
endloop
endfacet
facet normal -0.787194 -0.616704 -0.000698
outer loop
vertex -1.783412 -1.407547 -13.631788
vertex -1.953480 -1.215163 8.201980
vertex -1.955041 -1.213170 8.201644
endloop
endfacet
facet normal 0.986394 0.164399 0.000000
outer loop
vertex 1.350627 -1.759324 -9.131788
vertex 2.500000 -8.655563 -9.131788
vertex 1.350627 -1.759322 -13.631786
endloop
endfacet
facet normal 0.630741 -0.775993 -0.000699
outer loop
vertex 1.557293 -1.610984 8.177581
vertex 1.350627 -1.759322 -13.631786
vertex 1.783412 -1.407547 -13.631788
endloop
endfacet
facet normal 0.630761 -0.775977 -0.000699
outer loop
vertex 1.783412 -1.407547 -13.631788
vertex 1.559728 -1.609005 8.178185
vertex 1.557293 -1.610984 8.177581
endloop
endfacet
facet normal 0.000000 0.000000 -1.000000
outer loop
vertex 1.783412 -1.407547 -13.631788
vertex -1.783412 -1.407547 -13.631788
vertex 0.278860 2.828834 -13.631786
endloop
endfacet
facet normal 0.111980 -0.993710 0.000902
outer loop
vertex 0.019781 -2.154433 7.090253
vertex 0.284748 -2.139295 -9.131788
vertex 0.545099 -2.094784 7.587787
endloop
endfacet
facet normal 0.226319 -0.974053 -0.000931
outer loop
vertex 0.545099 -2.094784 7.587787
vertex 0.284748 -2.139295 -9.131788
vertex 0.839468 -2.010406 -9.131786
endloop
endfacet
facet normal 0.226305 -0.974056 -0.000932
outer loop
vertex 0.839468 -2.010406 -9.131786
vertex 0.567502 -2.089597 7.606362
vertex 0.545099 -2.094784 7.587787
endloop
endfacet
facet normal 0.000004 0.000001 1.000000
outer loop
vertex 0.839468 -2.010406 -9.131786
vertex 2.500000 -8.655563 -9.131788
vertex 1.350627 -1.759324 -9.131788
endloop
endfacet
facet normal -0.846763 -0.531969 0.000727
outer loop
vertex -2.250591 -0.742942 8.044893
vertex -2.127440 -0.968575 -13.631788
vertex -1.955041 -1.213170 8.201644
endloop
endfacet
facet normal -0.000005 0.000000 -1.000000
outer loop
vertex -2.111728 1.682571 -13.631788
vertex -1.783412 -1.407547 -13.631788
vertex -2.127440 -0.968575 -13.631788
endloop
endfacet
facet normal 0.583133 -0.812376 -0.000000
outer loop
vertex 1.556989 -1.611202 8.177477
vertex 1.350627 -1.759324 -9.131788
vertex 1.350627 -1.759322 -13.631786
endloop
endfacet
facet normal 0.583504 -0.812110 -0.000012
outer loop
vertex 1.350627 -1.759322 -13.631786
vertex 1.557293 -1.610984 8.177581
vertex 1.556989 -1.611202 8.177477
endloop
endfacet
facet normal 0.707166 -0.707048 0.000722
outer loop
vertex 1.559728 -1.609005 8.178185
vertex 1.783412 -1.407547 -13.631788
vertex 1.953480 -1.215163 8.201980
endloop
endfacet
facet normal 0.000004 0.000000 -1.000000
outer loop
vertex 0.278860 2.828834 -13.631786
vertex 0.822700 2.705192 -13.631786
vertex 1.783412 -1.407547 -13.631788
endloop
endfacet
facet normal 0.000000 0.000000 -1.000000
outer loop
vertex 0.278860 2.828834 -13.631786
vertex -1.783412 -1.407547 -13.631788
vertex -0.278859 2.828834 -13.631786
endloop
endfacet
facet normal 0.330329 -0.943865 0.000902
outer loop
vertex 0.567502 -2.089597 7.606362
vertex 0.839468 -2.010406 -9.131786
vertex 1.079874 -1.909932 7.970150
endloop
endfacet
facet normal 0.440885 -0.897563 -0.000924
outer loop
vertex 1.079874 -1.909932 7.970150
vertex 0.839468 -2.010406 -9.131786
vertex 1.350627 -1.759324 -9.131788
endloop
endfacet
facet normal 0.440898 -0.897557 -0.000924
outer loop
vertex 1.350627 -1.759324 -9.131788
vertex 1.089500 -1.905209 7.975636
vertex 1.079874 -1.909932 7.970150
endloop
endfacet
facet normal -0.904250 -0.427004 -0.000693
outer loop
vertex -2.253391 -0.737009 8.041929
vertex -2.365589 -0.464255 -13.631786
vertex -2.127440 -0.968575 -13.631788
endloop
endfacet
facet normal -0.904211 -0.427086 -0.000693
outer loop
vertex -2.127440 -0.968575 -13.631788
vertex -2.250591 -0.742942 8.044893
vertex -2.253391 -0.737009 8.041929
endloop
endfacet
facet normal 0.000006 0.000000 -1.000000
outer loop
vertex -2.111728 1.682571 -13.631788
vertex -2.127440 -0.968575 -13.631788
vertex -2.355838 1.181114 -13.631788
endloop
endfacet
facet normal 0.000006 0.000001 -1.000000
outer loop
vertex -1.762521 2.117435 -13.631786
vertex -1.783412 -1.407547 -13.631788
vertex -2.111728 1.682571 -13.631788
endloop
endfacet
facet normal 0.532096 -0.846684 0.000902
outer loop
vertex 1.089500 -1.905209 7.975636
vertex 1.350627 -1.759324 -9.131788
vertex 1.556989 -1.611202 8.177477
endloop
endfacet
facet normal 0.787083 -0.616847 -0.000696
outer loop
vertex 1.953480 -1.215163 8.201980
vertex 1.783412 -1.407547 -13.631788
vertex 2.127440 -0.968575 -13.631788
endloop
endfacet
facet normal 0.787187 -0.616714 -0.000693
outer loop
vertex 2.127440 -0.968575 -13.631788
vertex 1.955041 -1.213170 8.201644
vertex 1.953480 -1.215163 8.201980
endloop
endfacet
facet normal 0.221692 0.975116 -0.000710
outer loop
vertex 0.564680 2.779323 7.604222
vertex 0.822700 2.705192 -13.631786
vertex 0.278860 2.828834 -13.631786
endloop
endfacet
facet normal 0.221713 0.975112 -0.000710
outer loop
vertex 0.278860 2.828834 -13.631786
vertex 0.547211 2.783285 7.589655
vertex 0.564680 2.779323 7.604222
endloop
endfacet
facet normal -0.000002 0.000001 -1.000000
outer loop
vertex 1.783412 -1.407547 -13.631788
vertex 0.822700 2.705192 -13.631786
vertex 1.325597 2.464057 -13.631786
endloop
endfacet
facet normal 0.000000 1.000000 -0.000711
outer loop
vertex 0.278860 2.828834 -13.631786
vertex -0.278859 2.828834 -13.631786
vertex -0.015453 2.843572 7.085927
endloop
endfacet
facet normal -0.000001 1.000000 -0.000712
outer loop
vertex 0.000000 2.843560 7.069525
vertex 0.015453 2.843572 7.085927
vertex 0.278860 2.828834 -13.631786
endloop
endfacet
facet normal 0.000001 1.000000 -0.000711
outer loop
vertex -0.015453 2.843572 7.085927
vertex 0.000000 2.843560 7.069525
vertex 0.278860 2.828834 -13.631786
endloop
endfacet
facet normal -0.000004 0.000000 -1.000000
outer loop
vertex -0.278859 2.828834 -13.631786
vertex -1.783412 -1.407547 -13.631788
vertex -0.822700 2.705192 -13.631786
endloop
endfacet
facet normal -0.943901 -0.330229 0.000731
outer loop
vertex -2.365589 -0.464255 -13.631786
vertex -2.253391 -0.737009 8.041929
vertex -2.435012 -0.218598 7.716157
endloop
endfacet
facet normal -0.000014 -0.000001 -1.000000
outer loop
vertex -2.355838 1.181114 -13.631788
vertex -2.127440 -0.968575 -13.631788
vertex -2.365589 -0.464255 -13.631786
endloop
endfacet
facet normal -0.899123 0.437694 -0.000695
outer loop
vertex -2.250408 1.432107 8.044991
vertex -2.111728 1.682571 -13.631788
vertex -2.355838 1.181114 -13.631788
endloop
endfacet
facet normal -0.899092 0.437760 -0.000695
outer loop
vertex -2.355838 1.181114 -13.631788
vertex -2.253274 1.426215 8.042138
vertex -2.250408 1.432107 8.044991
endloop
endfacet
facet normal -0.779717 0.626132 -0.000699
outer loop
vertex -1.953386 1.904130 8.201975
vertex -1.762521 2.117435 -13.631786
vertex -2.111728 1.682571 -13.631788
endloop
endfacet
facet normal -0.779733 0.626111 -0.000700
outer loop
vertex -2.111728 1.682571 -13.631788
vertex -1.954970 1.902158 8.201681
vertex -1.953386 1.904130 8.201975
endloop
endfacet
facet normal 0.000000 0.000001 -1.000000
outer loop
vertex -1.325597 2.464057 -13.631786
vertex -1.783412 -1.407547 -13.631788
vertex -1.762521 2.117435 -13.631786
endloop
endfacet
facet normal 0.000008 0.000000 -1.000000
outer loop
vertex 1.783412 -1.407547 -13.631788
vertex 2.111728 1.682571 -13.631788
vertex 2.127440 -0.968575 -13.631788
endloop
endfacet
facet normal 0.846763 -0.531969 0.000727
outer loop
vertex 1.955041 -1.213170 8.201644
vertex 2.127440 -0.968575 -13.631788
vertex 2.250591 -0.742942 8.044893
endloop
endfacet
facet normal 0.330328 0.943866 0.000719
outer loop
vertex 1.080581 2.598492 7.970586
vertex 0.822700 2.705192 -13.631786
vertex 0.564680 2.779323 7.604222
endloop
endfacet
facet normal 0.111982 0.993710 0.000717
outer loop
vertex 0.547211 2.783285 7.589655
vertex 0.278860 2.828834 -13.631786
vertex 0.015453 2.843572 7.085927
endloop
endfacet
facet normal 0.000001 0.000001 -1.000000
outer loop
vertex 1.783412 -1.407547 -13.631788
vertex 1.325597 2.464057 -13.631786
vertex 1.762521 2.117435 -13.631786
endloop
endfacet
facet normal 0.432358 0.901702 -0.000708
outer loop
vertex 1.088116 2.594883 7.974969
vertex 1.325597 2.464057 -13.631786
vertex 0.822700 2.705192 -13.631786
endloop
endfacet
facet normal 0.432368 0.901697 -0.000708
outer loop
vertex 0.822700 2.705192 -13.631786
vertex 1.080581 2.598492 7.970586
vertex 1.088116 2.594883 7.974969
endloop
endfacet
facet normal -0.111982 0.993710 0.000717
outer loop
vertex -0.015453 2.843572 7.085927
vertex -0.278859 2.828834 -13.631786
vertex -0.547211 2.783285 7.589654
endloop
endfacet
facet normal -0.221692 0.975116 -0.000710
outer loop
vertex -0.547211 2.783285 7.589654
vertex -0.278859 2.828834 -13.631786
vertex -0.822700 2.705192 -13.631786
endloop
endfacet
facet normal -0.221712 0.975112 -0.000710
outer loop
vertex -0.822700 2.705192 -13.631786
vertex -0.564680 2.779323 7.604222
vertex -0.547211 2.783285 7.589654
endloop
endfacet
facet normal 0.000004 0.000001 -1.000000
outer loop
vertex -0.822700 2.705192 -13.631786
vertex -1.783412 -1.407547 -13.631788
vertex -1.325597 2.464057 -13.631786
endloop
endfacet
facet normal -0.976407 -0.215935 -0.000691
outer loop
vertex -2.365589 -0.464255 -13.631786
vertex -2.435012 -0.218598 7.716157
vertex -2.438250 -0.203920 7.704913
endloop
endfacet
facet normal -0.976412 -0.215914 -0.000691
outer loop
vertex -2.438250 -0.203920 7.704913
vertex -2.486008 0.080308 -13.631786
vertex -2.365589 -0.464255 -13.631786
endloop
endfacet
facet normal -0.000009 -0.000001 -1.000000
outer loop
vertex -2.355838 1.181114 -13.631788
vertex -2.365589 -0.464255 -13.631786
vertex -2.482702 0.638016 -13.631786
endloop
endfacet
facet normal -0.846763 0.531969 0.000729
outer loop
vertex -1.954970 1.902158 8.201681
vertex -2.111728 1.682571 -13.631788
vertex -2.250408 1.432107 8.044991
endloop
endfacet
facet normal -0.943901 0.330229 0.000732
outer loop
vertex -2.355838 1.181114 -13.631788
vertex -2.434754 0.908212 7.716623
vertex -2.253274 1.426215 8.042138
endloop
endfacet
facet normal -0.707166 0.707048 0.000726
outer loop
vertex -1.559611 2.297995 8.178178
vertex -1.762521 2.117435 -13.631786
vertex -1.953386 1.904130 8.201975
endloop
endfacet
facet normal -0.621500 0.783414 -0.000704
outer loop
vertex -1.557151 2.299946 8.177520
vertex -1.325597 2.464057 -13.631786
vertex -1.762521 2.117435 -13.631786
endloop
endfacet
facet normal -0.621488 0.783423 -0.000706
outer loop
vertex -1.762521 2.117435 -13.631786
vertex -1.559611 2.297995 8.178178
vertex -1.557151 2.299946 8.177520
endloop
endfacet
facet normal -0.000006 0.000001 -1.000000
outer loop
vertex 1.762521 2.117435 -13.631786
vertex 2.111728 1.682571 -13.631788
vertex 1.783412 -1.407547 -13.631788
endloop
endfacet
facet normal -0.000007 0.000000 -1.000000
outer loop
vertex 2.127440 -0.968575 -13.631788
vertex 2.111728 1.682571 -13.631788
vertex 2.355838 1.181114 -13.631788
endloop
endfacet
facet normal 0.904249 -0.427005 -0.000693
outer loop
vertex 2.250591 -0.742942 8.044893
vertex 2.127440 -0.968575 -13.631788
vertex 2.365589 -0.464255 -13.631786
endloop
endfacet
facet normal 0.904241 -0.427022 -0.000692
outer loop
vertex 2.365589 -0.464255 -13.631786
vertex 2.253391 -0.737009 8.041929
vertex 2.250591 -0.742942 8.044893
endloop
endfacet
facet normal 0.621500 0.783414 -0.000704
outer loop
vertex 1.559611 2.297995 8.178178
vertex 1.762521 2.117435 -13.631786
vertex 1.325597 2.464057 -13.631786
endloop
endfacet
facet normal 0.621479 0.783431 -0.000701
outer loop
vertex 1.325597 2.464057 -13.631786
vertex 1.557151 2.299946 8.177520
vertex 1.559611 2.297995 8.178178
endloop
endfacet
facet normal 0.532096 0.846684 0.000722
outer loop
vertex 1.557151 2.299946 8.177520
vertex 1.325597 2.464057 -13.631786
vertex 1.088116 2.594883 7.974969
endloop
endfacet
facet normal -0.330328 0.943866 0.000719
outer loop
vertex -0.564680 2.779323 7.604222
vertex -0.822700 2.705192 -13.631786
vertex -1.080581 2.598493 7.970587
endloop
endfacet
facet normal -0.432358 0.901702 -0.000708
outer loop
vertex -1.080581 2.598493 7.970587
vertex -0.822700 2.705192 -13.631786
vertex -1.325597 2.464057 -13.631786
endloop
endfacet
facet normal -0.432396 0.901684 -0.000707
outer loop
vertex -1.325597 2.464057 -13.631786
vertex -1.088116 2.594883 7.974969
vertex -1.080581 2.598493 7.970587
endloop
endfacet
facet normal 0.000000 0.000000 -1.000000
outer loop
vertex -2.482702 0.638016 -13.631786
vertex -2.365589 -0.464255 -13.631786
vertex -2.486008 0.080308 -13.631786
endloop
endfacet
facet normal -0.993714 -0.111947 0.000733
outer loop
vertex -2.486008 0.080308 -13.631786
vertex -2.438250 -0.203920 7.704913
vertex -2.498924 0.331580 7.233768
endloop
endfacet
facet normal -0.973784 0.227475 -0.000692
outer loop
vertex -2.482702 0.638016 -13.631786
vertex -2.438159 0.893602 7.705625
vertex -2.434754 0.908212 7.716623
endloop
endfacet
facet normal -0.973785 0.227471 -0.000692
outer loop
vertex -2.434754 0.908212 7.716623
vertex -2.355838 1.181114 -13.631788
vertex -2.482702 0.638016 -13.631786
endloop
endfacet
facet normal -0.532096 0.846684 0.000722
outer loop
vertex -1.088116 2.594883 7.974969
vertex -1.325597 2.464057 -13.631786
vertex -1.557151 2.299946 8.177520
endloop
endfacet
facet normal 0.779717 0.626132 -0.000699
outer loop
vertex 1.954970 1.902158 8.201681
vertex 2.111728 1.682571 -13.631788
vertex 1.762521 2.117435 -13.631786
endloop
endfacet
facet normal 0.779696 0.626158 -0.000697
outer loop
vertex 1.762521 2.117435 -13.631786
vertex 1.953386 1.904130 8.201975
vertex 1.954970 1.902158 8.201681
endloop
endfacet
facet normal 0.000010 -0.000001 -1.000000
outer loop
vertex 2.127440 -0.968575 -13.631788
vertex 2.355838 1.181114 -13.631788
vertex 2.365589 -0.464255 -13.631786
endloop
endfacet
facet normal 0.899123 0.437695 -0.000695
outer loop
vertex 2.253274 1.426215 8.042138
vertex 2.355838 1.181114 -13.631788
vertex 2.111728 1.682571 -13.631788
endloop
endfacet
facet normal 0.899098 0.437748 -0.000695
outer loop
vertex 2.111728 1.682571 -13.631788
vertex 2.250408 1.432107 8.044991
vertex 2.253274 1.426215 8.042138
endloop
endfacet
facet normal 0.943901 -0.330229 0.000731
outer loop
vertex 2.365589 -0.464255 -13.631786
vertex 2.435012 -0.218598 7.716157
vertex 2.253391 -0.737009 8.041929
endloop
endfacet
facet normal 0.707166 0.707048 0.000726
outer loop
vertex 1.953386 1.904130 8.201975
vertex 1.762521 2.117435 -13.631786
vertex 1.559611 2.297995 8.178178
endloop
endfacet
facet normal -0.999982 0.005927 -0.000690
outer loop
vertex -2.482702 0.638016 -13.631786
vertex -2.486008 0.080308 -13.631786
vertex -2.498924 0.331580 7.233768
endloop
endfacet
facet normal -0.999982 0.005966 -0.000690
outer loop
vertex -2.498839 0.344437 7.220820
vertex -2.498764 0.358709 7.235013
vertex -2.482702 0.638016 -13.631786
endloop
endfacet
facet normal -0.999982 0.005889 -0.000690
outer loop
vertex -2.498924 0.331580 7.233768
vertex -2.498839 0.344437 7.220820
vertex -2.482702 0.638016 -13.631786
endloop
endfacet
facet normal -0.993714 0.111946 0.000734
outer loop
vertex -2.482702 0.638016 -13.631786
vertex -2.498764 0.358709 7.235013
vertex -2.438159 0.893602 7.705625
endloop
endfacet
facet normal 0.846763 0.531969 0.000729
outer loop
vertex 2.250408 1.432107 8.044991
vertex 2.111728 1.682571 -13.631788
vertex 1.954970 1.902158 8.201681
endloop
endfacet
facet normal 0.000009 -0.000001 -1.000000
outer loop
vertex 2.365589 -0.464255 -13.631786
vertex 2.355838 1.181114 -13.631788
vertex 2.482702 0.638016 -13.631786
endloop
endfacet
facet normal 0.943901 0.330229 0.000732
outer loop
vertex 2.355838 1.181114 -13.631788
vertex 2.253274 1.426215 8.042138
vertex 2.434754 0.908212 7.716623
endloop
endfacet
facet normal 0.976405 -0.215946 -0.000691
outer loop
vertex 2.486008 0.080308 -13.631786
vertex 2.438250 -0.203920 7.704913
vertex 2.435012 -0.218598 7.716157
endloop
endfacet
facet normal 0.976412 -0.215913 -0.000691
outer loop
vertex 2.435012 -0.218598 7.716157
vertex 2.365589 -0.464255 -13.631786
vertex 2.486008 0.080308 -13.631786
endloop
endfacet
facet normal 0.000000 0.000000 -1.000000
outer loop
vertex 2.365589 -0.464255 -13.631786
vertex 2.482702 0.638016 -13.631786
vertex 2.486008 0.080308 -13.631786
endloop
endfacet
facet normal 0.973783 0.227478 -0.000692
outer loop
vertex 2.355838 1.181114 -13.631788
vertex 2.434754 0.908212 7.716623
vertex 2.438159 0.893602 7.705625
endloop
endfacet
facet normal 0.973785 0.227471 -0.000692
outer loop
vertex 2.438159 0.893602 7.705625
vertex 2.482702 0.638016 -13.631786
vertex 2.355838 1.181114 -13.631788
endloop
endfacet
facet normal 0.993714 -0.111947 0.000733
outer loop
vertex 2.486008 0.080308 -13.631786
vertex 2.498924 0.331580 7.233768
vertex 2.438250 -0.203920 7.704913
endloop
endfacet
facet normal 0.999982 0.005926 -0.000690
outer loop
vertex 2.486008 0.080308 -13.631786
vertex 2.482702 0.638016 -13.631786
vertex 2.498764 0.358709 7.235013
endloop
endfacet
facet normal 0.999982 0.005901 -0.000690
outer loop
vertex 2.498839 0.344437 7.220820
vertex 2.498924 0.331580 7.233768
vertex 2.486008 0.080308 -13.631786
endloop
endfacet
facet normal 0.999982 0.005971 -0.000690
outer loop
vertex 2.498764 0.358709 7.235013
vertex 2.498839 0.344437 7.220820
vertex 2.486008 0.080308 -13.631786
endloop
endfacet
facet normal 0.993714 0.111946 0.000734
outer loop
vertex 2.482702 0.638016 -13.631786
vertex 2.438159 0.893602 7.705625
vertex 2.498764 0.358709 7.235013
endloop
endfacet
facet normal 0.600000 0.565685 0.565686
outer loop
vertex 0.000000 -3.191098 13.409237
vertex 2.500000 -5.842749 13.409237
vertex 2.500000 0.344437 7.222053
endloop
endfacet
facet normal 0.600000 0.565686 0.565686
outer loop
vertex 0.000000 0.344437 9.873703
vertex 0.000000 -3.191098 13.409237
vertex 2.500000 0.344437 7.222053
endloop
endfacet
facet normal 0.600000 -0.565685 0.565685
outer loop
vertex 0.000000 0.344437 9.873703
vertex 2.500000 0.344437 7.222053
vertex 0.000000 3.879970 13.409236
endloop
endfacet
facet normal 0.600000 -0.565686 0.565686
outer loop
vertex 2.500000 0.344437 7.222053
vertex 2.500000 6.531621 13.409237
vertex 0.000000 3.879970 13.409236
endloop
endfacet
facet normal -0.600000 -0.565686 0.565686
outer loop
vertex -2.500000 0.344437 7.222053
vertex 0.000000 3.879970 13.409236
vertex -2.500000 6.531621 13.409237
endloop
endfacet
facet normal -0.600000 0.565685 0.565686
outer loop
vertex -2.500000 -5.842749 13.409237
vertex 0.000000 0.344437 9.873703
vertex -2.500000 0.344437 7.222053
endloop
endfacet
facet normal -0.600000 -0.565685 0.565685
outer loop
vertex 0.000000 0.344437 9.873703
vertex 0.000000 3.879970 13.409236
vertex -2.500000 0.344437 7.222053
endloop
endfacet
facet normal -0.600000 0.565685 0.565686
outer loop
vertex -2.500000 -5.842749 13.409237
vertex 0.000000 -3.191098 13.409237
vertex 0.000000 0.344437 9.873703
endloop
endfacet
endsolid Exported from Blender-2.77 (sub 0)
