solid CATIA STL
  facet normal  0.000000e+000  1.000000e+000  0.000000e+000
    outer loop
      vertex -3.389594e+001  4.500000e+001  1.226189e+000
      vertex -2.923922e+001  4.500000e+001  6.733389e-001
      vertex -3.366512e+001  4.500000e+001  9.698457e-001
    endloop
  endfacet
  facet normal  0.000000e+000  1.000000e+000  0.000000e+000
    outer loop
      vertex -3.366512e+001  4.500000e+001 -9.698457e-001
      vertex -2.935634e+001  4.500000e+001 -1.337572e+000
      vertex -3.389594e+001  4.500000e+001 -1.226189e+000
    endloop
  endfacet
  facet normal  0.000000e+000  1.000000e+000  0.000000e+000
    outer loop
      vertex -3.389594e+001  4.500000e+001 -1.226189e+000
      vertex -2.935634e+001  4.500000e+001 -1.337572e+000
      vertex -3.417500e+001  4.500000e+001 -1.428942e+000
    endloop
  endfacet
  facet normal  0.000000e+000  1.000000e+000  0.000000e+000
    outer loop
      vertex -4.076078e+001  4.500000e+001  6.733389e-001
      vertex -3.610406e+001  4.500000e+001  1.226189e+000
      vertex -3.633488e+001  4.500000e+001  9.698457e-001
    endloop
  endfacet
  facet normal  0.000000e+000  1.000000e+000  -0.000000e+000
    outer loop
      vertex -3.633488e+001  4.500000e+001  9.698457e-001
      vertex -3.650735e+001  4.500000e+001  6.711155e-001
      vertex -4.076078e+001  4.500000e+001  6.733389e-001
    endloop
  endfacet
  facet normal  0.000000e+000  1.000000e+000  -0.000000e+000
    outer loop
      vertex -2.954978e+001  4.500000e+001 -1.983717e+000
      vertex -2.981693e+001  4.500000e+001 -2.603035e+000
      vertex -3.015417e+001  4.500000e+001 -3.187152e+000
    endloop
  endfacet
  facet normal  0.000000e+000  1.000000e+000  -0.000000e+000
    outer loop
      vertex -2.954978e+001  4.500000e+001 -1.983717e+000
      vertex -3.015417e+001  4.500000e+001 -3.187152e+000
      vertex -3.055694e+001  4.500000e+001 -3.728168e+000
    endloop
  endfacet
  facet normal  0.000000e+000  1.000000e+000  -0.000000e+000
    outer loop
      vertex -2.954978e+001  4.500000e+001 -1.983717e+000
      vertex -3.055694e+001  4.500000e+001 -3.728168e+000
      vertex -3.101980e+001  4.500000e+001 -4.218767e+000
    endloop
  endfacet
  facet normal  0.000000e+000  1.000000e+000  -0.000000e+000
    outer loop
      vertex -2.954978e+001  4.500000e+001 -1.983717e+000
      vertex -3.101980e+001  4.500000e+001 -4.218767e+000
      vertex -3.153648e+001  4.500000e+001 -4.652315e+000
    endloop
  endfacet
  facet normal  0.000000e+000  1.000000e+000  -0.000000e+000
    outer loop
      vertex -2.954978e+001  4.500000e+001 -1.983717e+000
      vertex -3.153648e+001  4.500000e+001 -4.652315e+000
      vertex -3.210000e+001  4.500000e+001 -5.022947e+000
    endloop
  endfacet
  facet normal  0.000000e+000  1.000000e+000  -0.000000e+000
    outer loop
      vertex -2.954978e+001  4.500000e+001 -1.983717e+000
      vertex -3.210000e+001  4.500000e+001 -5.022947e+000
      vertex -3.270274e+001  4.500000e+001 -5.325654e+000
    endloop
  endfacet
  facet normal  0.000000e+000  1.000000e+000  -0.000000e+000
    outer loop
      vertex -2.954978e+001  4.500000e+001 -1.983717e+000
      vertex -3.270274e+001  4.500000e+001 -5.325654e+000
      vertex -3.333654e+001  4.500000e+001 -5.556339e+000
    endloop
  endfacet
  facet normal  0.000000e+000  9.999999e-001  -0.000000e+000
    outer loop
      vertex -2.954978e+001  4.500000e+001 -1.983717e+000
      vertex -3.333654e+001  4.500000e+001 -5.556339e+000
      vertex -3.399284e+001  4.500000e+001 -5.711885e+000
    endloop
  endfacet
  facet normal  0.000000e+000  1.000000e+000  -0.000000e+000
    outer loop
      vertex -2.954978e+001  4.500000e+001 -1.983717e+000
      vertex -3.399284e+001  4.500000e+001 -5.711885e+000
      vertex -3.466276e+001  4.500000e+001 -5.790187e+000
    endloop
  endfacet
  facet normal  0.000000e+000  9.999999e-001  -0.000000e+000
    outer loop
      vertex -2.954978e+001  4.500000e+001 -1.983717e+000
      vertex -3.466276e+001  4.500000e+001 -5.790187e+000
      vertex -3.482753e+001  4.500000e+001 -1.640961e+000
    endloop
  endfacet
  facet normal  -0.000000e+000  1.000000e+000  0.000000e+000
    outer loop
      vertex -2.954978e+001  4.500000e+001 -1.983717e+000
      vertex -3.482753e+001  4.500000e+001 -1.640961e+000
      vertex -3.449012e+001  4.500000e+001 -1.569243e+000
    endloop
  endfacet
  facet normal  -0.000000e+000  1.000000e+000  0.000000e+000
    outer loop
      vertex -2.954978e+001  4.500000e+001 -1.983717e+000
      vertex -3.449012e+001  4.500000e+001 -1.569243e+000
      vertex -3.417500e+001  4.500000e+001 -1.428942e+000
    endloop
  endfacet
  facet normal  -0.000000e+000  1.000000e+000  0.000000e+000
    outer loop
      vertex -2.954978e+001  4.500000e+001 -1.983717e+000
      vertex -3.417500e+001  4.500000e+001 -1.428942e+000
      vertex -2.935634e+001  4.500000e+001 -1.337572e+000
    endloop
  endfacet
  facet normal  0.000000e+000  1.000000e+000  0.000000e+000
    outer loop
      vertex -3.517247e+001  4.500000e+001 -1.640961e+000
      vertex -3.482753e+001  4.500000e+001 -1.640961e+000
      vertex -3.466276e+001  4.500000e+001 -5.790187e+000
    endloop
  endfacet
  facet normal  0.000000e+000  1.000000e+000  0.000000e+000
    outer loop
      vertex -3.517247e+001  4.500000e+001 -1.640961e+000
      vertex -3.466276e+001  4.500000e+001 -5.790187e+000
      vertex -3.533724e+001  4.500000e+001 -5.790187e+000
    endloop
  endfacet
  facet normal  0.000000e+000  1.000000e+000  -0.000000e+000
    outer loop
      vertex -3.517247e+001  4.500000e+001 -1.640961e+000
      vertex -3.533724e+001  4.500000e+001 -5.790187e+000
      vertex -3.600716e+001  4.500000e+001 -5.711885e+000
    endloop
  endfacet
  facet normal  0.000000e+000  1.000000e+000  -0.000000e+000
    outer loop
      vertex -3.517247e+001  4.500000e+001 -1.640961e+000
      vertex -3.600716e+001  4.500000e+001 -5.711885e+000
      vertex -3.666346e+001  4.500000e+001 -5.556339e+000
    endloop
  endfacet
  facet normal  0.000000e+000  1.000000e+000  -0.000000e+000
    outer loop
      vertex -3.517247e+001  4.500000e+001 -1.640961e+000
      vertex -3.666346e+001  4.500000e+001 -5.556339e+000
      vertex -3.729726e+001  4.500000e+001 -5.325654e+000
    endloop
  endfacet
  facet normal  0.000000e+000  1.000000e+000  -0.000000e+000
    outer loop
      vertex -3.517247e+001  4.500000e+001 -1.640961e+000
      vertex -3.729726e+001  4.500000e+001 -5.325654e+000
      vertex -3.790000e+001  4.500000e+001 -5.022947e+000
    endloop
  endfacet
  facet normal  0.000000e+000  1.000000e+000  -0.000000e+000
    outer loop
      vertex -3.517247e+001  4.500000e+001 -1.640961e+000
      vertex -3.790000e+001  4.500000e+001 -5.022947e+000
      vertex -3.846352e+001  4.500000e+001 -4.652315e+000
    endloop
  endfacet
  facet normal  0.000000e+000  1.000000e+000  -0.000000e+000
    outer loop
      vertex -3.517247e+001  4.500000e+001 -1.640961e+000
      vertex -3.846352e+001  4.500000e+001 -4.652315e+000
      vertex -3.898020e+001  4.500000e+001 -4.218767e+000
    endloop
  endfacet
  facet normal  0.000000e+000  1.000000e+000  -0.000000e+000
    outer loop
      vertex -3.517247e+001  4.500000e+001 -1.640961e+000
      vertex -3.898020e+001  4.500000e+001 -4.218767e+000
      vertex -3.944306e+001  4.500000e+001 -3.728168e+000
    endloop
  endfacet
  facet normal  0.000000e+000  9.999999e-001  -0.000000e+000
    outer loop
      vertex -3.517247e+001  4.500000e+001 -1.640961e+000
      vertex -3.944306e+001  4.500000e+001 -3.728168e+000
      vertex -3.984583e+001  4.500000e+001 -3.187152e+000
    endloop
  endfacet
  facet normal  0.000000e+000  9.999999e-001  -0.000000e+000
    outer loop
      vertex -3.517247e+001  4.500000e+001 -1.640961e+000
      vertex -3.984583e+001  4.500000e+001 -3.187152e+000
      vertex -4.018307e+001  4.500000e+001 -2.603035e+000
    endloop
  endfacet
  facet normal  0.000000e+000  9.999999e-001  -0.000000e+000
    outer loop
      vertex -3.517247e+001  4.500000e+001 -1.640961e+000
      vertex -4.018307e+001  4.500000e+001 -2.603035e+000
      vertex -4.045022e+001  4.500000e+001 -1.983717e+000
    endloop
  endfacet
  facet normal  0.000000e+000  1.000000e+000  0.000000e+000
    outer loop
      vertex -3.517247e+001  4.500000e+001 -1.640961e+000
      vertex -4.045022e+001  4.500000e+001 -1.983717e+000
      vertex -3.550988e+001  4.500000e+001 -1.569243e+000
    endloop
  endfacet
  facet normal  0.000000e+000  1.000000e+000  0.000000e+000
    outer loop
      vertex -2.954978e+001  4.500000e+001  1.983717e+000
      vertex -2.935634e+001  4.500000e+001  1.337572e+000
      vertex -3.449012e+001  4.500000e+001  1.569243e+000
    endloop
  endfacet
  facet normal  0.000000e+000  1.000000e+000  -0.000000e+000
    outer loop
      vertex -2.954978e+001  4.500000e+001  1.983717e+000
      vertex -3.449012e+001  4.500000e+001  1.569243e+000
      vertex -3.482753e+001  4.500000e+001  1.640961e+000
    endloop
  endfacet
  facet normal  0.000000e+000  9.999999e-001  0.000000e+000
    outer loop
      vertex -2.954978e+001  4.500000e+001  1.983717e+000
      vertex -3.482753e+001  4.500000e+001  1.640961e+000
      vertex -3.466276e+001  4.500000e+001  5.790187e+000
    endloop
  endfacet
  facet normal  0.000000e+000  1.000000e+000  0.000000e+000
    outer loop
      vertex -2.954978e+001  4.500000e+001  1.983717e+000
      vertex -3.466276e+001  4.500000e+001  5.790187e+000
      vertex -3.399284e+001  4.500000e+001  5.711885e+000
    endloop
  endfacet
  facet normal  0.000000e+000  9.999999e-001  0.000000e+000
    outer loop
      vertex -2.954978e+001  4.500000e+001  1.983717e+000
      vertex -3.399284e+001  4.500000e+001  5.711885e+000
      vertex -3.333654e+001  4.500000e+001  5.556339e+000
    endloop
  endfacet
  facet normal  0.000000e+000  1.000000e+000  0.000000e+000
    outer loop
      vertex -2.954978e+001  4.500000e+001  1.983717e+000
      vertex -3.333654e+001  4.500000e+001  5.556339e+000
      vertex -3.270274e+001  4.500000e+001  5.325654e+000
    endloop
  endfacet
  facet normal  0.000000e+000  1.000000e+000  0.000000e+000
    outer loop
      vertex -2.954978e+001  4.500000e+001  1.983717e+000
      vertex -3.270274e+001  4.500000e+001  5.325654e+000
      vertex -3.210000e+001  4.500000e+001  5.022947e+000
    endloop
  endfacet
  facet normal  0.000000e+000  1.000000e+000  0.000000e+000
    outer loop
      vertex -2.954978e+001  4.500000e+001  1.983717e+000
      vertex -3.210000e+001  4.500000e+001  5.022947e+000
      vertex -3.153648e+001  4.500000e+001  4.652315e+000
    endloop
  endfacet
  facet normal  0.000000e+000  1.000000e+000  0.000000e+000
    outer loop
      vertex -2.954978e+001  4.500000e+001  1.983717e+000
      vertex -3.153648e+001  4.500000e+001  4.652315e+000
      vertex -3.101980e+001  4.500000e+001  4.218767e+000
    endloop
  endfacet
  facet normal  0.000000e+000  9.999999e-001  0.000000e+000
    outer loop
      vertex -2.954978e+001  4.500000e+001  1.983717e+000
      vertex -3.101980e+001  4.500000e+001  4.218767e+000
      vertex -3.055694e+001  4.500000e+001  3.728168e+000
    endloop
  endfacet
  facet normal  0.000000e+000  1.000000e+000  0.000000e+000
    outer loop
      vertex -2.954978e+001  4.500000e+001  1.983717e+000
      vertex -3.055694e+001  4.500000e+001  3.728168e+000
      vertex -3.015417e+001  4.500000e+001  3.187152e+000
    endloop
  endfacet
  facet normal  0.000000e+000  1.000000e+000  0.000000e+000
    outer loop
      vertex -2.954978e+001  4.500000e+001  1.983717e+000
      vertex -3.015417e+001  4.500000e+001  3.187152e+000
      vertex -2.981693e+001  4.500000e+001  2.603035e+000
    endloop
  endfacet
  facet normal  0.000000e+000  1.000000e+000  -0.000000e+000
    outer loop
      vertex -3.517247e+001  4.500000e+001  1.640961e+000
      vertex -3.550988e+001  4.500000e+001  1.569243e+000
      vertex -4.064366e+001  4.500000e+001  1.337572e+000
    endloop
  endfacet
  facet normal  0.000000e+000  1.000000e+000  0.000000e+000
    outer loop
      vertex -3.517247e+001  4.500000e+001  1.640961e+000
      vertex -4.064366e+001  4.500000e+001  1.337572e+000
      vertex -4.045022e+001  4.500000e+001  1.983717e+000
    endloop
  endfacet
  facet normal  -0.000000e+000  9.999999e-001  0.000000e+000
    outer loop
      vertex -3.517247e+001  4.500000e+001  1.640961e+000
      vertex -4.045022e+001  4.500000e+001  1.983717e+000
      vertex -4.018307e+001  4.500000e+001  2.603035e+000
    endloop
  endfacet
  facet normal  -0.000000e+000  9.999999e-001  0.000000e+000
    outer loop
      vertex -3.517247e+001  4.500000e+001  1.640961e+000
      vertex -4.018307e+001  4.500000e+001  2.603035e+000
      vertex -3.984583e+001  4.500000e+001  3.187152e+000
    endloop
  endfacet
  facet normal  -0.000000e+000  9.999999e-001  0.000000e+000
    outer loop
      vertex -3.517247e+001  4.500000e+001  1.640961e+000
      vertex -3.984583e+001  4.500000e+001  3.187152e+000
      vertex -3.944306e+001  4.500000e+001  3.728168e+000
    endloop
  endfacet
  facet normal  -0.000000e+000  1.000000e+000  0.000000e+000
    outer loop
      vertex -3.517247e+001  4.500000e+001  1.640961e+000
      vertex -3.944306e+001  4.500000e+001  3.728168e+000
      vertex -3.898020e+001  4.500000e+001  4.218767e+000
    endloop
  endfacet
  facet normal  -0.000000e+000  1.000000e+000  0.000000e+000
    outer loop
      vertex -3.517247e+001  4.500000e+001  1.640961e+000
      vertex -3.898020e+001  4.500000e+001  4.218767e+000
      vertex -3.846352e+001  4.500000e+001  4.652315e+000
    endloop
  endfacet
  facet normal  -0.000000e+000  1.000000e+000  0.000000e+000
    outer loop
      vertex -3.517247e+001  4.500000e+001  1.640961e+000
      vertex -3.846352e+001  4.500000e+001  4.652315e+000
      vertex -3.790000e+001  4.500000e+001  5.022947e+000
    endloop
  endfacet
  facet normal  -0.000000e+000  1.000000e+000  0.000000e+000
    outer loop
      vertex -3.517247e+001  4.500000e+001  1.640961e+000
      vertex -3.790000e+001  4.500000e+001  5.022947e+000
      vertex -3.729726e+001  4.500000e+001  5.325654e+000
    endloop
  endfacet
  facet normal  -0.000000e+000  1.000000e+000  0.000000e+000
    outer loop
      vertex -3.517247e+001  4.500000e+001  1.640961e+000
      vertex -3.729726e+001  4.500000e+001  5.325654e+000
      vertex -3.666346e+001  4.500000e+001  5.556339e+000
    endloop
  endfacet
  facet normal  -0.000000e+000  1.000000e+000  0.000000e+000
    outer loop
      vertex -3.517247e+001  4.500000e+001  1.640961e+000
      vertex -3.666346e+001  4.500000e+001  5.556339e+000
      vertex -3.600716e+001  4.500000e+001  5.711885e+000
    endloop
  endfacet
  facet normal  -0.000000e+000  1.000000e+000  0.000000e+000
    outer loop
      vertex -3.517247e+001  4.500000e+001  1.640961e+000
      vertex -3.600716e+001  4.500000e+001  5.711885e+000
      vertex -3.533724e+001  4.500000e+001  5.790187e+000
    endloop
  endfacet
  facet normal  -0.000000e+000  1.000000e+000  0.000000e+000
    outer loop
      vertex -3.517247e+001  4.500000e+001  1.640961e+000
      vertex -3.533724e+001  4.500000e+001  5.790187e+000
      vertex -3.466276e+001  4.500000e+001  5.790187e+000
    endloop
  endfacet
  facet normal  0.000000e+000  1.000000e+000  0.000000e+000
    outer loop
      vertex -3.517247e+001  4.500000e+001  1.640961e+000
      vertex -3.466276e+001  4.500000e+001  5.790187e+000
      vertex -3.482753e+001  4.500000e+001  1.640961e+000
    endloop
  endfacet
  facet normal  -0.000000e+000  1.000000e+000  0.000000e+000
    outer loop
      vertex -2.923922e+001  4.500000e+001  6.733389e-001
      vertex -3.389594e+001  4.500000e+001  1.226189e+000
      vertex -2.935634e+001  4.500000e+001  1.337572e+000
    endloop
  endfacet
  facet normal  0.000000e+000  1.000000e+000  0.000000e+000
    outer loop
      vertex -2.935634e+001  4.500000e+001  1.337572e+000
      vertex -3.389594e+001  4.500000e+001  1.226189e+000
      vertex -3.417500e+001  4.500000e+001  1.428942e+000
    endloop
  endfacet
  facet normal  -0.000000e+000  1.000000e+000  -0.000000e+000
    outer loop
      vertex -2.935634e+001  4.500000e+001  1.337572e+000
      vertex -3.417500e+001  4.500000e+001  1.428942e+000
      vertex -3.449012e+001  4.500000e+001  1.569243e+000
    endloop
  endfacet
  facet normal  -0.000000e+000  9.999999e-001  0.000000e+000
    outer loop
      vertex -2.920000e+001  4.500000e+001 -1.865446e-015
      vertex -3.338605e+001  4.500000e+001  3.430543e-001
      vertex -2.923922e+001  4.500000e+001  6.733389e-001
    endloop
  endfacet
  facet normal  0.000000e+000  1.000000e+000  0.000000e+000
    outer loop
      vertex -2.923922e+001  4.500000e+001  6.733389e-001
      vertex -3.338605e+001  4.500000e+001  3.430543e-001
      vertex -3.349265e+001  4.500000e+001  6.711155e-001
    endloop
  endfacet
  facet normal  0.000000e+000  1.000000e+000  -0.000000e+000
    outer loop
      vertex -2.923922e+001  4.500000e+001  6.733389e-001
      vertex -3.349265e+001  4.500000e+001  6.711155e-001
      vertex -3.366512e+001  4.500000e+001  9.698457e-001
    endloop
  endfacet
  facet normal  -0.000000e+000  9.999999e-001  0.000000e+000
    outer loop
      vertex -2.923922e+001  4.500000e+001 -6.733389e-001
      vertex -3.338605e+001  4.500000e+001 -3.430543e-001
      vertex -2.920000e+001  4.500000e+001 -1.865446e-015
    endloop
  endfacet
  facet normal  0.000000e+000  1.000000e+000  0.000000e+000
    outer loop
      vertex -2.920000e+001  4.500000e+001 -1.865446e-015
      vertex -3.338605e+001  4.500000e+001 -3.430543e-001
      vertex -3.335000e+001  4.500000e+001  6.061801e-016
    endloop
  endfacet
  facet normal  -0.000000e+000  1.000000e+000  -0.000000e+000
    outer loop
      vertex -2.920000e+001  4.500000e+001 -1.865446e-015
      vertex -3.335000e+001  4.500000e+001  6.061801e-016
      vertex -3.338605e+001  4.500000e+001  3.430543e-001
    endloop
  endfacet
  facet normal  -0.000000e+000  1.000000e+000  0.000000e+000
    outer loop
      vertex -2.935634e+001  4.500000e+001 -1.337572e+000
      vertex -3.366512e+001  4.500000e+001 -9.698457e-001
      vertex -2.923922e+001  4.500000e+001 -6.733389e-001
    endloop
  endfacet
  facet normal  0.000000e+000  1.000000e+000  0.000000e+000
    outer loop
      vertex -2.923922e+001  4.500000e+001 -6.733389e-001
      vertex -3.366512e+001  4.500000e+001 -9.698457e-001
      vertex -3.349265e+001  4.500000e+001 -6.711155e-001
    endloop
  endfacet
  facet normal  -0.000000e+000  1.000000e+000  0.000000e+000
    outer loop
      vertex -2.923922e+001  4.500000e+001 -6.733389e-001
      vertex -3.349265e+001  4.500000e+001 -6.711155e-001
      vertex -3.338605e+001  4.500000e+001 -3.430543e-001
    endloop
  endfacet
  facet normal  0.000000e+000  9.999999e-001  0.000000e+000
    outer loop
      vertex -3.610406e+001  4.500000e+001  1.226189e+000
      vertex -4.076078e+001  4.500000e+001  6.733389e-001
      vertex -3.582500e+001  4.500000e+001  1.428942e+000
    endloop
  endfacet
  facet normal  0.000000e+000  1.000000e+000  0.000000e+000
    outer loop
      vertex -3.582500e+001  4.500000e+001  1.428942e+000
      vertex -4.076078e+001  4.500000e+001  6.733389e-001
      vertex -4.064366e+001  4.500000e+001  1.337572e+000
    endloop
  endfacet
  facet normal  0.000000e+000  1.000000e+000  0.000000e+000
    outer loop
      vertex -3.582500e+001  4.500000e+001  1.428942e+000
      vertex -4.064366e+001  4.500000e+001  1.337572e+000
      vertex -3.550988e+001  4.500000e+001  1.569243e+000
    endloop
  endfacet
  facet normal  0.000000e+000  1.000000e+000  0.000000e+000
    outer loop
      vertex -4.076078e+001  4.500000e+001  6.733389e-001
      vertex -3.650735e+001  4.500000e+001  6.711155e-001
      vertex -4.080000e+001  4.500000e+001  0.000000e+000
    endloop
  endfacet
  facet normal  0.000000e+000  1.000000e+000  0.000000e+000
    outer loop
      vertex -4.080000e+001  4.500000e+001  0.000000e+000
      vertex -3.650735e+001  4.500000e+001  6.711155e-001
      vertex -3.661395e+001  4.500000e+001  3.430543e-001
    endloop
  endfacet
  facet normal  0.000000e+000  1.000000e+000  0.000000e+000
    outer loop
      vertex -4.080000e+001  4.500000e+001  0.000000e+000
      vertex -3.661395e+001  4.500000e+001  3.430543e-001
      vertex -3.665000e+001  4.500000e+001 -1.869615e-015
    endloop
  endfacet
  facet normal  0.000000e+000  1.000000e+000  0.000000e+000
    outer loop
      vertex -4.080000e+001  4.500000e+001  0.000000e+000
      vertex -3.665000e+001  4.500000e+001 -1.869615e-015
      vertex -4.076078e+001  4.500000e+001 -6.733389e-001
    endloop
  endfacet
  facet normal  0.000000e+000  1.000000e+000  0.000000e+000
    outer loop
      vertex -4.076078e+001  4.500000e+001 -6.733389e-001
      vertex -3.665000e+001  4.500000e+001 -1.869615e-015
      vertex -3.661395e+001  4.500000e+001 -3.430543e-001
    endloop
  endfacet
  facet normal  0.000000e+000  1.000000e+000  0.000000e+000
    outer loop
      vertex -4.076078e+001  4.500000e+001 -6.733389e-001
      vertex -3.661395e+001  4.500000e+001 -3.430543e-001
      vertex -3.650735e+001  4.500000e+001 -6.711155e-001
    endloop
  endfacet
  facet normal  0.000000e+000  1.000000e+000  0.000000e+000
    outer loop
      vertex -4.076078e+001  4.500000e+001 -6.733389e-001
      vertex -3.650735e+001  4.500000e+001 -6.711155e-001
      vertex -4.064366e+001  4.500000e+001 -1.337572e+000
    endloop
  endfacet
  facet normal  0.000000e+000  1.000000e+000  0.000000e+000
    outer loop
      vertex -4.064366e+001  4.500000e+001 -1.337572e+000
      vertex -3.650735e+001  4.500000e+001 -6.711155e-001
      vertex -3.633488e+001  4.500000e+001 -9.698457e-001
    endloop
  endfacet
  facet normal  0.000000e+000  1.000000e+000  0.000000e+000
    outer loop
      vertex -4.064366e+001  4.500000e+001 -1.337572e+000
      vertex -3.633488e+001  4.500000e+001 -9.698457e-001
      vertex -3.610406e+001  4.500000e+001 -1.226189e+000
    endloop
  endfacet
  facet normal  0.000000e+000  1.000000e+000  0.000000e+000
    outer loop
      vertex -3.550988e+001  4.500000e+001 -1.569243e+000
      vertex -4.045022e+001  4.500000e+001 -1.983717e+000
      vertex -3.582500e+001  4.500000e+001 -1.428942e+000
    endloop
  endfacet
  facet normal  0.000000e+000  1.000000e+000  0.000000e+000
    outer loop
      vertex -3.582500e+001  4.500000e+001 -1.428942e+000
      vertex -4.045022e+001  4.500000e+001 -1.983717e+000
      vertex -4.064366e+001  4.500000e+001 -1.337572e+000
    endloop
  endfacet
  facet normal  -0.000000e+000  1.000000e+000  0.000000e+000
    outer loop
      vertex -3.582500e+001  4.500000e+001 -1.428942e+000
      vertex -4.064366e+001  4.500000e+001 -1.337572e+000
      vertex -3.610406e+001  4.500000e+001 -1.226189e+000
    endloop
  endfacet
  facet normal  0.000000e+000 -1.000000e+000  0.000000e+000
    outer loop
      vertex -3.366512e+001  4.400000e+001  9.698457e-001
      vertex -2.923922e+001  4.400000e+001  6.733389e-001
      vertex -3.389594e+001  4.400000e+001  1.226189e+000
    endloop
  endfacet
  facet normal  0.000000e+000 -1.000000e+000  0.000000e+000
    outer loop
      vertex -3.389594e+001  4.400000e+001 -1.226189e+000
      vertex -2.935634e+001  4.400000e+001 -1.337572e+000
      vertex -3.366512e+001  4.400000e+001 -9.698457e-001
    endloop
  endfacet
  facet normal  -0.000000e+000 -1.000000e+000  0.000000e+000
    outer loop
      vertex -3.417500e+001  4.400000e+001 -1.428942e+000
      vertex -2.935634e+001  4.400000e+001 -1.337572e+000
      vertex -3.389594e+001  4.400000e+001 -1.226189e+000
    endloop
  endfacet
  facet normal  0.000000e+000 -1.000000e+000  0.000000e+000
    outer loop
      vertex -3.633488e+001  4.400000e+001  9.698457e-001
      vertex -3.610406e+001  4.400000e+001  1.226189e+000
      vertex -4.076078e+001  4.400000e+001  6.733389e-001
    endloop
  endfacet
  facet normal  0.000000e+000 -1.000000e+000  0.000000e+000
    outer loop
      vertex -4.076078e+001  4.400000e+001  6.733389e-001
      vertex -3.650735e+001  4.400000e+001  6.711155e-001
      vertex -3.633488e+001  4.400000e+001  9.698457e-001
    endloop
  endfacet
  facet normal  0.000000e+000 -1.000000e+000  0.000000e+000
    outer loop
      vertex -2.954978e+001  4.400000e+001 -1.983717e+000
      vertex -2.935634e+001  4.400000e+001 -1.337572e+000
      vertex -3.417500e+001  4.400000e+001 -1.428942e+000
    endloop
  endfacet
  facet normal  0.000000e+000 -1.000000e+000  -0.000000e+000
    outer loop
      vertex -2.954978e+001  4.400000e+001 -1.983717e+000
      vertex -3.417500e+001  4.400000e+001 -1.428942e+000
      vertex -3.449012e+001  4.400000e+001 -1.569243e+000
    endloop
  endfacet
  facet normal  0.000000e+000 -1.000000e+000  -0.000000e+000
    outer loop
      vertex -2.954978e+001  4.400000e+001 -1.983717e+000
      vertex -3.449012e+001  4.400000e+001 -1.569243e+000
      vertex -3.482753e+001  4.400000e+001 -1.640961e+000
    endloop
  endfacet
  facet normal  0.000000e+000 -9.999999e-001  0.000000e+000
    outer loop
      vertex -2.954978e+001  4.400000e+001 -1.983717e+000
      vertex -3.482753e+001  4.400000e+001 -1.640961e+000
      vertex -3.466276e+001  4.400000e+001 -5.790187e+000
    endloop
  endfacet
  facet normal  0.000000e+000 -1.000000e+000  0.000000e+000
    outer loop
      vertex -2.954978e+001  4.400000e+001 -1.983717e+000
      vertex -3.466276e+001  4.400000e+001 -5.790187e+000
      vertex -3.399284e+001  4.400000e+001 -5.711885e+000
    endloop
  endfacet
  facet normal  0.000000e+000 -9.999999e-001  0.000000e+000
    outer loop
      vertex -2.954978e+001  4.400000e+001 -1.983717e+000
      vertex -3.399284e+001  4.400000e+001 -5.711885e+000
      vertex -3.333654e+001  4.400000e+001 -5.556339e+000
    endloop
  endfacet
  facet normal  0.000000e+000 -1.000000e+000  0.000000e+000
    outer loop
      vertex -2.954978e+001  4.400000e+001 -1.983717e+000
      vertex -3.333654e+001  4.400000e+001 -5.556339e+000
      vertex -3.270274e+001  4.400000e+001 -5.325654e+000
    endloop
  endfacet
  facet normal  0.000000e+000 -1.000000e+000  0.000000e+000
    outer loop
      vertex -2.954978e+001  4.400000e+001 -1.983717e+000
      vertex -3.270274e+001  4.400000e+001 -5.325654e+000
      vertex -3.210000e+001  4.400000e+001 -5.022947e+000
    endloop
  endfacet
  facet normal  0.000000e+000 -1.000000e+000  0.000000e+000
    outer loop
      vertex -2.954978e+001  4.400000e+001 -1.983717e+000
      vertex -3.210000e+001  4.400000e+001 -5.022947e+000
      vertex -3.153648e+001  4.400000e+001 -4.652315e+000
    endloop
  endfacet
  facet normal  0.000000e+000 -1.000000e+000  0.000000e+000
    outer loop
      vertex -2.954978e+001  4.400000e+001 -1.983717e+000
      vertex -3.153648e+001  4.400000e+001 -4.652315e+000
      vertex -3.101980e+001  4.400000e+001 -4.218767e+000
    endloop
  endfacet
  facet normal  0.000000e+000 -9.999999e-001  0.000000e+000
    outer loop
      vertex -2.954978e+001  4.400000e+001 -1.983717e+000
      vertex -3.101980e+001  4.400000e+001 -4.218767e+000
      vertex -3.055694e+001  4.400000e+001 -3.728168e+000
    endloop
  endfacet
  facet normal  0.000000e+000 -1.000000e+000  0.000000e+000
    outer loop
      vertex -2.954978e+001  4.400000e+001 -1.983717e+000
      vertex -3.055694e+001  4.400000e+001 -3.728168e+000
      vertex -3.015417e+001  4.400000e+001 -3.187152e+000
    endloop
  endfacet
  facet normal  0.000000e+000 -1.000000e+000  0.000000e+000
    outer loop
      vertex -2.954978e+001  4.400000e+001 -1.983717e+000
      vertex -3.015417e+001  4.400000e+001 -3.187152e+000
      vertex -2.981693e+001  4.400000e+001 -2.603035e+000
    endloop
  endfacet
  facet normal  0.000000e+000 -1.000000e+000  -0.000000e+000
    outer loop
      vertex -3.517247e+001  4.400000e+001 -1.640961e+000
      vertex -3.550988e+001  4.400000e+001 -1.569243e+000
      vertex -4.045022e+001  4.400000e+001 -1.983717e+000
    endloop
  endfacet
  facet normal  0.000000e+000 -9.999999e-001  0.000000e+000
    outer loop
      vertex -3.517247e+001  4.400000e+001 -1.640961e+000
      vertex -4.045022e+001  4.400000e+001 -1.983717e+000
      vertex -4.018307e+001  4.400000e+001 -2.603035e+000
    endloop
  endfacet
  facet normal  0.000000e+000 -9.999999e-001  0.000000e+000
    outer loop
      vertex -3.517247e+001  4.400000e+001 -1.640961e+000
      vertex -4.018307e+001  4.400000e+001 -2.603035e+000
      vertex -3.984583e+001  4.400000e+001 -3.187152e+000
    endloop
  endfacet
  facet normal  0.000000e+000 -9.999999e-001  0.000000e+000
    outer loop
      vertex -3.517247e+001  4.400000e+001 -1.640961e+000
      vertex -3.984583e+001  4.400000e+001 -3.187152e+000
      vertex -3.944306e+001  4.400000e+001 -3.728168e+000
    endloop
  endfacet
  facet normal  0.000000e+000 -1.000000e+000  0.000000e+000
    outer loop
      vertex -3.517247e+001  4.400000e+001 -1.640961e+000
      vertex -3.944306e+001  4.400000e+001 -3.728168e+000
      vertex -3.898020e+001  4.400000e+001 -4.218767e+000
    endloop
  endfacet
  facet normal  0.000000e+000 -1.000000e+000  0.000000e+000
    outer loop
      vertex -3.517247e+001  4.400000e+001 -1.640961e+000
      vertex -3.898020e+001  4.400000e+001 -4.218767e+000
      vertex -3.846352e+001  4.400000e+001 -4.652315e+000
    endloop
  endfacet
  facet normal  0.000000e+000 -1.000000e+000  0.000000e+000
    outer loop
      vertex -3.517247e+001  4.400000e+001 -1.640961e+000
      vertex -3.846352e+001  4.400000e+001 -4.652315e+000
      vertex -3.790000e+001  4.400000e+001 -5.022947e+000
    endloop
  endfacet
  facet normal  0.000000e+000 -1.000000e+000  0.000000e+000
    outer loop
      vertex -3.517247e+001  4.400000e+001 -1.640961e+000
      vertex -3.790000e+001  4.400000e+001 -5.022947e+000
      vertex -3.729726e+001  4.400000e+001 -5.325654e+000
    endloop
  endfacet
  facet normal  0.000000e+000 -1.000000e+000  0.000000e+000
    outer loop
      vertex -3.517247e+001  4.400000e+001 -1.640961e+000
      vertex -3.729726e+001  4.400000e+001 -5.325654e+000
      vertex -3.666346e+001  4.400000e+001 -5.556339e+000
    endloop
  endfacet
  facet normal  0.000000e+000 -1.000000e+000  0.000000e+000
    outer loop
      vertex -3.517247e+001  4.400000e+001 -1.640961e+000
      vertex -3.666346e+001  4.400000e+001 -5.556339e+000
      vertex -3.600716e+001  4.400000e+001 -5.711885e+000
    endloop
  endfacet
  facet normal  0.000000e+000 -1.000000e+000  0.000000e+000
    outer loop
      vertex -3.517247e+001  4.400000e+001 -1.640961e+000
      vertex -3.600716e+001  4.400000e+001 -5.711885e+000
      vertex -3.533724e+001  4.400000e+001 -5.790187e+000
    endloop
  endfacet
  facet normal  0.000000e+000 -1.000000e+000  0.000000e+000
    outer loop
      vertex -3.517247e+001  4.400000e+001 -1.640961e+000
      vertex -3.533724e+001  4.400000e+001 -5.790187e+000
      vertex -3.466276e+001  4.400000e+001 -5.790187e+000
    endloop
  endfacet
  facet normal  0.000000e+000 -1.000000e+000  0.000000e+000
    outer loop
      vertex -3.517247e+001  4.400000e+001 -1.640961e+000
      vertex -3.466276e+001  4.400000e+001 -5.790187e+000
      vertex -3.482753e+001  4.400000e+001 -1.640961e+000
    endloop
  endfacet
  facet normal  -0.000000e+000 -1.000000e+000  -0.000000e+000
    outer loop
      vertex -2.954978e+001  4.400000e+001  1.983717e+000
      vertex -2.981693e+001  4.400000e+001  2.603035e+000
      vertex -3.015417e+001  4.400000e+001  3.187152e+000
    endloop
  endfacet
  facet normal  -0.000000e+000 -1.000000e+000  -0.000000e+000
    outer loop
      vertex -2.954978e+001  4.400000e+001  1.983717e+000
      vertex -3.015417e+001  4.400000e+001  3.187152e+000
      vertex -3.055694e+001  4.400000e+001  3.728168e+000
    endloop
  endfacet
  facet normal  -0.000000e+000 -1.000000e+000  -0.000000e+000
    outer loop
      vertex -2.954978e+001  4.400000e+001  1.983717e+000
      vertex -3.055694e+001  4.400000e+001  3.728168e+000
      vertex -3.101980e+001  4.400000e+001  4.218767e+000
    endloop
  endfacet
  facet normal  -0.000000e+000 -1.000000e+000  -0.000000e+000
    outer loop
      vertex -2.954978e+001  4.400000e+001  1.983717e+000
      vertex -3.101980e+001  4.400000e+001  4.218767e+000
      vertex -3.153648e+001  4.400000e+001  4.652315e+000
    endloop
  endfacet
  facet normal  -0.000000e+000 -1.000000e+000  -0.000000e+000
    outer loop
      vertex -2.954978e+001  4.400000e+001  1.983717e+000
      vertex -3.153648e+001  4.400000e+001  4.652315e+000
      vertex -3.210000e+001  4.400000e+001  5.022947e+000
    endloop
  endfacet
  facet normal  -0.000000e+000 -1.000000e+000  -0.000000e+000
    outer loop
      vertex -2.954978e+001  4.400000e+001  1.983717e+000
      vertex -3.210000e+001  4.400000e+001  5.022947e+000
      vertex -3.270274e+001  4.400000e+001  5.325654e+000
    endloop
  endfacet
  facet normal  -0.000000e+000 -1.000000e+000  -0.000000e+000
    outer loop
      vertex -2.954978e+001  4.400000e+001  1.983717e+000
      vertex -3.270274e+001  4.400000e+001  5.325654e+000
      vertex -3.333654e+001  4.400000e+001  5.556339e+000
    endloop
  endfacet
  facet normal  -0.000000e+000 -9.999999e-001  -0.000000e+000
    outer loop
      vertex -2.954978e+001  4.400000e+001  1.983717e+000
      vertex -3.333654e+001  4.400000e+001  5.556339e+000
      vertex -3.399284e+001  4.400000e+001  5.711885e+000
    endloop
  endfacet
  facet normal  -0.000000e+000 -1.000000e+000  -0.000000e+000
    outer loop
      vertex -2.954978e+001  4.400000e+001  1.983717e+000
      vertex -3.399284e+001  4.400000e+001  5.711885e+000
      vertex -3.466276e+001  4.400000e+001  5.790187e+000
    endloop
  endfacet
  facet normal  0.000000e+000 -9.999999e-001  -0.000000e+000
    outer loop
      vertex -2.954978e+001  4.400000e+001  1.983717e+000
      vertex -3.466276e+001  4.400000e+001  5.790187e+000
      vertex -3.482753e+001  4.400000e+001  1.640961e+000
    endloop
  endfacet
  facet normal  0.000000e+000 -1.000000e+000  0.000000e+000
    outer loop
      vertex -2.954978e+001  4.400000e+001  1.983717e+000
      vertex -3.482753e+001  4.400000e+001  1.640961e+000
      vertex -3.449012e+001  4.400000e+001  1.569243e+000
    endloop
  endfacet
  facet normal  0.000000e+000 -1.000000e+000  0.000000e+000
    outer loop
      vertex -2.954978e+001  4.400000e+001  1.983717e+000
      vertex -3.449012e+001  4.400000e+001  1.569243e+000
      vertex -2.935634e+001  4.400000e+001  1.337572e+000
    endloop
  endfacet
  facet normal  0.000000e+000 -1.000000e+000  0.000000e+000
    outer loop
      vertex -3.517247e+001  4.400000e+001  1.640961e+000
      vertex -3.482753e+001  4.400000e+001  1.640961e+000
      vertex -3.466276e+001  4.400000e+001  5.790187e+000
    endloop
  endfacet
  facet normal  -0.000000e+000 -1.000000e+000  0.000000e+000
    outer loop
      vertex -3.517247e+001  4.400000e+001  1.640961e+000
      vertex -3.466276e+001  4.400000e+001  5.790187e+000
      vertex -3.533724e+001  4.400000e+001  5.790187e+000
    endloop
  endfacet
  facet normal  0.000000e+000 -1.000000e+000  -0.000000e+000
    outer loop
      vertex -3.517247e+001  4.400000e+001  1.640961e+000
      vertex -3.533724e+001  4.400000e+001  5.790187e+000
      vertex -3.600716e+001  4.400000e+001  5.711885e+000
    endloop
  endfacet
  facet normal  0.000000e+000 -1.000000e+000  -0.000000e+000
    outer loop
      vertex -3.517247e+001  4.400000e+001  1.640961e+000
      vertex -3.600716e+001  4.400000e+001  5.711885e+000
      vertex -3.666346e+001  4.400000e+001  5.556339e+000
    endloop
  endfacet
  facet normal  0.000000e+000 -1.000000e+000  -0.000000e+000
    outer loop
      vertex -3.517247e+001  4.400000e+001  1.640961e+000
      vertex -3.666346e+001  4.400000e+001  5.556339e+000
      vertex -3.729726e+001  4.400000e+001  5.325654e+000
    endloop
  endfacet
  facet normal  0.000000e+000 -1.000000e+000  -0.000000e+000
    outer loop
      vertex -3.517247e+001  4.400000e+001  1.640961e+000
      vertex -3.729726e+001  4.400000e+001  5.325654e+000
      vertex -3.790000e+001  4.400000e+001  5.022947e+000
    endloop
  endfacet
  facet normal  0.000000e+000 -1.000000e+000  -0.000000e+000
    outer loop
      vertex -3.517247e+001  4.400000e+001  1.640961e+000
      vertex -3.790000e+001  4.400000e+001  5.022947e+000
      vertex -3.846352e+001  4.400000e+001  4.652315e+000
    endloop
  endfacet
  facet normal  0.000000e+000 -1.000000e+000  -0.000000e+000
    outer loop
      vertex -3.517247e+001  4.400000e+001  1.640961e+000
      vertex -3.846352e+001  4.400000e+001  4.652315e+000
      vertex -3.898020e+001  4.400000e+001  4.218767e+000
    endloop
  endfacet
  facet normal  0.000000e+000 -1.000000e+000  -0.000000e+000
    outer loop
      vertex -3.517247e+001  4.400000e+001  1.640961e+000
      vertex -3.898020e+001  4.400000e+001  4.218767e+000
      vertex -3.944306e+001  4.400000e+001  3.728168e+000
    endloop
  endfacet
  facet normal  0.000000e+000 -9.999999e-001  -0.000000e+000
    outer loop
      vertex -3.517247e+001  4.400000e+001  1.640961e+000
      vertex -3.944306e+001  4.400000e+001  3.728168e+000
      vertex -3.984583e+001  4.400000e+001  3.187152e+000
    endloop
  endfacet
  facet normal  0.000000e+000 -9.999999e-001  -0.000000e+000
    outer loop
      vertex -3.517247e+001  4.400000e+001  1.640961e+000
      vertex -3.984583e+001  4.400000e+001  3.187152e+000
      vertex -4.018307e+001  4.400000e+001  2.603035e+000
    endloop
  endfacet
  facet normal  0.000000e+000 -9.999999e-001  -0.000000e+000
    outer loop
      vertex -3.517247e+001  4.400000e+001  1.640961e+000
      vertex -4.018307e+001  4.400000e+001  2.603035e+000
      vertex -4.045022e+001  4.400000e+001  1.983717e+000
    endloop
  endfacet
  facet normal  0.000000e+000 -1.000000e+000  -0.000000e+000
    outer loop
      vertex -3.517247e+001  4.400000e+001  1.640961e+000
      vertex -4.045022e+001  4.400000e+001  1.983717e+000
      vertex -4.064366e+001  4.400000e+001  1.337572e+000
    endloop
  endfacet
  facet normal  0.000000e+000 -1.000000e+000  0.000000e+000
    outer loop
      vertex -3.517247e+001  4.400000e+001  1.640961e+000
      vertex -4.064366e+001  4.400000e+001  1.337572e+000
      vertex -3.550988e+001  4.400000e+001  1.569243e+000
    endloop
  endfacet
  facet normal  0.000000e+000 -1.000000e+000  0.000000e+000
    outer loop
      vertex -3.449012e+001  4.400000e+001  1.569243e+000
      vertex -3.417500e+001  4.400000e+001  1.428942e+000
      vertex -2.935634e+001  4.400000e+001  1.337572e+000
    endloop
  endfacet
  facet normal  -0.000000e+000 -1.000000e+000  0.000000e+000
    outer loop
      vertex -2.935634e+001  4.400000e+001  1.337572e+000
      vertex -3.417500e+001  4.400000e+001  1.428942e+000
      vertex -3.389594e+001  4.400000e+001  1.226189e+000
    endloop
  endfacet
  facet normal  0.000000e+000 -1.000000e+000  0.000000e+000
    outer loop
      vertex -2.935634e+001  4.400000e+001  1.337572e+000
      vertex -3.389594e+001  4.400000e+001  1.226189e+000
      vertex -2.923922e+001  4.400000e+001  6.733389e-001
    endloop
  endfacet
  facet normal  0.000000e+000 -1.000000e+000  0.000000e+000
    outer loop
      vertex -3.366512e+001  4.400000e+001  9.698457e-001
      vertex -3.349265e+001  4.400000e+001  6.711155e-001
      vertex -2.923922e+001  4.400000e+001  6.733389e-001
    endloop
  endfacet
  facet normal  0.000000e+000 -1.000000e+000  0.000000e+000
    outer loop
      vertex -2.923922e+001  4.400000e+001  6.733389e-001
      vertex -3.349265e+001  4.400000e+001  6.711155e-001
      vertex -3.338605e+001  4.400000e+001  3.430543e-001
    endloop
  endfacet
  facet normal  0.000000e+000 -9.999999e-001  0.000000e+000
    outer loop
      vertex -2.923922e+001  4.400000e+001  6.733389e-001
      vertex -3.338605e+001  4.400000e+001  3.430543e-001
      vertex -2.920000e+001  4.400000e+001 -1.865446e-015
    endloop
  endfacet
  facet normal  0.000000e+000 -1.000000e+000  0.000000e+000
    outer loop
      vertex -3.338605e+001  4.400000e+001  3.430543e-001
      vertex -3.335000e+001  4.400000e+001  6.061801e-016
      vertex -2.920000e+001  4.400000e+001 -1.865446e-015
    endloop
  endfacet
  facet normal  -0.000000e+000 -1.000000e+000  0.000000e+000
    outer loop
      vertex -2.920000e+001  4.400000e+001 -1.865446e-015
      vertex -3.335000e+001  4.400000e+001  6.061801e-016
      vertex -3.338605e+001  4.400000e+001 -3.430543e-001
    endloop
  endfacet
  facet normal  0.000000e+000 -9.999999e-001  0.000000e+000
    outer loop
      vertex -2.920000e+001  4.400000e+001 -1.865446e-015
      vertex -3.338605e+001  4.400000e+001 -3.430543e-001
      vertex -2.923922e+001  4.400000e+001 -6.733389e-001
    endloop
  endfacet
  facet normal  0.000000e+000 -1.000000e+000  0.000000e+000
    outer loop
      vertex -3.338605e+001  4.400000e+001 -3.430543e-001
      vertex -3.349265e+001  4.400000e+001 -6.711155e-001
      vertex -2.923922e+001  4.400000e+001 -6.733389e-001
    endloop
  endfacet
  facet normal  -0.000000e+000 -1.000000e+000  0.000000e+000
    outer loop
      vertex -2.923922e+001  4.400000e+001 -6.733389e-001
      vertex -3.349265e+001  4.400000e+001 -6.711155e-001
      vertex -3.366512e+001  4.400000e+001 -9.698457e-001
    endloop
  endfacet
  facet normal  0.000000e+000 -1.000000e+000  0.000000e+000
    outer loop
      vertex -2.923922e+001  4.400000e+001 -6.733389e-001
      vertex -3.366512e+001  4.400000e+001 -9.698457e-001
      vertex -2.935634e+001  4.400000e+001 -1.337572e+000
    endloop
  endfacet
  facet normal  0.000000e+000 -1.000000e+000  0.000000e+000
    outer loop
      vertex -3.550988e+001  4.400000e+001  1.569243e+000
      vertex -4.064366e+001  4.400000e+001  1.337572e+000
      vertex -3.582500e+001  4.400000e+001  1.428942e+000
    endloop
  endfacet
  facet normal  0.000000e+000 -1.000000e+000  0.000000e+000
    outer loop
      vertex -3.582500e+001  4.400000e+001  1.428942e+000
      vertex -4.064366e+001  4.400000e+001  1.337572e+000
      vertex -4.076078e+001  4.400000e+001  6.733389e-001
    endloop
  endfacet
  facet normal  0.000000e+000 -9.999999e-001  0.000000e+000
    outer loop
      vertex -3.582500e+001  4.400000e+001  1.428942e+000
      vertex -4.076078e+001  4.400000e+001  6.733389e-001
      vertex -3.610406e+001  4.400000e+001  1.226189e+000
    endloop
  endfacet
  facet normal  0.000000e+000 -1.000000e+000  0.000000e+000
    outer loop
      vertex -3.665000e+001  4.400000e+001 -1.869615e-015
      vertex -3.661395e+001  4.400000e+001  3.430543e-001
      vertex -4.080000e+001  4.400000e+001  0.000000e+000
    endloop
  endfacet
  facet normal  0.000000e+000 -1.000000e+000  0.000000e+000
    outer loop
      vertex -4.080000e+001  4.400000e+001  0.000000e+000
      vertex -3.661395e+001  4.400000e+001  3.430543e-001
      vertex -3.650735e+001  4.400000e+001  6.711155e-001
    endloop
  endfacet
  facet normal  -0.000000e+000 -1.000000e+000  0.000000e+000
    outer loop
      vertex -4.080000e+001  4.400000e+001  0.000000e+000
      vertex -3.650735e+001  4.400000e+001  6.711155e-001
      vertex -4.076078e+001  4.400000e+001  6.733389e-001
    endloop
  endfacet
  facet normal  0.000000e+000 -1.000000e+000  -0.000000e+000
    outer loop
      vertex -3.650735e+001  4.400000e+001 -6.711155e-001
      vertex -3.661395e+001  4.400000e+001 -3.430543e-001
      vertex -4.076078e+001  4.400000e+001 -6.733389e-001
    endloop
  endfacet
  facet normal  0.000000e+000 -1.000000e+000  0.000000e+000
    outer loop
      vertex -4.076078e+001  4.400000e+001 -6.733389e-001
      vertex -3.661395e+001  4.400000e+001 -3.430543e-001
      vertex -3.665000e+001  4.400000e+001 -1.869615e-015
    endloop
  endfacet
  facet normal  -0.000000e+000 -1.000000e+000  0.000000e+000
    outer loop
      vertex -4.076078e+001  4.400000e+001 -6.733389e-001
      vertex -3.665000e+001  4.400000e+001 -1.869615e-015
      vertex -4.080000e+001  4.400000e+001  0.000000e+000
    endloop
  endfacet
  facet normal  0.000000e+000 -1.000000e+000  -0.000000e+000
    outer loop
      vertex -3.610406e+001  4.400000e+001 -1.226189e+000
      vertex -3.633488e+001  4.400000e+001 -9.698457e-001
      vertex -4.064366e+001  4.400000e+001 -1.337572e+000
    endloop
  endfacet
  facet normal  0.000000e+000 -1.000000e+000  0.000000e+000
    outer loop
      vertex -4.064366e+001  4.400000e+001 -1.337572e+000
      vertex -3.633488e+001  4.400000e+001 -9.698457e-001
      vertex -3.650735e+001  4.400000e+001 -6.711155e-001
    endloop
  endfacet
  facet normal  0.000000e+000 -1.000000e+000  0.000000e+000
    outer loop
      vertex -4.064366e+001  4.400000e+001 -1.337572e+000
      vertex -3.650735e+001  4.400000e+001 -6.711155e-001
      vertex -4.076078e+001  4.400000e+001 -6.733389e-001
    endloop
  endfacet
  facet normal  0.000000e+000 -1.000000e+000  0.000000e+000
    outer loop
      vertex -3.610406e+001  4.400000e+001 -1.226189e+000
      vertex -4.064366e+001  4.400000e+001 -1.337572e+000
      vertex -3.582500e+001  4.400000e+001 -1.428942e+000
    endloop
  endfacet
  facet normal  -0.000000e+000 -1.000000e+000  0.000000e+000
    outer loop
      vertex -3.582500e+001  4.400000e+001 -1.428942e+000
      vertex -4.064366e+001  4.400000e+001 -1.337572e+000
      vertex -4.045022e+001  4.400000e+001 -1.983717e+000
    endloop
  endfacet
  facet normal  0.000000e+000 -1.000000e+000  0.000000e+000
    outer loop
      vertex -3.582500e+001  4.400000e+001 -1.428942e+000
      vertex -4.045022e+001  4.400000e+001 -1.983717e+000
      vertex -3.550988e+001  4.400000e+001 -1.569243e+000
    endloop
  endfacet
  facet normal -2.079119e-001  -0.000000e+000 -9.781476e-001
    outer loop
      vertex -3.482753e+001  4.400000e+001  1.640961e+000
      vertex -3.449012e+001  4.500000e+001  1.569243e+000
      vertex -3.449012e+001  4.400000e+001  1.569243e+000
    endloop
  endfacet
  facet normal -4.067336e-001  0.000000e+000 -9.135467e-001
    outer loop
      vertex -3.449012e+001  4.400000e+001  1.569243e+000
      vertex -3.449012e+001  4.500000e+001  1.569243e+000
      vertex -3.417500e+001  4.500000e+001  1.428942e+000
    endloop
  endfacet
  facet normal -4.067336e-001  -0.000000e+000 -9.135467e-001
    outer loop
      vertex -3.449012e+001  4.400000e+001  1.569243e+000
      vertex -3.417500e+001  4.500000e+001  1.428942e+000
      vertex -3.417500e+001  4.400000e+001  1.428942e+000
    endloop
  endfacet
  facet normal -5.877871e-001  0.000000e+000 -8.090158e-001
    outer loop
      vertex -3.417500e+001  4.400000e+001  1.428942e+000
      vertex -3.417500e+001  4.500000e+001  1.428942e+000
      vertex -3.389594e+001  4.500000e+001  1.226189e+000
    endloop
  endfacet
  facet normal -5.877871e-001  -0.000000e+000 -8.090158e-001
    outer loop
      vertex -3.417500e+001  4.400000e+001  1.428942e+000
      vertex -3.389594e+001  4.500000e+001  1.226189e+000
      vertex -3.389594e+001  4.400000e+001  1.226189e+000
    endloop
  endfacet
  facet normal -7.431456e-001  0.000000e+000 -6.691297e-001
    outer loop
      vertex -3.389594e+001  4.400000e+001  1.226189e+000
      vertex -3.389594e+001  4.500000e+001  1.226189e+000
      vertex -3.366512e+001  4.500000e+001  9.698457e-001
    endloop
  endfacet
  facet normal -7.431456e-001  -0.000000e+000 -6.691297e-001
    outer loop
      vertex -3.389594e+001  4.400000e+001  1.226189e+000
      vertex -3.366512e+001  4.500000e+001  9.698457e-001
      vertex -3.366512e+001  4.400000e+001  9.698457e-001
    endloop
  endfacet
  facet normal -8.660229e-001  0.000000e+000 -5.000042e-001
    outer loop
      vertex -3.366512e+001  4.400000e+001  9.698457e-001
      vertex -3.366512e+001  4.500000e+001  9.698457e-001
      vertex -3.349265e+001  4.500000e+001  6.711155e-001
    endloop
  endfacet
  facet normal -8.660229e-001  -0.000000e+000 -5.000042e-001
    outer loop
      vertex -3.366512e+001  4.400000e+001  9.698457e-001
      vertex -3.349265e+001  4.500000e+001  6.711155e-001
      vertex -3.349265e+001  4.400000e+001  6.711155e-001
    endloop
  endfacet
  facet normal -9.510560e-001  0.000000e+000 -3.090184e-001
    outer loop
      vertex -3.349265e+001  4.400000e+001  6.711155e-001
      vertex -3.349265e+001  4.500000e+001  6.711155e-001
      vertex -3.338605e+001  4.500000e+001  3.430543e-001
    endloop
  endfacet
  facet normal -9.510560e-001  -0.000000e+000 -3.090184e-001
    outer loop
      vertex -3.349265e+001  4.400000e+001  6.711155e-001
      vertex -3.338605e+001  4.500000e+001  3.430543e-001
      vertex -3.338605e+001  4.400000e+001  3.430543e-001
    endloop
  endfacet
  facet normal -9.945219e-001  0.000000e+000 -1.045286e-001
    outer loop
      vertex -3.338605e+001  4.400000e+001  3.430543e-001
      vertex -3.338605e+001  4.500000e+001  3.430543e-001
      vertex -3.335000e+001  4.500000e+001  6.061801e-016
    endloop
  endfacet
  facet normal -9.945219e-001  -0.000000e+000 -1.045286e-001
    outer loop
      vertex -3.338605e+001  4.400000e+001  3.430543e-001
      vertex -3.335000e+001  4.500000e+001  6.061801e-016
      vertex -3.335000e+001  4.400000e+001  6.061801e-016
    endloop
  endfacet
  facet normal -2.079119e-001  0.000000e+000 -9.781476e-001
    outer loop
      vertex -3.449012e+001  4.500000e+001  1.569243e+000
      vertex -3.482753e+001  4.400000e+001  1.640961e+000
      vertex -3.482753e+001  4.500000e+001  1.640961e+000
    endloop
  endfacet
  facet normal  0.000000e+000  -0.000000e+000 -1.000000e+000
    outer loop
      vertex -3.482753e+001  4.500000e+001  1.640961e+000
      vertex -3.482753e+001  4.400000e+001  1.640961e+000
      vertex -3.517247e+001  4.400000e+001  1.640961e+000
    endloop
  endfacet
  facet normal  0.000000e+000  0.000000e+000 -1.000000e+000
    outer loop
      vertex -3.482753e+001  4.500000e+001  1.640961e+000
      vertex -3.517247e+001  4.400000e+001  1.640961e+000
      vertex -3.517247e+001  4.500000e+001  1.640961e+000
    endloop
  endfacet
  facet normal  2.079119e-001  0.000000e+000 -9.781476e-001
    outer loop
      vertex -3.517247e+001  4.500000e+001  1.640961e+000
      vertex -3.517247e+001  4.400000e+001  1.640961e+000
      vertex -3.550988e+001  4.400000e+001  1.569243e+000
    endloop
  endfacet
  facet normal  2.079119e-001  0.000000e+000 -9.781476e-001
    outer loop
      vertex -3.517247e+001  4.500000e+001  1.640961e+000
      vertex -3.550988e+001  4.400000e+001  1.569243e+000
      vertex -3.550988e+001  4.500000e+001  1.569243e+000
    endloop
  endfacet
  facet normal  4.067336e-001  0.000000e+000 -9.135467e-001
    outer loop
      vertex -3.550988e+001  4.500000e+001  1.569243e+000
      vertex -3.550988e+001  4.400000e+001  1.569243e+000
      vertex -3.582500e+001  4.400000e+001  1.428942e+000
    endloop
  endfacet
  facet normal  4.067336e-001  0.000000e+000 -9.135467e-001
    outer loop
      vertex -3.550988e+001  4.500000e+001  1.569243e+000
      vertex -3.582500e+001  4.400000e+001  1.428942e+000
      vertex -3.582500e+001  4.500000e+001  1.428942e+000
    endloop
  endfacet
  facet normal  5.877871e-001  0.000000e+000 -8.090158e-001
    outer loop
      vertex -3.582500e+001  4.500000e+001  1.428942e+000
      vertex -3.582500e+001  4.400000e+001  1.428942e+000
      vertex -3.610406e+001  4.400000e+001  1.226189e+000
    endloop
  endfacet
  facet normal  5.877871e-001  0.000000e+000 -8.090158e-001
    outer loop
      vertex -3.582500e+001  4.500000e+001  1.428942e+000
      vertex -3.610406e+001  4.400000e+001  1.226189e+000
      vertex -3.610406e+001  4.500000e+001  1.226189e+000
    endloop
  endfacet
  facet normal  7.431456e-001  0.000000e+000 -6.691297e-001
    outer loop
      vertex -3.610406e+001  4.500000e+001  1.226189e+000
      vertex -3.610406e+001  4.400000e+001  1.226189e+000
      vertex -3.633488e+001  4.400000e+001  9.698457e-001
    endloop
  endfacet
  facet normal  7.431456e-001  0.000000e+000 -6.691297e-001
    outer loop
      vertex -3.610406e+001  4.500000e+001  1.226189e+000
      vertex -3.633488e+001  4.400000e+001  9.698457e-001
      vertex -3.633488e+001  4.500000e+001  9.698457e-001
    endloop
  endfacet
  facet normal  8.660229e-001  0.000000e+000 -5.000042e-001
    outer loop
      vertex -3.633488e+001  4.500000e+001  9.698457e-001
      vertex -3.633488e+001  4.400000e+001  9.698457e-001
      vertex -3.650735e+001  4.400000e+001  6.711155e-001
    endloop
  endfacet
  facet normal  8.660229e-001  0.000000e+000 -5.000042e-001
    outer loop
      vertex -3.633488e+001  4.500000e+001  9.698457e-001
      vertex -3.650735e+001  4.400000e+001  6.711155e-001
      vertex -3.650735e+001  4.500000e+001  6.711155e-001
    endloop
  endfacet
  facet normal  9.510560e-001  0.000000e+000 -3.090184e-001
    outer loop
      vertex -3.650735e+001  4.500000e+001  6.711155e-001
      vertex -3.650735e+001  4.400000e+001  6.711155e-001
      vertex -3.661395e+001  4.400000e+001  3.430543e-001
    endloop
  endfacet
  facet normal  9.510560e-001  0.000000e+000 -3.090184e-001
    outer loop
      vertex -3.650735e+001  4.500000e+001  6.711155e-001
      vertex -3.661395e+001  4.400000e+001  3.430543e-001
      vertex -3.661395e+001  4.500000e+001  3.430543e-001
    endloop
  endfacet
  facet normal  9.945219e-001  0.000000e+000 -1.045286e-001
    outer loop
      vertex -3.661395e+001  4.500000e+001  3.430543e-001
      vertex -3.661395e+001  4.400000e+001  3.430543e-001
      vertex -3.665000e+001  4.400000e+001 -1.869615e-015
    endloop
  endfacet
  facet normal  9.945219e-001  0.000000e+000 -1.045286e-001
    outer loop
      vertex -3.661395e+001  4.500000e+001  3.430543e-001
      vertex -3.665000e+001  4.400000e+001 -1.869615e-015
      vertex -3.665000e+001  4.500000e+001 -1.869615e-015
    endloop
  endfacet
  facet normal  2.079119e-001  0.000000e+000  9.781476e-001
    outer loop
      vertex -3.517247e+001  4.400000e+001 -1.640961e+000
      vertex -3.550988e+001  4.500000e+001 -1.569243e+000
      vertex -3.550988e+001  4.400000e+001 -1.569243e+000
    endloop
  endfacet
  facet normal  4.067336e-001  -0.000000e+000  9.135467e-001
    outer loop
      vertex -3.550988e+001  4.400000e+001 -1.569243e+000
      vertex -3.550988e+001  4.500000e+001 -1.569243e+000
      vertex -3.582500e+001  4.500000e+001 -1.428942e+000
    endloop
  endfacet
  facet normal  4.067336e-001  0.000000e+000  9.135467e-001
    outer loop
      vertex -3.550988e+001  4.400000e+001 -1.569243e+000
      vertex -3.582500e+001  4.500000e+001 -1.428942e+000
      vertex -3.582500e+001  4.400000e+001 -1.428942e+000
    endloop
  endfacet
  facet normal  5.877871e-001  -0.000000e+000  8.090158e-001
    outer loop
      vertex -3.582500e+001  4.400000e+001 -1.428942e+000
      vertex -3.582500e+001  4.500000e+001 -1.428942e+000
      vertex -3.610406e+001  4.500000e+001 -1.226189e+000
    endloop
  endfacet
  facet normal  5.877871e-001  0.000000e+000  8.090158e-001
    outer loop
      vertex -3.582500e+001  4.400000e+001 -1.428942e+000
      vertex -3.610406e+001  4.500000e+001 -1.226189e+000
      vertex -3.610406e+001  4.400000e+001 -1.226189e+000
    endloop
  endfacet
  facet normal  7.431456e-001  -0.000000e+000  6.691297e-001
    outer loop
      vertex -3.610406e+001  4.400000e+001 -1.226189e+000
      vertex -3.610406e+001  4.500000e+001 -1.226189e+000
      vertex -3.633488e+001  4.500000e+001 -9.698457e-001
    endloop
  endfacet
  facet normal  7.431456e-001  0.000000e+000  6.691297e-001
    outer loop
      vertex -3.610406e+001  4.400000e+001 -1.226189e+000
      vertex -3.633488e+001  4.500000e+001 -9.698457e-001
      vertex -3.633488e+001  4.400000e+001 -9.698457e-001
    endloop
  endfacet
  facet normal  8.660229e-001  -0.000000e+000  5.000042e-001
    outer loop
      vertex -3.633488e+001  4.400000e+001 -9.698457e-001
      vertex -3.633488e+001  4.500000e+001 -9.698457e-001
      vertex -3.650735e+001  4.500000e+001 -6.711155e-001
    endloop
  endfacet
  facet normal  8.660229e-001  0.000000e+000  5.000042e-001
    outer loop
      vertex -3.633488e+001  4.400000e+001 -9.698457e-001
      vertex -3.650735e+001  4.500000e+001 -6.711155e-001
      vertex -3.650735e+001  4.400000e+001 -6.711155e-001
    endloop
  endfacet
  facet normal  9.510560e-001  -0.000000e+000  3.090184e-001
    outer loop
      vertex -3.650735e+001  4.400000e+001 -6.711155e-001
      vertex -3.650735e+001  4.500000e+001 -6.711155e-001
      vertex -3.661395e+001  4.500000e+001 -3.430543e-001
    endloop
  endfacet
  facet normal  9.510560e-001  0.000000e+000  3.090184e-001
    outer loop
      vertex -3.650735e+001  4.400000e+001 -6.711155e-001
      vertex -3.661395e+001  4.500000e+001 -3.430543e-001
      vertex -3.661395e+001  4.400000e+001 -3.430543e-001
    endloop
  endfacet
  facet normal  9.945219e-001  -0.000000e+000  1.045286e-001
    outer loop
      vertex -3.661395e+001  4.400000e+001 -3.430543e-001
      vertex -3.661395e+001  4.500000e+001 -3.430543e-001
      vertex -3.665000e+001  4.500000e+001 -1.869615e-015
    endloop
  endfacet
  facet normal  9.945219e-001  0.000000e+000  1.045286e-001
    outer loop
      vertex -3.661395e+001  4.400000e+001 -3.430543e-001
      vertex -3.665000e+001  4.500000e+001 -1.869615e-015
      vertex -3.665000e+001  4.400000e+001 -1.869615e-015
    endloop
  endfacet
  facet normal  2.079119e-001  -0.000000e+000  9.781476e-001
    outer loop
      vertex -3.550988e+001  4.500000e+001 -1.569243e+000
      vertex -3.517247e+001  4.400000e+001 -1.640961e+000
      vertex -3.517247e+001  4.500000e+001 -1.640961e+000
    endloop
  endfacet
  facet normal  0.000000e+000  0.000000e+000  1.000000e+000
    outer loop
      vertex -3.517247e+001  4.500000e+001 -1.640961e+000
      vertex -3.517247e+001  4.400000e+001 -1.640961e+000
      vertex -3.482753e+001  4.400000e+001 -1.640961e+000
    endloop
  endfacet
  facet normal  0.000000e+000  -0.000000e+000  1.000000e+000
    outer loop
      vertex -3.517247e+001  4.500000e+001 -1.640961e+000
      vertex -3.482753e+001  4.400000e+001 -1.640961e+000
      vertex -3.482753e+001  4.500000e+001 -1.640961e+000
    endloop
  endfacet
  facet normal -2.079119e-001  0.000000e+000  9.781476e-001
    outer loop
      vertex -3.482753e+001  4.500000e+001 -1.640961e+000
      vertex -3.482753e+001  4.400000e+001 -1.640961e+000
      vertex -3.449012e+001  4.400000e+001 -1.569243e+000
    endloop
  endfacet
  facet normal -2.079119e-001  0.000000e+000  9.781476e-001
    outer loop
      vertex -3.482753e+001  4.500000e+001 -1.640961e+000
      vertex -3.449012e+001  4.400000e+001 -1.569243e+000
      vertex -3.449012e+001  4.500000e+001 -1.569243e+000
    endloop
  endfacet
  facet normal -4.067336e-001  0.000000e+000  9.135467e-001
    outer loop
      vertex -3.449012e+001  4.500000e+001 -1.569243e+000
      vertex -3.449012e+001  4.400000e+001 -1.569243e+000
      vertex -3.417500e+001  4.400000e+001 -1.428942e+000
    endloop
  endfacet
  facet normal -4.067336e-001  0.000000e+000  9.135467e-001
    outer loop
      vertex -3.449012e+001  4.500000e+001 -1.569243e+000
      vertex -3.417500e+001  4.400000e+001 -1.428942e+000
      vertex -3.417500e+001  4.500000e+001 -1.428942e+000
    endloop
  endfacet
  facet normal -5.877871e-001  0.000000e+000  8.090158e-001
    outer loop
      vertex -3.417500e+001  4.500000e+001 -1.428942e+000
      vertex -3.417500e+001  4.400000e+001 -1.428942e+000
      vertex -3.389594e+001  4.400000e+001 -1.226189e+000
    endloop
  endfacet
  facet normal -5.877871e-001  0.000000e+000  8.090158e-001
    outer loop
      vertex -3.417500e+001  4.500000e+001 -1.428942e+000
      vertex -3.389594e+001  4.400000e+001 -1.226189e+000
      vertex -3.389594e+001  4.500000e+001 -1.226189e+000
    endloop
  endfacet
  facet normal -7.431456e-001  0.000000e+000  6.691297e-001
    outer loop
      vertex -3.389594e+001  4.500000e+001 -1.226189e+000
      vertex -3.389594e+001  4.400000e+001 -1.226189e+000
      vertex -3.366512e+001  4.400000e+001 -9.698457e-001
    endloop
  endfacet
  facet normal -7.431456e-001  0.000000e+000  6.691297e-001
    outer loop
      vertex -3.389594e+001  4.500000e+001 -1.226189e+000
      vertex -3.366512e+001  4.400000e+001 -9.698457e-001
      vertex -3.366512e+001  4.500000e+001 -9.698457e-001
    endloop
  endfacet
  facet normal -8.660229e-001  0.000000e+000  5.000042e-001
    outer loop
      vertex -3.366512e+001  4.500000e+001 -9.698457e-001
      vertex -3.366512e+001  4.400000e+001 -9.698457e-001
      vertex -3.349265e+001  4.400000e+001 -6.711155e-001
    endloop
  endfacet
  facet normal -8.660229e-001  0.000000e+000  5.000042e-001
    outer loop
      vertex -3.366512e+001  4.500000e+001 -9.698457e-001
      vertex -3.349265e+001  4.400000e+001 -6.711155e-001
      vertex -3.349265e+001  4.500000e+001 -6.711155e-001
    endloop
  endfacet
  facet normal -9.510560e-001  0.000000e+000  3.090184e-001
    outer loop
      vertex -3.349265e+001  4.500000e+001 -6.711155e-001
      vertex -3.349265e+001  4.400000e+001 -6.711155e-001
      vertex -3.338605e+001  4.400000e+001 -3.430543e-001
    endloop
  endfacet
  facet normal -9.510560e-001  0.000000e+000  3.090184e-001
    outer loop
      vertex -3.349265e+001  4.500000e+001 -6.711155e-001
      vertex -3.338605e+001  4.400000e+001 -3.430543e-001
      vertex -3.338605e+001  4.500000e+001 -3.430543e-001
    endloop
  endfacet
  facet normal -9.945219e-001  0.000000e+000  1.045286e-001
    outer loop
      vertex -3.338605e+001  4.500000e+001 -3.430543e-001
      vertex -3.338605e+001  4.400000e+001 -3.430543e-001
      vertex -3.335000e+001  4.400000e+001  6.061801e-016
    endloop
  endfacet
  facet normal -9.945219e-001  0.000000e+000  1.045286e-001
    outer loop
      vertex -3.338605e+001  4.500000e+001 -3.430543e-001
      vertex -3.335000e+001  4.400000e+001  6.061801e-016
      vertex -3.335000e+001  4.500000e+001  6.061801e-016
    endloop
  endfacet
  facet normal -9.983084e-001  -0.000000e+000 -5.814123e-002
    outer loop
      vertex -4.080000e+001  4.400000e+001  0.000000e+000
      vertex -4.080000e+001  4.500000e+001  0.000000e+000
      vertex -4.076078e+001  4.400000e+001 -6.733389e-001
    endloop
  endfacet
  facet normal -9.983084e-001  0.000000e+000 -5.814123e-002
    outer loop
      vertex -4.076078e+001  4.400000e+001 -6.733389e-001
      vertex -4.080000e+001  4.500000e+001  0.000000e+000
      vertex -4.076078e+001  4.500000e+001 -6.733389e-001
    endloop
  endfacet
  facet normal -9.848077e-001  -0.000000e+000 -1.736488e-001
    outer loop
      vertex -4.076078e+001  4.400000e+001 -6.733389e-001
      vertex -4.076078e+001  4.500000e+001 -6.733389e-001
      vertex -4.064366e+001  4.400000e+001 -1.337572e+000
    endloop
  endfacet
  facet normal -9.848077e-001  0.000000e+000 -1.736488e-001
    outer loop
      vertex -4.064366e+001  4.400000e+001 -1.337572e+000
      vertex -4.076078e+001  4.500000e+001 -6.733389e-001
      vertex -4.064366e+001  4.500000e+001 -1.337572e+000
    endloop
  endfacet
  facet normal -9.579895e-001  -0.000000e+000 -2.868036e-001
    outer loop
      vertex -4.064366e+001  4.400000e+001 -1.337572e+000
      vertex -4.064366e+001  4.500000e+001 -1.337572e+000
      vertex -4.045022e+001  4.400000e+001 -1.983717e+000
    endloop
  endfacet
  facet normal -9.579895e-001  0.000000e+000 -2.868036e-001
    outer loop
      vertex -4.045022e+001  4.400000e+001 -1.983717e+000
      vertex -4.064366e+001  4.500000e+001 -1.337572e+000
      vertex -4.045022e+001  4.500000e+001 -1.983717e+000
    endloop
  endfacet
  facet normal -9.182165e-001  -0.000000e+000 -3.960788e-001
    outer loop
      vertex -4.045022e+001  4.400000e+001 -1.983717e+000
      vertex -4.045022e+001  4.500000e+001 -1.983717e+000
      vertex -4.018307e+001  4.400000e+001 -2.603035e+000
    endloop
  endfacet
  facet normal -9.182165e-001  0.000000e+000 -3.960788e-001
    outer loop
      vertex -4.018307e+001  4.400000e+001 -2.603035e+000
      vertex -4.045022e+001  4.500000e+001 -1.983717e+000
      vertex -4.018307e+001  4.500000e+001 -2.603035e+000
    endloop
  endfacet
  facet normal -8.660241e-001  -0.000000e+000 -5.000023e-001
    outer loop
      vertex -4.018307e+001  4.400000e+001 -2.603035e+000
      vertex -4.018307e+001  4.500000e+001 -2.603035e+000
      vertex -3.984583e+001  4.400000e+001 -3.187152e+000
    endloop
  endfacet
  facet normal -8.660241e-001  0.000000e+000 -5.000023e-001
    outer loop
      vertex -3.984583e+001  4.400000e+001 -3.187152e+000
      vertex -4.018307e+001  4.500000e+001 -2.603035e+000
      vertex -3.984583e+001  4.500000e+001 -3.187152e+000
    endloop
  endfacet
  facet normal -8.021236e-001  -0.000000e+000 -5.971581e-001
    outer loop
      vertex -3.984583e+001  4.400000e+001 -3.187152e+000
      vertex -3.984583e+001  4.500000e+001 -3.187152e+000
      vertex -3.944306e+001  4.400000e+001 -3.728168e+000
    endloop
  endfacet
  facet normal -8.021236e-001  0.000000e+000 -5.971581e-001
    outer loop
      vertex -3.944306e+001  4.400000e+001 -3.728168e+000
      vertex -3.984583e+001  4.500000e+001 -3.187152e+000
      vertex -3.944306e+001  4.500000e+001 -3.728168e+000
    endloop
  endfacet
  facet normal -7.273736e-001  -0.000000e+000 -6.862417e-001
    outer loop
      vertex -3.944306e+001  4.400000e+001 -3.728168e+000
      vertex -3.944306e+001  4.500000e+001 -3.728168e+000
      vertex -3.898020e+001  4.400000e+001 -4.218767e+000
    endloop
  endfacet
  facet normal -7.273736e-001  0.000000e+000 -6.862417e-001
    outer loop
      vertex -3.898020e+001  4.400000e+001 -4.218767e+000
      vertex -3.944306e+001  4.500000e+001 -3.728168e+000
      vertex -3.898020e+001  4.500000e+001 -4.218767e+000
    endloop
  endfacet
  facet normal -6.427877e-001  -0.000000e+000 -7.660444e-001
    outer loop
      vertex -3.898020e+001  4.400000e+001 -4.218767e+000
      vertex -3.898020e+001  4.500000e+001 -4.218767e+000
      vertex -3.846352e+001  4.400000e+001 -4.652315e+000
    endloop
  endfacet
  facet normal -6.427877e-001  0.000000e+000 -7.660444e-001
    outer loop
      vertex -3.846352e+001  4.400000e+001 -4.652315e+000
      vertex -3.898020e+001  4.500000e+001 -4.218767e+000
      vertex -3.846352e+001  4.500000e+001 -4.652315e+000
    endloop
  endfacet
  facet normal -5.495097e-001  -0.000000e+000 -8.354873e-001
    outer loop
      vertex -3.846352e+001  4.400000e+001 -4.652315e+000
      vertex -3.846352e+001  4.500000e+001 -4.652315e+000
      vertex -3.790000e+001  4.400000e+001 -5.022947e+000
    endloop
  endfacet
  facet normal -5.495097e-001  0.000000e+000 -8.354873e-001
    outer loop
      vertex -3.790000e+001  4.400000e+001 -5.022947e+000
      vertex -3.846352e+001  4.500000e+001 -4.652315e+000
      vertex -3.790000e+001  4.500000e+001 -5.022947e+000
    endloop
  endfacet
  facet normal -4.487993e-001  -0.000000e+000 -8.936326e-001
    outer loop
      vertex -3.790000e+001  4.400000e+001 -5.022947e+000
      vertex -3.790000e+001  4.500000e+001 -5.022947e+000
      vertex -3.729726e+001  4.400000e+001 -5.325654e+000
    endloop
  endfacet
  facet normal -4.487993e-001  0.000000e+000 -8.936326e-001
    outer loop
      vertex -3.729726e+001  4.400000e+001 -5.325654e+000
      vertex -3.790000e+001  4.500000e+001 -5.022947e+000
      vertex -3.729726e+001  4.500000e+001 -5.325654e+000
    endloop
  endfacet
  facet normal -3.420199e-001  -0.000000e+000 -9.396928e-001
    outer loop
      vertex -3.729726e+001  4.400000e+001 -5.325654e+000
      vertex -3.729726e+001  4.500000e+001 -5.325654e+000
      vertex -3.666346e+001  4.400000e+001 -5.556339e+000
    endloop
  endfacet
  facet normal -3.420199e-001  0.000000e+000 -9.396928e-001
    outer loop
      vertex -3.666346e+001  4.400000e+001 -5.556339e+000
      vertex -3.729726e+001  4.500000e+001 -5.325654e+000
      vertex -3.666346e+001  4.500000e+001 -5.556339e+000
    endloop
  endfacet
  facet normal -2.306157e-001  -0.000000e+000 -9.730449e-001
    outer loop
      vertex -3.666346e+001  4.400000e+001 -5.556339e+000
      vertex -3.666346e+001  4.500000e+001 -5.556339e+000
      vertex -3.600716e+001  4.400000e+001 -5.711885e+000
    endloop
  endfacet
  facet normal -2.306157e-001  0.000000e+000 -9.730449e-001
    outer loop
      vertex -3.600716e+001  4.400000e+001 -5.711885e+000
      vertex -3.666346e+001  4.500000e+001 -5.556339e+000
      vertex -3.600716e+001  4.500000e+001 -5.711885e+000
    endloop
  endfacet
  facet normal -1.160925e-001  -0.000000e+000 -9.932384e-001
    outer loop
      vertex -3.600716e+001  4.400000e+001 -5.711885e+000
      vertex -3.600716e+001  4.500000e+001 -5.711885e+000
      vertex -3.533724e+001  4.400000e+001 -5.790187e+000
    endloop
  endfacet
  facet normal -1.160925e-001  0.000000e+000 -9.932384e-001
    outer loop
      vertex -3.533724e+001  4.400000e+001 -5.790187e+000
      vertex -3.600716e+001  4.500000e+001 -5.711885e+000
      vertex -3.533724e+001  4.500000e+001 -5.790187e+000
    endloop
  endfacet
  facet normal  0.000000e+000  0.000000e+000 -1.000000e+000
    outer loop
      vertex -3.533724e+001  4.400000e+001 -5.790187e+000
      vertex -3.533724e+001  4.500000e+001 -5.790187e+000
      vertex -3.466276e+001  4.400000e+001 -5.790187e+000
    endloop
  endfacet
  facet normal  0.000000e+000  0.000000e+000 -1.000000e+000
    outer loop
      vertex -3.466276e+001  4.400000e+001 -5.790187e+000
      vertex -3.533724e+001  4.500000e+001 -5.790187e+000
      vertex -3.466276e+001  4.500000e+001 -5.790187e+000
    endloop
  endfacet
  facet normal  1.160925e-001  0.000000e+000 -9.932384e-001
    outer loop
      vertex -3.466276e+001  4.400000e+001 -5.790187e+000
      vertex -3.466276e+001  4.500000e+001 -5.790187e+000
      vertex -3.399284e+001  4.400000e+001 -5.711885e+000
    endloop
  endfacet
  facet normal  1.160925e-001  0.000000e+000 -9.932384e-001
    outer loop
      vertex -3.399284e+001  4.400000e+001 -5.711885e+000
      vertex -3.466276e+001  4.500000e+001 -5.790187e+000
      vertex -3.399284e+001  4.500000e+001 -5.711885e+000
    endloop
  endfacet
  facet normal  2.306157e-001  0.000000e+000 -9.730449e-001
    outer loop
      vertex -3.399284e+001  4.400000e+001 -5.711885e+000
      vertex -3.399284e+001  4.500000e+001 -5.711885e+000
      vertex -3.333654e+001  4.400000e+001 -5.556339e+000
    endloop
  endfacet
  facet normal  2.306157e-001  0.000000e+000 -9.730449e-001
    outer loop
      vertex -3.333654e+001  4.400000e+001 -5.556339e+000
      vertex -3.399284e+001  4.500000e+001 -5.711885e+000
      vertex -3.333654e+001  4.500000e+001 -5.556339e+000
    endloop
  endfacet
  facet normal  3.420199e-001  0.000000e+000 -9.396928e-001
    outer loop
      vertex -3.333654e+001  4.400000e+001 -5.556339e+000
      vertex -3.333654e+001  4.500000e+001 -5.556339e+000
      vertex -3.270274e+001  4.400000e+001 -5.325654e+000
    endloop
  endfacet
  facet normal  3.420199e-001  0.000000e+000 -9.396928e-001
    outer loop
      vertex -3.270274e+001  4.400000e+001 -5.325654e+000
      vertex -3.333654e+001  4.500000e+001 -5.556339e+000
      vertex -3.270274e+001  4.500000e+001 -5.325654e+000
    endloop
  endfacet
  facet normal  4.487993e-001  0.000000e+000 -8.936326e-001
    outer loop
      vertex -3.270274e+001  4.400000e+001 -5.325654e+000
      vertex -3.270274e+001  4.500000e+001 -5.325654e+000
      vertex -3.210000e+001  4.400000e+001 -5.022947e+000
    endloop
  endfacet
  facet normal  4.487993e-001  0.000000e+000 -8.936326e-001
    outer loop
      vertex -3.210000e+001  4.400000e+001 -5.022947e+000
      vertex -3.270274e+001  4.500000e+001 -5.325654e+000
      vertex -3.210000e+001  4.500000e+001 -5.022947e+000
    endloop
  endfacet
  facet normal  5.495097e-001  0.000000e+000 -8.354873e-001
    outer loop
      vertex -3.210000e+001  4.400000e+001 -5.022947e+000
      vertex -3.210000e+001  4.500000e+001 -5.022947e+000
      vertex -3.153648e+001  4.400000e+001 -4.652315e+000
    endloop
  endfacet
  facet normal  5.495097e-001  0.000000e+000 -8.354873e-001
    outer loop
      vertex -3.153648e+001  4.400000e+001 -4.652315e+000
      vertex -3.210000e+001  4.500000e+001 -5.022947e+000
      vertex -3.153648e+001  4.500000e+001 -4.652315e+000
    endloop
  endfacet
  facet normal  6.427877e-001  0.000000e+000 -7.660444e-001
    outer loop
      vertex -3.153648e+001  4.400000e+001 -4.652315e+000
      vertex -3.153648e+001  4.500000e+001 -4.652315e+000
      vertex -3.101980e+001  4.400000e+001 -4.218767e+000
    endloop
  endfacet
  facet normal  6.427877e-001  0.000000e+000 -7.660444e-001
    outer loop
      vertex -3.101980e+001  4.400000e+001 -4.218767e+000
      vertex -3.153648e+001  4.500000e+001 -4.652315e+000
      vertex -3.101980e+001  4.500000e+001 -4.218767e+000
    endloop
  endfacet
  facet normal  7.273736e-001  0.000000e+000 -6.862417e-001
    outer loop
      vertex -3.101980e+001  4.400000e+001 -4.218767e+000
      vertex -3.101980e+001  4.500000e+001 -4.218767e+000
      vertex -3.055694e+001  4.400000e+001 -3.728168e+000
    endloop
  endfacet
  facet normal  7.273736e-001  0.000000e+000 -6.862417e-001
    outer loop
      vertex -3.055694e+001  4.400000e+001 -3.728168e+000
      vertex -3.101980e+001  4.500000e+001 -4.218767e+000
      vertex -3.055694e+001  4.500000e+001 -3.728168e+000
    endloop
  endfacet
  facet normal  8.021236e-001  0.000000e+000 -5.971581e-001
    outer loop
      vertex -3.055694e+001  4.400000e+001 -3.728168e+000
      vertex -3.055694e+001  4.500000e+001 -3.728168e+000
      vertex -3.015417e+001  4.400000e+001 -3.187152e+000
    endloop
  endfacet
  facet normal  8.021236e-001  0.000000e+000 -5.971581e-001
    outer loop
      vertex -3.015417e+001  4.400000e+001 -3.187152e+000
      vertex -3.055694e+001  4.500000e+001 -3.728168e+000
      vertex -3.015417e+001  4.500000e+001 -3.187152e+000
    endloop
  endfacet
  facet normal  8.660253e-001  0.000000e+000 -5.000002e-001
    outer loop
      vertex -3.015417e+001  4.400000e+001 -3.187152e+000
      vertex -3.015417e+001  4.500000e+001 -3.187152e+000
      vertex -2.981693e+001  4.400000e+001 -2.603035e+000
    endloop
  endfacet
  facet normal  8.660253e-001  0.000000e+000 -5.000002e-001
    outer loop
      vertex -2.981693e+001  4.400000e+001 -2.603035e+000
      vertex -3.015417e+001  4.500000e+001 -3.187152e+000
      vertex -2.981693e+001  4.500000e+001 -2.603035e+000
    endloop
  endfacet
  facet normal  9.182165e-001  0.000000e+000 -3.960788e-001
    outer loop
      vertex -2.981693e+001  4.400000e+001 -2.603035e+000
      vertex -2.981693e+001  4.500000e+001 -2.603035e+000
      vertex -2.954978e+001  4.400000e+001 -1.983717e+000
    endloop
  endfacet
  facet normal  9.182165e-001  0.000000e+000 -3.960788e-001
    outer loop
      vertex -2.954978e+001  4.400000e+001 -1.983717e+000
      vertex -2.981693e+001  4.500000e+001 -2.603035e+000
      vertex -2.954978e+001  4.500000e+001 -1.983717e+000
    endloop
  endfacet
  facet normal  9.579895e-001  0.000000e+000 -2.868036e-001
    outer loop
      vertex -2.954978e+001  4.400000e+001 -1.983717e+000
      vertex -2.954978e+001  4.500000e+001 -1.983717e+000
      vertex -2.935634e+001  4.400000e+001 -1.337572e+000
    endloop
  endfacet
  facet normal  9.579895e-001  0.000000e+000 -2.868036e-001
    outer loop
      vertex -2.935634e+001  4.400000e+001 -1.337572e+000
      vertex -2.954978e+001  4.500000e+001 -1.983717e+000
      vertex -2.935634e+001  4.500000e+001 -1.337572e+000
    endloop
  endfacet
  facet normal  9.848077e-001  0.000000e+000 -1.736488e-001
    outer loop
      vertex -2.935634e+001  4.400000e+001 -1.337572e+000
      vertex -2.935634e+001  4.500000e+001 -1.337572e+000
      vertex -2.923922e+001  4.400000e+001 -6.733389e-001
    endloop
  endfacet
  facet normal  9.848077e-001  0.000000e+000 -1.736488e-001
    outer loop
      vertex -2.923922e+001  4.400000e+001 -6.733389e-001
      vertex -2.935634e+001  4.500000e+001 -1.337572e+000
      vertex -2.923922e+001  4.500000e+001 -6.733389e-001
    endloop
  endfacet
  facet normal  9.983082e-001  0.000000e+000 -5.814405e-002
    outer loop
      vertex -2.923922e+001  4.400000e+001 -6.733389e-001
      vertex -2.923922e+001  4.500000e+001 -6.733389e-001
      vertex -2.920000e+001  4.400000e+001 -1.865446e-015
    endloop
  endfacet
  facet normal  9.983082e-001  0.000000e+000 -5.814405e-002
    outer loop
      vertex -2.920000e+001  4.400000e+001 -1.865446e-015
      vertex -2.923922e+001  4.500000e+001 -6.733389e-001
      vertex -2.920000e+001  4.500000e+001 -1.865446e-015
    endloop
  endfacet
  facet normal  9.983082e-001  0.000000e+000  5.814405e-002
    outer loop
      vertex -2.920000e+001  4.400000e+001 -1.865446e-015
      vertex -2.920000e+001  4.500000e+001 -1.865446e-015
      vertex -2.923922e+001  4.400000e+001  6.733389e-001
    endloop
  endfacet
  facet normal  9.983082e-001  -0.000000e+000  5.814405e-002
    outer loop
      vertex -2.923922e+001  4.400000e+001  6.733389e-001
      vertex -2.920000e+001  4.500000e+001 -1.865446e-015
      vertex -2.923922e+001  4.500000e+001  6.733389e-001
    endloop
  endfacet
  facet normal  9.848077e-001  0.000000e+000  1.736488e-001
    outer loop
      vertex -2.923922e+001  4.400000e+001  6.733389e-001
      vertex -2.923922e+001  4.500000e+001  6.733389e-001
      vertex -2.935634e+001  4.400000e+001  1.337572e+000
    endloop
  endfacet
  facet normal  9.848077e-001  -0.000000e+000  1.736488e-001
    outer loop
      vertex -2.935634e+001  4.400000e+001  1.337572e+000
      vertex -2.923922e+001  4.500000e+001  6.733389e-001
      vertex -2.935634e+001  4.500000e+001  1.337572e+000
    endloop
  endfacet
  facet normal  9.579895e-001  0.000000e+000  2.868036e-001
    outer loop
      vertex -2.935634e+001  4.400000e+001  1.337572e+000
      vertex -2.935634e+001  4.500000e+001  1.337572e+000
      vertex -2.954978e+001  4.400000e+001  1.983717e+000
    endloop
  endfacet
  facet normal  9.579895e-001  -0.000000e+000  2.868036e-001
    outer loop
      vertex -2.954978e+001  4.400000e+001  1.983717e+000
      vertex -2.935634e+001  4.500000e+001  1.337572e+000
      vertex -2.954978e+001  4.500000e+001  1.983717e+000
    endloop
  endfacet
  facet normal  9.182165e-001  0.000000e+000  3.960788e-001
    outer loop
      vertex -2.954978e+001  4.400000e+001  1.983717e+000
      vertex -2.954978e+001  4.500000e+001  1.983717e+000
      vertex -2.981693e+001  4.400000e+001  2.603035e+000
    endloop
  endfacet
  facet normal  9.182165e-001  -0.000000e+000  3.960788e-001
    outer loop
      vertex -2.981693e+001  4.400000e+001  2.603035e+000
      vertex -2.954978e+001  4.500000e+001  1.983717e+000
      vertex -2.981693e+001  4.500000e+001  2.603035e+000
    endloop
  endfacet
  facet normal  8.660253e-001  0.000000e+000  5.000002e-001
    outer loop
      vertex -2.981693e+001  4.400000e+001  2.603035e+000
      vertex -2.981693e+001  4.500000e+001  2.603035e+000
      vertex -3.015417e+001  4.400000e+001  3.187152e+000
    endloop
  endfacet
  facet normal  8.660253e-001  -0.000000e+000  5.000002e-001
    outer loop
      vertex -3.015417e+001  4.400000e+001  3.187152e+000
      vertex -2.981693e+001  4.500000e+001  2.603035e+000
      vertex -3.015417e+001  4.500000e+001  3.187152e+000
    endloop
  endfacet
  facet normal  8.021236e-001  0.000000e+000  5.971581e-001
    outer loop
      vertex -3.015417e+001  4.400000e+001  3.187152e+000
      vertex -3.015417e+001  4.500000e+001  3.187152e+000
      vertex -3.055694e+001  4.400000e+001  3.728168e+000
    endloop
  endfacet
  facet normal  8.021236e-001  -0.000000e+000  5.971581e-001
    outer loop
      vertex -3.055694e+001  4.400000e+001  3.728168e+000
      vertex -3.015417e+001  4.500000e+001  3.187152e+000
      vertex -3.055694e+001  4.500000e+001  3.728168e+000
    endloop
  endfacet
  facet normal  7.273736e-001  0.000000e+000  6.862417e-001
    outer loop
      vertex -3.055694e+001  4.400000e+001  3.728168e+000
      vertex -3.055694e+001  4.500000e+001  3.728168e+000
      vertex -3.101980e+001  4.400000e+001  4.218767e+000
    endloop
  endfacet
  facet normal  7.273736e-001  -0.000000e+000  6.862417e-001
    outer loop
      vertex -3.101980e+001  4.400000e+001  4.218767e+000
      vertex -3.055694e+001  4.500000e+001  3.728168e+000
      vertex -3.101980e+001  4.500000e+001  4.218767e+000
    endloop
  endfacet
  facet normal  6.427877e-001  0.000000e+000  7.660444e-001
    outer loop
      vertex -3.101980e+001  4.400000e+001  4.218767e+000
      vertex -3.101980e+001  4.500000e+001  4.218767e+000
      vertex -3.153648e+001  4.400000e+001  4.652315e+000
    endloop
  endfacet
  facet normal  6.427877e-001  -0.000000e+000  7.660444e-001
    outer loop
      vertex -3.153648e+001  4.400000e+001  4.652315e+000
      vertex -3.101980e+001  4.500000e+001  4.218767e+000
      vertex -3.153648e+001  4.500000e+001  4.652315e+000
    endloop
  endfacet
  facet normal  5.495097e-001  0.000000e+000  8.354873e-001
    outer loop
      vertex -3.153648e+001  4.400000e+001  4.652315e+000
      vertex -3.153648e+001  4.500000e+001  4.652315e+000
      vertex -3.210000e+001  4.400000e+001  5.022947e+000
    endloop
  endfacet
  facet normal  5.495097e-001  -0.000000e+000  8.354873e-001
    outer loop
      vertex -3.210000e+001  4.400000e+001  5.022947e+000
      vertex -3.153648e+001  4.500000e+001  4.652315e+000
      vertex -3.210000e+001  4.500000e+001  5.022947e+000
    endloop
  endfacet
  facet normal  4.487993e-001  0.000000e+000  8.936326e-001
    outer loop
      vertex -3.210000e+001  4.400000e+001  5.022947e+000
      vertex -3.210000e+001  4.500000e+001  5.022947e+000
      vertex -3.270274e+001  4.400000e+001  5.325654e+000
    endloop
  endfacet
  facet normal  4.487993e-001  -0.000000e+000  8.936326e-001
    outer loop
      vertex -3.270274e+001  4.400000e+001  5.325654e+000
      vertex -3.210000e+001  4.500000e+001  5.022947e+000
      vertex -3.270274e+001  4.500000e+001  5.325654e+000
    endloop
  endfacet
  facet normal  3.420199e-001  0.000000e+000  9.396928e-001
    outer loop
      vertex -3.270274e+001  4.400000e+001  5.325654e+000
      vertex -3.270274e+001  4.500000e+001  5.325654e+000
      vertex -3.333654e+001  4.400000e+001  5.556339e+000
    endloop
  endfacet
  facet normal  3.420199e-001  -0.000000e+000  9.396928e-001
    outer loop
      vertex -3.333654e+001  4.400000e+001  5.556339e+000
      vertex -3.270274e+001  4.500000e+001  5.325654e+000
      vertex -3.333654e+001  4.500000e+001  5.556339e+000
    endloop
  endfacet
  facet normal  2.306157e-001  0.000000e+000  9.730449e-001
    outer loop
      vertex -3.333654e+001  4.400000e+001  5.556339e+000
      vertex -3.333654e+001  4.500000e+001  5.556339e+000
      vertex -3.399284e+001  4.400000e+001  5.711885e+000
    endloop
  endfacet
  facet normal  2.306157e-001  -0.000000e+000  9.730449e-001
    outer loop
      vertex -3.399284e+001  4.400000e+001  5.711885e+000
      vertex -3.333654e+001  4.500000e+001  5.556339e+000
      vertex -3.399284e+001  4.500000e+001  5.711885e+000
    endloop
  endfacet
  facet normal  1.160925e-001  0.000000e+000  9.932384e-001
    outer loop
      vertex -3.399284e+001  4.400000e+001  5.711885e+000
      vertex -3.399284e+001  4.500000e+001  5.711885e+000
      vertex -3.466276e+001  4.400000e+001  5.790187e+000
    endloop
  endfacet
  facet normal  1.160925e-001  -0.000000e+000  9.932384e-001
    outer loop
      vertex -3.466276e+001  4.400000e+001  5.790187e+000
      vertex -3.399284e+001  4.500000e+001  5.711885e+000
      vertex -3.466276e+001  4.500000e+001  5.790187e+000
    endloop
  endfacet
  facet normal  0.000000e+000  0.000000e+000  1.000000e+000
    outer loop
      vertex -3.466276e+001  4.400000e+001  5.790187e+000
      vertex -3.466276e+001  4.500000e+001  5.790187e+000
      vertex -3.533724e+001  4.400000e+001  5.790187e+000
    endloop
  endfacet
  facet normal  0.000000e+000  0.000000e+000  1.000000e+000
    outer loop
      vertex -3.533724e+001  4.400000e+001  5.790187e+000
      vertex -3.466276e+001  4.500000e+001  5.790187e+000
      vertex -3.533724e+001  4.500000e+001  5.790187e+000
    endloop
  endfacet
  facet normal -1.160925e-001  0.000000e+000  9.932384e-001
    outer loop
      vertex -3.533724e+001  4.400000e+001  5.790187e+000
      vertex -3.533724e+001  4.500000e+001  5.790187e+000
      vertex -3.600716e+001  4.400000e+001  5.711885e+000
    endloop
  endfacet
  facet normal -1.160925e-001  0.000000e+000  9.932384e-001
    outer loop
      vertex -3.600716e+001  4.400000e+001  5.711885e+000
      vertex -3.533724e+001  4.500000e+001  5.790187e+000
      vertex -3.600716e+001  4.500000e+001  5.711885e+000
    endloop
  endfacet
  facet normal -2.306157e-001  0.000000e+000  9.730449e-001
    outer loop
      vertex -3.600716e+001  4.400000e+001  5.711885e+000
      vertex -3.600716e+001  4.500000e+001  5.711885e+000
      vertex -3.666346e+001  4.400000e+001  5.556339e+000
    endloop
  endfacet
  facet normal -2.306157e-001  0.000000e+000  9.730449e-001
    outer loop
      vertex -3.666346e+001  4.400000e+001  5.556339e+000
      vertex -3.600716e+001  4.500000e+001  5.711885e+000
      vertex -3.666346e+001  4.500000e+001  5.556339e+000
    endloop
  endfacet
  facet normal -3.420199e-001  0.000000e+000  9.396928e-001
    outer loop
      vertex -3.666346e+001  4.400000e+001  5.556339e+000
      vertex -3.666346e+001  4.500000e+001  5.556339e+000
      vertex -3.729726e+001  4.400000e+001  5.325654e+000
    endloop
  endfacet
  facet normal -3.420199e-001  0.000000e+000  9.396928e-001
    outer loop
      vertex -3.729726e+001  4.400000e+001  5.325654e+000
      vertex -3.666346e+001  4.500000e+001  5.556339e+000
      vertex -3.729726e+001  4.500000e+001  5.325654e+000
    endloop
  endfacet
  facet normal -4.487993e-001  0.000000e+000  8.936326e-001
    outer loop
      vertex -3.729726e+001  4.400000e+001  5.325654e+000
      vertex -3.729726e+001  4.500000e+001  5.325654e+000
      vertex -3.790000e+001  4.400000e+001  5.022947e+000
    endloop
  endfacet
  facet normal -4.487993e-001  0.000000e+000  8.936326e-001
    outer loop
      vertex -3.790000e+001  4.400000e+001  5.022947e+000
      vertex -3.729726e+001  4.500000e+001  5.325654e+000
      vertex -3.790000e+001  4.500000e+001  5.022947e+000
    endloop
  endfacet
  facet normal -5.495097e-001  0.000000e+000  8.354873e-001
    outer loop
      vertex -3.790000e+001  4.400000e+001  5.022947e+000
      vertex -3.790000e+001  4.500000e+001  5.022947e+000
      vertex -3.846352e+001  4.400000e+001  4.652315e+000
    endloop
  endfacet
  facet normal -5.495097e-001  0.000000e+000  8.354873e-001
    outer loop
      vertex -3.846352e+001  4.400000e+001  4.652315e+000
      vertex -3.790000e+001  4.500000e+001  5.022947e+000
      vertex -3.846352e+001  4.500000e+001  4.652315e+000
    endloop
  endfacet
  facet normal -6.427877e-001  0.000000e+000  7.660444e-001
    outer loop
      vertex -3.846352e+001  4.400000e+001  4.652315e+000
      vertex -3.846352e+001  4.500000e+001  4.652315e+000
      vertex -3.898020e+001  4.400000e+001  4.218767e+000
    endloop
  endfacet
  facet normal -6.427877e-001  0.000000e+000  7.660444e-001
    outer loop
      vertex -3.898020e+001  4.400000e+001  4.218767e+000
      vertex -3.846352e+001  4.500000e+001  4.652315e+000
      vertex -3.898020e+001  4.500000e+001  4.218767e+000
    endloop
  endfacet
  facet normal -7.273736e-001  0.000000e+000  6.862417e-001
    outer loop
      vertex -3.898020e+001  4.400000e+001  4.218767e+000
      vertex -3.898020e+001  4.500000e+001  4.218767e+000
      vertex -3.944306e+001  4.400000e+001  3.728168e+000
    endloop
  endfacet
  facet normal -7.273736e-001  0.000000e+000  6.862417e-001
    outer loop
      vertex -3.944306e+001  4.400000e+001  3.728168e+000
      vertex -3.898020e+001  4.500000e+001  4.218767e+000
      vertex -3.944306e+001  4.500000e+001  3.728168e+000
    endloop
  endfacet
  facet normal -8.021236e-001  0.000000e+000  5.971581e-001
    outer loop
      vertex -3.944306e+001  4.400000e+001  3.728168e+000
      vertex -3.944306e+001  4.500000e+001  3.728168e+000
      vertex -3.984583e+001  4.400000e+001  3.187152e+000
    endloop
  endfacet
  facet normal -8.021236e-001  0.000000e+000  5.971581e-001
    outer loop
      vertex -3.984583e+001  4.400000e+001  3.187152e+000
      vertex -3.944306e+001  4.500000e+001  3.728168e+000
      vertex -3.984583e+001  4.500000e+001  3.187152e+000
    endloop
  endfacet
  facet normal -8.660241e-001  0.000000e+000  5.000023e-001
    outer loop
      vertex -3.984583e+001  4.400000e+001  3.187152e+000
      vertex -3.984583e+001  4.500000e+001  3.187152e+000
      vertex -4.018307e+001  4.400000e+001  2.603035e+000
    endloop
  endfacet
  facet normal -8.660241e-001  0.000000e+000  5.000023e-001
    outer loop
      vertex -4.018307e+001  4.400000e+001  2.603035e+000
      vertex -3.984583e+001  4.500000e+001  3.187152e+000
      vertex -4.018307e+001  4.500000e+001  2.603035e+000
    endloop
  endfacet
  facet normal -9.182165e-001  0.000000e+000  3.960788e-001
    outer loop
      vertex -4.018307e+001  4.400000e+001  2.603035e+000
      vertex -4.018307e+001  4.500000e+001  2.603035e+000
      vertex -4.045022e+001  4.400000e+001  1.983717e+000
    endloop
  endfacet
  facet normal -9.182165e-001  0.000000e+000  3.960788e-001
    outer loop
      vertex -4.045022e+001  4.400000e+001  1.983717e+000
      vertex -4.018307e+001  4.500000e+001  2.603035e+000
      vertex -4.045022e+001  4.500000e+001  1.983717e+000
    endloop
  endfacet
  facet normal -9.579895e-001  0.000000e+000  2.868036e-001
    outer loop
      vertex -4.045022e+001  4.400000e+001  1.983717e+000
      vertex -4.045022e+001  4.500000e+001  1.983717e+000
      vertex -4.064366e+001  4.400000e+001  1.337572e+000
    endloop
  endfacet
  facet normal -9.579895e-001  0.000000e+000  2.868036e-001
    outer loop
      vertex -4.064366e+001  4.400000e+001  1.337572e+000
      vertex -4.045022e+001  4.500000e+001  1.983717e+000
      vertex -4.064366e+001  4.500000e+001  1.337572e+000
    endloop
  endfacet
  facet normal -9.848077e-001  0.000000e+000  1.736488e-001
    outer loop
      vertex -4.064366e+001  4.400000e+001  1.337572e+000
      vertex -4.064366e+001  4.500000e+001  1.337572e+000
      vertex -4.076078e+001  4.400000e+001  6.733389e-001
    endloop
  endfacet
  facet normal -9.848077e-001  0.000000e+000  1.736488e-001
    outer loop
      vertex -4.076078e+001  4.400000e+001  6.733389e-001
      vertex -4.064366e+001  4.500000e+001  1.337572e+000
      vertex -4.076078e+001  4.500000e+001  6.733389e-001
    endloop
  endfacet
  facet normal -9.983084e-001  0.000000e+000  5.814123e-002
    outer loop
      vertex -4.076078e+001  4.400000e+001  6.733389e-001
      vertex -4.076078e+001  4.500000e+001  6.733389e-001
      vertex -4.080000e+001  4.400000e+001  0.000000e+000
    endloop
  endfacet
  facet normal -9.983084e-001  0.000000e+000  5.814123e-002
    outer loop
      vertex -4.080000e+001  4.400000e+001  0.000000e+000
      vertex -4.076078e+001  4.500000e+001  6.733389e-001
      vertex -4.080000e+001  4.500000e+001  0.000000e+000
    endloop
  endfacet
endsolid CATIA STL
