solid OpenSCAD_Model
  facet normal 0 -1 0
    outer loop
      vertex 52 -102 30.32
      vertex 52 -102 31.6
      vertex -52 -102 31.6
    endloop
  endfacet
  facet normal 0 -1 0
    outer loop
      vertex 52 -102 30.32
      vertex -52 -102 31.6
      vertex -52 -102 30.32
    endloop
  endfacet
  facet normal 1 0 0
    outer loop
      vertex 52 -102 31.6
      vertex 52 -102 30.32
      vertex 52 102 30.32
    endloop
  endfacet
  facet normal 1 0 0
    outer loop
      vertex 52 102 31.6
      vertex 52 -102 31.6
      vertex 52 102 30.32
    endloop
  endfacet
  facet normal 0.707107 0 -0.707107
    outer loop
      vertex 52 -102 30.32
      vertex 50.08 -100.08 28.4
      vertex 50.08 100.08 28.4
    endloop
  endfacet
  facet normal 0.707107 0 -0.707107
    outer loop
      vertex 52 102 30.32
      vertex 52 -102 30.32
      vertex 50.08 100.08 28.4
    endloop
  endfacet
  facet normal 0 -0.707107 -0.707107
    outer loop
      vertex -50.08 -100.08 28.4
      vertex 50.08 -100.08 28.4
      vertex -52 -102 30.32
    endloop
  endfacet
  facet normal 0 -0.707107 -0.707107
    outer loop
      vertex -52 -102 30.32
      vertex 50.08 -100.08 28.4
      vertex 52 -102 30.32
    endloop
  endfacet
  facet normal -0.707107 0 -0.707107
    outer loop
      vertex -52 -102 30.32
      vertex -52 102 30.32
      vertex -50.08 100.08 28.4
    endloop
  endfacet
  facet normal -0.707107 0 -0.707107
    outer loop
      vertex -52 -102 30.32
      vertex -50.08 100.08 28.4
      vertex -50.08 -100.08 28.4
    endloop
  endfacet
  facet normal -1 0 0
    outer loop
      vertex -52 -102 30.32
      vertex -52 -102 31.6
      vertex -52 102 30.32
    endloop
  endfacet
  facet normal -1 0 0
    outer loop
      vertex -52 102 30.32
      vertex -52 -102 31.6
      vertex -52 102 31.6
    endloop
  endfacet
  facet normal -0 0 1
    outer loop
      vertex 50.4 -100.4 31.6
      vertex 52 -102 31.6
      vertex 52 102 31.6
    endloop
  endfacet
  facet normal 0 0 1
    outer loop
      vertex -52 -102 31.6
      vertex 52 -102 31.6
      vertex 50.4 -100.4 31.6
    endloop
  endfacet
  facet normal 0 -0 1
    outer loop
      vertex -50.4 -100.4 31.6
      vertex -50.4 100.4 31.6
      vertex -52 -102 31.6
    endloop
  endfacet
  facet normal 0 0 1
    outer loop
      vertex -52 -102 31.6
      vertex 50.4 -100.4 31.6
      vertex -50.4 -100.4 31.6
    endloop
  endfacet
  facet normal -0 0 1
    outer loop
      vertex -52 102 31.6
      vertex -50.4 100.4 31.6
      vertex 52 102 31.6
    endloop
  endfacet
  facet normal 0 0 1
    outer loop
      vertex -52 102 31.6
      vertex -52 -102 31.6
      vertex -50.4 100.4 31.6
    endloop
  endfacet
  facet normal 0 0 1
    outer loop
      vertex -50.4 100.4 31.6
      vertex 50.4 100.4 31.6
      vertex 52 102 31.6
    endloop
  endfacet
  facet normal -0 0 1
    outer loop
      vertex 50.4 100.4 31.6
      vertex 50.4 -100.4 31.6
      vertex 52 102 31.6
    endloop
  endfacet
  facet normal 0 1 0
    outer loop
      vertex -52 102 30.32
      vertex 52 102 31.6
      vertex 52 102 30.32
    endloop
  endfacet
  facet normal -0 1 0
    outer loop
      vertex -52 102 31.6
      vertex 52 102 31.6
      vertex -52 102 30.32
    endloop
  endfacet
  facet normal 0 0.707107 -0.707107
    outer loop
      vertex -52 102 30.32
      vertex 52 102 30.32
      vertex -50.08 100.08 28.4
    endloop
  endfacet
  facet normal 0 0.707107 -0.707107
    outer loop
      vertex -50.08 100.08 28.4
      vertex 52 102 30.32
      vertex 50.08 100.08 28.4
    endloop
  endfacet
  facet normal -0 0 -1
    outer loop
      vertex -50 100 28.4
      vertex -50.08 -100.08 28.4
      vertex -50.08 100.08 28.4
    endloop
  endfacet
  facet normal 0 0 -1
    outer loop
      vertex 50.08 -100.08 28.4
      vertex -50.08 -100.08 28.4
      vertex -50 -100 28.4
    endloop
  endfacet
  facet normal 0 0 -1
    outer loop
      vertex 50.08 -100.08 28.4
      vertex -50 -100 28.4
      vertex 50 -100 28.4
    endloop
  endfacet
  facet normal 0 0 -1
    outer loop
      vertex 50.08 -100.08 28.4
      vertex 50 -100 28.4
      vertex 50.08 100.08 28.4
    endloop
  endfacet
  facet normal -0 0 -1
    outer loop
      vertex -50 -100 28.4
      vertex -50.08 -100.08 28.4
      vertex -50 100 28.4
    endloop
  endfacet
  facet normal -0 0 -1
    outer loop
      vertex 50.08 100.08 28.4
      vertex 50 100 28.4
      vertex -50.08 100.08 28.4
    endloop
  endfacet
  facet normal 0 0 -1
    outer loop
      vertex 50 100 28.4
      vertex -50 100 28.4
      vertex -50.08 100.08 28.4
    endloop
  endfacet
  facet normal 0 0 -1
    outer loop
      vertex 50 100 28.4
      vertex 50.08 100.08 28.4
      vertex 50 -100 28.4
    endloop
  endfacet
  facet normal 0 1 0
    outer loop
      vertex -50.4 -100.4 30.1
      vertex -50.4 -100.4 31.6
      vertex 50.4 -100.4 31.6
    endloop
  endfacet
  facet normal 0 1 -0
    outer loop
      vertex 50.4 -100.4 30.1
      vertex -50.4 -100.4 30.1
      vertex 50.4 -100.4 31.6
    endloop
  endfacet
  facet normal -1 -0 -0
    outer loop
      vertex 50.4 100.4 31.6
      vertex 50.4 100.4 30.1
      vertex 50.4 -100.4 31.6
    endloop
  endfacet
  facet normal -1 0 0
    outer loop
      vertex 50.4 -100.4 31.6
      vertex 50.4 100.4 30.1
      vertex 50.4 -100.4 30.1
    endloop
  endfacet
  facet normal 0 -1 0
    outer loop
      vertex -50.4 100.4 31.6
      vertex -50.4 100.4 30.1
      vertex 50.4 100.4 31.6
    endloop
  endfacet
  facet normal 0 -1 -0
    outer loop
      vertex 50.4 100.4 31.6
      vertex -50.4 100.4 30.1
      vertex 50.4 100.4 30.1
    endloop
  endfacet
  facet normal 1 0 -0
    outer loop
      vertex -50.4 100.4 30.1
      vertex -50.4 100.4 31.6
      vertex -50.4 -100.4 31.6
    endloop
  endfacet
  facet normal 1 0 0
    outer loop
      vertex -50.4 -100.4 30.1
      vertex -50.4 100.4 30.1
      vertex -50.4 -100.4 31.6
    endloop
  endfacet
  facet normal 0 -1 0
    outer loop
      vertex 50 -100 0
      vertex 50 -100 28.4
      vertex -50 -100 0
    endloop
  endfacet
  facet normal 0 -1 0
    outer loop
      vertex -50 -100 0
      vertex 50 -100 28.4
      vertex -50 -100 28.4
    endloop
  endfacet
  facet normal -1 0 0
    outer loop
      vertex -50 -100 0
      vertex -50 -100 28.4
      vertex -50 100 0
    endloop
  endfacet
  facet normal -1 0 0
    outer loop
      vertex -50 100 0
      vertex -50 -100 28.4
      vertex -50 -100 30
    endloop
  endfacet
  facet normal -1 0 0
    outer loop
      vertex -50 100 28.4
      vertex -50 -100 30
      vertex -50 100 30
    endloop
  endfacet
  facet normal -1 0 0
    outer loop
      vertex -50 100 0
      vertex -50 -100 30
      vertex -50 100 28.4
    endloop
  endfacet
  facet normal 0 1 0
    outer loop
      vertex 50 -100 30.1
      vertex -50 -100 30
      vertex -50 -100 30.1
    endloop
  endfacet
  facet normal 0 0 0
    outer loop
      vertex -50 -100 30.1
      vertex -50 -100 30
      vertex -50 -100 28.4
    endloop
  endfacet
  facet normal 0 1 -0
    outer loop
      vertex 50 -100 30
      vertex -50 -100 30
      vertex 50 -100 30.1
    endloop
  endfacet
  facet normal 1 0 -0
    outer loop
      vertex -50 100 28.4
      vertex -50 100 30.1
      vertex -50 -100 30.1
    endloop
  endfacet
  facet normal 1 0 0
    outer loop
      vertex -50 -100 28.4
      vertex -50 100 28.4
      vertex -50 -100 30.1
    endloop
  endfacet
  facet normal 0 -1 0
    outer loop
      vertex 50 100 30
      vertex 50 100 30.1
      vertex -50 100 30
    endloop
  endfacet
  facet normal 0 0 0
    outer loop
      vertex -50 100 30.1
      vertex -50 100 28.4
      vertex -50 100 30
    endloop
  endfacet
  facet normal 0 -1 0
    outer loop
      vertex -50 100 30.1
      vertex -50 100 30
      vertex 50 100 30.1
    endloop
  endfacet
  facet normal 0 1 0
    outer loop
      vertex 50 100 28.4
      vertex 50 100 0
      vertex -50 100 0
    endloop
  endfacet
  facet normal -0 1 0
    outer loop
      vertex -50 100 28.4
      vertex 50 100 28.4
      vertex -50 100 0
    endloop
  endfacet
  facet normal 1 0 0
    outer loop
      vertex 50 -100 28.4
      vertex 50 -100 0
      vertex 50 100 0
    endloop
  endfacet
  facet normal 1 0 0
    outer loop
      vertex 50 100 28.4
      vertex 50 -100 28.4
      vertex 50 100 0
    endloop
  endfacet
  facet normal 0 0 1
    outer loop
      vertex -50 100 30.1
      vertex -50.4 100.4 30.1
      vertex -50.4 -100.4 30.1
    endloop
  endfacet
  facet normal 0 0 1
    outer loop
      vertex 50.4 -100.4 30.1
      vertex -50 -100 30.1
      vertex -50.4 -100.4 30.1
    endloop
  endfacet
  facet normal 0 0 1
    outer loop
      vertex 50.4 100.4 30.1
      vertex -50.4 100.4 30.1
      vertex -50 100 30.1
    endloop
  endfacet
  facet normal -0 0 1
    outer loop
      vertex 50 100 30.1
      vertex 50 -100 30.1
      vertex 50.4 100.4 30.1
    endloop
  endfacet
  facet normal 0 0 1
    outer loop
      vertex 50.4 100.4 30.1
      vertex -50 100 30.1
      vertex 50 100 30.1
    endloop
  endfacet
  facet normal 0 0 1
    outer loop
      vertex 50.4 -100.4 30.1
      vertex 50 -100 30.1
      vertex -50 -100 30.1
    endloop
  endfacet
  facet normal 0 -0 1
    outer loop
      vertex 50.4 -100.4 30.1
      vertex 50.4 100.4 30.1
      vertex 50 -100 30.1
    endloop
  endfacet
  facet normal 0 -0 1
    outer loop
      vertex -50 -100 30.1
      vertex -50 100 30.1
      vertex -50.4 -100.4 30.1
    endloop
  endfacet
  facet normal 0 0 -1
    outer loop
      vertex 50 -100 0
      vertex -50 -100 0
      vertex 50 100 0
    endloop
  endfacet
  facet normal -0 0 -1
    outer loop
      vertex 50 100 0
      vertex -50 -100 0
      vertex -50 100 0
    endloop
  endfacet
  facet normal -0 0 1
    outer loop
      vertex 48.4 -98.4 30
      vertex 50 -100 30
      vertex 50 100 30
    endloop
  endfacet
  facet normal -0 0 1
    outer loop
      vertex 48.4 -60.32 30
      vertex 48.4 -98.4 30
      vertex 50 100 30
    endloop
  endfacet
  facet normal 0 0 1
    outer loop
      vertex -50 -100 30
      vertex 50 -100 30
      vertex 48.4 -98.4 30
    endloop
  endfacet
  facet normal 0 0 1
    outer loop
      vertex -50 -100 30
      vertex 48.4 -98.4 30
      vertex -18.4 -98.4 30
    endloop
  endfacet
  facet normal 0 0 1
    outer loop
      vertex -50 -100 30
      vertex -18.4 -98.4 30
      vertex -46.8 -98.4 30
    endloop
  endfacet
  facet normal 0 0 1
    outer loop
      vertex -50 100 30
      vertex -50 -100 30
      vertex -46.8 -60.32 30
    endloop
  endfacet
  facet normal -0 0 1
    outer loop
      vertex 48.4 -58.72 30
      vertex 48.4 -60.32 30
      vertex 50 100 30
    endloop
  endfacet
  facet normal -0 0 1
    outer loop
      vertex 48.4 -20.64 30
      vertex 48.4 -58.72 30
      vertex 50 100 30
    endloop
  endfacet
  facet normal 0 0 1
    outer loop
      vertex 48.4 -19.04 30
      vertex -46.8 -19.04 30
      vertex -46.8 -20.64 30
    endloop
  endfacet
  facet normal 0 0 1
    outer loop
      vertex -50 100 30
      vertex -46.8 -60.32 30
      vertex -46.8 -58.72 30
    endloop
  endfacet
  facet normal 0 0 1
    outer loop
      vertex -50 100 30
      vertex -46.8 -58.72 30
      vertex -46.8 -20.64 30
    endloop
  endfacet
  facet normal -0 0 1
    outer loop
      vertex 48.4 -19.04 30
      vertex 48.4 -20.64 30
      vertex 50 100 30
    endloop
  endfacet
  facet normal -0 0 1
    outer loop
      vertex 48.4 19.04 30
      vertex 48.4 -19.04 30
      vertex 50 100 30
    endloop
  endfacet
  facet normal 0 0 1
    outer loop
      vertex 48.4 60.32 30
      vertex -46.8 60.32 30
      vertex -46.8 58.72 30
    endloop
  endfacet
  facet normal 0 0 1
    outer loop
      vertex 48.4 20.64 30
      vertex -46.8 20.64 30
      vertex -46.8 19.04 30
    endloop
  endfacet
  facet normal 0 0 1
    outer loop
      vertex -50 100 30
      vertex -46.8 -20.64 30
      vertex -46.8 -19.04 30
    endloop
  endfacet
  facet normal 0 0 1
    outer loop
      vertex -50 100 30
      vertex -46.8 -19.04 30
      vertex -46.8 19.04 30
    endloop
  endfacet
  facet normal -0 0 1
    outer loop
      vertex 48.4 20.64 30
      vertex 48.4 19.04 30
      vertex 50 100 30
    endloop
  endfacet
  facet normal -0 0 1
    outer loop
      vertex 48.4 58.72 30
      vertex 48.4 20.64 30
      vertex 50 100 30
    endloop
  endfacet
  facet normal 0 0 1
    outer loop
      vertex -50 100 30
      vertex -46.8 19.04 30
      vertex -46.8 20.64 30
    endloop
  endfacet
  facet normal 0 0 1
    outer loop
      vertex -50 100 30
      vertex -46.8 20.64 30
      vertex -46.8 58.72 30
    endloop
  endfacet
  facet normal -0 0 1
    outer loop
      vertex 48.4 60.32 30
      vertex 48.4 58.72 30
      vertex 50 100 30
    endloop
  endfacet
  facet normal 0 0 1
    outer loop
      vertex 48.4 -58.72 30
      vertex -46.8 -58.72 30
      vertex -46.8 -60.32 30
    endloop
  endfacet
  facet normal 0 0 1
    outer loop
      vertex -50 100 30
      vertex -46.8 58.72 30
      vertex -46.8 60.32 30
    endloop
  endfacet
  facet normal -0 0 1
    outer loop
      vertex -50 100 30
      vertex -46.8 98.4 30
      vertex 50 100 30
    endloop
  endfacet
  facet normal 0 0 1
    outer loop
      vertex -50 100 30
      vertex -46.8 60.32 30
      vertex -46.8 98.4 30
    endloop
  endfacet
  facet normal 0 0 1
    outer loop
      vertex -46.8 98.4 30
      vertex 10 98.4 30
      vertex 50 100 30
    endloop
  endfacet
  facet normal 0 0 1
    outer loop
      vertex 10 98.4 30
      vertex 48.4 98.4 30
      vertex 50 100 30
    endloop
  endfacet
  facet normal 0 -0 1
    outer loop
      vertex -46.8 -98.4 30
      vertex -46.8 -60.32 30
      vertex -50 -100 30
    endloop
  endfacet
  facet normal -0 0 1
    outer loop
      vertex 48.4 98.4 30
      vertex 48.4 60.32 30
      vertex 50 100 30
    endloop
  endfacet
  facet normal 0 0 1
    outer loop
      vertex -46.8 58.72 30
      vertex 48.4 58.72 30
      vertex 48.4 60.32 30
    endloop
  endfacet
  facet normal 0 0 1
    outer loop
      vertex -46.8 19.04 30
      vertex 48.4 19.04 30
      vertex 48.4 20.64 30
    endloop
  endfacet
  facet normal 0 0 1
    outer loop
      vertex -46.8 -20.64 30
      vertex 48.4 -20.64 30
      vertex 48.4 -19.04 30
    endloop
  endfacet
  facet normal 0 0 1
    outer loop
      vertex -46.8 -60.32 30
      vertex 48.4 -60.32 30
      vertex 48.4 -58.72 30
    endloop
  endfacet
  facet normal -1 -0 -0
    outer loop
      vertex 50 100 30.1
      vertex 50 100 30
      vertex 50 -100 30.1
    endloop
  endfacet
  facet normal -1 0 0
    outer loop
      vertex 50 -100 30.1
      vertex 50 100 30
      vertex 50 -100 30
    endloop
  endfacet
  facet normal 0 1 0
    outer loop
      vertex -18.4 -98.4 1.65
      vertex -18.4 -98.4 30
      vertex 48.4 -98.4 30
    endloop
  endfacet
  facet normal 0 1 -0
    outer loop
      vertex 48.4 -98.4 1.65
      vertex -18.4 -98.4 1.65
      vertex 48.4 -98.4 30
    endloop
  endfacet
  facet normal -1 -0 -0
    outer loop
      vertex 48.4 -60.32 30
      vertex 48.4 -60.32 1.65
      vertex 48.4 -98.4 30
    endloop
  endfacet
  facet normal -1 0 0
    outer loop
      vertex 48.4 -98.4 30
      vertex 48.4 -60.32 1.65
      vertex 48.4 -98.4 1.65
    endloop
  endfacet
  facet normal 0 -1 0
    outer loop
      vertex 48.4 -60.32 1.65
      vertex 48.4 -60.32 30
      vertex -18.35 -60.32 1.65
    endloop
  endfacet
  facet normal 0 -1 0
    outer loop
      vertex -18.35 -60.32 1.65
      vertex 48.4 -60.32 30
      vertex -46.8 -60.32 30
    endloop
  endfacet
  facet normal -0 -1 0
    outer loop
      vertex -18.35 -60.32 1.65
      vertex -46.8 -60.32 30
      vertex -18.4 -60.32 1.6
    endloop
  endfacet
  facet normal 0.707107 -0 0.707107
    outer loop
      vertex -18.4 -98.4 1.6
      vertex -18.4 -60.32 1.6
      vertex -46.8 -60.32 30
    endloop
  endfacet
  facet normal 0.707107 -0 0.707107
    outer loop
      vertex -46.8 -98.4 30
      vertex -18.4 -98.4 1.6
      vertex -46.8 -60.32 30
    endloop
  endfacet
  facet normal -0 1 0
    outer loop
      vertex -18.4 -98.4 1.65
      vertex -18.35 -98.4 1.65
      vertex -18.4 -98.4 1.6
    endloop
  endfacet
  facet normal 0 1 0
    outer loop
      vertex -46.8 -98.4 30
      vertex -18.4 -98.4 1.65
      vertex -18.4 -98.4 1.6
    endloop
  endfacet
  facet normal 0 1 0
    outer loop
      vertex -18.4 -98.4 30
      vertex -18.4 -98.4 1.65
      vertex -46.8 -98.4 30
    endloop
  endfacet
  facet normal 0 1 0
    outer loop
      vertex 48.4 -58.72 30
      vertex 48.4 -58.72 1.65
      vertex -18.35 -58.72 1.65
    endloop
  endfacet
  facet normal -0 1 0
    outer loop
      vertex -46.8 -58.72 30
      vertex 48.4 -58.72 30
      vertex -18.35 -58.72 1.65
    endloop
  endfacet
  facet normal 0 1 -0
    outer loop
      vertex -18.4 -58.72 1.6
      vertex -46.8 -58.72 30
      vertex -18.35 -58.72 1.65
    endloop
  endfacet
  facet normal -1 -0 -0
    outer loop
      vertex 48.4 -20.64 30
      vertex 48.4 -20.64 1.65
      vertex 48.4 -58.72 30
    endloop
  endfacet
  facet normal -1 0 0
    outer loop
      vertex 48.4 -58.72 30
      vertex 48.4 -20.64 1.65
      vertex 48.4 -58.72 1.65
    endloop
  endfacet
  facet normal 0 -1 0
    outer loop
      vertex 48.4 -20.64 1.65
      vertex 48.4 -20.64 30
      vertex -18.35 -20.64 1.65
    endloop
  endfacet
  facet normal 0 -1 0
    outer loop
      vertex -18.35 -20.64 1.65
      vertex 48.4 -20.64 30
      vertex -46.8 -20.64 30
    endloop
  endfacet
  facet normal -0 -1 0
    outer loop
      vertex -18.35 -20.64 1.65
      vertex -46.8 -20.64 30
      vertex -18.4 -20.64 1.6
    endloop
  endfacet
  facet normal 0.707107 0 0.707107
    outer loop
      vertex -18.4 -20.64 1.6
      vertex -46.8 -20.64 30
      vertex -46.8 -58.72 30
    endloop
  endfacet
  facet normal 0.707107 -0 0.707107
    outer loop
      vertex -18.4 -58.72 1.6
      vertex -18.4 -20.64 1.6
      vertex -46.8 -58.72 30
    endloop
  endfacet
  facet normal 0 1 0
    outer loop
      vertex 48.4 -19.04 30
      vertex 48.4 -19.04 1.65
      vertex -18.35 -19.04 1.65
    endloop
  endfacet
  facet normal -0 1 0
    outer loop
      vertex -46.8 -19.04 30
      vertex 48.4 -19.04 30
      vertex -18.35 -19.04 1.65
    endloop
  endfacet
  facet normal 0 1 -0
    outer loop
      vertex -18.4 -19.04 1.6
      vertex -46.8 -19.04 30
      vertex -18.35 -19.04 1.65
    endloop
  endfacet
  facet normal -1 -0 -0
    outer loop
      vertex 48.4 19.04 30
      vertex 48.4 19.04 1.65
      vertex 48.4 -19.04 30
    endloop
  endfacet
  facet normal -1 0 0
    outer loop
      vertex 48.4 -19.04 30
      vertex 48.4 19.04 1.65
      vertex 48.4 -19.04 1.65
    endloop
  endfacet
  facet normal 0 -1 0
    outer loop
      vertex 48.4 19.04 1.65
      vertex 48.4 19.04 30
      vertex -18.35 19.04 1.65
    endloop
  endfacet
  facet normal 0 -1 0
    outer loop
      vertex -18.35 19.04 1.65
      vertex 48.4 19.04 30
      vertex -46.8 19.04 30
    endloop
  endfacet
  facet normal -0 -1 0
    outer loop
      vertex -18.35 19.04 1.65
      vertex -46.8 19.04 30
      vertex -18.4 19.04 1.6
    endloop
  endfacet
  facet normal 0.707107 0 0.707107
    outer loop
      vertex -18.4 19.04 1.6
      vertex -46.8 19.04 30
      vertex -46.8 -19.04 30
    endloop
  endfacet
  facet normal 0.707107 -0 0.707107
    outer loop
      vertex -18.4 -19.04 1.6
      vertex -18.4 19.04 1.6
      vertex -46.8 -19.04 30
    endloop
  endfacet
  facet normal 0 1 0
    outer loop
      vertex 48.4 20.64 30
      vertex 48.4 20.64 1.65
      vertex -18.35 20.64 1.65
    endloop
  endfacet
  facet normal -0 1 0
    outer loop
      vertex -46.8 20.64 30
      vertex 48.4 20.64 30
      vertex -18.35 20.64 1.65
    endloop
  endfacet
  facet normal 0 1 -0
    outer loop
      vertex -18.4 20.64 1.6
      vertex -46.8 20.64 30
      vertex -18.35 20.64 1.65
    endloop
  endfacet
  facet normal -1 -0 -0
    outer loop
      vertex 48.4 58.72 30
      vertex 48.4 58.72 1.65
      vertex 48.4 20.64 30
    endloop
  endfacet
  facet normal -1 0 0
    outer loop
      vertex 48.4 20.64 30
      vertex 48.4 58.72 1.65
      vertex 48.4 20.64 1.65
    endloop
  endfacet
  facet normal 0 -1 0
    outer loop
      vertex 48.4 58.72 1.65
      vertex 48.4 58.72 30
      vertex -18.35 58.72 1.65
    endloop
  endfacet
  facet normal 0 -1 0
    outer loop
      vertex -18.35 58.72 1.65
      vertex 48.4 58.72 30
      vertex -46.8 58.72 30
    endloop
  endfacet
  facet normal -0 -1 0
    outer loop
      vertex -18.35 58.72 1.65
      vertex -46.8 58.72 30
      vertex -18.4 58.72 1.6
    endloop
  endfacet
  facet normal 0.707107 0 0.707107
    outer loop
      vertex -18.4 58.72 1.6
      vertex -46.8 58.72 30
      vertex -46.8 20.64 30
    endloop
  endfacet
  facet normal 0.707107 -0 0.707107
    outer loop
      vertex -18.4 20.64 1.6
      vertex -18.4 58.72 1.6
      vertex -46.8 20.64 30
    endloop
  endfacet
  facet normal 0 1 0
    outer loop
      vertex 48.4 60.32 30
      vertex 48.4 60.32 1.65
      vertex -18.35 60.32 1.65
    endloop
  endfacet
  facet normal -0 1 0
    outer loop
      vertex -46.8 60.32 30
      vertex 48.4 60.32 30
      vertex -18.35 60.32 1.65
    endloop
  endfacet
  facet normal 0 1 -0
    outer loop
      vertex -18.4 60.32 1.6
      vertex -46.8 60.32 30
      vertex -18.35 60.32 1.65
    endloop
  endfacet
  facet normal -1 -0 -0
    outer loop
      vertex 48.4 98.4 30
      vertex 48.4 98.4 1.65
      vertex 48.4 60.32 30
    endloop
  endfacet
  facet normal -1 0 0
    outer loop
      vertex 48.4 60.32 30
      vertex 48.4 98.4 1.65
      vertex 48.4 60.32 1.65
    endloop
  endfacet
  facet normal 0 -1 -0
    outer loop
      vertex 10 98.4 30
      vertex -18.35 98.4 1.65
      vertex 48.4 98.4 30
    endloop
  endfacet
  facet normal 0 -1 -0
    outer loop
      vertex 48.4 98.4 30
      vertex -18.35 98.4 1.65
      vertex 48.4 98.4 1.65
    endloop
  endfacet
  facet normal -0 1 0
    outer loop
      vertex -18.35 98.4 1.65
      vertex 10 98.4 30
      vertex -18.4 98.4 1.6
    endloop
  endfacet
  facet normal -0.707107 0 0.707107
    outer loop
      vertex -18.35 98.4 1.65
      vertex -18.4 98.4 1.6
      vertex -18.4 60.32 1.6
    endloop
  endfacet
  facet normal -0.707107 0 0.707107
    outer loop
      vertex -18.35 98.4 1.65
      vertex -18.4 60.32 1.6
      vertex -18.35 60.32 1.65
    endloop
  endfacet
  facet normal 0 -1 0
    outer loop
      vertex -46.8 98.4 30
      vertex -18.4 98.4 1.6
      vertex 10 98.4 30
    endloop
  endfacet
  facet normal 0.707107 0 0.707107
    outer loop
      vertex -18.4 98.4 1.6
      vertex -46.8 98.4 30
      vertex -46.8 60.32 30
    endloop
  endfacet
  facet normal 0.707107 -0 0.707107
    outer loop
      vertex -18.4 60.32 1.6
      vertex -18.4 98.4 1.6
      vertex -46.8 60.32 30
    endloop
  endfacet
  facet normal 0 0 1
    outer loop
      vertex 48.4 -60.32 1.65
      vertex -18.35 -60.32 1.65
      vertex -18.35 -98.4 1.65
    endloop
  endfacet
  facet normal 0 -0 1
    outer loop
      vertex 48.4 -98.4 1.65
      vertex 48.4 -60.32 1.65
      vertex -18.35 -98.4 1.65
    endloop
  endfacet
  facet normal 0 0 0
    outer loop
      vertex -18.4 -98.4 1.65
      vertex 48.4 -98.4 1.65
      vertex -18.35 -98.4 1.65
    endloop
  endfacet
  facet normal -0.707107 0 0.707107
    outer loop
      vertex -18.4 -60.32 1.6
      vertex -18.4 -98.4 1.6
      vertex -18.35 -60.32 1.65
    endloop
  endfacet
  facet normal -0.707107 0 0.707107
    outer loop
      vertex -18.35 -60.32 1.65
      vertex -18.4 -98.4 1.6
      vertex -18.35 -98.4 1.65
    endloop
  endfacet
  facet normal -0.707107 0 0.707107
    outer loop
      vertex -18.4 -20.64 1.6
      vertex -18.4 -58.72 1.6
      vertex -18.35 -20.64 1.65
    endloop
  endfacet
  facet normal -0.707107 0 0.707107
    outer loop
      vertex -18.35 -20.64 1.65
      vertex -18.4 -58.72 1.6
      vertex -18.35 -58.72 1.65
    endloop
  endfacet
  facet normal 0 0 1
    outer loop
      vertex 48.4 -20.64 1.65
      vertex -18.35 -20.64 1.65
      vertex -18.35 -58.72 1.65
    endloop
  endfacet
  facet normal 0 -0 1
    outer loop
      vertex 48.4 -58.72 1.65
      vertex 48.4 -20.64 1.65
      vertex -18.35 -58.72 1.65
    endloop
  endfacet
  facet normal -0.707107 0 0.707107
    outer loop
      vertex -18.4 19.04 1.6
      vertex -18.4 -19.04 1.6
      vertex -18.35 19.04 1.65
    endloop
  endfacet
  facet normal -0.707107 0 0.707107
    outer loop
      vertex -18.35 19.04 1.65
      vertex -18.4 -19.04 1.6
      vertex -18.35 -19.04 1.65
    endloop
  endfacet
  facet normal 0 0 1
    outer loop
      vertex 48.4 19.04 1.65
      vertex -18.35 19.04 1.65
      vertex -18.35 -19.04 1.65
    endloop
  endfacet
  facet normal 0 -0 1
    outer loop
      vertex 48.4 -19.04 1.65
      vertex 48.4 19.04 1.65
      vertex -18.35 -19.04 1.65
    endloop
  endfacet
  facet normal -0.707107 0 0.707107
    outer loop
      vertex -18.4 58.72 1.6
      vertex -18.4 20.64 1.6
      vertex -18.35 58.72 1.65
    endloop
  endfacet
  facet normal -0.707107 0 0.707107
    outer loop
      vertex -18.35 58.72 1.65
      vertex -18.4 20.64 1.6
      vertex -18.35 20.64 1.65
    endloop
  endfacet
  facet normal 0 0 1
    outer loop
      vertex 48.4 58.72 1.65
      vertex -18.35 58.72 1.65
      vertex -18.35 20.64 1.65
    endloop
  endfacet
  facet normal 0 -0 1
    outer loop
      vertex 48.4 20.64 1.65
      vertex 48.4 58.72 1.65
      vertex -18.35 20.64 1.65
    endloop
  endfacet
  facet normal 0 0 1
    outer loop
      vertex 48.4 98.4 1.65
      vertex -18.35 98.4 1.65
      vertex -18.35 60.32 1.65
    endloop
  endfacet
  facet normal 0 -0 1
    outer loop
      vertex 48.4 60.32 1.65
      vertex 48.4 98.4 1.65
      vertex -18.35 60.32 1.65
    endloop
  endfacet
endsolid OpenSCAD_Model
