solid Type XXI U-Boot
facet normal -0.4705027403602314 2.236688531631683e-14 0.8823985331546699
  outer loop
    vertex 34330.57352316566 -39501.026183090864 81.04046320179326
    vertex 34321.35807159064 -39491.026183090864 76.12670251794393
    vertex 34321.35807159064 -39501.026183090864 76.12670251794411
  endloop
endfacet
facet normal -0.4705027403602314 2.236688531631683e-14 0.8823985331546699
  outer loop
    vertex 34321.35807159064 -39491.026183090864 76.12670251794393
    vertex 34330.57352316566 -39501.026183090864 81.04046320179326
    vertex 34330.57352316566 -39491.026183090864 81.04046320179307
  endloop
endfacet
facet normal -0.6758923838136318 2.226121837392548e-14 0.737000329377624
  outer loop
    vertex 34332.05363073705 -39501.026183090864 82.39784853101065
    vertex 34330.57352316566 -39491.026183090864 81.04046320179307
    vertex 34330.57352316566 -39501.026183090864 81.04046320179326
  endloop
endfacet
facet normal -0.6758923838136318 2.226121837392548e-14 0.737000329377624
  outer loop
    vertex 34330.57352316566 -39491.026183090864 81.04046320179307
    vertex 34332.05363073705 -39501.026183090864 82.39784853101065
    vertex 34332.05363073705 -39491.026183090864 82.39784853101047
  endloop
endfacet
facet normal 1.0 0.0 0.0
  outer loop
    vertex 34391.63873923624 -39491.02618309086 141.07900008524433
    vertex 34391.63873923624 -39501.02618309086 169.24804774416575
    vertex 34391.63873923624 -39501.02618309086 141.07900008524433
  endloop
endfacet
facet normal 1.0 0.0 0.0
  outer loop
    vertex 34391.63873923624 -39501.02618309086 169.24804774416575
    vertex 34391.63873923624 -39491.02618309086 141.07900008524433
    vertex 34391.63873923624 -39491.02618309086 169.24804774416558
  endloop
endfacet
facet normal -0.7960963408444905 2.133003729915277e-14 0.6051699067980935
  outer loop
    vertex 34365.25720020742 -39501.02618309085 118.34465818311548
    vertex 34346.70570344869 -39491.02618309086 93.94030740342532
    vertex 34346.70570344869 -39501.02618309086 93.94030740342549
  endloop
endfacet
facet normal -0.7960963408444905 2.133003729915277e-14 0.6051699067980935
  outer loop
    vertex 34346.70570344869 -39491.02618309086 93.94030740342532
    vertex 34365.25720020742 -39501.02618309085 118.34465818311548
    vertex 34365.25720020742 -39491.02618309085 118.34465818311531
  endloop
endfacet
facet normal -0.47050230459854453 2.2366884124416008e-14 0.882398765506536
  outer loop
    vertex 34321.35807159064 -39501.026183090864 76.12670251794411
    vertex 34319.40691102304 -39491.026183090864 75.08632759949843
    vertex 34319.40691102304 -39501.026183090864 75.08632759949862
  endloop
endfacet
facet normal -0.47050230459854453 2.2366884124416008e-14 0.882398765506536
  outer loop
    vertex 34319.40691102304 -39491.026183090864 75.08632759949843
    vertex 34321.35807159064 -39501.026183090864 76.12670251794411
    vertex 34321.35807159064 -39491.026183090864 76.12670251794393
  endloop
endfacet
facet normal -0.8794430165682167 1.998205261857819e-14 0.47600418129402555
  outer loop
    vertex 34378.08960279392 -39491.02618309086 141.07900008525928
    vertex 34376.479187534605 -39501.02618309086 138.10367232714975
    vertex 34378.08960279392 -39501.02618309086 141.07900008525945
  endloop
endfacet
facet normal -0.8794430165682167 1.998205261857819e-14 0.47600418129402555
  outer loop
    vertex 34376.479187534605 -39501.02618309086 138.10367232714975
    vertex 34378.08960279392 -39491.02618309086 141.07900008525928
    vertex 34376.479187534605 -39491.02618309086 138.10367232714958
  endloop
endfacet
facet normal -0.002592061630608339 1.863366438860605e-14 0.9999966406026088
  outer loop
    vertex 34339.64120114104 -39501.02618309086 88.81041793500103
    vertex 34339.044289265315 -39491.02618309086 88.80887069743314
    vertex 34339.044289265315 -39501.02618309086 88.8088706974333
  endloop
endfacet
facet normal -0.002592061630608339 1.863366438860605e-14 0.9999966406026088
  outer loop
    vertex 34339.044289265315 -39491.02618309086 88.80887069743314
    vertex 34339.64120114104 -39501.02618309086 88.81041793500103
    vertex 34339.64120114104 -39491.02618309086 88.81041793500084
  endloop
endfacet
facet normal -0.976106966831677 1.639286549654624e-14 0.21729056422832502
  outer loop
    vertex 34379.169331699886 -39491.02618309086 145.9293299242026
    vertex 34378.08960279392 -39501.02618309086 141.07900008525945
    vertex 34379.169331699886 -39501.02618309086 145.92932992420276
  endloop
endfacet
facet normal -0.976106966831677 1.639286549654624e-14 0.21729056422832502
  outer loop
    vertex 34378.08960279392 -39501.02618309086 141.07900008525945
    vertex 34379.169331699886 -39491.02618309086 145.9293299242026
    vertex 34378.08960279392 -39491.02618309086 141.07900008525928
  endloop
endfacet
facet normal 0.0 1.8600928517473024e-14 1.0
  outer loop
    vertex 34391.63873923624 -39501.02618309086 169.24804774416575
    vertex 34384.23873923624 -39491.02618309086 169.24804774416558
    vertex 34384.23873923624 -39501.02618309086 169.24804774416575
  endloop
endfacet
facet normal 0.0 1.8600928517473024e-14 1.0
  outer loop
    vertex 34384.23873923624 -39491.02618309086 169.24804774416558
    vertex 34391.63873923624 -39501.02618309086 169.24804774416575
    vertex 34391.63873923624 -39491.02618309086 169.24804774416558
  endloop
endfacet
facet normal -0.0025920616306301775 1.8633664388606326e-14 0.9999966406026087
  outer loop
    vertex 34342.46045606028 -39501.02618309086 88.81772564205365
    vertex 34339.64120114104 -39491.02618309086 88.81041793500084
    vertex 34339.64120114104 -39501.02618309086 88.81041793500103
  endloop
endfacet
facet normal -0.0025920616306301775 1.8633664388606326e-14 0.9999966406026087
  outer loop
    vertex 34339.64120114104 -39491.02618309086 88.81041793500084
    vertex 34342.46045606028 -39501.02618309086 88.81772564205365
    vertex 34342.46045606028 -39491.02618309086 88.81772564205347
  endloop
endfacet
facet normal -0.769960820662287 2.161170041431062e-14 0.6380911648385813
  outer loop
    vertex 34346.70570344869 -39491.02618309086 93.94030740342532
    vertex 34342.46045606028 -39501.02618309086 88.81772564205365
    vertex 34346.70570344869 -39501.02618309086 93.94030740342549
  endloop
endfacet
facet normal -0.769960820662287 2.161170041431062e-14 0.6380911648385813
  outer loop
    vertex 34342.46045606028 -39501.02618309086 88.81772564205365
    vertex 34346.70570344869 -39491.02618309086 93.94030740342532
    vertex 34342.46045606028 -39491.02618309086 88.81772564205347
  endloop
endfacet
facet normal -0.8738367018594445 2.0101128473581534e-14 0.48621951676522457
  outer loop
    vertex 34376.479187534605 -39491.02618309086 138.10367232714958
    vertex 34375.25323424061 -39501.02618309086 135.90038153745274
    vertex 34376.479187534605 -39501.02618309086 138.10367232714975
  endloop
endfacet
facet normal -0.8738367018594445 2.0101128473581534e-14 0.48621951676522457
  outer loop
    vertex 34375.25323424061 -39501.02618309086 135.90038153745274
    vertex 34376.479187534605 -39491.02618309086 138.10367232714958
    vertex 34375.25323424061 -39491.02618309086 135.90038153745257
  endloop
endfacet
facet normal -0.8645868783421463 2.028660951237023e-14 0.5024833627082422
  outer loop
    vertex 34370.601896136934 -39491.02618309086 127.54089095881531
    vertex 34365.25720020742 -39501.02618309085 118.34465818311548
    vertex 34370.601896136934 -39501.02618309086 127.5408909588155
  endloop
endfacet
facet normal -0.8645868783421463 2.028660951237023e-14 0.5024833627082422
  outer loop
    vertex 34365.25720020742 -39501.02618309085 118.34465818311548
    vertex 34370.601896136934 -39491.02618309086 127.54089095881531
    vertex 34365.25720020742 -39491.02618309085 118.34465818311531
  endloop
endfacet
facet normal -0.6758918081544254 2.2261220909844245e-14 0.7370008573059745
  outer loop
    vertex 34339.044289265315 -39501.02618309086 88.8088706974333
    vertex 34332.05363073705 -39491.026183090864 82.39784853101047
    vertex 34332.05363073705 -39501.026183090864 82.39784853101065
  endloop
endfacet
facet normal -0.6758918081544254 2.2261220909844245e-14 0.7370008573059745
  outer loop
    vertex 34332.05363073705 -39491.026183090864 82.39784853101047
    vertex 34339.044289265315 -39501.02618309086 88.8088706974333
    vertex 34339.044289265315 -39491.02618309086 88.80887069743314
  endloop
endfacet
facet normal -0.8738386089261783 2.0101088851466286e-14 0.4862160893573573
  outer loop
    vertex 34375.25323424061 -39491.02618309086 135.90038153745257
    vertex 34370.601896136934 -39501.02618309086 127.5408909588155
    vertex 34375.25323424061 -39501.02618309086 135.90038153745274
  endloop
endfacet
facet normal -0.8738386089261783 2.0101088851466286e-14 0.4862160893573573
  outer loop
    vertex 34370.601896136934 -39501.02618309086 127.5408909588155
    vertex 34375.25323424061 -39491.02618309086 135.90038153745257
    vertex 34370.601896136934 -39491.02618309086 127.54089095881531
  endloop
endfacet
facet normal -0.9771753108967451 1.6316056144286216e-14 0.2124344881930654
  outer loop
    vertex 34384.23873923624 -39491.02618309086 169.24804774416558
    vertex 34379.169331699886 -39501.02618309086 145.92932992420276
    vertex 34384.23873923624 -39501.02618309086 169.24804774416575
  endloop
endfacet
facet normal -0.9771753108967451 1.6316056144286216e-14 0.2124344881930654
  outer loop
    vertex 34379.169331699886 -39501.02618309086 145.92932992420276
    vertex 34384.23873923624 -39491.02618309086 169.24804774416558
    vertex 34379.169331699886 -39491.02618309086 145.9293299242026
  endloop
endfacet
facet normal -1.1995346892186739e-14 -1.0 1.7403386954406903e-14
  outer loop
    vertex 34342.46045606028 -39501.02618309086 49.24804774416388
    vertex 34319.40691102304 -39501.026183090864 75.08632759949862
    vertex 34310.87662458052 -39501.02618309086 75.08632759948262
  endloop
endfacet
facet normal -1.1995346892186739e-14 -1.0 1.7403386954406903e-14
  outer loop
    vertex 34319.40691102304 -39501.026183090864 75.08632759949862
    vertex 34342.46045606028 -39501.02618309086 49.24804774416388
    vertex 34321.35807159064 -39501.026183090864 76.12670251794411
  endloop
endfacet
facet normal -1.1995346892186739e-14 -1.0 1.7403386954406903e-14
  outer loop
    vertex 34321.35807159064 -39501.026183090864 76.12670251794411
    vertex 34342.46045606028 -39501.02618309086 49.24804774416388
    vertex 34330.57352316566 -39501.026183090864 81.04046320179326
  endloop
endfacet
facet normal -1.1995346892186739e-14 -1.0 1.7403386954406903e-14
  outer loop
    vertex 34330.57352316566 -39501.026183090864 81.04046320179326
    vertex 34342.46045606028 -39501.02618309086 49.24804774416388
    vertex 34342.46045606028 -39501.02618309086 88.81772564205365
  endloop
endfacet
facet normal -1.1995346892186739e-14 -1.0 1.7403386954406903e-14
  outer loop
    vertex 34342.46045606028 -39501.02618309086 88.81772564205365
    vertex 34342.46045606028 -39501.02618309086 49.24804774416388
    vertex 34391.63873923624 -39501.02618309086 141.07900008524433
  endloop
endfacet
facet normal -1.1995346892186739e-14 -1.0 1.7403386954406903e-14
  outer loop
    vertex 34330.57352316566 -39501.026183090864 81.04046320179326
    vertex 34342.46045606028 -39501.02618309086 88.81772564205365
    vertex 34332.05363073705 -39501.026183090864 82.39784853101065
  endloop
endfacet
facet normal -1.1995346892186739e-14 -1.0 1.7403386954406903e-14
  outer loop
    vertex 34332.05363073705 -39501.026183090864 82.39784853101065
    vertex 34342.46045606028 -39501.02618309086 88.81772564205365
    vertex 34339.64120114104 -39501.02618309086 88.81041793500103
  endloop
endfacet
facet normal -1.1995346892186739e-14 -1.0 1.7403386954406903e-14
  outer loop
    vertex 34332.05363073705 -39501.026183090864 82.39784853101065
    vertex 34339.64120114104 -39501.02618309086 88.81041793500103
    vertex 34339.044289265315 -39501.02618309086 88.8088706974333
  endloop
endfacet
facet normal -1.1995346892186739e-14 -1.0 1.7403386954406903e-14
  outer loop
    vertex 34342.46045606028 -39501.02618309086 88.81772564205365
    vertex 34391.63873923624 -39501.02618309086 141.07900008524433
    vertex 34346.70570344869 -39501.02618309086 93.94030740342549
  endloop
endfacet
facet normal -1.1995346892186739e-14 -1.0 1.7403386954406903e-14
  outer loop
    vertex 34346.70570344869 -39501.02618309086 93.94030740342549
    vertex 34391.63873923624 -39501.02618309086 141.07900008524433
    vertex 34365.25720020742 -39501.02618309085 118.34465818311548
  endloop
endfacet
facet normal -1.1995346892186739e-14 -1.0 1.7403386954406903e-14
  outer loop
    vertex 34365.25720020742 -39501.02618309085 118.34465818311548
    vertex 34391.63873923624 -39501.02618309086 141.07900008524433
    vertex 34370.601896136934 -39501.02618309086 127.5408909588155
  endloop
endfacet
facet normal -1.1995346892186739e-14 -1.0 1.7403386954406903e-14
  outer loop
    vertex 34370.601896136934 -39501.02618309086 127.5408909588155
    vertex 34391.63873923624 -39501.02618309086 141.07900008524433
    vertex 34375.25323424061 -39501.02618309086 135.90038153745274
  endloop
endfacet
facet normal -1.1995346892186739e-14 -1.0 1.7403386954406903e-14
  outer loop
    vertex 34375.25323424061 -39501.02618309086 135.90038153745274
    vertex 34391.63873923624 -39501.02618309086 141.07900008524433
    vertex 34376.479187534605 -39501.02618309086 138.10367232714975
  endloop
endfacet
facet normal -1.1995346892186739e-14 -1.0 1.7403386954406903e-14
  outer loop
    vertex 34376.479187534605 -39501.02618309086 138.10367232714975
    vertex 34391.63873923624 -39501.02618309086 141.07900008524433
    vertex 34378.08960279392 -39501.02618309086 141.07900008525945
  endloop
endfacet
facet normal -1.1995346892186739e-14 -1.0 1.7403386954406903e-14
  outer loop
    vertex 34378.08960279392 -39501.02618309086 141.07900008525945
    vertex 34391.63873923624 -39501.02618309086 141.07900008524433
    vertex 34391.63873923624 -39501.02618309086 169.24804774416575
  endloop
endfacet
facet normal -1.1995346892186739e-14 -1.0 1.7403386954406903e-14
  outer loop
    vertex 34378.08960279392 -39501.02618309086 141.07900008525945
    vertex 34391.63873923624 -39501.02618309086 169.24804774416575
    vertex 34379.169331699886 -39501.02618309086 145.92932992420276
  endloop
endfacet
facet normal -1.1995346892186739e-14 -1.0 1.7403386954406903e-14
  outer loop
    vertex 34379.169331699886 -39501.02618309086 145.92932992420276
    vertex 34391.63873923624 -39501.02618309086 169.24804774416575
    vertex 34384.23873923624 -39501.02618309086 169.24804774416575
  endloop
endfacet
facet normal -1.1995346892186739e-14 -1.0 1.7403386954406903e-14
  outer loop
    vertex 34275.68061227511 -39501.02618309086 49.2480477441616
    vertex 34275.68061227511 -39501.02618309086 88.81772564208036
    vertex 34223.90232909912 -39501.02618309086 141.07900008524433
  endloop
endfacet
facet normal -1.1995346892186739e-14 -1.0 1.7403386954406903e-14
  outer loop
    vertex 34275.68061227511 -39501.02618309086 88.81772564208036
    vertex 34275.68061227511 -39501.02618309086 49.2480477441616
    vertex 34287.5675474906 -39501.02618309085 81.04046320176553
  endloop
endfacet
facet normal -1.1995346892186739e-14 -1.0 1.7403386954406903e-14
  outer loop
    vertex 34287.5675474906 -39501.02618309085 81.04046320176553
    vertex 34275.68061227511 -39501.02618309086 49.2480477441616
    vertex 34342.46045606028 -39501.02618309086 49.24804774416388
  endloop
endfacet
facet normal -1.1995346892186739e-14 -1.0 1.7403386954406903e-14
  outer loop
    vertex 34287.5675474906 -39501.02618309085 81.04046320176553
    vertex 34342.46045606028 -39501.02618309086 49.24804774416388
    vertex 34298.73416918738 -39501.02618309086 75.08632759948262
  endloop
endfacet
facet normal -1.1995346892186739e-14 -1.0 1.7403386954406903e-14
  outer loop
    vertex 34298.73416918738 -39501.02618309086 75.08632759948262
    vertex 34342.46045606028 -39501.02618309086 49.24804774416388
    vertex 34310.87662458052 -39501.02618309086 75.08632759948262
  endloop
endfacet
facet normal -1.1995346892186739e-14 -1.0 1.7403386954406903e-14
  outer loop
    vertex 34298.73416918738 -39501.02618309086 75.08632759948262
    vertex 34310.87662458052 -39501.02618309086 75.08632759948262
    vertex 34309.070534167695 -39501.02618309086 75.08632759948262
  endloop
endfacet
facet normal -1.1995346892186739e-14 -1.0 1.7403386954406903e-14
  outer loop
    vertex 34298.73416918738 -39501.02618309086 75.08632759948262
    vertex 34309.070534167695 -39501.02618309086 75.08632759948262
    vertex 34307.264443754866 -39501.02618309086 75.08632759948262
  endloop
endfacet
facet normal -1.1995346892186739e-14 -1.0 1.7403386954406903e-14
  outer loop
    vertex 34287.5675474906 -39501.02618309085 81.04046320176553
    vertex 34298.73416918738 -39501.02618309086 75.08632759948262
    vertex 34296.78301094063 -39501.02618309086 76.12670251791292
  endloop
endfacet
facet normal -1.1995346892186739e-14 -1.0 1.7403386954406903e-14
  outer loop
    vertex 34275.68061227511 -39501.02618309086 88.81772564208036
    vertex 34287.5675474906 -39501.02618309085 81.04046320176553
    vertex 34286.087437598355 -39501.02618309085 82.39784853098985
  endloop
endfacet
facet normal -1.1995346892186739e-14 -1.0 1.7403386954406903e-14
  outer loop
    vertex 34275.68061227511 -39501.02618309086 88.81772564208036
    vertex 34286.087437598355 -39501.02618309085 82.39784853098985
    vertex 34279.09679916626 -39501.02618309086 88.80887069743483
  endloop
endfacet
facet normal -1.1995346892186739e-14 -1.0 1.7403386954406903e-14
  outer loop
    vertex 34275.68061227511 -39501.02618309086 88.81772564208036
    vertex 34279.09679916626 -39501.02618309086 88.80887069743483
    vertex 34278.499887290534 -39501.02618309086 88.81041793500258
  endloop
endfacet
facet normal -1.1995346892186739e-14 -1.0 1.7403386954406903e-14
  outer loop
    vertex 34223.90232909912 -39501.02618309086 141.07900008524433
    vertex 34275.68061227511 -39501.02618309086 88.81772564208036
    vertex 34271.435364886675 -39501.02618309086 93.94030740343912
  endloop
endfacet
facet normal -1.1995346892186739e-14 -1.0 1.7403386954406903e-14
  outer loop
    vertex 34223.90232909912 -39501.02618309086 141.07900008524433
    vertex 34271.435364886675 -39501.02618309086 93.94030740343912
    vertex 34252.88388639722 -39501.02618309086 118.34465818311399
  endloop
endfacet
facet normal -1.1995346892186739e-14 -1.0 1.7403386954406903e-14
  outer loop
    vertex 34223.90232909912 -39501.02618309086 141.07900008524433
    vertex 34252.88388639722 -39501.02618309086 118.34465818311399
    vertex 34250.44469112746 -39501.02618309085 122.40009162714162
  endloop
endfacet
facet normal -1.1995346892186739e-14 -1.0 1.7403386954406903e-14
  outer loop
    vertex 34223.90232909912 -39501.02618309086 141.07900008524433
    vertex 34250.44469112746 -39501.02618309085 122.40009162714162
    vertex 34240.05146554142 -39501.02618309085 141.07900008524453
  endloop
endfacet
facet normal -1.1995346892186739e-14 -1.0 1.7403386954406903e-14
  outer loop
    vertex 34223.90232909912 -39501.02618309086 141.07900008524433
    vertex 34240.05146554142 -39501.02618309085 141.07900008524453
    vertex 34223.90232909912 -39501.02618309086 169.24804774416
  endloop
endfacet
facet normal -1.1995346892186739e-14 -1.0 1.7403386954406903e-14
  outer loop
    vertex 34223.90232909912 -39501.02618309086 169.24804774416
    vertex 34240.05146554142 -39501.02618309085 141.07900008524453
    vertex 34238.971736635474 -39501.02618309086 145.9293299241986
  endloop
endfacet
facet normal -1.1995346892186739e-14 -1.0 1.7403386954406903e-14
  outer loop
    vertex 34223.90232909912 -39501.02618309086 169.24804774416
    vertex 34238.971736635474 -39501.02618309086 145.9293299241986
    vertex 34233.90232909911 -39501.02618309086 169.24804774416
  endloop
endfacet
facet normal 0.9771753108966919 -8.413098685230632e-15 0.2124344881933102
  outer loop
    vertex 34238.971736635474 -39491.02618309086 145.92932992419844
    vertex 34233.90232909911 -39501.02618309086 169.24804774416
    vertex 34238.971736635474 -39501.02618309086 145.9293299241986
  endloop
endfacet
facet normal 0.9771753108966919 -8.413098685230632e-15 0.2124344881933102
  outer loop
    vertex 34233.90232909911 -39501.02618309086 169.24804774416
    vertex 34238.971736635474 -39491.02618309086 145.92932992419844
    vertex 34233.90232909911 -39491.02618309086 169.24804774415983
  endloop
endfacet
facet normal 0.7960966279636759 1.183396396740054e-15 0.6051695290948356
  outer loop
    vertex 34271.435364886675 -39491.02618309086 93.94030740343895
    vertex 34252.88388639722 -39501.02618309086 118.34465818311399
    vertex 34271.435364886675 -39501.02618309086 93.94030740343912
  endloop
endfacet
facet normal 0.7960966279636759 1.183396396740054e-15 0.6051695290948356
  outer loop
    vertex 34252.88388639722 -39501.02618309086 118.34465818311399
    vertex 34271.435364886675 -39491.02618309086 93.94030740343895
    vertex 34252.88388639722 -39491.02618309086 118.34465818311382
  endloop
endfacet
facet normal -1.0 0.0 0.0
  outer loop
    vertex 34223.90232909912 -39491.02618309086 169.24804774415983
    vertex 34223.90232909912 -39501.02618309086 141.07900008524433
    vertex 34223.90232909912 -39501.02618309086 169.24804774416
  endloop
endfacet
facet normal -1.0 0.0 0.0
  outer loop
    vertex 34223.90232909912 -39501.02618309086 141.07900008524433
    vertex 34223.90232909912 -39491.02618309086 169.24804774415983
    vertex 34223.90232909912 -39491.02618309086 141.07900008524433
  endloop
endfacet
facet normal 0.6758928635358699 5.1565482607618835e-15 0.7369998894309835
  outer loop
    vertex 34286.087437598355 -39501.02618309085 82.39784853098985
    vertex 34279.09679916626 -39491.02618309086 88.80887069743464
    vertex 34279.09679916626 -39501.02618309086 88.80887069743483
  endloop
endfacet
facet normal 0.6758928635358699 5.1565482607618835e-15 0.7369998894309835
  outer loop
    vertex 34279.09679916626 -39491.02618309086 88.80887069743464
    vertex 34286.087437598355 -39501.02618309085 82.39784853098985
    vertex 34286.087437598355 -39491.02618309085 82.39784853098968
  endloop
endfacet
facet normal 0.0025920431631017682 1.8568067905085453e-14 0.9999966406504778
  outer loop
    vertex 34278.499887290534 -39501.02618309086 88.81041793500258
    vertex 34275.68061227511 -39491.02618309086 88.81772564208018
    vertex 34275.68061227511 -39501.02618309086 88.81772564208036
  endloop
endfacet
facet normal 0.0025920431631017682 1.8568067905085453e-14 0.9999966406504778
  outer loop
    vertex 34275.68061227511 -39491.02618309086 88.81772564208018
    vertex 34278.499887290534 -39501.02618309086 88.81041793500258
    vertex 34278.499887290534 -39491.02618309086 88.81041793500239
  endloop
endfacet
facet normal 0.0 1.8600928517473027e-14 1.0
  outer loop
    vertex 34309.070534167695 -39501.02618309086 75.08632759948262
    vertex 34307.264443754866 -39491.02618309086 75.08632759948243
    vertex 34307.264443754866 -39501.02618309086 75.08632759948262
  endloop
endfacet
facet normal 0.0 1.8600928517473027e-14 1.0
  outer loop
    vertex 34307.264443754866 -39491.02618309086 75.08632759948243
    vertex 34309.070534167695 -39501.02618309086 75.08632759948262
    vertex 34309.070534167695 -39491.02618309086 75.08632759948243
  endloop
endfacet
facet normal 0.0 1.8600928517473027e-14 1.0
  outer loop
    vertex 34310.87662458052 -39501.02618309086 75.08632759948262
    vertex 34309.070534167695 -39491.02618309086 75.08632759948243
    vertex 34309.070534167695 -39501.02618309086 75.08632759948262
  endloop
endfacet
facet normal 0.0 1.8600928517473027e-14 1.0
  outer loop
    vertex 34309.070534167695 -39491.02618309086 75.08632759948243
    vertex 34310.87662458052 -39501.02618309086 75.08632759948262
    vertex 34310.87662458052 -39491.02618309086 75.08632759948243
  endloop
endfacet
facet normal -1.8763883092072748e-12 1.8600928517496772e-14 1.0
  outer loop
    vertex 34319.40691102304 -39501.026183090864 75.08632759949862
    vertex 34310.87662458052 -39491.02618309086 75.08632759948243
    vertex 34310.87662458052 -39501.02618309086 75.08632759948262
  endloop
endfacet
facet normal -1.8763883092072748e-12 1.8600928517496772e-14 1.0
  outer loop
    vertex 34310.87662458052 -39491.02618309086 75.08632759948243
    vertex 34319.40691102304 -39501.026183090864 75.08632759949862
    vertex 34319.40691102304 -39491.026183090864 75.08632759949843
  endloop
endfacet
facet normal 0.0025920616306839266 1.8568067670517574e-14 0.9999966406026086
  outer loop
    vertex 34279.09679916626 -39501.02618309086 88.80887069743483
    vertex 34278.499887290534 -39491.02618309086 88.81041793500239
    vertex 34278.499887290534 -39501.02618309086 88.81041793500258
  endloop
endfacet
facet normal 0.0025920616306839266 1.8568067670517574e-14 0.9999966406026086
  outer loop
    vertex 34278.499887290534 -39491.02618309086 88.81041793500239
    vertex 34279.09679916626 -39501.02618309086 88.80887069743483
    vertex 34279.09679916626 -39491.02618309086 88.80887069743464
  endloop
endfacet
facet normal 0.8569391298911376 -1.2559360900166445e-15 0.5154176245157126
  outer loop
    vertex 34252.88388639722 -39491.02618309086 118.34465818311382
    vertex 34250.44469112746 -39501.02618309085 122.40009162714162
    vertex 34252.88388639722 -39501.02618309086 118.34465818311399
  endloop
endfacet
facet normal 0.8569391298911376 -1.2559360900166445e-15 0.5154176245157126
  outer loop
    vertex 34250.44469112746 -39501.02618309085 122.40009162714162
    vertex 34252.88388639722 -39491.02618309086 118.34465818311382
    vertex 34250.44469112746 -39491.02618309085 122.40009162714145
  endloop
endfacet
facet normal 0.7699608206597804 2.126475875364461e-15 0.6380911648416061
  outer loop
    vertex 34275.68061227511 -39491.02618309086 88.81772564208018
    vertex 34271.435364886675 -39501.02618309086 93.94030740343912
    vertex 34275.68061227511 -39501.02618309086 88.81772564208036
  endloop
endfacet
facet normal 0.7699608206597804 2.126475875364461e-15 0.6380911648416061
  outer loop
    vertex 34271.435364886675 -39501.02618309086 93.94030740343912
    vertex 34275.68061227511 -39491.02618309086 88.81772564208018
    vertex 34271.435364886675 -39491.02618309086 93.94030740343895
  endloop
endfacet
facet normal 0.0 1.8600928517473027e-14 1.0
  outer loop
    vertex 34233.90232909911 -39501.02618309086 169.24804774416
    vertex 34223.90232909912 -39491.02618309086 169.24804774415983
    vertex 34223.90232909912 -39501.02618309086 169.24804774416
  endloop
endfacet
facet normal 0.0 1.8600928517473027e-14 1.0
  outer loop
    vertex 34223.90232909912 -39491.02618309086 169.24804774415983
    vertex 34233.90232909911 -39501.02618309086 169.24804774416
    vertex 34233.90232909911 -39491.02618309086 169.24804774415983
  endloop
endfacet
facet normal 0.9761069668325189 -8.30925299116234e-15 0.2172905642245426
  outer loop
    vertex 34240.05146554142 -39501.02618309085 141.07900008524453
    vertex 34238.971736635474 -39491.02618309086 145.92932992419844
    vertex 34238.971736635474 -39501.02618309086 145.9293299241986
  endloop
endfacet
facet normal 0.9761069668325189 -8.30925299116234e-15 0.2172905642245426
  outer loop
    vertex 34238.971736635474 -39491.02618309086 145.92932992419844
    vertex 34240.05146554142 -39501.02618309085 141.07900008524453
    vertex 34240.05146554142 -39491.02618309085 141.07900008524433
  endloop
endfacet
facet normal 0.8738382457965594 -2.0129306728670073e-15 0.48621674198159
  outer loop
    vertex 34250.44469112746 -39491.02618309085 122.40009162714145
    vertex 34240.05146554142 -39501.02618309085 141.07900008524453
    vertex 34250.44469112746 -39501.02618309085 122.40009162714162
  endloop
endfacet
facet normal 0.8738382457965594 -2.0129306728670073e-15 0.48621674198159
  outer loop
    vertex 34240.05146554142 -39501.02618309085 141.07900008524453
    vertex 34250.44469112746 -39491.02618309085 122.40009162714145
    vertex 34240.05146554142 -39491.02618309085 141.07900008524433
  endloop
endfacet
facet normal 0.47050274035338463 1.0459978762103843e-14 0.8823985331583206
  outer loop
    vertex 34298.73416918738 -39501.02618309086 75.08632759948262
    vertex 34296.78301094063 -39491.02618309086 76.12670251791273
    vertex 34296.78301094063 -39501.02618309086 76.12670251791292
  endloop
endfacet
facet normal 0.47050274035338463 1.0459978762103843e-14 0.8823985331583206
  outer loop
    vertex 34296.78301094063 -39491.02618309086 76.12670251791273
    vertex 34298.73416918738 -39501.02618309086 75.08632759948262
    vertex 34298.73416918738 -39491.02618309086 75.08632759948243
  endloop
endfacet
facet normal 0.0 1.8600928517473027e-14 1.0
  outer loop
    vertex 34307.264443754866 -39501.02618309086 75.08632759948262
    vertex 34298.73416918738 -39491.02618309086 75.08632759948243
    vertex 34298.73416918738 -39501.02618309086 75.08632759948262
  endloop
endfacet
facet normal 0.0 1.8600928517473027e-14 1.0
  outer loop
    vertex 34298.73416918738 -39491.02618309086 75.08632759948243
    vertex 34307.264443754866 -39501.02618309086 75.08632759948262
    vertex 34307.264443754866 -39491.02618309086 75.08632759948243
  endloop
endfacet
facet normal 3.403561398324547e-14 0.0 -1.0
  outer loop
    vertex 34342.46045606028 -39491.02618309086 49.24804774416388
    vertex 34275.68061227511 -39501.02618309086 49.2480477441616
    vertex 34275.68061227511 -39491.02618309086 49.2480477441616
  endloop
endfacet
facet normal 3.403561398324547e-14 0.0 -1.0
  outer loop
    vertex 34275.68061227511 -39501.02618309086 49.2480477441616
    vertex 34342.46045606028 -39491.02618309086 49.24804774416388
    vertex 34342.46045606028 -39501.02618309086 49.24804774416388
  endloop
endfacet
facet normal 0.6758918081527914 5.156579618333854e-15 0.7370008573074732
  outer loop
    vertex 34287.5675474906 -39501.02618309085 81.04046320176553
    vertex 34286.087437598355 -39491.02618309085 82.39784853098968
    vertex 34286.087437598355 -39501.02618309085 82.39784853098985
  endloop
endfacet
facet normal 0.6758918081527914 5.156579618333854e-15 0.7370008573074732
  outer loop
    vertex 34286.087437598355 -39491.02618309085 82.39784853098968
    vertex 34287.5675474906 -39501.02618309085 81.04046320176553
    vertex 34287.5675474906 -39491.02618309085 81.04046320176535
  endloop
endfacet
facet normal 0.4705022682877734 1.0459989417361608e-14 0.8823987848677379
  outer loop
    vertex 34296.78301094063 -39501.02618309086 76.12670251791292
    vertex 34287.5675474906 -39491.02618309085 81.04046320176535
    vertex 34287.5675474906 -39501.02618309085 81.04046320176553
  endloop
endfacet
facet normal 0.4705022682877734 1.0459989417361608e-14 0.8823987848677379
  outer loop
    vertex 34287.5675474906 -39491.02618309085 81.04046320176535
    vertex 34296.78301094063 -39501.02618309086 76.12670251791292
    vertex 34296.78301094063 -39491.02618309086 76.12670251791273
  endloop
endfacet
facet normal -0.8710750292101415 0.0 -0.4911499704637591
  outer loop
    vertex 34223.90232909912 -39491.02618309086 141.07900008524433
    vertex 34275.68061227511 -39501.02618309086 49.2480477441616
    vertex 34223.90232909912 -39501.02618309086 141.07900008524433
  endloop
endfacet
facet normal -0.8710750292101415 0.0 -0.4911499704637591
  outer loop
    vertex 34275.68061227511 -39501.02618309086 49.2480477441616
    vertex 34223.90232909912 -39491.02618309086 141.07900008524433
    vertex 34275.68061227511 -39491.02618309086 49.2480477441616
  endloop
endfacet
facet normal 0.8815473713489232 0.0 -0.47209557514109757
  outer loop
    vertex 34342.46045606028 -39491.02618309086 49.24804774416388
    vertex 34391.63873923624 -39501.02618309086 141.07900008524433
    vertex 34342.46045606028 -39501.02618309086 49.24804774416388
  endloop
endfacet
facet normal 0.8815473713489232 0.0 -0.47209557514109757
  outer loop
    vertex 34391.63873923624 -39501.02618309086 141.07900008524433
    vertex 34342.46045606028 -39491.02618309086 49.24804774416388
    vertex 34391.63873923624 -39491.02618309086 141.07900008524433
  endloop
endfacet
facet normal 1.2177949606280106e-14 1.0 -1.715197556253523e-14
  outer loop
    vertex 34275.68061227511 -39491.02618309086 49.2480477441616
    vertex 34287.5675474906 -39491.02618309085 81.04046320176535
    vertex 34342.46045606028 -39491.02618309086 49.24804774416388
  endloop
endfacet
facet normal 1.2177949606280106e-14 1.0 -1.715197556253523e-14
  outer loop
    vertex 34287.5675474906 -39491.02618309085 81.04046320176535
    vertex 34275.68061227511 -39491.02618309086 49.2480477441616
    vertex 34275.68061227511 -39491.02618309086 88.81772564208018
  endloop
endfacet
facet normal 1.2177949606280106e-14 1.0 -1.715197556253523e-14
  outer loop
    vertex 34275.68061227511 -39491.02618309086 88.81772564208018
    vertex 34275.68061227511 -39491.02618309086 49.2480477441616
    vertex 34223.90232909912 -39491.02618309086 141.07900008524433
  endloop
endfacet
facet normal 1.2177949606280106e-14 1.0 -1.715197556253523e-14
  outer loop
    vertex 34342.46045606028 -39491.02618309086 49.24804774416388
    vertex 34287.5675474906 -39491.02618309085 81.04046320176535
    vertex 34298.73416918738 -39491.02618309086 75.08632759948243
  endloop
endfacet
facet normal 1.2177949606280106e-14 1.0 -1.715197556253523e-14
  outer loop
    vertex 34298.73416918738 -39491.02618309086 75.08632759948243
    vertex 34287.5675474906 -39491.02618309085 81.04046320176535
    vertex 34296.78301094063 -39491.02618309086 76.12670251791273
  endloop
endfacet
facet normal 1.2177949606280106e-14 1.0 -1.715197556253523e-14
  outer loop
    vertex 34287.5675474906 -39491.02618309085 81.04046320176535
    vertex 34275.68061227511 -39491.02618309086 88.81772564208018
    vertex 34286.087437598355 -39491.02618309085 82.39784853098968
  endloop
endfacet
facet normal 1.2177949606280106e-14 1.0 -1.715197556253523e-14
  outer loop
    vertex 34286.087437598355 -39491.02618309085 82.39784853098968
    vertex 34275.68061227511 -39491.02618309086 88.81772564208018
    vertex 34279.09679916626 -39491.02618309086 88.80887069743464
  endloop
endfacet
facet normal 1.2177949606280106e-14 1.0 -1.715197556253523e-14
  outer loop
    vertex 34279.09679916626 -39491.02618309086 88.80887069743464
    vertex 34275.68061227511 -39491.02618309086 88.81772564208018
    vertex 34278.499887290534 -39491.02618309086 88.81041793500239
  endloop
endfacet
facet normal 1.2177949606280106e-14 1.0 -1.715197556253523e-14
  outer loop
    vertex 34275.68061227511 -39491.02618309086 88.81772564208018
    vertex 34223.90232909912 -39491.02618309086 141.07900008524433
    vertex 34271.435364886675 -39491.02618309086 93.94030740343895
  endloop
endfacet
facet normal 1.2177949606280106e-14 1.0 -1.715197556253523e-14
  outer loop
    vertex 34271.435364886675 -39491.02618309086 93.94030740343895
    vertex 34223.90232909912 -39491.02618309086 141.07900008524433
    vertex 34252.88388639722 -39491.02618309086 118.34465818311382
  endloop
endfacet
facet normal 1.2177949606280106e-14 1.0 -1.715197556253523e-14
  outer loop
    vertex 34252.88388639722 -39491.02618309086 118.34465818311382
    vertex 34223.90232909912 -39491.02618309086 141.07900008524433
    vertex 34250.44469112746 -39491.02618309085 122.40009162714145
  endloop
endfacet
facet normal 1.2177949606280106e-14 1.0 -1.715197556253523e-14
  outer loop
    vertex 34250.44469112746 -39491.02618309085 122.40009162714145
    vertex 34223.90232909912 -39491.02618309086 141.07900008524433
    vertex 34240.05146554142 -39491.02618309085 141.07900008524433
  endloop
endfacet
facet normal 1.2177949606280106e-14 1.0 -1.715197556253523e-14
  outer loop
    vertex 34240.05146554142 -39491.02618309085 141.07900008524433
    vertex 34223.90232909912 -39491.02618309086 141.07900008524433
    vertex 34223.90232909912 -39491.02618309086 169.24804774415983
  endloop
endfacet
facet normal 1.2177949606280106e-14 1.0 -1.715197556253523e-14
  outer loop
    vertex 34240.05146554142 -39491.02618309085 141.07900008524433
    vertex 34223.90232909912 -39491.02618309086 169.24804774415983
    vertex 34238.971736635474 -39491.02618309086 145.92932992419844
  endloop
endfacet
facet normal 1.2177949606280106e-14 1.0 -1.715197556253523e-14
  outer loop
    vertex 34238.971736635474 -39491.02618309086 145.92932992419844
    vertex 34223.90232909912 -39491.02618309086 169.24804774415983
    vertex 34233.90232909911 -39491.02618309086 169.24804774415983
  endloop
endfacet
facet normal 1.2177949606280106e-14 1.0 -1.715197556253523e-14
  outer loop
    vertex 34342.46045606028 -39491.02618309086 49.24804774416388
    vertex 34342.46045606028 -39491.02618309086 88.81772564205347
    vertex 34391.63873923624 -39491.02618309086 141.07900008524433
  endloop
endfacet
facet normal 1.2177949606280106e-14 1.0 -1.715197556253523e-14
  outer loop
    vertex 34342.46045606028 -39491.02618309086 88.81772564205347
    vertex 34342.46045606028 -39491.02618309086 49.24804774416388
    vertex 34330.57352316566 -39491.026183090864 81.04046320179307
  endloop
endfacet
facet normal 1.2177949606280106e-14 1.0 -1.715197556253523e-14
  outer loop
    vertex 34330.57352316566 -39491.026183090864 81.04046320179307
    vertex 34342.46045606028 -39491.02618309086 49.24804774416388
    vertex 34321.35807159064 -39491.026183090864 76.12670251794393
  endloop
endfacet
facet normal 1.2177949606280106e-14 1.0 -1.715197556253523e-14
  outer loop
    vertex 34321.35807159064 -39491.026183090864 76.12670251794393
    vertex 34342.46045606028 -39491.02618309086 49.24804774416388
    vertex 34319.40691102304 -39491.026183090864 75.08632759949843
  endloop
endfacet
facet normal 1.2177949606280106e-14 1.0 -1.715197556253523e-14
  outer loop
    vertex 34319.40691102304 -39491.026183090864 75.08632759949843
    vertex 34342.46045606028 -39491.02618309086 49.24804774416388
    vertex 34310.87662458052 -39491.02618309086 75.08632759948243
  endloop
endfacet
facet normal 1.2177949606280106e-14 1.0 -1.715197556253523e-14
  outer loop
    vertex 34310.87662458052 -39491.02618309086 75.08632759948243
    vertex 34342.46045606028 -39491.02618309086 49.24804774416388
    vertex 34298.73416918738 -39491.02618309086 75.08632759948243
  endloop
endfacet
facet normal 1.2177949606280106e-14 1.0 -1.715197556253523e-14
  outer loop
    vertex 34310.87662458052 -39491.02618309086 75.08632759948243
    vertex 34298.73416918738 -39491.02618309086 75.08632759948243
    vertex 34307.264443754866 -39491.02618309086 75.08632759948243
  endloop
endfacet
facet normal 1.2177949606280106e-14 1.0 -1.715197556253523e-14
  outer loop
    vertex 34310.87662458052 -39491.02618309086 75.08632759948243
    vertex 34307.264443754866 -39491.02618309086 75.08632759948243
    vertex 34309.070534167695 -39491.02618309086 75.08632759948243
  endloop
endfacet
facet normal 1.2177949606280106e-14 1.0 -1.715197556253523e-14
  outer loop
    vertex 34342.46045606028 -39491.02618309086 88.81772564205347
    vertex 34330.57352316566 -39491.026183090864 81.04046320179307
    vertex 34332.05363073705 -39491.026183090864 82.39784853101047
  endloop
endfacet
facet normal 1.2177949606280106e-14 1.0 -1.715197556253523e-14
  outer loop
    vertex 34342.46045606028 -39491.02618309086 88.81772564205347
    vertex 34332.05363073705 -39491.026183090864 82.39784853101047
    vertex 34339.64120114104 -39491.02618309086 88.81041793500084
  endloop
endfacet
facet normal 1.2177949606280106e-14 1.0 -1.715197556253523e-14
  outer loop
    vertex 34339.64120114104 -39491.02618309086 88.81041793500084
    vertex 34332.05363073705 -39491.026183090864 82.39784853101047
    vertex 34339.044289265315 -39491.02618309086 88.80887069743314
  endloop
endfacet
facet normal 1.2177949606280106e-14 1.0 -1.715197556253523e-14
  outer loop
    vertex 34391.63873923624 -39491.02618309086 141.07900008524433
    vertex 34342.46045606028 -39491.02618309086 88.81772564205347
    vertex 34346.70570344869 -39491.02618309086 93.94030740342532
  endloop
endfacet
facet normal 1.2177949606280106e-14 1.0 -1.715197556253523e-14
  outer loop
    vertex 34391.63873923624 -39491.02618309086 141.07900008524433
    vertex 34346.70570344869 -39491.02618309086 93.94030740342532
    vertex 34365.25720020742 -39491.02618309085 118.34465818311531
  endloop
endfacet
facet normal 1.2177949606280106e-14 1.0 -1.715197556253523e-14
  outer loop
    vertex 34391.63873923624 -39491.02618309086 141.07900008524433
    vertex 34365.25720020742 -39491.02618309085 118.34465818311531
    vertex 34370.601896136934 -39491.02618309086 127.54089095881531
  endloop
endfacet
facet normal 1.2177949606280106e-14 1.0 -1.715197556253523e-14
  outer loop
    vertex 34391.63873923624 -39491.02618309086 141.07900008524433
    vertex 34370.601896136934 -39491.02618309086 127.54089095881531
    vertex 34375.25323424061 -39491.02618309086 135.90038153745257
  endloop
endfacet
facet normal 1.2177949606280106e-14 1.0 -1.715197556253523e-14
  outer loop
    vertex 34391.63873923624 -39491.02618309086 141.07900008524433
    vertex 34375.25323424061 -39491.02618309086 135.90038153745257
    vertex 34376.479187534605 -39491.02618309086 138.10367232714958
  endloop
endfacet
facet normal 1.2177949606280106e-14 1.0 -1.715197556253523e-14
  outer loop
    vertex 34391.63873923624 -39491.02618309086 141.07900008524433
    vertex 34376.479187534605 -39491.02618309086 138.10367232714958
    vertex 34378.08960279392 -39491.02618309086 141.07900008525928
  endloop
endfacet
facet normal 1.2177949606280106e-14 1.0 -1.715197556253523e-14
  outer loop
    vertex 34391.63873923624 -39491.02618309086 141.07900008524433
    vertex 34378.08960279392 -39491.02618309086 141.07900008525928
    vertex 34391.63873923624 -39491.02618309086 169.24804774416558
  endloop
endfacet
facet normal 1.2177949606280106e-14 1.0 -1.715197556253523e-14
  outer loop
    vertex 34391.63873923624 -39491.02618309086 169.24804774416558
    vertex 34378.08960279392 -39491.02618309086 141.07900008525928
    vertex 34379.169331699886 -39491.02618309086 145.9293299242026
  endloop
endfacet
facet normal 1.2177949606280106e-14 1.0 -1.715197556253523e-14
  outer loop
    vertex 34391.63873923624 -39491.02618309086 169.24804774416558
    vertex 34379.169331699886 -39491.02618309086 145.9293299242026
    vertex 34384.23873923624 -39491.02618309086 169.24804774416558
  endloop
endfacet
endsolid Type XXI U-Boot
