solid Type XXI U-Boot
facet normal -1.851795170837091e-15 -0.5824776968686651 -0.8128466845909971
  outer loop
    vertex 35096.393389800134 -38841.736491934294 200.91717402520962
    vertex 35092.39338980006 -38844.7003310678 203.04103111300702
    vertex 35092.39338980006 -38841.736491934294 200.91717402520962
  endloop
endfacet
facet normal -1.851795170837091e-15 -0.5824776968686651 -0.8128466845909971
  outer loop
    vertex 35092.39338980006 -38844.7003310678 203.04103111300702
    vertex 35096.393389800134 -38841.736491934294 200.91717402520962
    vertex 35096.393389800134 -38844.7003310678 203.04103111300702
  endloop
endfacet
facet normal -2.0822377990515077e-15 -0.5280678506519859 -0.8492021815255729
  outer loop
    vertex 35096.393389800134 -38844.7003310678 203.04103111300702
    vertex 35092.39338980006 -38847.79673129375 204.9664965058729
    vertex 35092.39338980006 -38844.7003310678 203.04103111300702
  endloop
endfacet
facet normal -2.0822377990515077e-15 -0.5280678506519859 -0.8492021815255729
  outer loop
    vertex 35092.39338980006 -38847.79673129375 204.9664965058729
    vertex 35096.393389800134 -38844.7003310678 203.04103111300702
    vertex 35096.393389800134 -38847.79673129375 204.9664965058729
  endloop
endfacet
facet normal -2.303763965347754e-15 -0.47139673682626454 -0.8819212643482124
  outer loop
    vertex 35096.393389800134 -38847.79673129375 204.9664965058729
    vertex 35092.39338980006 -38851.01243335105 206.68532506541402
    vertex 35092.39338980006 -38847.79673129375 204.9664965058729
  endloop
endfacet
facet normal -2.303763965347754e-15 -0.47139673682626454 -0.8819212643482124
  outer loop
    vertex 35092.39338980006 -38851.01243335105 206.68532506541402
    vertex 35096.393389800134 -38847.79673129375 204.9664965058729
    vertex 35096.393389800134 -38851.01243335105 206.68532506541402
  endloop
endfacet
facet normal -2.5154250606530652e-15 -0.41270702980625906 -0.9108638249203312
  outer loop
    vertex 35096.393389800134 -38851.01243335105 206.68532506541402
    vertex 35092.39338980006 -38854.33366710981 208.19015650384424
    vertex 35092.39338980006 -38851.01243335105 206.68532506541402
  endloop
endfacet
facet normal -2.5154250606530652e-15 -0.41270702980625906 -0.9108638249203312
  outer loop
    vertex 35092.39338980006 -38854.33366710981 208.19015650384424
    vertex 35096.393389800134 -38851.01243335105 206.68532506541402
    vertex 35096.393389800134 -38854.33366710981 208.19015650384424
  endloop
endfacet
facet normal -2.7163147196841694e-15 -0.35225004792163833 -0.9359059267571734
  outer loop
    vertex 35096.393389800134 -38854.33366710981 208.19015650384424
    vertex 35092.39338980006 -38857.74621053721 209.4745469019231
    vertex 35092.39338980006 -38854.33366710981 208.19015650384424
  endloop
endfacet
facet normal -2.7163147196841694e-15 -0.35225004792163833 -0.9359059267571734
  outer loop
    vertex 35092.39338980006 -38857.74621053721 209.4745469019231
    vertex 35096.393389800134 -38854.33366710981 208.19015650384424
    vertex 35096.393389800134 -38857.74621053721 209.4745469019231
  endloop
endfacet
facet normal -2.905572702060402e-15 -0.29028467725619994 -0.9569403357316819
  outer loop
    vertex 35096.393389800134 -38857.74621053721 209.4745469019231
    vertex 35092.39338980006 -38861.23545059834 210.53299630278255
    vertex 35092.39338980006 -38857.74621053721 209.4745469019231
  endloop
endfacet
facet normal -2.905572702060402e-15 -0.29028467725619994 -0.9569403357316819
  outer loop
    vertex 35092.39338980006 -38861.23545059834 210.53299630278255
    vertex 35096.393389800134 -38857.74621053721 209.4745469019231
    vertex 35096.393389800134 -38861.23545059834 210.53299630278255
  endloop
endfacet
facet normal -3.0823885760615708e-15 -0.22707626303514217 -0.9738769792771544
  outer loop
    vertex 35096.393389800134 -38861.23545059834 210.53299630278255
    vertex 35092.39338980006 -38864.78644583162 211.36097226359362
    vertex 35092.39338980006 -38861.23545059834 210.53299630278255
  endloop
endfacet
facet normal -3.0823885760615708e-15 -0.22707626303514217 -0.9738769792771544
  outer loop
    vertex 35092.39338980006 -38864.78644583162 211.36097226359362
    vertex 35096.393389800134 -38861.23545059834 210.53299630278255
    vertex 35096.393389800134 -38864.78644583162 211.36097226359362
  endloop
endfacet
facet normal -3.246005188956154e-15 -0.16289547339706262 -0.9866433320844707
  outer loop
    vertex 35096.393389800134 -38864.78644583162 211.36097226359362
    vertex 35092.39338980006 -38868.383990330294 211.95492926418513
    vertex 35092.39338980006 -38864.78644583162 211.36097226359362
  endloop
endfacet
facet normal -3.246005188956154e-15 -0.16289547339706262 -0.9866433320844707
  outer loop
    vertex 35092.39338980006 -38868.383990330294 211.95492926418513
    vertex 35096.393389800134 -38864.78644583162 211.36097226359362
    vertex 35096.393389800134 -38868.383990330294 211.95492926418513
  endloop
endfacet
facet normal -3.39572190930414e-15 -0.09801714033030837 -0.9951847266721234
  outer loop
    vertex 35096.393389800134 -38868.383990330294 211.95492926418513
    vertex 35092.39338980006 -38872.01267885651 212.31232388948112
    vertex 35092.39338980006 -38868.383990330294 211.95492926418513
  endloop
endfacet
facet normal -3.39572190930414e-15 -0.09801714033030837 -0.9951847266721234
  outer loop
    vertex 35092.39338980006 -38872.01267885651 212.31232388948112
    vertex 35096.393389800134 -38868.383990330294 211.95492926418513
    vertex 35096.393389800134 -38872.01267885651 212.31232388948112
  endloop
endfacet
facet normal -3.530897627109224e-15 -0.03271908282372771 -0.9994645874763018
  outer loop
    vertex 35096.393389800134 -38872.01267885651 212.31232388948112
    vertex 35092.39338980006 -38875.656972808916 212.43162572083844
    vertex 35092.39338980006 -38872.01267885651 212.31232388948112
  endloop
endfacet
facet normal -3.530897627109224e-15 -0.03271908282372771 -0.9994645874763018
  outer loop
    vertex 35092.39338980006 -38875.656972808916 212.43162572083844
    vertex 35096.393389800134 -38872.01267885651 212.31232388948112
    vertex 35096.393389800134 -38875.656972808916 212.43162572083844
  endloop
endfacet
facet normal -3.650953499206132e-15 0.03271908282084662 -0.9994645874763961
  outer loop
    vertex 35096.393389800134 -38875.656972808916 212.43162572083844
    vertex 35092.39338980006 -38879.30126676132 212.31232388949164
    vertex 35092.39338980006 -38875.656972808916 212.43162572083844
  endloop
endfacet
facet normal -3.650953499206132e-15 0.03271908282084662 -0.9994645874763961
  outer loop
    vertex 35092.39338980006 -38879.30126676132 212.31232388949164
    vertex 35096.393389800134 -38875.656972808916 212.43162572083844
    vertex 35096.393389800134 -38879.30126676132 212.31232388949164
  endloop
endfacet
facet normal -3.755375427911832e-15 0.09801714032793775 -0.9951847266723567
  outer loop
    vertex 35096.393389800134 -38879.30126676132 212.31232388949164
    vertex 35092.39338980006 -38882.92995528754 211.9549292642043
    vertex 35092.39338980006 -38879.30126676132 212.31232388949164
  endloop
endfacet
facet normal -3.755375427911832e-15 0.09801714032793775 -0.9951847266723567
  outer loop
    vertex 35092.39338980006 -38882.92995528754 211.9549292642043
    vertex 35096.393389800134 -38879.30126676132 212.31232388949164
    vertex 35096.393389800134 -38882.92995528754 211.9549292642043
  endloop
endfacet
facet normal -3.843716262501475e-15 0.16289547339360957 -0.9866433320850406
  outer loop
    vertex 35096.393389800134 -38882.92995528754 211.9549292642043
    vertex 35092.39338980006 -38886.527499786214 211.36097226362554
    vertex 35092.39338980006 -38882.92995528754 211.9549292642043
  endloop
endfacet
facet normal -3.843716262501475e-15 0.16289547339360957 -0.9866433320850406
  outer loop
    vertex 35092.39338980006 -38886.527499786214 211.36097226362554
    vertex 35096.393389800134 -38882.92995528754 211.9549292642043
    vertex 35096.393389800134 -38886.527499786214 211.36097226362554
  endloop
endfacet
facet normal -3.915597713955769e-15 0.22707626303308512 -0.973876979277634
  outer loop
    vertex 35096.393389800134 -38886.527499786214 211.36097226362554
    vertex 35092.39338980006 -38890.078495019494 210.53299630282208
    vertex 35092.39338980006 -38886.527499786214 211.36097226362554
  endloop
endfacet
facet normal -3.915597713955769e-15 0.22707626303308512 -0.973876979277634
  outer loop
    vertex 35092.39338980006 -38890.078495019494 210.53299630282208
    vertex 35096.393389800134 -38886.527499786214 211.36097226362554
    vertex 35096.393389800134 -38890.078495019494 210.53299630282208
  endloop
endfacet
facet normal -3.970711974866353e-15 0.29028467725392443 -0.9569403357323722
  outer loop
    vertex 35096.393389800134 -38890.078495019494 210.53299630282208
    vertex 35092.39338980006 -38893.567735080636 209.47454690196582
    vertex 35092.39338980006 -38890.078495019494 210.53299630282208
  endloop
endfacet
facet normal -3.970711974866353e-15 0.29028467725392443 -0.9569403357323722
  outer loop
    vertex 35092.39338980006 -38893.567735080636 209.47454690196582
    vertex 35096.393389800134 -38890.078495019494 210.53299630282208
    vertex 35096.393389800134 -38893.567735080636 209.47454690196582
  endloop
endfacet
facet normal -4.00882303750461e-15 0.3522500479198397 -0.9359059267578504
  outer loop
    vertex 35096.393389800134 -38893.567735080636 209.47454690196582
    vertex 35092.39338980006 -38896.980278508 208.19015650389582
    vertex 35092.39338980006 -38893.567735080636 209.47454690196582
  endloop
endfacet
facet normal -4.00882303750461e-15 0.3522500479198397 -0.9359059267578504
  outer loop
    vertex 35092.39338980006 -38896.980278508 208.19015650389582
    vertex 35096.393389800134 -38893.567735080636 209.47454690196582
    vertex 35096.393389800134 -38896.980278508 208.19015650389582
  endloop
endfacet
facet normal -4.029767704451193e-15 0.412707029802884 -0.9108638249218605
  outer loop
    vertex 35096.393389800134 -38896.980278508 208.19015650389582
    vertex 35092.39338980006 -38900.30151226678 206.6853250654714
    vertex 35092.39338980006 -38896.980278508 208.19015650389582
  endloop
endfacet
facet normal -4.029767704451193e-15 0.412707029802884 -0.9108638249218605
  outer loop
    vertex 35092.39338980006 -38900.30151226678 206.6853250654714
    vertex 35096.393389800134 -38896.980278508 208.19015650389582
    vertex 35096.393389800134 -38900.30151226678 206.6853250654714
  endloop
endfacet
facet normal -4.033456287426227e-15 0.4713967368241955 -0.8819212643493183
  outer loop
    vertex 35096.393389800134 -38900.30151226678 206.6853250654714
    vertex 35092.39338980006 -38903.517214324114 204.96649650594452
    vertex 35092.39338980006 -38900.30151226678 206.6853250654714
  endloop
endfacet
facet normal -4.033456287426227e-15 0.4713967368241955 -0.8819212643493183
  outer loop
    vertex 35092.39338980006 -38903.517214324114 204.96649650594452
    vertex 35096.393389800134 -38900.30151226678 206.6853250654714
    vertex 35096.393389800134 -38903.517214324114 204.96649650594452
  endloop
endfacet
facet normal -4.0198729913508634e-15 0.5280678506492248 -0.8492021815272899
  outer loop
    vertex 35096.393389800134 -38903.517214324114 204.96649650594452
    vertex 35092.39338980006 -38906.61361455009 203.0410311130726
    vertex 35092.39338980006 -38903.517214324114 204.96649650594452
  endloop
endfacet
facet normal -4.0198729913508634e-15 0.5280678506492248 -0.8492021815272899
  outer loop
    vertex 35092.39338980006 -38906.61361455009 203.0410311130726
    vertex 35096.393389800134 -38903.517214324114 204.96649650594452
    vertex 35096.393389800134 -38906.61361455009 203.0410311130726
  endloop
endfacet
facet normal -3.989075981985029e-15 0.5824776968659372 -0.8128466845929516
  outer loop
    vertex 35096.393389800134 -38906.61361455009 203.0410311130726
    vertex 35092.39338980006 -38909.57745368356 200.91717402529176
    vertex 35092.39338980006 -38906.61361455009 203.0410311130726
  endloop
endfacet
facet normal -3.989075981985029e-15 0.5824776968659372 -0.8128466845929516
  outer loop
    vertex 35092.39338980006 -38909.57745368356 200.91717402529176
    vertex 35096.393389800134 -38906.61361455009 203.0410311130726
    vertex 35096.393389800134 -38909.57745368356 200.91717402529176
  endloop
endfacet
facet normal -3.941197136848228e-15 0.6343932841633986 -0.7730104533629396
  outer loop
    vertex 35096.393389800134 -38909.57745368356 200.91717402529176
    vertex 35092.39338980006 -38912.39604011037 198.6040199247064
    vertex 35092.39338980006 -38909.57745368356 200.91717402529176
  endloop
endfacet
facet normal -3.941197136848228e-15 0.6343932841633986 -0.7730104533629396
  outer loop
    vertex 35092.39338980006 -38912.39604011037 198.6040199247064
    vertex 35096.393389800134 -38909.57745368356 200.91717402529176
    vertex 35096.393389800134 -38912.39604011037 198.6040199247064
  endloop
endfacet
facet normal -3.876441480508843e-15 0.6835923020227651 -0.7298640726979352
  outer loop
    vertex 35096.393389800134 -38912.39604011037 198.6040199247064
    vertex 35092.39338980006 -38915.05730421071 196.1114740922753
    vertex 35092.39338980006 -38912.39604011037 198.6040199247064
  endloop
endfacet
facet normal -3.876441480508843e-15 0.6835923020227651 -0.7298640726979352
  outer loop
    vertex 35092.39338980006 -38915.05730421071 196.1114740922753
    vertex 35096.393389800134 -38912.39604011037 198.6040199247064
    vertex 35096.393389800134 -38915.05730421071 196.1114740922753
  endloop
endfacet
facet normal -3.7950863066306194e-15 0.7298640726964011 -0.6835923020244031
  outer loop
    vertex 35092.39338980006 -38915.05730421071 196.1114740922753
    vertex 35096.393389800134 -38917.54985004313 193.45020999194173
    vertex 35092.39338980006 -38917.54985004313 193.45020999194173
  endloop
endfacet
facet normal -3.7950863066306194e-15 0.7298640726964011 -0.6835923020244031
  outer loop
    vertex 35096.393389800134 -38917.54985004313 193.45020999194173
    vertex 35092.39338980006 -38915.05730421071 196.1114740922753
    vertex 35096.393389800134 -38915.05730421071 196.1114740922753
  endloop
endfacet
facet normal -3.6974799905484905e-15 0.7730104533631668 -0.6343932841631218
  outer loop
    vertex 35092.39338980006 -38917.54985004313 193.45020999194173
    vertex 35096.393389800134 -38919.863004143735 190.63162356513797
    vertex 35092.39338980006 -38919.863004143735 190.63162356513797
  endloop
endfacet
facet normal -3.6974799905484905e-15 0.7730104533631668 -0.6343932841631218
  outer loop
    vertex 35096.393389800134 -38919.863004143735 190.63162356513797
    vertex 35092.39338980006 -38917.54985004313 193.45020999194173
    vertex 35096.393389800134 -38917.54985004313 193.45020999194173
  endloop
endfacet
facet normal -3.584040497508031e-15 0.8128466845904835 -0.5824776968693816
  outer loop
    vertex 35092.39338980006 -38919.863004143735 190.63162356513797
    vertex 35096.393389800134 -38921.98686123151 187.6677844316632
    vertex 35092.39338980006 -38921.98686123151 187.6677844316632
  endloop
endfacet
facet normal -3.584040497508031e-15 0.8128466845904835 -0.5824776968693816
  outer loop
    vertex 35096.393389800134 -38921.98686123151 187.6677844316632
    vertex 35092.39338980006 -38919.863004143735 190.63162356513797
    vertex 35096.393389800134 -38919.863004143735 190.63162356513797
  endloop
endfacet
facet normal -3.455253592819851e-15 0.8492021815258713 -0.528067850651506
  outer loop
    vertex 35092.39338980006 -38921.98686123151 187.6677844316632
    vertex 35096.393389800134 -38923.912326624406 184.5713842057033
    vertex 35092.39338980006 -38923.912326624406 184.5713842057033
  endloop
endfacet
facet normal -3.455253592819851e-15 0.8492021815258713 -0.528067850651506
  outer loop
    vertex 35096.393389800134 -38923.912326624406 184.5713842057033
    vertex 35092.39338980006 -38921.98686123151 187.6677844316632
    vertex 35096.393389800134 -38921.98686123151 187.6677844316632
  endloop
endfacet
facet normal -3.3116707617785365e-15 0.8819212643496906 -0.4713967368234989
  outer loop
    vertex 35092.39338980006 -38923.912326624406 184.5713842057033
    vertex 35096.393389800134 -38925.63115518391 181.35568214838304
    vertex 35092.39338980006 -38925.63115518391 181.35568214838304
  endloop
endfacet
facet normal -3.3116707617785365e-15 0.8819212643496906 -0.4713967368234989
  outer loop
    vertex 35096.393389800134 -38925.63115518391 181.35568214838304
    vertex 35092.39338980006 -38923.912326624406 184.5713842057033
    vertex 35096.393389800134 -38923.912326624406 184.5713842057033
  endloop
endfacet
facet normal -3.1539068481404598e-15 0.9108638249201417 -0.4127070298066769
  outer loop
    vertex 35092.39338980006 -38925.63115518391 181.35568214838304
    vertex 35096.393389800134 -38927.135986622365 178.03444838961954
    vertex 35092.39338980006 -38927.135986622365 178.03444838961954
  endloop
endfacet
facet normal -3.1539068481404598e-15 0.9108638249201417 -0.4127070298066769
  outer loop
    vertex 35096.393389800134 -38927.135986622365 178.03444838961954
    vertex 35092.39338980006 -38925.63115518391 181.35568214838304
    vertex 35096.393389800134 -38925.63115518391 181.35568214838304
  endloop
endfacet
facet normal -0.0 0.935905926758984 -0.35225004791682807
  outer loop
    vertex 35092.39338980006 -38927.135986622365 178.03444838961954
    vertex 35096.393389800134 -38927.52048036497 177.01287302112715
    vertex 35092.39338980006 -38927.52048036497 177.01287302112715
  endloop
endfacet
facet normal -0.0 0.935905926758984 -0.35225004791682807
  outer loop
    vertex 35096.393389800134 -38927.52048036497 177.01287302112715
    vertex 35092.39338980006 -38927.135986622365 178.03444838961954
    vertex 35096.393389800134 -38927.135986622365 178.03444838961954
  endloop
endfacet
facet normal 1.9699302261219057e-13 -0.8548668159137808 0.5188474988370229
  outer loop
    vertex 35096.393389800134 -38941.1112130651 185.33651691083105
    vertex 35092.39338980006 -38946.16311323596 177.01287302114335
    vertex 35096.393389800134 -38946.16311323596 177.01287302114335
  endloop
endfacet
facet normal 1.9699302261219057e-13 -0.8548668159137808 0.5188474988370229
  outer loop
    vertex 35092.39338980006 -38946.16311323596 177.01287302114335
    vertex 35096.393389800134 -38941.1112130651 185.33651691083105
    vertex 35092.39338980006 -38931.71189925239 200.8230741147475
  endloop
endfacet
facet normal 1.9699302261219057e-13 -0.8548668159137808 0.5188474988370229
  outer loop
    vertex 35092.39338980006 -38931.71189925239 200.8230741147475
    vertex 35096.393389800134 -38941.1112130651 185.33651691083105
    vertex 35096.393389800134 -38939.29041189756 188.33651691083116
  endloop
endfacet
facet normal 1.9699302261219057e-13 -0.8548668159137808 0.5188474988370229
  outer loop
    vertex 35092.39338980006 -38931.71189925239 200.8230741147475
    vertex 35096.393389800134 -38939.29041189756 188.33651691083116
    vertex 35096.393389800134 -38931.71189925239 200.8230741147475
  endloop
endfacet
facet normal 0.0 -0.7533809618354452 0.6575843112057188
  outer loop
    vertex 35096.393389800134 -38915.36480641517 219.55160567344015
    vertex 35092.39338980006 -38931.71189925239 200.8230741147475
    vertex 35096.393389800134 -38931.71189925239 200.8230741147475
  endloop
endfacet
facet normal 0.0 -0.7533809618354452 0.6575843112057188
  outer loop
    vertex 35092.39338980006 -38931.71189925239 200.8230741147475
    vertex 35096.393389800134 -38915.36480641517 219.55160567344015
    vertex 35092.39338980006 -38915.36480641517 219.55160567344015
  endloop
endfacet
facet normal 0.0 0.7533809569098555 0.6575843168488665
  outer loop
    vertex 35092.39338980006 -38835.794071551485 219.55160567337097
    vertex 35096.393389800134 -38819.4469784353 200.82307407824325
    vertex 35092.39338980006 -38819.4469784353 200.82307407824325
  endloop
endfacet
facet normal 0.0 0.7533809569098555 0.6575843168488665
  outer loop
    vertex 35096.393389800134 -38819.4469784353 200.82307407824325
    vertex 35092.39338980006 -38835.794071551485 219.55160567337097
    vertex 35096.393389800134 -38835.794071551485 219.55160567337097
  endloop
endfacet
facet normal 0.0 0.8548670218288439 0.5188471595657848
  outer loop
    vertex 35092.39338980006 -38819.4469784353 200.82307407824325
    vertex 35096.393389800134 -38804.99577740958 177.01287302971565
    vertex 35092.39338980006 -38804.99577740958 177.01287302971565
  endloop
endfacet
facet normal 0.0 0.8548670218288439 0.5188471595657848
  outer loop
    vertex 35096.393389800134 -38804.99577740958 177.01287302971565
    vertex 35092.39338980006 -38819.4469784353 200.82307407824325
    vertex 35096.393389800134 -38819.4469784353 200.82307407824325
  endloop
endfacet
facet normal -1.3086325586113134e-14 -0.9569403357323779 -0.2902846772539053
  outer loop
    vertex 35096.393389800134 -38822.89356859749 174.6219049621287
    vertex 35092.39338980006 -38821.97039490864 171.5786091598266
    vertex 35096.39338980013 -38821.97039490864 171.57860915982624
  endloop
endfacet
facet normal -1.3086325586113134e-14 -0.9569403357323779 -0.2902846772539053
  outer loop
    vertex 35092.39338980006 -38821.97039490864 171.5786091598266
    vertex 35096.393389800134 -38822.89356859749 174.6219049621287
    vertex 35092.39338980006 -38822.89356859749 174.6219049621287
  endloop
endfacet
facet normal 1.0684777580342879e-13 -0.9359059267576465 -0.35225004792038167
  outer loop
    vertex 35096.393389800134 -38824.17795899558 178.03444838951611
    vertex 35092.39338980006 -38822.89356859749 174.6219049621287
    vertex 35096.393389800134 -38822.89356859749 174.6219049621287
  endloop
endfacet
facet normal 1.0684777580342879e-13 -0.9359059267576465 -0.35225004792038167
  outer loop
    vertex 35092.39338980006 -38822.89356859749 174.6219049621287
    vertex 35096.393389800134 -38824.17795899558 178.03444838951611
    vertex 35092.39338980006 -38824.17795899558 178.03444838951611
  endloop
endfacet
facet normal 1.8831858821164927e-16 -0.9108638249225065 -0.4127070298014579
  outer loop
    vertex 35096.393389800134 -38825.68279043397 181.355682148292
    vertex 35092.39338980006 -38824.17795899558 178.03444838951611
    vertex 35096.393389800134 -38824.17795899558 178.03444838951611
  endloop
endfacet
facet normal 1.8831858821164927e-16 -0.9108638249225065 -0.4127070298014579
  outer loop
    vertex 35092.39338980006 -38824.17795899558 178.03444838951611
    vertex 35096.393389800134 -38825.68279043397 181.355682148292
    vertex 35092.39338980006 -38825.68279043397 181.355682148292
  endloop
endfacet
facet normal -7.564403430278792e-17 -0.8819212643475587 -0.47139673682748773
  outer loop
    vertex 35096.393389800134 -38827.40161899353 184.5713842055992
    vertex 35092.39338980006 -38825.68279043397 181.355682148292
    vertex 35096.393389800134 -38825.68279043397 181.355682148292
  endloop
endfacet
facet normal -7.564403430278792e-17 -0.8819212643475587 -0.47139673682748773
  outer loop
    vertex 35092.39338980006 -38825.68279043397 181.355682148292
    vertex 35096.393389800134 -38827.40161899353 184.5713842055992
    vertex 35092.39338980006 -38827.40161899353 184.5713842055992
  endloop
endfacet
facet normal -3.3928273742087864e-16 -0.8492021815268135 -0.5280678506499907
  outer loop
    vertex 35096.393389800134 -38829.32708438638 187.66778443156275
    vertex 35092.39338980006 -38827.40161899353 184.5713842055992
    vertex 35096.393389800134 -38827.40161899353 184.5713842055992
  endloop
endfacet
facet normal -3.3928273742087864e-16 -0.8492021815268135 -0.5280678506499907
  outer loop
    vertex 35092.39338980006 -38827.40161899353 184.5713842055992
    vertex 35096.393389800134 -38829.32708438638 187.66778443156275
    vertex 35092.39338980006 -38829.32708438638 187.66778443156275
  endloop
endfacet
facet normal -6.014685797609143e-16 -0.8128466845944136 -0.5824776968638972
  outer loop
    vertex 35096.393389800134 -38831.45094147417 190.63162356504841
    vertex 35092.39338980006 -38829.32708438638 187.66778443156275
    vertex 35096.393389800134 -38829.32708438638 187.66778443156275
  endloop
endfacet
facet normal -6.014685797609143e-16 -0.8128466845944136 -0.5824776968638972
  outer loop
    vertex 35092.39338980006 -38829.32708438638 187.66778443156275
    vertex 35096.393389800134 -38831.45094147417 190.63162356504841
    vertex 35092.39338980006 -38831.45094147417 190.63162356504841
  endloop
endfacet
facet normal -8.61078841337825e-16 -0.7730104533630449 -0.6343932841632703
  outer loop
    vertex 35096.393389800134 -38833.76409557474 193.45020999185212
    vertex 35092.39338980006 -38831.45094147417 190.63162356504841
    vertex 35096.393389800134 -38831.45094147417 190.63162356504841
  endloop
endfacet
facet normal -8.61078841337825e-16 -0.7730104533630449 -0.6343932841632703
  outer loop
    vertex 35092.39338980006 -38831.45094147417 190.63162356504841
    vertex 35096.393389800134 -38833.76409557474 193.45020999185212
    vertex 35092.39338980006 -38833.76409557474 193.45020999185212
  endloop
endfacet
facet normal -1.1170018310980664e-15 -0.7298640726991557 -0.683592302021462
  outer loop
    vertex 35096.393389800134 -38836.25664140718 196.1114740921899
    vertex 35092.39338980006 -38833.76409557474 193.45020999185212
    vertex 35096.393389800134 -38833.76409557474 193.45020999185212
  endloop
endfacet
facet normal -1.1170018310980664e-15 -0.7298640726991557 -0.683592302021462
  outer loop
    vertex 35092.39338980006 -38833.76409557474 193.45020999185212
    vertex 35096.393389800134 -38836.25664140718 196.1114740921899
    vertex 35092.39338980006 -38836.25664140718 196.1114740921899
  endloop
endfacet
facet normal -1.368141647535745e-15 -0.6835923020247149 -0.7298640726961091
  outer loop
    vertex 35096.393389800134 -38836.25664140718 196.1114740921899
    vertex 35092.39338980006 -38838.91790550751 198.60401992461948
    vertex 35092.39338980006 -38836.25664140718 196.1114740921899
  endloop
endfacet
facet normal -1.368141647535745e-15 -0.6835923020247149 -0.7298640726961091
  outer loop
    vertex 35092.39338980006 -38838.91790550751 198.60401992461948
    vertex 35096.393389800134 -38836.25664140718 196.1114740921899
    vertex 35096.393389800134 -38838.91790550751 198.60401992461948
  endloop
endfacet
facet normal -1.6134228714153797e-15 -0.6343932841623939 -0.7730104533637642
  outer loop
    vertex 35096.393389800134 -38838.91790550751 198.60401992461948
    vertex 35092.39338980006 -38841.736491934294 200.91717402520962
    vertex 35092.39338980006 -38838.91790550751 198.60401992461948
  endloop
endfacet
facet normal -1.6134228714153797e-15 -0.6343932841623939 -0.7730104533637642
  outer loop
    vertex 35092.39338980006 -38841.736491934294 200.91717402520962
    vertex 35096.393389800134 -38838.91790550751 198.60401992461948
    vertex 35096.393389800134 -38841.736491934294 200.91717402520962
  endloop
endfacet
facet normal 1.0 6.519865584674467e-13 -1.9785631448017791e-13
  outer loop
    vertex 35096.39338980013 -38931.43739939604 185.33651691083165
    vertex 35096.393389800134 -38939.29041189756 188.33651691083116
    vertex 35096.393389800134 -38941.1112130651 185.33651691083105
  endloop
endfacet
facet normal 1.0 6.519865584674467e-13 -1.9785631448017791e-13
  outer loop
    vertex 35096.393389800134 -38939.29041189756 188.33651691083116
    vertex 35096.39338980013 -38931.43739939604 185.33651691083165
    vertex 35096.39338980013 -38931.43739939603 188.33651691083165
  endloop
endfacet
facet normal 0.0 8.69266043633123e-13 1.0
  outer loop
    vertex 35096.393389800134 -38915.36480641517 219.55160567344015
    vertex 35092.39338980006 -38835.794071551485 219.55160567337097
    vertex 35092.39338980006 -38915.36480641517 219.55160567344015
  endloop
endfacet
facet normal 0.0 8.69266043633123e-13 1.0
  outer loop
    vertex 35092.39338980006 -38835.794071551485 219.55160567337097
    vertex 35096.393389800134 -38915.36480641517 219.55160567344015
    vertex 35096.393389800134 -38835.794071551485 219.55160567337097
  endloop
endfacet
facet normal -5.494288497250046e-14 -0.7933533402918013 -0.6087614290079828
  outer loop
    vertex 35096.39338980013 -38821.97039490864 171.57860915982624
    vertex 35092.39338980006 -38821.040607606425 170.36688675622966
    vertex 35096.39338980013 -38821.040607606425 170.3668867562293
  endloop
endfacet
facet normal -5.494288497250046e-14 -0.7933533402918013 -0.6087614290079828
  outer loop
    vertex 35092.39338980006 -38821.040607606425 170.36688675622966
    vertex 35096.39338980013 -38821.97039490864 171.57860915982624
    vertex 35092.39338980006 -38821.97039490864 171.5786091598266
  endloop
endfacet
facet normal -1.4396236792989036e-13 -0.6087614290086054 -0.7933533402913235
  outer loop
    vertex 35096.39338980013 -38819.094043294564 168.87323542591957
    vertex 35092.39338980006 -38821.040607606425 170.36688675622966
    vertex 35092.39338980006 -38819.094043294564 168.87323542591994
  endloop
endfacet
facet normal -1.4396236792989036e-13 -0.6087614290086054 -0.7933533402913235
  outer loop
    vertex 35092.39338980006 -38821.040607606425 170.36688675622966
    vertex 35096.39338980013 -38819.094043294564 168.87323542591957
    vertex 35096.39338980013 -38821.040607606425 170.3668867562293
  endloop
endfacet
facet normal -1.293431451973745e-13 -0.3826834323662336 -0.923879532510813
  outer loop
    vertex 35096.39338980013 -38816.82722114221 167.93428694692196
    vertex 35092.39338980006 -38819.094043294564 168.87323542591994
    vertex 35092.39338980006 -38816.82722114221 167.93428694692233
  endloop
endfacet
facet normal -1.293431451973745e-13 -0.3826834323662336 -0.923879532510813
  outer loop
    vertex 35092.39338980006 -38819.094043294564 168.87323542591994
    vertex 35096.39338980013 -38816.82722114221 167.93428694692196
    vertex 35096.39338980013 -38819.094043294564 168.87323542591957
  endloop
endfacet
facet normal -1.0590940086920169e-13 -0.1305261922207304 -0.991444861373721
  outer loop
    vertex 35096.39338980013 -38814.3946213329 167.61402910639438
    vertex 35092.39338980006 -38816.82722114221 167.93428694692233
    vertex 35092.39338980006 -38814.3946213329 167.61402910639475
  endloop
endfacet
facet normal -1.0590940086920169e-13 -0.1305261922207304 -0.991444861373721
  outer loop
    vertex 35092.39338980006 -38816.82722114221 167.93428694692233
    vertex 35096.39338980013 -38814.3946213329 167.61402910639438
    vertex 35096.39338980013 -38816.82722114221 167.93428694692196
  endloop
endfacet
facet normal -7.525810589539741e-14 0.13052619221934492 -0.9914448613739034
  outer loop
    vertex 35096.39338980013 -38811.9620215236 167.93428694691772
    vertex 35092.39338980006 -38814.3946213329 167.61402910639475
    vertex 35092.39338980006 -38811.9620215236 167.9342869469181
  endloop
endfacet
facet normal -7.525810589539741e-14 0.13052619221934492 -0.9914448613739034
  outer loop
    vertex 35092.39338980006 -38814.3946213329 167.61402910639475
    vertex 35096.39338980013 -38811.9620215236 167.93428694691772
    vertex 35096.39338980013 -38814.3946213329 167.61402910639438
  endloop
endfacet
facet normal -3.9478095374783103e-14 0.38268343236402014 -0.9238795325117298
  outer loop
    vertex 35096.39338980013 -38809.695199371236 168.8732354259114
    vertex 35092.39338980006 -38811.9620215236 167.9342869469181
    vertex 35092.39338980006 -38809.695199371236 168.87323542591176
  endloop
endfacet
facet normal -3.9478095374783103e-14 0.38268343236402014 -0.9238795325117298
  outer loop
    vertex 35092.39338980006 -38811.9620215236 167.9342869469181
    vertex 35096.39338980013 -38809.695199371236 168.8732354259114
    vertex 35096.39338980013 -38811.9620215236 167.93428694691772
  endloop
endfacet
facet normal -1.007717894968555e-15 0.6087614290077432 -0.7933533402919853
  outer loop
    vertex 35096.39338980013 -38807.74863505942 170.36688675621775
    vertex 35092.39338980006 -38809.695199371236 168.87323542591176
    vertex 35092.39338980006 -38807.74863505942 170.3668867562181
  endloop
endfacet
facet normal -1.007717894968555e-15 0.6087614290077432 -0.7933533402919853
  outer loop
    vertex 35092.39338980006 -38809.695199371236 168.87323542591176
    vertex 35096.39338980013 -38807.74863505942 170.36688675621775
    vertex 35096.39338980013 -38809.695199371236 168.8732354259114
  endloop
endfacet
facet normal 3.753133389433836e-14 0.7933533402916361 -0.6087614290081984
  outer loop
    vertex 35092.39338980006 -38807.74863505942 170.3668867562181
    vertex 35096.39338980013 -38806.254983729115 172.31345106805185
    vertex 35096.39338980013 -38807.74863505942 170.36688675621775
  endloop
endfacet
facet normal 3.753133389433836e-14 0.7933533402916361 -0.6087614290081984
  outer loop
    vertex 35096.39338980013 -38806.254983729115 172.31345106805185
    vertex 35092.39338980006 -38807.74863505942 170.3668867562181
    vertex 35092.39338980006 -38806.254983729115 172.31345106805222
  endloop
endfacet
facet normal 7.351268730152391e-14 0.923879532510347 -0.3826834323673585
  outer loop
    vertex 35092.39338980006 -38806.254983729115 172.31345106805222
    vertex 35096.39338980013 -38805.31603525009 174.5802732204119
    vertex 35096.39338980013 -38806.254983729115 172.31345106805185
  endloop
endfacet
facet normal 7.351268730152391e-14 0.923879532510347 -0.3826834323673585
  outer loop
    vertex 35096.39338980013 -38805.31603525009 174.5802732204119
    vertex 35092.39338980006 -38806.254983729115 172.31345106805222
    vertex 35092.39338980006 -38805.31603525009 174.58027322041227
  endloop
endfacet
facet normal -5.888607125030718e-15 0.9914448613738177 -0.13052619221999678
  outer loop
    vertex 35092.39338980006 -38805.31603525009 174.58027322041227
    vertex 35096.393389800134 -38804.99577740958 177.01287302971565
    vertex 35096.39338980013 -38805.31603525009 174.5802732204119
  endloop
endfacet
facet normal -5.888607125030718e-15 0.9914448613738177 -0.13052619221999678
  outer loop
    vertex 35096.393389800134 -38804.99577740958 177.01287302971565
    vertex 35092.39338980006 -38805.31603525009 174.58027322041227
    vertex 35092.39338980006 -38804.99577740958 177.01287302971565
  endloop
endfacet
facet normal -0.0 0.7933533402927435 -0.608761429006755
  outer loop
    vertex 35092.39338980006 -38815.66741353905 178.28566523586042
    vertex 35096.393389800076 -38815.95346705972 177.91287302972498
    vertex 35092.39338980006 -38815.95346705972 177.91287302972498
  endloop
endfacet
facet normal -0.0 0.7933533402927435 -0.608761429006755
  outer loop
    vertex 35096.393389800076 -38815.95346705972 177.91287302972498
    vertex 35092.39338980006 -38815.66741353905 178.28566523586042
    vertex 35096.393389800076 -38815.66741353905 178.28566523586042
  endloop
endfacet
facet normal -0.0 0.6087614290065205 -0.7933533402929234
  outer loop
    vertex 35096.393389800076 -38815.29462133291 178.57171875653623
    vertex 35092.39338980006 -38815.66741353905 178.28566523586042
    vertex 35092.39338980006 -38815.29462133291 178.57171875653623
  endloop
endfacet
facet normal -0.0 0.6087614290065205 -0.7933533402929234
  outer loop
    vertex 35092.39338980006 -38815.66741353905 178.28566523586042
    vertex 35096.393389800076 -38815.29462133291 178.57171875653623
    vertex 35096.393389800076 -38815.66741353905 178.28566523586042
  endloop
endfacet
facet normal 0.0 -0.6087614290065205 0.7933533402929234
  outer loop
    vertex 35096.393389800076 -38813.4946213329 175.4540273029114
    vertex 35092.39338980006 -38813.121829126765 175.74008082358722
    vertex 35092.39338980006 -38813.4946213329 175.4540273029114
  endloop
endfacet
facet normal 0.0 -0.6087614290065205 0.7933533402929234
  outer loop
    vertex 35092.39338980006 -38813.121829126765 175.74008082358722
    vertex 35096.393389800076 -38813.4946213329 175.4540273029114
    vertex 35096.393389800076 -38813.121829126765 175.74008082358722
  endloop
endfacet
facet normal -0.0 0.9914448613738679 -0.13052619221961587
  outer loop
    vertex 35092.39338980006 -38816.13328782024 177.47874731090977
    vertex 35096.393389800076 -38816.194621332914 177.0128730297254
    vertex 35092.39338980006 -38816.194621332914 177.0128730297254
  endloop
endfacet
facet normal -0.0 0.9914448613738679 -0.13052619221961587
  outer loop
    vertex 35096.393389800076 -38816.194621332914 177.0128730297254
    vertex 35092.39338980006 -38816.13328782024 177.47874731090977
    vertex 35096.393389800076 -38816.13328782024 177.47874731090977
  endloop
endfacet
facet normal 0.0 -0.9238795325133774 -0.3826834323600426
  outer loop
    vertex 35096.393389800076 -38812.8357756061 177.91287302972225
    vertex 35092.39338980006 -38812.65595484559 177.47874731090675
    vertex 35096.393389800076 -38812.65595484559 177.47874731090675
  endloop
endfacet
facet normal 0.0 -0.9238795325133774 -0.3826834323600426
  outer loop
    vertex 35092.39338980006 -38812.65595484559 177.47874731090675
    vertex 35096.393389800076 -38812.8357756061 177.91287302972225
    vertex 35092.39338980006 -38812.8357756061 177.91287302972225
  endloop
endfacet
facet normal 0.0 -0.6087614290133329 -0.7933533402876962
  outer loop
    vertex 35096.393389800076 -38813.12182912678 178.2856652358582
    vertex 35092.39338980006 -38813.49462133291 178.57171875653466
    vertex 35092.39338980006 -38813.12182912678 178.2856652358582
  endloop
endfacet
facet normal 0.0 -0.6087614290133329 -0.7933533402876962
  outer loop
    vertex 35092.39338980006 -38813.49462133291 178.57171875653466
    vertex 35096.393389800076 -38813.12182912678 178.2856652358582
    vertex 35096.393389800076 -38813.49462133291 178.57171875653466
  endloop
endfacet
facet normal 0.0 -0.9238795325089406 0.382683432370754
  outer loop
    vertex 35096.393389800076 -38812.65595484559 176.54699874853787
    vertex 35092.39338980006 -38812.83577560611 176.11287302972266
    vertex 35096.393389800076 -38812.83577560611 176.11287302972266
  endloop
endfacet
facet normal 0.0 -0.9238795325089406 0.382683432370754
  outer loop
    vertex 35092.39338980006 -38812.83577560611 176.11287302972266
    vertex 35096.393389800076 -38812.65595484559 176.54699874853787
    vertex 35092.39338980006 -38812.65595484559 176.54699874853787
  endloop
endfacet
facet normal 0.0 -0.13052619222043121 0.9914448613737605
  outer loop
    vertex 35096.393389800076 -38814.394621332896 175.21287302972422
    vertex 35092.39338980006 -38813.928747051716 175.2742065424035
    vertex 35092.39338980006 -38814.394621332896 175.21287302972422
  endloop
endfacet
facet normal 0.0 -0.13052619222043121 0.9914448613737605
  outer loop
    vertex 35092.39338980006 -38813.928747051716 175.2742065424035
    vertex 35096.393389800076 -38814.394621332896 175.21287302972422
    vertex 35096.393389800076 -38813.928747051716 175.2742065424035
  endloop
endfacet
facet normal -0.0 0.9238795325089406 -0.382683432370754
  outer loop
    vertex 35092.39338980006 -38815.95346705972 177.91287302972498
    vertex 35096.393389800076 -38816.13328782024 177.47874731090977
    vertex 35092.39338980006 -38816.13328782024 177.47874731090977
  endloop
endfacet
facet normal -0.0 0.9238795325089406 -0.382683432370754
  outer loop
    vertex 35096.393389800076 -38816.13328782024 177.47874731090977
    vertex 35092.39338980006 -38815.95346705972 177.91287302972498
    vertex 35096.393389800076 -38815.95346705972 177.91287302972498
  endloop
endfacet
facet normal 0.0 -0.7933533402927435 0.608761429006755
  outer loop
    vertex 35096.393389800076 -38812.83577560611 176.11287302972266
    vertex 35092.39338980006 -38813.121829126765 175.74008082358722
    vertex 35096.393389800076 -38813.121829126765 175.74008082358722
  endloop
endfacet
facet normal 0.0 -0.7933533402927435 0.608761429006755
  outer loop
    vertex 35092.39338980006 -38813.121829126765 175.74008082358722
    vertex 35096.393389800076 -38812.83577560611 176.11287302972266
    vertex 35092.39338980006 -38812.83577560611 176.11287302972266
  endloop
endfacet
facet normal -0.0 0.38268343236328606 -0.923879532512034
  outer loop
    vertex 35096.393389800076 -38814.86049561409 178.75153951704414
    vertex 35092.39338980006 -38815.29462133291 178.57171875653623
    vertex 35092.39338980006 -38814.86049561409 178.75153951704414
  endloop
endfacet
facet normal -0.0 0.38268343236328606 -0.923879532512034
  outer loop
    vertex 35092.39338980006 -38815.29462133291 178.57171875653623
    vertex 35096.393389800076 -38814.86049561409 178.75153951704414
    vertex 35096.393389800076 -38815.29462133291 178.57171875653623
  endloop
endfacet
facet normal 0.0 -0.38268343236328606 0.923879532512034
  outer loop
    vertex 35096.393389800076 -38813.928747051716 175.2742065424035
    vertex 35092.39338980006 -38813.4946213329 175.4540273029114
    vertex 35092.39338980006 -38813.928747051716 175.2742065424035
  endloop
endfacet
facet normal 0.0 -0.38268343236328606 0.923879532512034
  outer loop
    vertex 35092.39338980006 -38813.4946213329 175.4540273029114
    vertex 35096.393389800076 -38813.928747051716 175.2742065424035
    vertex 35096.393389800076 -38813.4946213329 175.4540273029114
  endloop
endfacet
facet normal 0.0 0.13052619222049244 0.9914448613737525
  outer loop
    vertex 35096.393389800076 -38814.860495614084 175.27420654240427
    vertex 35092.39338980006 -38814.394621332896 175.21287302972422
    vertex 35092.39338980006 -38814.860495614084 175.27420654240427
  endloop
endfacet
facet normal 0.0 0.13052619222049244 0.9914448613737525
  outer loop
    vertex 35092.39338980006 -38814.394621332896 175.21287302972422
    vertex 35096.393389800076 -38814.860495614084 175.27420654240427
    vertex 35096.393389800076 -38814.394621332896 175.21287302972422
  endloop
endfacet
facet normal 0.0 0.3826834323646794 0.9238795325114569
  outer loop
    vertex 35096.393389800076 -38815.2946213329 175.45402730291295
    vertex 35092.39338980006 -38814.860495614084 175.27420654240427
    vertex 35092.39338980006 -38815.2946213329 175.45402730291295
  endloop
endfacet
facet normal 0.0 0.3826834323646794 0.9238795325114569
  outer loop
    vertex 35092.39338980006 -38814.860495614084 175.27420654240427
    vertex 35096.393389800076 -38815.2946213329 175.45402730291295
    vertex 35096.393389800076 -38814.860495614084 175.27420654240427
  endloop
endfacet
facet normal 0.0 -0.9914448613738679 0.13052619221961587
  outer loop
    vertex 35096.393389800076 -38812.594621332915 177.01287302972224
    vertex 35092.39338980006 -38812.65595484559 176.54699874853787
    vertex 35096.393389800076 -38812.65595484559 176.54699874853787
  endloop
endfacet
facet normal 0.0 -0.9914448613738679 0.13052619221961587
  outer loop
    vertex 35092.39338980006 -38812.65595484559 176.54699874853787
    vertex 35096.393389800076 -38812.594621332915 177.01287302972224
    vertex 35092.39338980006 -38812.594621332915 177.01287302972224
  endloop
endfacet
facet normal 0.0 -0.3826834323646794 -0.9238795325114569
  outer loop
    vertex 35096.393389800076 -38813.49462133291 178.57171875653466
    vertex 35092.39338980006 -38813.92874705173 178.75153951704334
    vertex 35092.39338980006 -38813.49462133291 178.57171875653466
  endloop
endfacet
facet normal 0.0 -0.3826834323646794 -0.9238795325114569
  outer loop
    vertex 35092.39338980006 -38813.92874705173 178.75153951704334
    vertex 35096.393389800076 -38813.49462133291 178.57171875653466
    vertex 35096.393389800076 -38813.92874705173 178.75153951704334
  endloop
endfacet
facet normal 0.0 -0.13052619222049244 -0.9914448613737525
  outer loop
    vertex 35096.393389800076 -38813.92874705173 178.75153951704334
    vertex 35092.39338980006 -38814.39462133291 178.81287302972342
    vertex 35092.39338980006 -38813.92874705173 178.75153951704334
  endloop
endfacet
facet normal 0.0 -0.13052619222049244 -0.9914448613737525
  outer loop
    vertex 35092.39338980006 -38814.39462133291 178.81287302972342
    vertex 35096.393389800076 -38813.92874705173 178.75153951704334
    vertex 35096.393389800076 -38814.39462133291 178.81287302972342
  endloop
endfacet
facet normal 0.0 0.6087614290133329 0.7933533402876962
  outer loop
    vertex 35096.393389800076 -38815.66741353903 175.74008082358944
    vertex 35092.39338980006 -38815.2946213329 175.45402730291295
    vertex 35092.39338980006 -38815.66741353903 175.74008082358944
  endloop
endfacet
facet normal 0.0 0.6087614290133329 0.7933533402876962
  outer loop
    vertex 35092.39338980006 -38815.2946213329 175.45402730291295
    vertex 35096.393389800076 -38815.66741353903 175.74008082358944
    vertex 35096.393389800076 -38815.2946213329 175.45402730291295
  endloop
endfacet
facet normal 0.0 0.7933533402871991 0.6087614290139808
  outer loop
    vertex 35092.39338980006 -38815.95346705973 176.11287302972536
    vertex 35096.393389800076 -38815.66741353903 175.74008082358944
    vertex 35092.39338980006 -38815.66741353903 175.74008082358944
  endloop
endfacet
facet normal 0.0 0.7933533402871991 0.6087614290139808
  outer loop
    vertex 35096.393389800076 -38815.66741353903 175.74008082358944
    vertex 35092.39338980006 -38815.95346705973 176.11287302972536
    vertex 35096.393389800076 -38815.95346705973 176.11287302972536
  endloop
endfacet
facet normal 0.0 0.9914448613738719 0.1305261922195848
  outer loop
    vertex 35092.39338980006 -38816.194621332914 177.0128730297254
    vertex 35096.393389800076 -38816.13328782024 176.5469987485409
    vertex 35092.39338980006 -38816.13328782024 176.5469987485409
  endloop
endfacet
facet normal 0.0 0.9914448613738719 0.1305261922195848
  outer loop
    vertex 35096.393389800076 -38816.13328782024 176.5469987485409
    vertex 35092.39338980006 -38816.194621332914 177.0128730297254
    vertex 35096.393389800076 -38816.194621332914 177.0128730297254
  endloop
endfacet
facet normal 0.0 -0.9914448613738719 -0.1305261922195848
  outer loop
    vertex 35096.393389800076 -38812.65595484559 177.47874731090675
    vertex 35092.39338980006 -38812.594621332915 177.01287302972224
    vertex 35096.393389800076 -38812.594621332915 177.01287302972224
  endloop
endfacet
facet normal 0.0 -0.9914448613738719 -0.1305261922195848
  outer loop
    vertex 35092.39338980006 -38812.594621332915 177.01287302972224
    vertex 35096.393389800076 -38812.65595484559 177.47874731090675
    vertex 35092.39338980006 -38812.65595484559 177.47874731090675
  endloop
endfacet
facet normal 0.0 -0.7933533402871991 -0.6087614290139808
  outer loop
    vertex 35096.393389800076 -38813.12182912678 178.2856652358582
    vertex 35092.39338980006 -38812.8357756061 177.91287302972225
    vertex 35096.393389800076 -38812.8357756061 177.91287302972225
  endloop
endfacet
facet normal 0.0 -0.7933533402871991 -0.6087614290139808
  outer loop
    vertex 35092.39338980006 -38812.8357756061 177.91287302972225
    vertex 35096.393389800076 -38813.12182912678 178.2856652358582
    vertex 35092.39338980006 -38813.12182912678 178.2856652358582
  endloop
endfacet
facet normal -0.0 0.13052619222043121 -0.9914448613737605
  outer loop
    vertex 35096.393389800076 -38814.39462133291 178.81287302972342
    vertex 35092.39338980006 -38814.86049561409 178.75153951704414
    vertex 35092.39338980006 -38814.39462133291 178.81287302972342
  endloop
endfacet
facet normal -0.0 0.13052619222043121 -0.9914448613737605
  outer loop
    vertex 35092.39338980006 -38814.86049561409 178.75153951704414
    vertex 35096.393389800076 -38814.39462133291 178.81287302972342
    vertex 35096.393389800076 -38814.86049561409 178.75153951704414
  endloop
endfacet
facet normal 0.0 0.9238795325133774 0.3826834323600426
  outer loop
    vertex 35092.39338980006 -38816.13328782024 176.5469987485409
    vertex 35096.393389800076 -38815.95346705973 176.11287302972536
    vertex 35092.39338980006 -38815.95346705973 176.11287302972536
  endloop
endfacet
facet normal 0.0 0.9238795325133774 0.3826834323600426
  outer loop
    vertex 35096.393389800076 -38815.95346705973 176.11287302972536
    vertex 35092.39338980006 -38816.13328782024 176.5469987485409
    vertex 35096.393389800076 -38816.13328782024 176.5469987485409
  endloop
endfacet
facet normal -1.0 0.0 0.0
  outer loop
    vertex 35092.39338980006 -38931.71189925239 200.8230741147475
    vertex 35092.39338980006 -38927.52048036497 177.01287302112715
    vertex 35092.39338980006 -38946.16311323596 177.01287302114335
  endloop
endfacet
facet normal -1.0 0.0 0.0
  outer loop
    vertex 35092.39338980006 -38927.52048036497 177.01287302112715
    vertex 35092.39338980006 -38931.71189925239 200.8230741147475
    vertex 35092.39338980006 -38915.36480641517 219.55160567344015
  endloop
endfacet
facet normal -1.0 0.0 0.0
  outer loop
    vertex 35092.39338980006 -38927.52048036497 177.01287302112715
    vertex 35092.39338980006 -38915.36480641517 219.55160567344015
    vertex 35092.39338980006 -38927.135986622365 178.03444838961954
  endloop
endfacet
facet normal -1.0 0.0 0.0
  outer loop
    vertex 35092.39338980006 -38927.135986622365 178.03444838961954
    vertex 35092.39338980006 -38915.36480641517 219.55160567344015
    vertex 35092.39338980006 -38925.63115518391 181.35568214838304
  endloop
endfacet
facet normal -1.0 0.0 0.0
  outer loop
    vertex 35092.39338980006 -38925.63115518391 181.35568214838304
    vertex 35092.39338980006 -38915.36480641517 219.55160567344015
    vertex 35092.39338980006 -38923.912326624406 184.5713842057033
  endloop
endfacet
facet normal -1.0 0.0 0.0
  outer loop
    vertex 35092.39338980006 -38923.912326624406 184.5713842057033
    vertex 35092.39338980006 -38915.36480641517 219.55160567344015
    vertex 35092.39338980006 -38921.98686123151 187.6677844316632
  endloop
endfacet
facet normal -1.0 0.0 0.0
  outer loop
    vertex 35092.39338980006 -38921.98686123151 187.6677844316632
    vertex 35092.39338980006 -38915.36480641517 219.55160567344015
    vertex 35092.39338980006 -38919.863004143735 190.63162356513797
  endloop
endfacet
facet normal -1.0 0.0 0.0
  outer loop
    vertex 35092.39338980006 -38919.863004143735 190.63162356513797
    vertex 35092.39338980006 -38915.36480641517 219.55160567344015
    vertex 35092.39338980006 -38917.54985004313 193.45020999194173
  endloop
endfacet
facet normal -1.0 0.0 0.0
  outer loop
    vertex 35092.39338980006 -38917.54985004313 193.45020999194173
    vertex 35092.39338980006 -38915.36480641517 219.55160567344015
    vertex 35092.39338980006 -38915.05730421071 196.1114740922753
  endloop
endfacet
facet normal -1.0 0.0 0.0
  outer loop
    vertex 35092.39338980006 -38915.05730421071 196.1114740922753
    vertex 35092.39338980006 -38915.36480641517 219.55160567344015
    vertex 35092.39338980006 -38912.39604011037 198.6040199247064
  endloop
endfacet
facet normal -1.0 0.0 0.0
  outer loop
    vertex 35092.39338980006 -38912.39604011037 198.6040199247064
    vertex 35092.39338980006 -38915.36480641517 219.55160567344015
    vertex 35092.39338980006 -38909.57745368356 200.91717402529176
  endloop
endfacet
facet normal -1.0 0.0 0.0
  outer loop
    vertex 35092.39338980006 -38909.57745368356 200.91717402529176
    vertex 35092.39338980006 -38915.36480641517 219.55160567344015
    vertex 35092.39338980006 -38906.61361455009 203.0410311130726
  endloop
endfacet
facet normal -1.0 0.0 0.0
  outer loop
    vertex 35092.39338980006 -38906.61361455009 203.0410311130726
    vertex 35092.39338980006 -38915.36480641517 219.55160567344015
    vertex 35092.39338980006 -38903.517214324114 204.96649650594452
  endloop
endfacet
facet normal -1.0 0.0 0.0
  outer loop
    vertex 35092.39338980006 -38903.517214324114 204.96649650594452
    vertex 35092.39338980006 -38915.36480641517 219.55160567344015
    vertex 35092.39338980006 -38900.30151226678 206.6853250654714
  endloop
endfacet
facet normal -1.0 0.0 0.0
  outer loop
    vertex 35092.39338980006 -38900.30151226678 206.6853250654714
    vertex 35092.39338980006 -38915.36480641517 219.55160567344015
    vertex 35092.39338980006 -38896.980278508 208.19015650389582
  endloop
endfacet
facet normal -1.0 0.0 0.0
  outer loop
    vertex 35092.39338980006 -38896.980278508 208.19015650389582
    vertex 35092.39338980006 -38915.36480641517 219.55160567344015
    vertex 35092.39338980006 -38893.567735080636 209.47454690196582
  endloop
endfacet
facet normal -1.0 0.0 0.0
  outer loop
    vertex 35092.39338980006 -38893.567735080636 209.47454690196582
    vertex 35092.39338980006 -38915.36480641517 219.55160567344015
    vertex 35092.39338980006 -38890.078495019494 210.53299630282208
  endloop
endfacet
facet normal -1.0 0.0 0.0
  outer loop
    vertex 35092.39338980006 -38890.078495019494 210.53299630282208
    vertex 35092.39338980006 -38915.36480641517 219.55160567344015
    vertex 35092.39338980006 -38886.527499786214 211.36097226362554
  endloop
endfacet
facet normal -1.0 0.0 0.0
  outer loop
    vertex 35092.39338980006 -38886.527499786214 211.36097226362554
    vertex 35092.39338980006 -38915.36480641517 219.55160567344015
    vertex 35092.39338980006 -38882.92995528754 211.9549292642043
  endloop
endfacet
facet normal -1.0 0.0 0.0
  outer loop
    vertex 35092.39338980006 -38882.92995528754 211.9549292642043
    vertex 35092.39338980006 -38915.36480641517 219.55160567344015
    vertex 35092.39338980006 -38835.794071551485 219.55160567337097
  endloop
endfacet
facet normal -1.0 0.0 0.0
  outer loop
    vertex 35092.39338980006 -38882.92995528754 211.9549292642043
    vertex 35092.39338980006 -38835.794071551485 219.55160567337097
    vertex 35092.39338980006 -38879.30126676132 212.31232388949164
  endloop
endfacet
facet normal -1.0 0.0 0.0
  outer loop
    vertex 35092.39338980006 -38879.30126676132 212.31232388949164
    vertex 35092.39338980006 -38835.794071551485 219.55160567337097
    vertex 35092.39338980006 -38875.656972808916 212.43162572083844
  endloop
endfacet
facet normal -1.0 0.0 0.0
  outer loop
    vertex 35092.39338980006 -38875.656972808916 212.43162572083844
    vertex 35092.39338980006 -38835.794071551485 219.55160567337097
    vertex 35092.39338980006 -38872.01267885651 212.31232388948112
  endloop
endfacet
facet normal -1.0 0.0 0.0
  outer loop
    vertex 35092.39338980006 -38872.01267885651 212.31232388948112
    vertex 35092.39338980006 -38835.794071551485 219.55160567337097
    vertex 35092.39338980006 -38868.383990330294 211.95492926418513
  endloop
endfacet
facet normal -1.0 0.0 0.0
  outer loop
    vertex 35092.39338980006 -38868.383990330294 211.95492926418513
    vertex 35092.39338980006 -38835.794071551485 219.55160567337097
    vertex 35092.39338980006 -38864.78644583162 211.36097226359362
  endloop
endfacet
facet normal -1.0 0.0 0.0
  outer loop
    vertex 35092.39338980006 -38864.78644583162 211.36097226359362
    vertex 35092.39338980006 -38835.794071551485 219.55160567337097
    vertex 35092.39338980006 -38861.23545059834 210.53299630278255
  endloop
endfacet
facet normal -1.0 0.0 0.0
  outer loop
    vertex 35092.39338980006 -38861.23545059834 210.53299630278255
    vertex 35092.39338980006 -38835.794071551485 219.55160567337097
    vertex 35092.39338980006 -38857.74621053721 209.4745469019231
  endloop
endfacet
facet normal -1.0 0.0 0.0
  outer loop
    vertex 35092.39338980006 -38857.74621053721 209.4745469019231
    vertex 35092.39338980006 -38835.794071551485 219.55160567337097
    vertex 35092.39338980006 -38854.33366710981 208.19015650384424
  endloop
endfacet
facet normal -1.0 0.0 0.0
  outer loop
    vertex 35092.39338980006 -38854.33366710981 208.19015650384424
    vertex 35092.39338980006 -38835.794071551485 219.55160567337097
    vertex 35092.39338980006 -38851.01243335105 206.68532506541402
  endloop
endfacet
facet normal -1.0 0.0 0.0
  outer loop
    vertex 35092.39338980006 -38851.01243335105 206.68532506541402
    vertex 35092.39338980006 -38835.794071551485 219.55160567337097
    vertex 35092.39338980006 -38847.79673129375 204.9664965058729
  endloop
endfacet
facet normal -1.0 0.0 0.0
  outer loop
    vertex 35092.39338980006 -38847.79673129375 204.9664965058729
    vertex 35092.39338980006 -38835.794071551485 219.55160567337097
    vertex 35092.39338980006 -38844.7003310678 203.04103111300702
  endloop
endfacet
facet normal -1.0 0.0 0.0
  outer loop
    vertex 35092.39338980006 -38844.7003310678 203.04103111300702
    vertex 35092.39338980006 -38835.794071551485 219.55160567337097
    vertex 35092.39338980006 -38841.736491934294 200.91717402520962
  endloop
endfacet
facet normal -1.0 0.0 0.0
  outer loop
    vertex 35092.39338980006 -38841.736491934294 200.91717402520962
    vertex 35092.39338980006 -38835.794071551485 219.55160567337097
    vertex 35092.39338980006 -38838.91790550751 198.60401992461948
  endloop
endfacet
facet normal -1.0 0.0 0.0
  outer loop
    vertex 35092.39338980006 -38838.91790550751 198.60401992461948
    vertex 35092.39338980006 -38835.794071551485 219.55160567337097
    vertex 35092.39338980006 -38836.25664140718 196.1114740921899
  endloop
endfacet
facet normal -1.0 0.0 0.0
  outer loop
    vertex 35092.39338980006 -38836.25664140718 196.1114740921899
    vertex 35092.39338980006 -38835.794071551485 219.55160567337097
    vertex 35092.39338980006 -38833.76409557474 193.45020999185212
  endloop
endfacet
facet normal -1.0 0.0 0.0
  outer loop
    vertex 35092.39338980006 -38833.76409557474 193.45020999185212
    vertex 35092.39338980006 -38835.794071551485 219.55160567337097
    vertex 35092.39338980006 -38819.4469784353 200.82307407824325
  endloop
endfacet
facet normal -1.0 0.0 0.0
  outer loop
    vertex 35092.39338980006 -38833.76409557474 193.45020999185212
    vertex 35092.39338980006 -38819.4469784353 200.82307407824325
    vertex 35092.39338980006 -38831.45094147417 190.63162356504841
  endloop
endfacet
facet normal -1.0 0.0 0.0
  outer loop
    vertex 35092.39338980006 -38831.45094147417 190.63162356504841
    vertex 35092.39338980006 -38819.4469784353 200.82307407824325
    vertex 35092.39338980006 -38829.32708438638 187.66778443156275
  endloop
endfacet
facet normal -1.0 0.0 0.0
  outer loop
    vertex 35092.39338980006 -38829.32708438638 187.66778443156275
    vertex 35092.39338980006 -38819.4469784353 200.82307407824325
    vertex 35092.39338980006 -38827.40161899353 184.5713842055992
  endloop
endfacet
facet normal -1.0 0.0 0.0
  outer loop
    vertex 35092.39338980006 -38827.40161899353 184.5713842055992
    vertex 35092.39338980006 -38819.4469784353 200.82307407824325
    vertex 35092.39338980006 -38825.68279043397 181.355682148292
  endloop
endfacet
facet normal -1.0 0.0 0.0
  outer loop
    vertex 35092.39338980006 -38825.68279043397 181.355682148292
    vertex 35092.39338980006 -38819.4469784353 200.82307407824325
    vertex 35092.39338980006 -38824.17795899558 178.03444838951611
  endloop
endfacet
facet normal -1.0 0.0 0.0
  outer loop
    vertex 35092.39338980006 -38824.17795899558 178.03444838951611
    vertex 35092.39338980006 -38819.4469784353 200.82307407824325
    vertex 35092.39338980006 -38822.89356859749 174.6219049621287
  endloop
endfacet
facet normal -1.0 0.0 0.0
  outer loop
    vertex 35092.39338980006 -38822.89356859749 174.6219049621287
    vertex 35092.39338980006 -38819.4469784353 200.82307407824325
    vertex 35092.39338980006 -38821.97039490864 171.5786091598266
  endloop
endfacet
facet normal -1.0 0.0 0.0
  outer loop
    vertex 35092.39338980006 -38821.97039490864 171.5786091598266
    vertex 35092.39338980006 -38819.4469784353 200.82307407824325
    vertex 35092.39338980006 -38821.040607606425 170.36688675622966
  endloop
endfacet
facet normal -1.0 0.0 0.0
  outer loop
    vertex 35092.39338980006 -38821.040607606425 170.36688675622966
    vertex 35092.39338980006 -38819.4469784353 200.82307407824325
    vertex 35092.39338980006 -38819.094043294564 168.87323542591994
  endloop
endfacet
facet normal -1.0 0.0 0.0
  outer loop
    vertex 35092.39338980006 -38819.094043294564 168.87323542591994
    vertex 35092.39338980006 -38819.4469784353 200.82307407824325
    vertex 35092.39338980006 -38816.13328782024 177.47874731090977
  endloop
endfacet
facet normal -1.0 0.0 0.0
  outer loop
    vertex 35092.39338980006 -38816.13328782024 177.47874731090977
    vertex 35092.39338980006 -38819.4469784353 200.82307407824325
    vertex 35092.39338980006 -38815.95346705972 177.91287302972498
  endloop
endfacet
facet normal -1.0 0.0 0.0
  outer loop
    vertex 35092.39338980006 -38815.95346705972 177.91287302972498
    vertex 35092.39338980006 -38819.4469784353 200.82307407824325
    vertex 35092.39338980006 -38815.66741353905 178.28566523586042
  endloop
endfacet
facet normal -1.0 0.0 0.0
  outer loop
    vertex 35092.39338980006 -38815.66741353905 178.28566523586042
    vertex 35092.39338980006 -38819.4469784353 200.82307407824325
    vertex 35092.39338980006 -38815.29462133291 178.57171875653623
  endloop
endfacet
facet normal -1.0 0.0 0.0
  outer loop
    vertex 35092.39338980006 -38815.29462133291 178.57171875653623
    vertex 35092.39338980006 -38819.4469784353 200.82307407824325
    vertex 35092.39338980006 -38814.86049561409 178.75153951704414
  endloop
endfacet
facet normal -1.0 0.0 0.0
  outer loop
    vertex 35092.39338980006 -38814.86049561409 178.75153951704414
    vertex 35092.39338980006 -38819.4469784353 200.82307407824325
    vertex 35092.39338980006 -38814.39462133291 178.81287302972342
  endloop
endfacet
facet normal -1.0 0.0 0.0
  outer loop
    vertex 35092.39338980006 -38814.39462133291 178.81287302972342
    vertex 35092.39338980006 -38819.4469784353 200.82307407824325
    vertex 35092.39338980006 -38813.92874705173 178.75153951704334
  endloop
endfacet
facet normal -1.0 0.0 0.0
  outer loop
    vertex 35092.39338980006 -38813.92874705173 178.75153951704334
    vertex 35092.39338980006 -38819.4469784353 200.82307407824325
    vertex 35092.39338980006 -38804.99577740958 177.01287302971565
  endloop
endfacet
facet normal -1.0 0.0 0.0
  outer loop
    vertex 35092.39338980006 -38819.094043294564 168.87323542591994
    vertex 35092.39338980006 -38816.13328782024 177.47874731090977
    vertex 35092.39338980006 -38816.194621332914 177.0128730297254
  endloop
endfacet
facet normal -1.0 0.0 0.0
  outer loop
    vertex 35092.39338980006 -38819.094043294564 168.87323542591994
    vertex 35092.39338980006 -38816.194621332914 177.0128730297254
    vertex 35092.39338980006 -38816.82722114221 167.93428694692233
  endloop
endfacet
facet normal -1.0 0.0 0.0
  outer loop
    vertex 35092.39338980006 -38813.92874705173 178.75153951704334
    vertex 35092.39338980006 -38804.99577740958 177.01287302971565
    vertex 35092.39338980006 -38813.49462133291 178.57171875653466
  endloop
endfacet
facet normal -1.0 0.0 0.0
  outer loop
    vertex 35092.39338980006 -38813.49462133291 178.57171875653466
    vertex 35092.39338980006 -38804.99577740958 177.01287302971565
    vertex 35092.39338980006 -38813.12182912678 178.2856652358582
  endloop
endfacet
facet normal -1.0 0.0 0.0
  outer loop
    vertex 35092.39338980006 -38813.12182912678 178.2856652358582
    vertex 35092.39338980006 -38804.99577740958 177.01287302971565
    vertex 35092.39338980006 -38812.8357756061 177.91287302972225
  endloop
endfacet
facet normal -1.0 0.0 0.0
  outer loop
    vertex 35092.39338980006 -38812.8357756061 177.91287302972225
    vertex 35092.39338980006 -38804.99577740958 177.01287302971565
    vertex 35092.39338980006 -38812.65595484559 177.47874731090675
  endloop
endfacet
facet normal -1.0 0.0 0.0
  outer loop
    vertex 35092.39338980006 -38812.65595484559 177.47874731090675
    vertex 35092.39338980006 -38804.99577740958 177.01287302971565
    vertex 35092.39338980006 -38812.594621332915 177.01287302972224
  endloop
endfacet
facet normal -1.0 0.0 0.0
  outer loop
    vertex 35092.39338980006 -38812.594621332915 177.01287302972224
    vertex 35092.39338980006 -38804.99577740958 177.01287302971565
    vertex 35092.39338980006 -38811.9620215236 167.9342869469181
  endloop
endfacet
facet normal -1.0 0.0 0.0
  outer loop
    vertex 35092.39338980006 -38811.9620215236 167.9342869469181
    vertex 35092.39338980006 -38804.99577740958 177.01287302971565
    vertex 35092.39338980006 -38809.695199371236 168.87323542591176
  endloop
endfacet
facet normal -1.0 0.0 0.0
  outer loop
    vertex 35092.39338980006 -38809.695199371236 168.87323542591176
    vertex 35092.39338980006 -38804.99577740958 177.01287302971565
    vertex 35092.39338980006 -38807.74863505942 170.3668867562181
  endloop
endfacet
facet normal -1.0 0.0 0.0
  outer loop
    vertex 35092.39338980006 -38807.74863505942 170.3668867562181
    vertex 35092.39338980006 -38804.99577740958 177.01287302971565
    vertex 35092.39338980006 -38806.254983729115 172.31345106805222
  endloop
endfacet
facet normal -1.0 0.0 0.0
  outer loop
    vertex 35092.39338980006 -38806.254983729115 172.31345106805222
    vertex 35092.39338980006 -38804.99577740958 177.01287302971565
    vertex 35092.39338980006 -38805.31603525009 174.58027322041227
  endloop
endfacet
facet normal -1.0 0.0 0.0
  outer loop
    vertex 35092.39338980006 -38816.82722114221 167.93428694692233
    vertex 35092.39338980006 -38816.13328782024 176.5469987485409
    vertex 35092.39338980006 -38814.3946213329 167.61402910639475
  endloop
endfacet
facet normal -1.0 0.0 0.0
  outer loop
    vertex 35092.39338980006 -38816.13328782024 176.5469987485409
    vertex 35092.39338980006 -38816.82722114221 167.93428694692233
    vertex 35092.39338980006 -38816.194621332914 177.0128730297254
  endloop
endfacet
facet normal -1.0 0.0 0.0
  outer loop
    vertex 35092.39338980006 -38814.3946213329 167.61402910639475
    vertex 35092.39338980006 -38816.13328782024 176.5469987485409
    vertex 35092.39338980006 -38815.95346705973 176.11287302972536
  endloop
endfacet
facet normal -1.0 0.0 0.0
  outer loop
    vertex 35092.39338980006 -38814.3946213329 167.61402910639475
    vertex 35092.39338980006 -38815.95346705973 176.11287302972536
    vertex 35092.39338980006 -38815.66741353903 175.74008082358944
  endloop
endfacet
facet normal -1.0 0.0 0.0
  outer loop
    vertex 35092.39338980006 -38814.3946213329 167.61402910639475
    vertex 35092.39338980006 -38815.66741353903 175.74008082358944
    vertex 35092.39338980006 -38815.2946213329 175.45402730291295
  endloop
endfacet
facet normal -1.0 0.0 0.0
  outer loop
    vertex 35092.39338980006 -38814.3946213329 167.61402910639475
    vertex 35092.39338980006 -38815.2946213329 175.45402730291295
    vertex 35092.39338980006 -38814.860495614084 175.27420654240427
  endloop
endfacet
facet normal -1.0 0.0 0.0
  outer loop
    vertex 35092.39338980006 -38814.3946213329 167.61402910639475
    vertex 35092.39338980006 -38814.860495614084 175.27420654240427
    vertex 35092.39338980006 -38814.394621332896 175.21287302972422
  endloop
endfacet
facet normal -1.0 0.0 0.0
  outer loop
    vertex 35092.39338980006 -38814.3946213329 167.61402910639475
    vertex 35092.39338980006 -38814.394621332896 175.21287302972422
    vertex 35092.39338980006 -38811.9620215236 167.9342869469181
  endloop
endfacet
facet normal -1.0 0.0 0.0
  outer loop
    vertex 35092.39338980006 -38811.9620215236 167.9342869469181
    vertex 35092.39338980006 -38814.394621332896 175.21287302972422
    vertex 35092.39338980006 -38813.928747051716 175.2742065424035
  endloop
endfacet
facet normal -1.0 0.0 0.0
  outer loop
    vertex 35092.39338980006 -38811.9620215236 167.9342869469181
    vertex 35092.39338980006 -38813.928747051716 175.2742065424035
    vertex 35092.39338980006 -38813.4946213329 175.4540273029114
  endloop
endfacet
facet normal -1.0 0.0 0.0
  outer loop
    vertex 35092.39338980006 -38811.9620215236 167.9342869469181
    vertex 35092.39338980006 -38813.4946213329 175.4540273029114
    vertex 35092.39338980006 -38813.121829126765 175.74008082358722
  endloop
endfacet
facet normal -1.0 0.0 0.0
  outer loop
    vertex 35092.39338980006 -38811.9620215236 167.9342869469181
    vertex 35092.39338980006 -38813.121829126765 175.74008082358722
    vertex 35092.39338980006 -38812.83577560611 176.11287302972266
  endloop
endfacet
facet normal -1.0 0.0 0.0
  outer loop
    vertex 35092.39338980006 -38811.9620215236 167.9342869469181
    vertex 35092.39338980006 -38812.83577560611 176.11287302972266
    vertex 35092.39338980006 -38812.65595484559 176.54699874853787
  endloop
endfacet
facet normal -1.0 0.0 0.0
  outer loop
    vertex 35092.39338980006 -38811.9620215236 167.9342869469181
    vertex 35092.39338980006 -38812.65595484559 176.54699874853787
    vertex 35092.39338980006 -38812.594621332915 177.01287302972224
  endloop
endfacet
facet normal 0.0 -8.68862654102689e-13 -1.0
  outer loop
    vertex 35096.393389800134 -38927.52048036497 177.01287302112715
    vertex 35092.39338980006 -38946.16311323596 177.01287302114335
    vertex 35092.39338980006 -38927.52048036497 177.01287302112715
  endloop
endfacet
facet normal 0.0 -8.68862654102689e-13 -1.0
  outer loop
    vertex 35092.39338980006 -38946.16311323596 177.01287302114335
    vertex 35096.393389800134 -38927.52048036497 177.01287302112715
    vertex 35096.393389800134 -38946.16311323596 177.01287302114335
  endloop
endfacet
facet normal 5.502373624484955e-13 -4.034431244345122e-13 -1.0
  outer loop
    vertex 35104.593389800124 -38931.43739939604 185.33651691083165
    vertex 35096.393389800134 -38941.1112130651 185.33651691083105
    vertex 35096.39338980013 -38931.43739939604 185.33651691083165
  endloop
endfacet
facet normal 5.502373624484955e-13 -4.034431244345122e-13 -1.0
  outer loop
    vertex 35096.393389800134 -38941.1112130651 185.33651691083105
    vertex 35104.593389800124 -38931.43739939604 185.33651691083165
    vertex 35104.593389800124 -38941.1112130651 185.3365169108401
  endloop
endfacet
facet normal 0.0 1.0 -4.034431244345122e-13
  outer loop
    vertex 35096.39338980013 -38931.43739939603 188.33651691083165
    vertex 35104.593389800124 -38931.43739939604 185.33651691083165
    vertex 35096.39338980013 -38931.43739939604 185.33651691083165
  endloop
endfacet
facet normal 0.0 1.0 -4.034431244345122e-13
  outer loop
    vertex 35104.593389800124 -38931.43739939604 185.33651691083165
    vertex 35096.39338980013 -38931.43739939603 188.33651691083165
    vertex 35104.593389800124 -38931.43739939603 188.33651691083165
  endloop
endfacet
facet normal 1.0 0.0 0.0
  outer loop
    vertex 35104.593389800124 -38931.43739939604 185.33651691083165
    vertex 35104.593389800124 -38939.29041189756 188.33651691083116
    vertex 35104.593389800124 -38941.1112130651 185.3365169108401
  endloop
endfacet
facet normal 1.0 0.0 0.0
  outer loop
    vertex 35104.593389800124 -38939.29041189756 188.33651691083116
    vertex 35104.593389800124 -38931.43739939604 185.33651691083165
    vertex 35104.593389800124 -38931.43739939603 188.33651691083165
  endloop
endfacet
facet normal 1.0 1.165122244417764e-14 -8.745250310587107e-14
  outer loop
    vertex 35096.393389800134 -38927.52048036497 177.01287302112715
    vertex 35096.393389800134 -38941.1112130651 185.33651691083105
    vertex 35096.393389800134 -38946.16311323596 177.01287302114335
  endloop
endfacet
facet normal 1.0 1.165122244417764e-14 -8.745250310587107e-14
  outer loop
    vertex 35096.393389800134 -38941.1112130651 185.33651691083105
    vertex 35096.393389800134 -38927.52048036497 177.01287302112715
    vertex 35096.39338980013 -38931.43739939604 185.33651691083165
  endloop
endfacet
facet normal 1.0 1.165122244417764e-14 -8.745250310587107e-14
  outer loop
    vertex 35096.39338980013 -38931.43739939604 185.33651691083165
    vertex 35096.393389800134 -38927.52048036497 177.01287302112715
    vertex 35096.39338980013 -38931.43739939603 188.33651691083165
  endloop
endfacet
facet normal 1.0 1.165122244417764e-14 -8.745250310587107e-14
  outer loop
    vertex 35096.39338980013 -38816.82722114221 167.93428694692196
    vertex 35096.393389800076 -38816.13328782024 176.5469987485409
    vertex 35096.393389800076 -38816.194621332914 177.0128730297254
  endloop
endfacet
facet normal 1.0 1.165122244417764e-14 -8.745250310587107e-14
  outer loop
    vertex 35096.393389800076 -38816.13328782024 176.5469987485409
    vertex 35096.39338980013 -38816.82722114221 167.93428694692196
    vertex 35096.39338980013 -38814.3946213329 167.61402910639438
  endloop
endfacet
facet normal 1.0 1.165122244417764e-14 -8.745250310587107e-14
  outer loop
    vertex 35096.393389800076 -38816.13328782024 176.5469987485409
    vertex 35096.39338980013 -38814.3946213329 167.61402910639438
    vertex 35096.393389800076 -38815.95346705973 176.11287302972536
  endloop
endfacet
facet normal 1.0 1.165122244417764e-14 -8.745250310587107e-14
  outer loop
    vertex 35096.393389800076 -38815.95346705973 176.11287302972536
    vertex 35096.39338980013 -38814.3946213329 167.61402910639438
    vertex 35096.393389800076 -38815.66741353903 175.74008082358944
  endloop
endfacet
facet normal 1.0 1.165122244417764e-14 -8.745250310587107e-14
  outer loop
    vertex 35096.393389800076 -38815.66741353903 175.74008082358944
    vertex 35096.39338980013 -38814.3946213329 167.61402910639438
    vertex 35096.393389800076 -38815.2946213329 175.45402730291295
  endloop
endfacet
facet normal 1.0 1.165122244417764e-14 -8.745250310587107e-14
  outer loop
    vertex 35096.393389800076 -38815.2946213329 175.45402730291295
    vertex 35096.39338980013 -38814.3946213329 167.61402910639438
    vertex 35096.393389800076 -38814.860495614084 175.27420654240427
  endloop
endfacet
facet normal 1.0 1.165122244417764e-14 -8.745250310587107e-14
  outer loop
    vertex 35096.393389800076 -38814.860495614084 175.27420654240427
    vertex 35096.39338980013 -38814.3946213329 167.61402910639438
    vertex 35096.393389800076 -38814.394621332896 175.21287302972422
  endloop
endfacet
facet normal 1.0 1.165122244417764e-14 -8.745250310587107e-14
  outer loop
    vertex 35096.393389800076 -38814.394621332896 175.21287302972422
    vertex 35096.39338980013 -38814.3946213329 167.61402910639438
    vertex 35096.39338980013 -38811.9620215236 167.93428694691772
  endloop
endfacet
facet normal 1.0 1.165122244417764e-14 -8.745250310587107e-14
  outer loop
    vertex 35096.393389800076 -38814.394621332896 175.21287302972422
    vertex 35096.39338980013 -38811.9620215236 167.93428694691772
    vertex 35096.393389800076 -38813.928747051716 175.2742065424035
  endloop
endfacet
facet normal 1.0 1.165122244417764e-14 -8.745250310587107e-14
  outer loop
    vertex 35096.393389800076 -38813.928747051716 175.2742065424035
    vertex 35096.39338980013 -38811.9620215236 167.93428694691772
    vertex 35096.393389800076 -38813.4946213329 175.4540273029114
  endloop
endfacet
facet normal 1.0 1.165122244417764e-14 -8.745250310587107e-14
  outer loop
    vertex 35096.393389800076 -38813.4946213329 175.4540273029114
    vertex 35096.39338980013 -38811.9620215236 167.93428694691772
    vertex 35096.393389800076 -38813.121829126765 175.74008082358722
  endloop
endfacet
facet normal 1.0 1.165122244417764e-14 -8.745250310587107e-14
  outer loop
    vertex 35096.393389800076 -38813.121829126765 175.74008082358722
    vertex 35096.39338980013 -38811.9620215236 167.93428694691772
    vertex 35096.393389800076 -38812.83577560611 176.11287302972266
  endloop
endfacet
facet normal 1.0 1.165122244417764e-14 -8.745250310587107e-14
  outer loop
    vertex 35096.393389800076 -38812.83577560611 176.11287302972266
    vertex 35096.39338980013 -38811.9620215236 167.93428694691772
    vertex 35096.393389800076 -38812.65595484559 176.54699874853787
  endloop
endfacet
facet normal 1.0 1.165122244417764e-14 -8.745250310587107e-14
  outer loop
    vertex 35096.393389800076 -38812.65595484559 176.54699874853787
    vertex 35096.39338980013 -38811.9620215236 167.93428694691772
    vertex 35096.393389800076 -38812.594621332915 177.01287302972224
  endloop
endfacet
facet normal 1.0 1.165122244417764e-14 -8.745250310587107e-14
  outer loop
    vertex 35096.39338980013 -38931.43739939603 188.33651691083165
    vertex 35096.393389800134 -38931.71189925239 200.8230741147475
    vertex 35096.393389800134 -38939.29041189756 188.33651691083116
  endloop
endfacet
facet normal 1.0 1.165122244417764e-14 -8.745250310587107e-14
  outer loop
    vertex 35096.393389800134 -38931.71189925239 200.8230741147475
    vertex 35096.39338980013 -38931.43739939603 188.33651691083165
    vertex 35096.393389800134 -38915.36480641517 219.55160567344015
  endloop
endfacet
facet normal 1.0 1.165122244417764e-14 -8.745250310587107e-14
  outer loop
    vertex 35096.393389800134 -38915.36480641517 219.55160567344015
    vertex 35096.39338980013 -38931.43739939603 188.33651691083165
    vertex 35096.393389800134 -38927.52048036497 177.01287302112715
  endloop
endfacet
facet normal 1.0 1.165122244417764e-14 -8.745250310587107e-14
  outer loop
    vertex 35096.393389800134 -38915.36480641517 219.55160567344015
    vertex 35096.393389800134 -38927.52048036497 177.01287302112715
    vertex 35096.393389800134 -38927.135986622365 178.03444838961954
  endloop
endfacet
facet normal 1.0 1.165122244417764e-14 -8.745250310587107e-14
  outer loop
    vertex 35096.393389800134 -38915.36480641517 219.55160567344015
    vertex 35096.393389800134 -38927.135986622365 178.03444838961954
    vertex 35096.393389800134 -38925.63115518391 181.35568214838304
  endloop
endfacet
facet normal 1.0 1.165122244417764e-14 -8.745250310587107e-14
  outer loop
    vertex 35096.393389800134 -38915.36480641517 219.55160567344015
    vertex 35096.393389800134 -38925.63115518391 181.35568214838304
    vertex 35096.393389800134 -38923.912326624406 184.5713842057033
  endloop
endfacet
facet normal 1.0 1.165122244417764e-14 -8.745250310587107e-14
  outer loop
    vertex 35096.393389800134 -38915.36480641517 219.55160567344015
    vertex 35096.393389800134 -38923.912326624406 184.5713842057033
    vertex 35096.393389800134 -38921.98686123151 187.6677844316632
  endloop
endfacet
facet normal 1.0 1.165122244417764e-14 -8.745250310587107e-14
  outer loop
    vertex 35096.393389800134 -38915.36480641517 219.55160567344015
    vertex 35096.393389800134 -38921.98686123151 187.6677844316632
    vertex 35096.393389800134 -38919.863004143735 190.63162356513797
  endloop
endfacet
facet normal 1.0 1.165122244417764e-14 -8.745250310587107e-14
  outer loop
    vertex 35096.393389800134 -38915.36480641517 219.55160567344015
    vertex 35096.393389800134 -38919.863004143735 190.63162356513797
    vertex 35096.393389800134 -38917.54985004313 193.45020999194173
  endloop
endfacet
facet normal 1.0 1.165122244417764e-14 -8.745250310587107e-14
  outer loop
    vertex 35096.393389800134 -38915.36480641517 219.55160567344015
    vertex 35096.393389800134 -38917.54985004313 193.45020999194173
    vertex 35096.393389800134 -38915.05730421071 196.1114740922753
  endloop
endfacet
facet normal 1.0 1.165122244417764e-14 -8.745250310587107e-14
  outer loop
    vertex 35096.393389800134 -38915.36480641517 219.55160567344015
    vertex 35096.393389800134 -38915.05730421071 196.1114740922753
    vertex 35096.393389800134 -38912.39604011037 198.6040199247064
  endloop
endfacet
facet normal 1.0 1.165122244417764e-14 -8.745250310587107e-14
  outer loop
    vertex 35096.393389800134 -38915.36480641517 219.55160567344015
    vertex 35096.393389800134 -38912.39604011037 198.6040199247064
    vertex 35096.393389800134 -38909.57745368356 200.91717402529176
  endloop
endfacet
facet normal 1.0 1.165122244417764e-14 -8.745250310587107e-14
  outer loop
    vertex 35096.393389800134 -38915.36480641517 219.55160567344015
    vertex 35096.393389800134 -38909.57745368356 200.91717402529176
    vertex 35096.393389800134 -38906.61361455009 203.0410311130726
  endloop
endfacet
facet normal 1.0 1.165122244417764e-14 -8.745250310587107e-14
  outer loop
    vertex 35096.393389800134 -38915.36480641517 219.55160567344015
    vertex 35096.393389800134 -38906.61361455009 203.0410311130726
    vertex 35096.393389800134 -38903.517214324114 204.96649650594452
  endloop
endfacet
facet normal 1.0 1.165122244417764e-14 -8.745250310587107e-14
  outer loop
    vertex 35096.393389800134 -38915.36480641517 219.55160567344015
    vertex 35096.393389800134 -38903.517214324114 204.96649650594452
    vertex 35096.393389800134 -38900.30151226678 206.6853250654714
  endloop
endfacet
facet normal 1.0 1.165122244417764e-14 -8.745250310587107e-14
  outer loop
    vertex 35096.393389800134 -38915.36480641517 219.55160567344015
    vertex 35096.393389800134 -38900.30151226678 206.6853250654714
    vertex 35096.393389800134 -38896.980278508 208.19015650389582
  endloop
endfacet
facet normal 1.0 1.165122244417764e-14 -8.745250310587107e-14
  outer loop
    vertex 35096.393389800134 -38915.36480641517 219.55160567344015
    vertex 35096.393389800134 -38896.980278508 208.19015650389582
    vertex 35096.393389800134 -38893.567735080636 209.47454690196582
  endloop
endfacet
facet normal 1.0 1.165122244417764e-14 -8.745250310587107e-14
  outer loop
    vertex 35096.393389800134 -38915.36480641517 219.55160567344015
    vertex 35096.393389800134 -38893.567735080636 209.47454690196582
    vertex 35096.393389800134 -38890.078495019494 210.53299630282208
  endloop
endfacet
facet normal 1.0 1.165122244417764e-14 -8.745250310587107e-14
  outer loop
    vertex 35096.393389800134 -38915.36480641517 219.55160567344015
    vertex 35096.393389800134 -38890.078495019494 210.53299630282208
    vertex 35096.393389800134 -38886.527499786214 211.36097226362554
  endloop
endfacet
facet normal 1.0 1.165122244417764e-14 -8.745250310587107e-14
  outer loop
    vertex 35096.393389800134 -38915.36480641517 219.55160567344015
    vertex 35096.393389800134 -38886.527499786214 211.36097226362554
    vertex 35096.393389800134 -38882.92995528754 211.9549292642043
  endloop
endfacet
facet normal 1.0 1.165122244417764e-14 -8.745250310587107e-14
  outer loop
    vertex 35096.393389800134 -38915.36480641517 219.55160567344015
    vertex 35096.393389800134 -38882.92995528754 211.9549292642043
    vertex 35096.393389800134 -38835.794071551485 219.55160567337097
  endloop
endfacet
facet normal 1.0 1.165122244417764e-14 -8.745250310587107e-14
  outer loop
    vertex 35096.393389800134 -38835.794071551485 219.55160567337097
    vertex 35096.393389800134 -38882.92995528754 211.9549292642043
    vertex 35096.393389800134 -38879.30126676132 212.31232388949164
  endloop
endfacet
facet normal 1.0 1.165122244417764e-14 -8.745250310587107e-14
  outer loop
    vertex 35096.393389800134 -38835.794071551485 219.55160567337097
    vertex 35096.393389800134 -38879.30126676132 212.31232388949164
    vertex 35096.393389800134 -38875.656972808916 212.43162572083844
  endloop
endfacet
facet normal 1.0 1.165122244417764e-14 -8.745250310587107e-14
  outer loop
    vertex 35096.393389800134 -38835.794071551485 219.55160567337097
    vertex 35096.393389800134 -38875.656972808916 212.43162572083844
    vertex 35096.393389800134 -38872.01267885651 212.31232388948112
  endloop
endfacet
facet normal 1.0 1.165122244417764e-14 -8.745250310587107e-14
  outer loop
    vertex 35096.393389800134 -38835.794071551485 219.55160567337097
    vertex 35096.393389800134 -38872.01267885651 212.31232388948112
    vertex 35096.393389800134 -38868.383990330294 211.95492926418513
  endloop
endfacet
facet normal 1.0 1.165122244417764e-14 -8.745250310587107e-14
  outer loop
    vertex 35096.393389800134 -38835.794071551485 219.55160567337097
    vertex 35096.393389800134 -38868.383990330294 211.95492926418513
    vertex 35096.393389800134 -38864.78644583162 211.36097226359362
  endloop
endfacet
facet normal 1.0 1.165122244417764e-14 -8.745250310587107e-14
  outer loop
    vertex 35096.393389800134 -38835.794071551485 219.55160567337097
    vertex 35096.393389800134 -38864.78644583162 211.36097226359362
    vertex 35096.393389800134 -38861.23545059834 210.53299630278255
  endloop
endfacet
facet normal 1.0 1.165122244417764e-14 -8.745250310587107e-14
  outer loop
    vertex 35096.393389800134 -38835.794071551485 219.55160567337097
    vertex 35096.393389800134 -38861.23545059834 210.53299630278255
    vertex 35096.393389800134 -38857.74621053721 209.4745469019231
  endloop
endfacet
facet normal 1.0 1.165122244417764e-14 -8.745250310587107e-14
  outer loop
    vertex 35096.393389800134 -38835.794071551485 219.55160567337097
    vertex 35096.393389800134 -38857.74621053721 209.4745469019231
    vertex 35096.393389800134 -38854.33366710981 208.19015650384424
  endloop
endfacet
facet normal 1.0 1.165122244417764e-14 -8.745250310587107e-14
  outer loop
    vertex 35096.393389800134 -38835.794071551485 219.55160567337097
    vertex 35096.393389800134 -38854.33366710981 208.19015650384424
    vertex 35096.393389800134 -38851.01243335105 206.68532506541402
  endloop
endfacet
facet normal 1.0 1.165122244417764e-14 -8.745250310587107e-14
  outer loop
    vertex 35096.393389800134 -38835.794071551485 219.55160567337097
    vertex 35096.393389800134 -38851.01243335105 206.68532506541402
    vertex 35096.393389800134 -38847.79673129375 204.9664965058729
  endloop
endfacet
facet normal 1.0 1.165122244417764e-14 -8.745250310587107e-14
  outer loop
    vertex 35096.393389800134 -38835.794071551485 219.55160567337097
    vertex 35096.393389800134 -38847.79673129375 204.9664965058729
    vertex 35096.393389800134 -38844.7003310678 203.04103111300702
  endloop
endfacet
facet normal 1.0 1.165122244417764e-14 -8.745250310587107e-14
  outer loop
    vertex 35096.393389800134 -38835.794071551485 219.55160567337097
    vertex 35096.393389800134 -38844.7003310678 203.04103111300702
    vertex 35096.393389800134 -38841.736491934294 200.91717402520962
  endloop
endfacet
facet normal 1.0 1.165122244417764e-14 -8.745250310587107e-14
  outer loop
    vertex 35096.393389800134 -38835.794071551485 219.55160567337097
    vertex 35096.393389800134 -38841.736491934294 200.91717402520962
    vertex 35096.393389800134 -38838.91790550751 198.60401992461948
  endloop
endfacet
facet normal 1.0 1.165122244417764e-14 -8.745250310587107e-14
  outer loop
    vertex 35096.393389800134 -38835.794071551485 219.55160567337097
    vertex 35096.393389800134 -38838.91790550751 198.60401992461948
    vertex 35096.393389800134 -38836.25664140718 196.1114740921899
  endloop
endfacet
facet normal 1.0 1.165122244417764e-14 -8.745250310587107e-14
  outer loop
    vertex 35096.393389800134 -38835.794071551485 219.55160567337097
    vertex 35096.393389800134 -38836.25664140718 196.1114740921899
    vertex 35096.393389800134 -38833.76409557474 193.45020999185212
  endloop
endfacet
facet normal 1.0 1.165122244417764e-14 -8.745250310587107e-14
  outer loop
    vertex 35096.393389800134 -38835.794071551485 219.55160567337097
    vertex 35096.393389800134 -38833.76409557474 193.45020999185212
    vertex 35096.393389800134 -38819.4469784353 200.82307407824325
  endloop
endfacet
facet normal 1.0 1.165122244417764e-14 -8.745250310587107e-14
  outer loop
    vertex 35096.393389800134 -38819.4469784353 200.82307407824325
    vertex 35096.393389800134 -38833.76409557474 193.45020999185212
    vertex 35096.393389800134 -38831.45094147417 190.63162356504841
  endloop
endfacet
facet normal 1.0 1.165122244417764e-14 -8.745250310587107e-14
  outer loop
    vertex 35096.393389800134 -38819.4469784353 200.82307407824325
    vertex 35096.393389800134 -38831.45094147417 190.63162356504841
    vertex 35096.393389800134 -38829.32708438638 187.66778443156275
  endloop
endfacet
facet normal 1.0 1.165122244417764e-14 -8.745250310587107e-14
  outer loop
    vertex 35096.393389800134 -38819.4469784353 200.82307407824325
    vertex 35096.393389800134 -38829.32708438638 187.66778443156275
    vertex 35096.393389800134 -38827.40161899353 184.5713842055992
  endloop
endfacet
facet normal 1.0 1.165122244417764e-14 -8.745250310587107e-14
  outer loop
    vertex 35096.393389800134 -38819.4469784353 200.82307407824325
    vertex 35096.393389800134 -38827.40161899353 184.5713842055992
    vertex 35096.393389800134 -38825.68279043397 181.355682148292
  endloop
endfacet
facet normal 1.0 1.165122244417764e-14 -8.745250310587107e-14
  outer loop
    vertex 35096.393389800134 -38819.4469784353 200.82307407824325
    vertex 35096.393389800134 -38825.68279043397 181.355682148292
    vertex 35096.393389800134 -38824.17795899558 178.03444838951611
  endloop
endfacet
facet normal 1.0 1.165122244417764e-14 -8.745250310587107e-14
  outer loop
    vertex 35096.393389800134 -38819.4469784353 200.82307407824325
    vertex 35096.393389800134 -38824.17795899558 178.03444838951611
    vertex 35096.393389800134 -38822.89356859749 174.6219049621287
  endloop
endfacet
facet normal 1.0 1.165122244417764e-14 -8.745250310587107e-14
  outer loop
    vertex 35096.393389800134 -38819.4469784353 200.82307407824325
    vertex 35096.393389800134 -38822.89356859749 174.6219049621287
    vertex 35096.39338980013 -38821.97039490864 171.57860915982624
  endloop
endfacet
facet normal 1.0 1.165122244417764e-14 -8.745250310587107e-14
  outer loop
    vertex 35096.393389800134 -38819.4469784353 200.82307407824325
    vertex 35096.39338980013 -38821.97039490864 171.57860915982624
    vertex 35096.39338980013 -38821.040607606425 170.3668867562293
  endloop
endfacet
facet normal 1.0 1.165122244417764e-14 -8.745250310587107e-14
  outer loop
    vertex 35096.393389800134 -38819.4469784353 200.82307407824325
    vertex 35096.39338980013 -38821.040607606425 170.3668867562293
    vertex 35096.39338980013 -38819.094043294564 168.87323542591957
  endloop
endfacet
facet normal 1.0 1.165122244417764e-14 -8.745250310587107e-14
  outer loop
    vertex 35096.393389800134 -38819.4469784353 200.82307407824325
    vertex 35096.39338980013 -38819.094043294564 168.87323542591957
    vertex 35096.393389800076 -38816.13328782024 177.47874731090977
  endloop
endfacet
facet normal 1.0 1.165122244417764e-14 -8.745250310587107e-14
  outer loop
    vertex 35096.393389800134 -38819.4469784353 200.82307407824325
    vertex 35096.393389800076 -38816.13328782024 177.47874731090977
    vertex 35096.393389800076 -38815.95346705972 177.91287302972498
  endloop
endfacet
facet normal 1.0 1.165122244417764e-14 -8.745250310587107e-14
  outer loop
    vertex 35096.393389800134 -38819.4469784353 200.82307407824325
    vertex 35096.393389800076 -38815.95346705972 177.91287302972498
    vertex 35096.393389800076 -38815.66741353905 178.28566523586042
  endloop
endfacet
facet normal 1.0 1.165122244417764e-14 -8.745250310587107e-14
  outer loop
    vertex 35096.393389800134 -38819.4469784353 200.82307407824325
    vertex 35096.393389800076 -38815.66741353905 178.28566523586042
    vertex 35096.393389800076 -38815.29462133291 178.57171875653623
  endloop
endfacet
facet normal 1.0 1.165122244417764e-14 -8.745250310587107e-14
  outer loop
    vertex 35096.393389800134 -38819.4469784353 200.82307407824325
    vertex 35096.393389800076 -38815.29462133291 178.57171875653623
    vertex 35096.393389800076 -38814.86049561409 178.75153951704414
  endloop
endfacet
facet normal 1.0 1.165122244417764e-14 -8.745250310587107e-14
  outer loop
    vertex 35096.393389800134 -38819.4469784353 200.82307407824325
    vertex 35096.393389800076 -38814.86049561409 178.75153951704414
    vertex 35096.393389800076 -38814.39462133291 178.81287302972342
  endloop
endfacet
facet normal 1.0 1.165122244417764e-14 -8.745250310587107e-14
  outer loop
    vertex 35096.393389800134 -38819.4469784353 200.82307407824325
    vertex 35096.393389800076 -38814.39462133291 178.81287302972342
    vertex 35096.393389800076 -38813.92874705173 178.75153951704334
  endloop
endfacet
facet normal 1.0 1.165122244417764e-14 -8.745250310587107e-14
  outer loop
    vertex 35096.393389800134 -38819.4469784353 200.82307407824325
    vertex 35096.393389800076 -38813.92874705173 178.75153951704334
    vertex 35096.393389800134 -38804.99577740958 177.01287302971565
  endloop
endfacet
facet normal 1.0 1.165122244417764e-14 -8.745250310587107e-14
  outer loop
    vertex 35096.393389800076 -38816.13328782024 177.47874731090977
    vertex 35096.39338980013 -38819.094043294564 168.87323542591957
    vertex 35096.393389800076 -38816.194621332914 177.0128730297254
  endloop
endfacet
facet normal 1.0 1.165122244417764e-14 -8.745250310587107e-14
  outer loop
    vertex 35096.393389800076 -38816.194621332914 177.0128730297254
    vertex 35096.39338980013 -38819.094043294564 168.87323542591957
    vertex 35096.39338980013 -38816.82722114221 167.93428694692196
  endloop
endfacet
facet normal 1.0 1.165122244417764e-14 -8.745250310587107e-14
  outer loop
    vertex 35096.393389800134 -38804.99577740958 177.01287302971565
    vertex 35096.393389800076 -38813.92874705173 178.75153951704334
    vertex 35096.393389800076 -38813.49462133291 178.57171875653466
  endloop
endfacet
facet normal 1.0 1.165122244417764e-14 -8.745250310587107e-14
  outer loop
    vertex 35096.393389800134 -38804.99577740958 177.01287302971565
    vertex 35096.393389800076 -38813.49462133291 178.57171875653466
    vertex 35096.393389800076 -38813.12182912678 178.2856652358582
  endloop
endfacet
facet normal 1.0 1.165122244417764e-14 -8.745250310587107e-14
  outer loop
    vertex 35096.393389800134 -38804.99577740958 177.01287302971565
    vertex 35096.393389800076 -38813.12182912678 178.2856652358582
    vertex 35096.393389800076 -38812.8357756061 177.91287302972225
  endloop
endfacet
facet normal 1.0 1.165122244417764e-14 -8.745250310587107e-14
  outer loop
    vertex 35096.393389800134 -38804.99577740958 177.01287302971565
    vertex 35096.393389800076 -38812.8357756061 177.91287302972225
    vertex 35096.393389800076 -38812.65595484559 177.47874731090675
  endloop
endfacet
facet normal 1.0 1.165122244417764e-14 -8.745250310587107e-14
  outer loop
    vertex 35096.393389800134 -38804.99577740958 177.01287302971565
    vertex 35096.393389800076 -38812.65595484559 177.47874731090675
    vertex 35096.393389800076 -38812.594621332915 177.01287302972224
  endloop
endfacet
facet normal 1.0 1.165122244417764e-14 -8.745250310587107e-14
  outer loop
    vertex 35096.393389800134 -38804.99577740958 177.01287302971565
    vertex 35096.393389800076 -38812.594621332915 177.01287302972224
    vertex 35096.39338980013 -38811.9620215236 167.93428694691772
  endloop
endfacet
facet normal 1.0 1.165122244417764e-14 -8.745250310587107e-14
  outer loop
    vertex 35096.393389800134 -38804.99577740958 177.01287302971565
    vertex 35096.39338980013 -38811.9620215236 167.93428694691772
    vertex 35096.39338980013 -38809.695199371236 168.8732354259114
  endloop
endfacet
facet normal 1.0 1.165122244417764e-14 -8.745250310587107e-14
  outer loop
    vertex 35096.393389800134 -38804.99577740958 177.01287302971565
    vertex 35096.39338980013 -38809.695199371236 168.8732354259114
    vertex 35096.39338980013 -38807.74863505942 170.36688675621775
  endloop
endfacet
facet normal 1.0 1.165122244417764e-14 -8.745250310587107e-14
  outer loop
    vertex 35096.393389800134 -38804.99577740958 177.01287302971565
    vertex 35096.39338980013 -38807.74863505942 170.36688675621775
    vertex 35096.39338980013 -38806.254983729115 172.31345106805185
  endloop
endfacet
facet normal 1.0 1.165122244417764e-14 -8.745250310587107e-14
  outer loop
    vertex 35096.393389800134 -38804.99577740958 177.01287302971565
    vertex 35096.39338980013 -38806.254983729115 172.31345106805185
    vertex 35096.39338980013 -38805.31603525009 174.5802732204119
  endloop
endfacet
facet normal -2.854869672894246e-13 -0.8548668159134268 0.5188474988376056
  outer loop
    vertex 35104.593389800124 -38941.1112130651 185.3365169108401
    vertex 35096.393389800134 -38939.29041189756 188.33651691083116
    vertex 35096.393389800134 -38941.1112130651 185.33651691083105
  endloop
endfacet
facet normal -2.854869672894246e-13 -0.8548668159134268 0.5188474988376056
  outer loop
    vertex 35096.393389800134 -38939.29041189756 188.33651691083116
    vertex 35104.593389800124 -38941.1112130651 185.3365169108401
    vertex 35104.593389800124 -38939.29041189756 188.33651691083116
  endloop
endfacet
facet normal 9.413589474146851e-33 -6.320047253616161e-14 1.0
  outer loop
    vertex 35096.393389800134 -38939.29041189756 188.33651691083116
    vertex 35104.593389800124 -38931.43739939603 188.33651691083165
    vertex 35096.39338980013 -38931.43739939603 188.33651691083165
  endloop
endfacet
facet normal 9.413589474146851e-33 -6.320047253616161e-14 1.0
  outer loop
    vertex 35104.593389800124 -38931.43739939603 188.33651691083165
    vertex 35096.393389800134 -38939.29041189756 188.33651691083116
    vertex 35104.593389800124 -38939.29041189756 188.33651691083116
  endloop
endfacet
endsolid Type XXI U-Boot
