solid Type XXI U-Boot
facet normal -1.0072343555924272e-06 -0.9999999999740797 7.129255706185607e-06
  outer loop
    vertex 34557.564902139406 -38832.448075146734 235.89991224313923
    vertex 34574.21822658267 -38832.44810171157 234.52655242184377
    vertex 34583.938936848455 -38832.44810171157 235.8999122431392
  endloop
endfacet
facet normal -0.9027197582610668 -0.002764294589019012 -0.4302201723774774
  outer loop
    vertex 34557.87824099601 -38786.90837007624 234.9498351350928
    vertex 34557.87824099601 -38832.448075146734 235.24244149898354
    vertex 34557.564902139406 -38832.448075146734 235.89991224313923
  endloop
endfacet
facet normal 5.67415689145122e-07 0.9999999999911763 -4.162385438345281e-06
  outer loop
    vertex 34557.56488830356 -38786.90837007624 235.89991224313923
    vertex 34574.21822658267 -38786.90838778613 233.91534739612638
    vertex 34566.900764613165 -38786.90838778613 232.91783219976813
  endloop
endfacet
facet normal 0.19719035828544085 -0.013175805768625008 -0.980276675608273
  outer loop
    vertex 34583.938936848455 -38789.14465977528 235.8999122431392
    vertex 34574.21822658267 -38832.44810171157 234.52655242184377
    vertex 34581.31517469646 -38786.90838778613 235.34206434387735
  endloop
endfacet
facet normal -2.6845573435984794e-05 -0.9999999995578128 -1.2794122567501214e-05
  outer loop
    vertex 34557.564902139406 -38832.448075146734 235.89991224313923
    vertex 34557.87824099601 -38832.448075146734 235.24244149898354
    vertex 34559.31051611281 -38832.44810171157 234.31346704866738
  endloop
endfacet
facet normal -0.9496800248556438 -2.8853132188004026e-07 -0.3132217271999195
  outer loop
    vertex 34557.87824099601 -38786.90837007624 234.9498351350928
    vertex 34557.564902139406 -38832.448075146734 235.89991224313923
    vertex 34557.56488830356 -38786.90837007624 235.89991224313923
  endloop
endfacet
facet normal 1.789744767054687e-05 0.9999999998224185 5.902903425562245e-06
  outer loop
    vertex 34557.56488830356 -38786.90837007624 235.89991224313923
    vertex 34559.31051611281 -38786.90838778613 233.60741444071346
    vertex 34557.87824099601 -38786.90837007624 234.9498351350928
  endloop
endfacet
facet normal 0.13989257036004132 3.106239051754251e-17 -0.9901666873602956
  outer loop
    vertex 34583.938936848455 -38832.44810171157 235.8999122431392
    vertex 34574.21822658267 -38832.44810171157 234.52655242184377
    vertex 34583.938936848455 -38789.14465977528 235.8999122431392
  endloop
endfacet
facet normal 0.09391023314725983 -0.013360846114937779 -0.995491012466371
  outer loop
    vertex 34574.21822658267 -38832.44810171157 234.52655242184377
    vertex 34566.900764613165 -38832.44810171157 233.83625532121957
    vertex 34574.21822658267 -38786.90838778613 233.91534739612638
  endloop
endfacet
facet normal 0.13505865353957244 -0.013297193471325268 0.9907483761025623
  outer loop
    vertex 34574.21822658267 -38786.90838778613 237.88447709015188
    vertex 34566.900764613165 -38786.90838778613 238.88199228651
    vertex 34574.21822658267 -38832.44810171157 237.27327206443428
  endloop
endfacet
facet normal 0.06822605812771618 -0.022152238272599184 -0.9974239235810758
  outer loop
    vertex 34566.900764613165 -38786.90838778613 232.91783219976813
    vertex 34562.48842906983 -38832.44810171157 233.6274305117309
    vertex 34562.48842906983 -38786.90838778613 232.61601844320913
  endloop
endfacet
facet normal 0.0938996908189263 -0.02007433177083535 0.9953792590103858
  outer loop
    vertex 34574.21822658267 -38832.44810171157 237.27327206443428
    vertex 34566.900764613165 -38786.90838778613 238.88199228651
    vertex 34566.900764613165 -38832.44810171157 237.96356916505863
  endloop
endfacet
facet normal 0.06829976896968044 -0.020116335827875687 0.9974620166159454
  outer loop
    vertex 34566.900764613165 -38786.90838778613 238.88199228651
    vertex 34562.48842906983 -38786.90838778613 239.18412058132796
    vertex 34566.900764613165 -38832.44810171157 237.96356916505863
  endloop
endfacet
facet normal -0.2978283988410293 -0.021196945770960214 0.9543840601842488
  outer loop
    vertex 34562.48842906983 -38786.90838778613 239.18412058132796
    vertex 34559.31051611281 -38786.90838778613 238.19241004556497
    vertex 34562.48842906983 -38832.44810171157 238.17267991841874
  endloop
endfacet
facet normal -0.2110754074172025 -0.015152984026919593 0.9773523210484242
  outer loop
    vertex 34562.48842906983 -38832.44810171157 238.17267991841874
    vertex 34559.31051611281 -38786.90838778613 238.19241004556497
    vertex 34559.31051611281 -38832.448075146734 237.4863574376108
  endloop
endfacet
facet normal 1.7897447670546847e-05 0.9999999998224185 -5.90290342556221e-06
  outer loop
    vertex 34559.31051611281 -38786.90838778613 238.19241004556497
    vertex 34557.56488830356 -38786.90837007624 235.89991224313923
    vertex 34557.87824099601 -38786.90837007624 236.8499893511854
  endloop
endfacet
facet normal 0.0473275270991759 -0.022179721534893396 0.9986331484240404
  outer loop
    vertex 34566.900764613165 -38832.44810171157 237.96356916505863
    vertex 34562.48842906983 -38786.90838778613 239.18412058132796
    vertex 34562.48842906983 -38832.44810171157 238.17267991841874
  endloop
endfacet
facet normal 0.9027232072681355 2.74264924467587e-07 -0.43022181611286964
  outer loop
    vertex 34557.56488830356 -38786.90837007624 235.89991224313923
    vertex 34557.87824099601 -38832.448075146734 236.55738298729466
    vertex 34557.564902139406 -38832.448075146734 235.89991224313923
  endloop
endfacet
facet normal 6.67662774072733e-07 0.9999999999942621 -3.3211689775917403e-06
  outer loop
    vertex 34557.56488830356 -38786.90837007624 235.89991224313923
    vertex 34581.31517469646 -38786.90838778613 235.34206434387735
    vertex 34574.21822658267 -38786.90838778613 233.91534739612638
  endloop
endfacet
facet normal 5.674156891451225e-07 0.9999999999911763 4.162385438345279e-06
  outer loop
    vertex 34566.900764613165 -38786.90838778613 238.88199228651
    vertex 34574.21822658267 -38786.90838778613 237.88447709015188
    vertex 34557.56488830356 -38786.90837007624 235.89991224313923
  endloop
endfacet
facet normal 6.714929375616777e-07 0.9999999999943658 3.2890284263067045e-06
  outer loop
    vertex 34574.21822658267 -38786.90838778613 237.88447709015188
    vertex 34581.31523003986 -38786.90838778613 236.43554230357134
    vertex 34557.56488830356 -38786.90837007624 235.89991224313923
  endloop
endfacet
facet normal 3.3457753898194045e-07 0.9999999999879816 -4.8913223342061e-06
  outer loop
    vertex 34557.56488830356 -38786.90837007624 235.89991224313923
    vertex 34566.900764613165 -38786.90838778613 232.91783219976813
    vertex 34562.48842906983 -38786.90838778613 232.61601844320913
  endloop
endfacet
facet normal 3.348646706832834e-07 0.9999999999879858 4.890423422704989e-06
  outer loop
    vertex 34562.48842906983 -38786.90838778613 239.18412058132796
    vertex 34566.900764613165 -38786.90838778613 238.88199228651
    vertex 34557.56488830356 -38786.90837007624 235.89991224313923
  endloop
endfacet
facet normal -0.2977766149172702 -0.014798993809708194 -0.9545208627319951
  outer loop
    vertex 34562.48842906983 -38786.90838778613 232.61601844320913
    vertex 34559.31051611281 -38832.44810171157 234.31346704866738
    vertex 34559.31051611281 -38786.90838778613 233.60741444071346
  endloop
endfacet
facet normal -3.1608106865176255e-06 0.9999999999436764 -1.0131956614704561e-05
  outer loop
    vertex 34557.56488830356 -38786.90837007624 235.89991224313923
    vertex 34562.48842906983 -38786.90838778613 232.61601844320913
    vertex 34559.31051611281 -38786.90838778613 233.60741444071346
  endloop
endfacet
facet normal 0.13504363600012506 -0.019978716609174912 -0.9906382120928487
  outer loop
    vertex 34574.21822658267 -38786.90838778613 233.91534739612638
    vertex 34566.900764613165 -38832.44810171157 233.83625532121957
    vertex 34566.900764613165 -38786.90838778613 232.91783219976813
  endloop
endfacet
facet normal -8.511216125153812e-07 -0.9999999999589371 9.022274651020954e-06
  outer loop
    vertex 34557.564902139406 -38832.448075146734 235.89991224313923
    vertex 34566.900764613165 -38832.44810171157 233.83625532121957
    vertex 34574.21822658267 -38832.44810171157 234.52655242184377
  endloop
endfacet
facet normal -1.0964828203827564e-05 -0.9999999998671051 1.206493448091226e-05
  outer loop
    vertex 34562.48842906983 -38832.44810171157 238.17267991841874
    vertex 34559.31051611281 -38832.448075146734 237.4863574376108
    vertex 34557.564902139406 -38832.448075146734 235.89991224313923
  endloop
endfacet
facet normal -5.023607286200332e-07 -0.9999999999436934 -1.0600048365867369e-05
  outer loop
    vertex 34562.48842906983 -38832.44810171157 238.17267991841874
    vertex 34557.564902139406 -38832.448075146734 235.89991224313923
    vertex 34566.900764613165 -38832.44810171157 237.96356916505863
  endloop
endfacet
facet normal -0.6486747639604695 -0.7610657327215311 3.2830903566542004e-05
  outer loop
    vertex 34581.31523003986 -38786.90838778613 236.43554230357134
    vertex 34581.31517469646 -38786.90838778613 235.34206434387735
    vertex 34583.938936848455 -38789.14465977528 235.8999122431392
  endloop
endfacet
facet normal 0.13988021893709993 -0.013288213066459623 0.9900792633641055
  outer loop
    vertex 34583.938936848455 -38832.44810171157 235.8999122431392
    vertex 34574.21822658267 -38786.90838778613 237.88447709015188
    vertex 34574.21822658267 -38832.44810171157 237.27327206443428
  endloop
endfacet
facet normal -0.5441168504278441 -0.013006529298847753 -0.8389086262973348
  outer loop
    vertex 34559.31051611281 -38832.44810171157 234.31346704866738
    vertex 34557.87824099601 -38832.448075146734 235.24244149898354
    vertex 34559.31051611281 -38786.90838778613 233.60741444071346
  endloop
endfacet
facet normal -3.1621260753097528e-06 0.9999999999436622 1.0132958220574292e-05
  outer loop
    vertex 34562.48842906983 -38786.90838778613 239.18412058132796
    vertex 34557.56488830356 -38786.90837007624 235.89991224313923
    vertex 34559.31051611281 -38786.90838778613 238.19241004556497
  endloop
endfacet
facet normal -0.6838060175073368 -0.011311433707804262 0.7295761659266494
  outer loop
    vertex 34559.31051611281 -38786.90838778613 238.19241004556497
    vertex 34557.87824099601 -38786.90837007624 236.8499893511854
    vertex 34559.31051611281 -38832.448075146734 237.4863574376108
  endloop
endfacet
facet normal -0.5441548041113979 -0.005390619756089914 0.8389675144969151
  outer loop
    vertex 34559.31051611281 -38832.448075146734 237.4863574376108
    vertex 34557.87824099601 -38786.90837007624 236.8499893511854
    vertex 34557.87824099601 -38832.448075146734 236.55738298729466
  endloop
endfacet
facet normal 7.456696685367162e-07 0.9999999999997221 -3.774003606628345e-11
  outer loop
    vertex 34581.31523003986 -38786.90838778613 236.43554230357134
    vertex 34581.31517469646 -38786.90838778613 235.34206434387735
    vertex 34557.56488830356 -38786.90837007624 235.89991224313923
  endloop
endfacet
facet normal -0.21096578176427913 -0.021704241065039622 -0.9772524570674546
  outer loop
    vertex 34562.48842906983 -38832.44810171157 233.6274305117309
    vertex 34559.31051611281 -38832.44810171157 234.31346704866738
    vertex 34562.48842906983 -38786.90838778613 232.61601844320913
  endloop
endfacet
facet normal 4.740974366504093e-06 -0.9999999997476074 2.196151816468388e-05
  outer loop
    vertex 34557.564902139406 -38832.448075146734 235.89991224313923
    vertex 34559.31051611281 -38832.44810171157 234.31346704866738
    vertex 34562.48842906983 -38832.44810171157 233.6274305117309
  endloop
endfacet
facet normal 0.2000244320053999 4.4414345979992834e-17 0.9797909096337429
  outer loop
    vertex 34583.938936848455 -38789.14465977528 235.8999122431392
    vertex 34581.31523003986 -38786.90838778613 236.43554230357134
    vertex 34583.938936848455 -38832.44810171157 235.8999122431392
  endloop
endfacet
facet normal -8.511216125153813e-07 -0.9999999999589371 -9.02227465102096e-06
  outer loop
    vertex 34566.900764613165 -38832.44810171157 237.96356916505863
    vertex 34557.564902139406 -38832.448075146734 235.89991224313923
    vertex 34574.21822658267 -38832.44810171157 237.27327206443428
  endloop
endfacet
facet normal 0.197072258198554 -0.013156971123029812 -0.9803006779347805
  outer loop
    vertex 34581.31517469646 -38786.90838778613 235.34206434387735
    vertex 34574.21822658267 -38832.44810171157 234.52655242184377
    vertex 34574.21822658267 -38786.90838778613 233.91534739612638
  endloop
endfacet
facet normal 0.9496781016007465 0.0020125401545391356 -0.31322109287551
  outer loop
    vertex 34557.87824099601 -38786.90837007624 236.8499893511854
    vertex 34557.87824099601 -38832.448075146734 236.55738298729466
    vertex 34557.56488830356 -38786.90837007624 235.89991224313923
  endloop
endfacet
facet normal -0.6838422094625429 -0.004687995962302885 -0.7296148677564384
  outer loop
    vertex 34559.31051611281 -38786.90838778613 233.60741444071346
    vertex 34557.87824099601 -38832.448075146734 235.24244149898354
    vertex 34557.87824099601 -38786.90837007624 234.9498351350928
  endloop
endfacet
facet normal -1.0072343555924272e-06 -0.9999999999740797 -7.129255706185602e-06
  outer loop
    vertex 34574.21822658267 -38832.44810171157 237.27327206443428
    vertex 34557.564902139406 -38832.448075146734 235.89991224313923
    vertex 34583.938936848455 -38832.44810171157 235.8999122431392
  endloop
endfacet
facet normal -5.017949282744867e-07 -0.9999999999436666 1.0602608013334346e-05
  outer loop
    vertex 34557.564902139406 -38832.448075146734 235.89991224313923
    vertex 34562.48842906983 -38832.44810171157 233.6274305117309
    vertex 34566.900764613165 -38832.44810171157 233.83625532121957
  endloop
endfacet
facet normal 0.2000351244293608 6.417041508089842e-07 0.9797887267131208
  outer loop
    vertex 34583.938936848455 -38832.44810171157 235.8999122431392
    vertex 34581.31523003986 -38786.90838778613 236.43554230357134
    vertex 34574.21822658267 -38786.90838778613 237.88447709015188
  endloop
endfacet
facet normal 0.04726499484981526 -0.020140885625082598 -0.9986793103835105
  outer loop
    vertex 34566.900764613165 -38832.44810171157 233.83625532121957
    vertex 34562.48842906983 -38832.44810171157 233.6274305117309
    vertex 34566.900764613165 -38786.90838778613 232.91783219976813
  endloop
endfacet
facet normal 2.2204460492503116e-16 -1.0 -2.1023285858194976e-48
  outer loop
    vertex 34559.31051611281 -38832.448075146734 237.4863574376108
    vertex 34557.87824099601 -38832.448075146734 236.55738298729466
    vertex 34557.564902139406 -38832.448075146734 235.89991224313923
  endloop
endfacet
endsolid Type XXI U-Boot
