solid Type XXI U-Boot
facet normal -8.526610601195362e-15 -1.0 -9.971031512187015e-16
  outer loop
    vertex 34621.807663592765 -39581.871405808495 80.60916888114231
    vertex 34593.74516596531 -39581.8714058085 103.96558260496901
    vertex 34545.00987777939 -39581.871405808495 80.60916888114805
  endloop
endfacet
facet normal -8.526610601195362e-15 -1.0 -9.971031512187015e-16
  outer loop
    vertex 34593.74516596531 -39581.8714058085 103.96558260496901
    vertex 34621.807663592765 -39581.871405808495 80.60916888114231
    vertex 34600.2101209087 -39581.871405808495 108.39090840799865
  endloop
endfacet
facet normal -8.526610601195362e-15 -1.0 -9.971031512187015e-16
  outer loop
    vertex 34600.2101209087 -39581.871405808495 108.39090840799865
    vertex 34621.807663592765 -39581.871405808495 80.60916888114231
    vertex 34660.48424576598 -39581.871405808495 150.30963876776227
  endloop
endfacet
facet normal -8.526610601195362e-15 -1.0 -9.971031512187015e-16
  outer loop
    vertex 34545.00987777939 -39581.871405808495 80.60916888114805
    vertex 34593.74516596531 -39581.8714058085 103.96558260496901
    vertex 34590.11951010196 -39581.871405808495 103.96558260496047
  endloop
endfacet
facet normal -8.526610601195362e-15 -1.0 -9.971031512187015e-16
  outer loop
    vertex 34600.2101209087 -39581.871405808495 108.39090840799865
    vertex 34660.48424576598 -39581.871405808495 150.30963876776227
    vertex 34615.8924142741 -39581.871405808495 123.65491467795596
  endloop
endfacet
facet normal -8.526610601195362e-15 -1.0 -9.971031512187015e-16
  outer loop
    vertex 34615.8924142741 -39581.871405808495 123.65491467795596
    vertex 34660.48424576598 -39581.871405808495 150.30963876776227
    vertex 34621.807663592765 -39581.871405808495 129.29188447328102
  endloop
endfacet
facet normal -8.526610601195362e-15 -1.0 -9.971031512187015e-16
  outer loop
    vertex 34621.807663592765 -39581.871405808495 129.29188447328102
    vertex 34660.48424576598 -39581.871405808495 150.30963876776227
    vertex 34633.25963754666 -39581.871405808495 144.3551877549225
  endloop
endfacet
facet normal -8.526610601195362e-15 -1.0 -9.971031512187015e-16
  outer loop
    vertex 34633.25963754666 -39581.871405808495 144.3551877549225
    vertex 34660.48424576598 -39581.871405808495 150.30963876776227
    vertex 34637.74991996617 -39581.871405808495 150.3096387677623
  endloop
endfacet
facet normal -8.526610601195362e-15 -1.0 -9.971031512187015e-16
  outer loop
    vertex 34637.74991996617 -39581.871405808495 150.3096387677623
    vertex 34660.48424576598 -39581.871405808495 150.30963876776227
    vertex 34660.48424576598 -39581.871405808495 200.60916888113945
  endloop
endfacet
facet normal -8.526610601195362e-15 -1.0 -9.971031512187015e-16
  outer loop
    vertex 34637.74991996617 -39581.871405808495 150.3096387677623
    vertex 34660.48424576598 -39581.871405808495 200.60916888113945
    vertex 34644.61274323962 -39581.871405808495 166.7408153000482
  endloop
endfacet
facet normal -8.526610601195362e-15 -1.0 -9.971031512187015e-16
  outer loop
    vertex 34644.61274323962 -39581.871405808495 166.7408153000482
    vertex 34660.48424576598 -39581.871405808495 200.60916888113945
    vertex 34648.31078943947 -39581.871405808495 175.97174252355464
  endloop
endfacet
facet normal -8.526610601195362e-15 -1.0 -9.971031512187015e-16
  outer loop
    vertex 34648.31078943947 -39581.871405808495 175.97174252355464
    vertex 34660.48424576598 -39581.871405808495 200.60916888113945
    vertex 34649.56382328466 -39581.871405808495 191.98021219530506
  endloop
endfacet
facet normal -8.526610601195362e-15 -1.0 -9.971031512187015e-16
  outer loop
    vertex 34649.56382328466 -39581.871405808495 191.98021219530506
    vertex 34660.48424576598 -39581.871405808495 200.60916888113945
    vertex 34650.48424576599 -39581.871405808495 200.60916888113945
  endloop
endfacet
facet normal -8.526610601195362e-15 -1.0 -9.971031512187015e-16
  outer loop
    vertex 34583.40876648554 -39581.871405808495 104.0996016543708
    vertex 34576.69803221111 -39581.871405808495 103.96558260496134
    vertex 34590.11951010196 -39581.871405808495 103.96558260496047
  endloop
endfacet
facet normal -8.526610601195362e-15 -1.0 -9.971031512187015e-16
  outer loop
    vertex 34545.00987777939 -39581.871405808495 80.60916888114805
    vertex 34566.607421404326 -39581.871405808495 108.39090840795704
    vertex 34506.33329497005 -39581.871405808495 150.30963877110466
  endloop
endfacet
facet normal -8.526610601195362e-15 -1.0 -9.971031512187015e-16
  outer loop
    vertex 34566.607421404326 -39581.871405808495 108.39090840795704
    vertex 34545.00987777939 -39581.871405808495 80.60916888114805
    vertex 34573.07237634776 -39581.871405808495 103.96558260496134
  endloop
endfacet
facet normal -8.526610601195362e-15 -1.0 -9.971031512187015e-16
  outer loop
    vertex 34573.07237634776 -39581.871405808495 103.96558260496134
    vertex 34545.00987777939 -39581.871405808495 80.60916888114805
    vertex 34590.11951010196 -39581.871405808495 103.96558260496047
  endloop
endfacet
facet normal -8.526610601195362e-15 -1.0 -9.971031512187015e-16
  outer loop
    vertex 34573.07237634776 -39581.871405808495 103.96558260496134
    vertex 34590.11951010196 -39581.871405808495 103.96558260496047
    vertex 34576.69803221111 -39581.871405808495 103.96558260496134
  endloop
endfacet
facet normal -8.526610601195362e-15 -1.0 -9.971031512187015e-16
  outer loop
    vertex 34506.33329497005 -39581.871405808495 150.30963877110466
    vertex 34566.607421404326 -39581.871405808495 108.39090840795704
    vertex 34550.92511869693 -39581.871405808495 123.65491467792823
  endloop
endfacet
facet normal -8.526610601195362e-15 -1.0 -9.971031512187015e-16
  outer loop
    vertex 34506.33329497005 -39581.871405808495 150.30963877110466
    vertex 34550.92511869693 -39581.871405808495 123.65491467792823
    vertex 34545.00987777939 -39581.871405808495 129.29188495093473
  endloop
endfacet
facet normal -8.526610601195362e-15 -1.0 -9.971031512187015e-16
  outer loop
    vertex 34506.33329497005 -39581.871405808495 150.30963877110466
    vertex 34545.00987777939 -39581.871405808495 129.29188495093473
    vertex 34533.55790321221 -39581.871405808495 144.3551877726074
  endloop
endfacet
facet normal -8.526610601195362e-15 -1.0 -9.971031512187015e-16
  outer loop
    vertex 34506.33329497005 -39581.871405808495 150.30963877110466
    vertex 34533.55790321221 -39581.871405808495 144.3551877726074
    vertex 34529.06761301293 -39581.871405808495 150.30963877110472
  endloop
endfacet
facet normal -8.526610601195362e-15 -1.0 -9.971031512187015e-16
  outer loop
    vertex 34506.33329497005 -39581.871405808495 150.30963877110466
    vertex 34529.06761301293 -39581.871405808495 150.30963877110472
    vertex 34506.33329497005 -39581.871405808495 200.609168881151
  endloop
endfacet
facet normal -8.526610601195362e-15 -1.0 -9.971031512187015e-16
  outer loop
    vertex 34506.33329497005 -39581.871405808495 200.609168881151
    vertex 34529.06761301293 -39581.871405808495 150.30963877110472
    vertex 34522.20478973142 -39581.871405808495 166.7408153000432
  endloop
endfacet
facet normal -8.526610601195362e-15 -1.0 -9.971031512187015e-16
  outer loop
    vertex 34506.33329497005 -39581.871405808495 200.609168881151
    vertex 34522.20478973142 -39581.871405808495 166.7408153000432
    vertex 34518.506743531594 -39581.871405808495 175.9717425235507
  endloop
endfacet
facet normal -8.526610601195362e-15 -1.0 -9.971031512187015e-16
  outer loop
    vertex 34506.33329497005 -39581.871405808495 200.609168881151
    vertex 34518.506743531594 -39581.871405808495 175.9717425235507
    vertex 34517.25370968637 -39581.871405808495 191.9802121953025
  endloop
endfacet
facet normal -8.526610601195362e-15 -1.0 -9.971031512187015e-16
  outer loop
    vertex 34506.33329497005 -39581.871405808495 200.609168881151
    vertex 34517.25370968637 -39581.871405808495 191.9802121953025
    vertex 34516.33329497005 -39581.871405808495 200.609168881151
  endloop
endfacet
facet normal -0.8744016203973612 0.0 -0.4852028506165945
  outer loop
    vertex 34506.33329497005 -39571.8714058085 150.30963877110466
    vertex 34545.00987777939 -39581.871405808495 80.60916888114805
    vertex 34506.33329497005 -39581.871405808495 150.30963877110466
  endloop
endfacet
facet normal -0.8744016203973612 0.0 -0.4852028506165945
  outer loop
    vertex 34545.00987777939 -39581.871405808495 80.60916888114805
    vertex 34506.33329497005 -39571.8714058085 150.30963877110466
    vertex 34545.00987777939 -39571.8714058085 80.60916888114805
  endloop
endfacet
facet normal 0.0 5.601581994710823e-15 1.0
  outer loop
    vertex 34576.69803221111 -39581.871405808495 103.96558260496134
    vertex 34573.07237634776 -39571.8714058085 103.9655826049613
    vertex 34573.07237634776 -39581.871405808495 103.96558260496134
  endloop
endfacet
facet normal 0.0 5.601581994710823e-15 1.0
  outer loop
    vertex 34573.07237634776 -39571.8714058085 103.9655826049613
    vertex 34576.69803221111 -39581.871405808495 103.96558260496134
    vertex 34576.69803221111 -39571.8714058085 103.9655826049613
  endloop
endfacet
facet normal -1.0 0.0 0.0
  outer loop
    vertex 34506.33329497005 -39571.8714058085 200.60916888115094
    vertex 34506.33329497005 -39581.871405808495 150.30963877110466
    vertex 34506.33329497005 -39581.871405808495 200.609168881151
  endloop
endfacet
facet normal -1.0 0.0 0.0
  outer loop
    vertex 34506.33329497005 -39581.871405808495 150.30963877110466
    vertex 34506.33329497005 -39571.8714058085 200.60916888115094
    vertex 34506.33329497005 -39571.8714058085 150.30963877110466
  endloop
endfacet
facet normal -2.358232192281567e-12 5.601581994712719e-15 1.0
  outer loop
    vertex 34593.74516596531 -39581.8714058085 103.96558260496901
    vertex 34590.11951010196 -39571.8714058085 103.96558260496042
    vertex 34590.11951010196 -39581.871405808495 103.96558260496047
  endloop
endfacet
facet normal -2.358232192281567e-12 5.601581994712719e-15 1.0
  outer loop
    vertex 34590.11951010196 -39571.8714058085 103.96558260496042
    vertex 34593.74516596531 -39581.8714058085 103.96558260496901
    vertex 34593.74516596531 -39571.8714058085 103.96558260496897
  endloop
endfacet
facet normal 0.7960637985763633 2.7499886623482265e-15 0.6052127135116805
  outer loop
    vertex 34545.00987777939 -39571.8714058085 129.2918849509347
    vertex 34533.55790321221 -39581.871405808495 144.3551877726074
    vertex 34545.00987777939 -39581.871405808495 129.29188495093473
  endloop
endfacet
facet normal 0.7960637985763633 2.7499886623482265e-15 0.6052127135116805
  outer loop
    vertex 34533.55790321221 -39581.871405808495 144.3551877726074
    vertex 34545.00987777939 -39571.8714058085 129.2918849509347
    vertex 34533.55790321221 -39571.8714058085 144.35518777260734
  endloop
endfacet
facet normal 0.01996683816410439 5.584408813927129e-15 0.9998006428152207
  outer loop
    vertex 34590.11951010196 -39581.871405808495 103.96558260496047
    vertex 34583.40876648554 -39571.8714058085 104.09960165437076
    vertex 34583.40876648554 -39581.871405808495 104.0996016543708
  endloop
endfacet
facet normal 0.01996683816410439 5.584408813927129e-15 0.9998006428152207
  outer loop
    vertex 34583.40876648554 -39571.8714058085 104.09960165437076
    vertex 34590.11951010196 -39581.871405808495 103.96558260496047
    vertex 34590.11951010196 -39571.8714058085 103.96558260496042
  endloop
endfacet
facet normal 0.9282797604918313 1.3366486942808243e-15 0.37188262430668734
  outer loop
    vertex 34522.20478973142 -39571.8714058085 166.74081530004315
    vertex 34518.506743531594 -39581.871405808495 175.9717425235507
    vertex 34522.20478973142 -39581.871405808495 166.7408153000432
  endloop
endfacet
facet normal 0.9282797604918313 1.3366486942808243e-15 0.37188262430668734
  outer loop
    vertex 34518.506743531594 -39581.871405808495 175.9717425235507
    vertex 34522.20478973142 -39571.8714058085 166.74081530004315
    vertex 34518.506743531594 -39571.8714058085 175.97174252355066
  endloop
endfacet
facet normal 0.9943592896385561 -2.0549359759715966e-16 0.10606414620175077
  outer loop
    vertex 34517.25370968637 -39571.8714058085 191.98021219530244
    vertex 34516.33329497005 -39581.871405808495 200.609168881151
    vertex 34517.25370968637 -39581.871405808495 191.9802121953025
  endloop
endfacet
facet normal 0.9943592896385561 -2.0549359759715966e-16 0.10606414620175077
  outer loop
    vertex 34516.33329497005 -39581.871405808495 200.609168881151
    vertex 34517.25370968637 -39571.8714058085 191.98021219530244
    vertex 34516.33329497005 -39571.8714058085 200.60916888115094
  endloop
endfacet
facet normal -0.5648521835452692 5.07661086443899e-15 0.8251921053573777
  outer loop
    vertex 34600.2101209087 -39581.871405808495 108.39090840799865
    vertex 34593.74516596531 -39571.8714058085 103.96558260496897
    vertex 34593.74516596531 -39581.8714058085 103.96558260496901
  endloop
endfacet
facet normal -0.5648521835452692 5.07661086443899e-15 0.8251921053573777
  outer loop
    vertex 34593.74516596531 -39571.8714058085 103.96558260496897
    vertex 34600.2101209087 -39581.871405808495 108.39090840799865
    vertex 34600.2101209087 -39571.8714058085 108.3909084079986
  endloop
endfacet
facet normal 0.6974852148480147 3.453201670613919e-15 0.7165991732261618
  outer loop
    vertex 34566.607421404326 -39581.871405808495 108.39090840795704
    vertex 34550.92511869693 -39571.8714058085 123.65491467792819
    vertex 34550.92511869693 -39581.871405808495 123.65491467792823
  endloop
endfacet
facet normal 0.6974852148480147 3.453201670613919e-15 0.7165991732261618
  outer loop
    vertex 34550.92511869693 -39571.8714058085 123.65491467792819
    vertex 34566.607421404326 -39581.871405808495 108.39090840795704
    vertex 34566.607421404326 -39571.8714058085 108.390908407957
  endloop
endfacet
facet normal 0.9227476159575895 1.4168428164735776e-15 0.38540477065623513
  outer loop
    vertex 34529.06761301293 -39571.8714058085 150.30963877110466
    vertex 34522.20478973142 -39581.871405808495 166.7408153000432
    vertex 34529.06761301293 -39581.871405808495 150.30963877110472
  endloop
endfacet
facet normal 0.9227476159575895 1.4168428164735776e-15 0.38540477065623513
  outer loop
    vertex 34522.20478973142 -39581.871405808495 166.7408153000432
    vertex 34529.06761301293 -39571.8714058085 150.30963877110466
    vertex 34522.20478973142 -39571.8714058085 166.74081530004315
  endloop
endfacet
facet normal 0.0 5.6015819947108235e-15 1.0
  outer loop
    vertex 34516.33329497005 -39581.871405808495 200.609168881151
    vertex 34506.33329497005 -39571.8714058085 200.60916888115094
    vertex 34506.33329497005 -39581.871405808495 200.609168881151
  endloop
endfacet
facet normal 0.0 5.6015819947108235e-15 1.0
  outer loop
    vertex 34506.33329497005 -39571.8714058085 200.60916888115094
    vertex 34516.33329497005 -39581.871405808495 200.609168881151
    vertex 34516.33329497005 -39571.8714058085 200.60916888115094
  endloop
endfacet
facet normal 0.9969506592071334 -3.6458782908969077e-16 0.0780344994631363
  outer loop
    vertex 34518.506743531594 -39571.8714058085 175.97174252355066
    vertex 34517.25370968637 -39581.871405808495 191.9802121953025
    vertex 34518.506743531594 -39581.871405808495 175.9717425235507
  endloop
endfacet
facet normal 0.9969506592071334 -3.6458782908969077e-16 0.0780344994631363
  outer loop
    vertex 34517.25370968637 -39581.871405808495 191.9802121953025
    vertex 34518.506743531594 -39571.8714058085 175.97174252355066
    vertex 34517.25370968637 -39571.8714058085 191.98021219530244
  endloop
endfacet
facet normal -0.019966865948675527 5.6165217634959e-15 0.9998006422603397
  outer loop
    vertex 34583.40876648554 -39581.871405808495 104.0996016543708
    vertex 34576.69803221111 -39571.8714058085 103.9655826049613
    vertex 34576.69803221111 -39581.871405808495 103.96558260496134
  endloop
endfacet
facet normal -0.019966865948675527 5.6165217634959e-15 0.9998006422603397
  outer loop
    vertex 34576.69803221111 -39571.8714058085 103.9655826049613
    vertex 34583.40876648554 -39581.871405808495 104.0996016543708
    vertex 34583.40876648554 -39571.8714058085 104.09960165437076
  endloop
endfacet
facet normal 0.5648521835395715 4.168151614682247e-15 0.8251921053612781
  outer loop
    vertex 34573.07237634776 -39581.871405808495 103.96558260496134
    vertex 34566.607421404326 -39571.8714058085 108.390908407957
    vertex 34566.607421404326 -39581.871405808495 108.39090840795704
  endloop
endfacet
facet normal 0.5648521835395715 4.168151614682247e-15 0.8251921053612781
  outer loop
    vertex 34566.607421404326 -39571.8714058085 108.390908407957
    vertex 34573.07237634776 -39581.871405808495 103.96558260496134
    vertex 34573.07237634776 -39571.8714058085 103.9655826049613
  endloop
endfacet
facet normal 0.6898738172405549 3.5003846085398298e-15 0.7239296348996536
  outer loop
    vertex 34550.92511869693 -39581.871405808495 123.65491467792823
    vertex 34545.00987777939 -39571.8714058085 129.2918849509347
    vertex 34545.00987777939 -39581.871405808495 129.29188495093473
  endloop
endfacet
facet normal 0.6898738172405549 3.5003846085398298e-15 0.7239296348996536
  outer loop
    vertex 34545.00987777939 -39571.8714058085 129.2918849509347
    vertex 34550.92511869693 -39581.871405808495 123.65491467792823
    vertex 34550.92511869693 -39571.8714058085 123.65491467792819
  endloop
endfacet
facet normal 0.798423459703171 2.7306343934774243e-15 0.6020963203637927
  outer loop
    vertex 34533.55790321221 -39571.8714058085 144.35518777260734
    vertex 34529.06761301293 -39581.871405808495 150.30963877110472
    vertex 34533.55790321221 -39581.871405808495 144.3551877726074
  endloop
endfacet
facet normal 0.798423459703171 2.7306343934774243e-15 0.6020963203637927
  outer loop
    vertex 34529.06761301293 -39581.871405808495 150.30963877110472
    vertex 34533.55790321221 -39571.8714058085 144.35518777260734
    vertex 34529.06761301293 -39571.8714058085 150.30963877110466
  endloop
endfacet
facet normal 0.8744016237732047 0.0 -0.4852028445328643
  outer loop
    vertex 34621.807663592765 -39571.8714058085 80.60916888114231
    vertex 34660.48424576598 -39581.871405808495 150.30963876776227
    vertex 34621.807663592765 -39581.871405808495 80.60916888114231
  endloop
endfacet
facet normal 0.8744016237732047 0.0 -0.4852028445328643
  outer loop
    vertex 34660.48424576598 -39581.871405808495 150.30963876776227
    vertex 34621.807663592765 -39571.8714058085 80.60916888114231
    vertex 34660.48424576598 -39571.8714058085 150.30963876776227
  endloop
endfacet
facet normal 7.734319509293908e-16 1.0 -5.6588103672847424e-15
  outer loop
    vertex 34621.807663592765 -39571.8714058085 80.60916888114231
    vertex 34600.2101209087 -39571.8714058085 108.3909084079986
    vertex 34660.48424576598 -39571.8714058085 150.30963876776227
  endloop
endfacet
facet normal 7.734319509293908e-16 1.0 -5.6588103672847424e-15
  outer loop
    vertex 34600.2101209087 -39571.8714058085 108.3909084079986
    vertex 34621.807663592765 -39571.8714058085 80.60916888114231
    vertex 34593.74516596531 -39571.8714058085 103.96558260496897
  endloop
endfacet
facet normal 7.734319509293908e-16 1.0 -5.6588103672847424e-15
  outer loop
    vertex 34593.74516596531 -39571.8714058085 103.96558260496897
    vertex 34621.807663592765 -39571.8714058085 80.60916888114231
    vertex 34545.00987777939 -39571.8714058085 80.60916888114805
  endloop
endfacet
facet normal 7.734319509293908e-16 1.0 -5.6588103672847424e-15
  outer loop
    vertex 34593.74516596531 -39571.8714058085 103.96558260496897
    vertex 34545.00987777939 -39571.8714058085 80.60916888114805
    vertex 34590.11951010196 -39571.8714058085 103.96558260496042
  endloop
endfacet
facet normal 7.734319509293908e-16 1.0 -5.6588103672847424e-15
  outer loop
    vertex 34660.48424576598 -39571.8714058085 150.30963876776227
    vertex 34600.2101209087 -39571.8714058085 108.3909084079986
    vertex 34615.8924142741 -39571.8714058085 123.65491467795592
  endloop
endfacet
facet normal 7.734319509293908e-16 1.0 -5.6588103672847424e-15
  outer loop
    vertex 34660.48424576598 -39571.8714058085 150.30963876776227
    vertex 34615.8924142741 -39571.8714058085 123.65491467795592
    vertex 34621.807663592765 -39571.8714058085 129.29188447328096
  endloop
endfacet
facet normal 7.734319509293908e-16 1.0 -5.6588103672847424e-15
  outer loop
    vertex 34660.48424576598 -39571.8714058085 150.30963876776227
    vertex 34621.807663592765 -39571.8714058085 129.29188447328096
    vertex 34633.25963754666 -39571.8714058085 144.35518775492244
  endloop
endfacet
facet normal 7.734319509293908e-16 1.0 -5.6588103672847424e-15
  outer loop
    vertex 34660.48424576598 -39571.8714058085 150.30963876776227
    vertex 34633.25963754666 -39571.8714058085 144.35518775492244
    vertex 34637.74991996617 -39571.8714058085 150.30963876776227
  endloop
endfacet
facet normal 7.734319509293908e-16 1.0 -5.6588103672847424e-15
  outer loop
    vertex 34660.48424576598 -39571.8714058085 150.30963876776227
    vertex 34637.74991996617 -39571.8714058085 150.30963876776227
    vertex 34644.61274323962 -39571.8714058085 166.74081530004818
  endloop
endfacet
facet normal 7.734319509293908e-16 1.0 -5.6588103672847424e-15
  outer loop
    vertex 34660.48424576598 -39571.8714058085 150.30963876776227
    vertex 34644.61274323962 -39571.8714058085 166.74081530004818
    vertex 34660.48424576598 -39571.8714058085 200.60916888113942
  endloop
endfacet
facet normal 7.734319509293908e-16 1.0 -5.6588103672847424e-15
  outer loop
    vertex 34660.48424576598 -39571.8714058085 200.60916888113942
    vertex 34644.61274323962 -39571.8714058085 166.74081530004818
    vertex 34648.31078943947 -39571.8714058085 175.9717425235546
  endloop
endfacet
facet normal 7.734319509293908e-16 1.0 -5.6588103672847424e-15
  outer loop
    vertex 34660.48424576598 -39571.8714058085 200.60916888113942
    vertex 34648.31078943947 -39571.8714058085 175.9717425235546
    vertex 34649.56382328466 -39571.8714058085 191.980212195305
  endloop
endfacet
facet normal 7.734319509293908e-16 1.0 -5.6588103672847424e-15
  outer loop
    vertex 34660.48424576598 -39571.8714058085 200.60916888113942
    vertex 34649.56382328466 -39571.8714058085 191.980212195305
    vertex 34650.48424576599 -39571.8714058085 200.60916888113942
  endloop
endfacet
facet normal 7.734319509293908e-16 1.0 -5.6588103672847424e-15
  outer loop
    vertex 34545.00987777939 -39571.8714058085 80.60916888114805
    vertex 34573.07237634776 -39571.8714058085 103.9655826049613
    vertex 34590.11951010196 -39571.8714058085 103.96558260496042
  endloop
endfacet
facet normal 7.734319509293908e-16 1.0 -5.6588103672847424e-15
  outer loop
    vertex 34573.07237634776 -39571.8714058085 103.9655826049613
    vertex 34545.00987777939 -39571.8714058085 80.60916888114805
    vertex 34566.607421404326 -39571.8714058085 108.390908407957
  endloop
endfacet
facet normal 7.734319509293908e-16 1.0 -5.6588103672847424e-15
  outer loop
    vertex 34566.607421404326 -39571.8714058085 108.390908407957
    vertex 34545.00987777939 -39571.8714058085 80.60916888114805
    vertex 34506.33329497005 -39571.8714058085 150.30963877110466
  endloop
endfacet
facet normal 7.734319509293908e-16 1.0 -5.6588103672847424e-15
  outer loop
    vertex 34566.607421404326 -39571.8714058085 108.390908407957
    vertex 34506.33329497005 -39571.8714058085 150.30963877110466
    vertex 34550.92511869693 -39571.8714058085 123.65491467792819
  endloop
endfacet
facet normal 7.734319509293908e-16 1.0 -5.6588103672847424e-15
  outer loop
    vertex 34550.92511869693 -39571.8714058085 123.65491467792819
    vertex 34506.33329497005 -39571.8714058085 150.30963877110466
    vertex 34545.00987777939 -39571.8714058085 129.2918849509347
  endloop
endfacet
facet normal 7.734319509293908e-16 1.0 -5.6588103672847424e-15
  outer loop
    vertex 34545.00987777939 -39571.8714058085 129.2918849509347
    vertex 34506.33329497005 -39571.8714058085 150.30963877110466
    vertex 34533.55790321221 -39571.8714058085 144.35518777260734
  endloop
endfacet
facet normal 7.734319509293908e-16 1.0 -5.6588103672847424e-15
  outer loop
    vertex 34533.55790321221 -39571.8714058085 144.35518777260734
    vertex 34506.33329497005 -39571.8714058085 150.30963877110466
    vertex 34529.06761301293 -39571.8714058085 150.30963877110466
  endloop
endfacet
facet normal 7.734319509293908e-16 1.0 -5.6588103672847424e-15
  outer loop
    vertex 34529.06761301293 -39571.8714058085 150.30963877110466
    vertex 34506.33329497005 -39571.8714058085 150.30963877110466
    vertex 34506.33329497005 -39571.8714058085 200.60916888115094
  endloop
endfacet
facet normal 7.734319509293908e-16 1.0 -5.6588103672847424e-15
  outer loop
    vertex 34529.06761301293 -39571.8714058085 150.30963877110466
    vertex 34506.33329497005 -39571.8714058085 200.60916888115094
    vertex 34522.20478973142 -39571.8714058085 166.74081530004315
  endloop
endfacet
facet normal 7.734319509293908e-16 1.0 -5.6588103672847424e-15
  outer loop
    vertex 34522.20478973142 -39571.8714058085 166.74081530004315
    vertex 34506.33329497005 -39571.8714058085 200.60916888115094
    vertex 34518.506743531594 -39571.8714058085 175.97174252355066
  endloop
endfacet
facet normal 7.734319509293908e-16 1.0 -5.6588103672847424e-15
  outer loop
    vertex 34518.506743531594 -39571.8714058085 175.97174252355066
    vertex 34506.33329497005 -39571.8714058085 200.60916888115094
    vertex 34517.25370968637 -39571.8714058085 191.98021219530244
  endloop
endfacet
facet normal 7.734319509293908e-16 1.0 -5.6588103672847424e-15
  outer loop
    vertex 34517.25370968637 -39571.8714058085 191.98021219530244
    vertex 34506.33329497005 -39571.8714058085 200.60916888115094
    vertex 34516.33329497005 -39571.8714058085 200.60916888115094
  endloop
endfacet
facet normal 7.734319509293908e-16 1.0 -5.6588103672847424e-15
  outer loop
    vertex 34590.11951010196 -39571.8714058085 103.96558260496042
    vertex 34576.69803221111 -39571.8714058085 103.9655826049613
    vertex 34583.40876648554 -39571.8714058085 104.09960165437076
  endloop
endfacet
facet normal 7.734319509293908e-16 1.0 -5.6588103672847424e-15
  outer loop
    vertex 34576.69803221111 -39571.8714058085 103.9655826049613
    vertex 34590.11951010196 -39571.8714058085 103.96558260496042
    vertex 34573.07237634776 -39571.8714058085 103.9655826049613
  endloop
endfacet
facet normal 1.0 0.0 0.0
  outer loop
    vertex 34660.48424576598 -39571.8714058085 150.30963876776227
    vertex 34660.48424576598 -39581.871405808495 200.60916888113945
    vertex 34660.48424576598 -39581.871405808495 150.30963876776227
  endloop
endfacet
facet normal 1.0 0.0 0.0
  outer loop
    vertex 34660.48424576598 -39581.871405808495 200.60916888113945
    vertex 34660.48424576598 -39571.8714058085 150.30963876776227
    vertex 34660.48424576598 -39571.8714058085 200.60916888113942
  endloop
endfacet
facet normal -7.49075193180415e-14 -2.1477125595741415e-29 -1.0
  outer loop
    vertex 34621.807663592765 -39571.8714058085 80.60916888114231
    vertex 34545.00987777939 -39581.871405808495 80.60916888114805
    vertex 34545.00987777939 -39571.8714058085 80.60916888114805
  endloop
endfacet
facet normal -7.49075193180415e-14 -2.1477125595741415e-29 -1.0
  outer loop
    vertex 34545.00987777939 -39581.871405808495 80.60916888114805
    vertex 34621.807663592765 -39571.8714058085 80.60916888114231
    vertex 34621.807663592765 -39581.871405808495 80.60916888114231
  endloop
endfacet
facet normal -0.7984239618852126 4.014746094554518e-15 0.6020956544333472
  outer loop
    vertex 34637.74991996617 -39571.8714058085 150.30963876776227
    vertex 34633.25963754666 -39581.871405808495 144.3551877549225
    vertex 34637.74991996617 -39581.871405808495 150.3096387677623
  endloop
endfacet
facet normal -0.7984239618852126 4.014746094554518e-15 0.6020956544333472
  outer loop
    vertex 34633.25963754666 -39581.871405808495 144.3551877549225
    vertex 34637.74991996617 -39571.8714058085 150.30963876776227
    vertex 34633.25963754666 -39571.8714058085 144.35518775492244
  endloop
endfacet
facet normal -0.9969506592072729 1.2388211233977794e-15 0.07803449946135559
  outer loop
    vertex 34649.56382328466 -39571.8714058085 191.980212195305
    vertex 34648.31078943947 -39581.871405808495 175.97174252355464
    vertex 34649.56382328466 -39581.871405808495 191.98021219530506
  endloop
endfacet
facet normal -0.9969506592072729 1.2388211233977794e-15 0.07803449946135559
  outer loop
    vertex 34648.31078943947 -39581.871405808495 175.97174252355464
    vertex 34649.56382328466 -39571.8714058085 191.980212195305
    vertex 34648.31078943947 -39571.8714058085 175.9717425235546
  endloop
endfacet
facet normal -0.6898732731185263 4.609920275041348e-15 0.7239301534241623
  outer loop
    vertex 34621.807663592765 -39581.871405808495 129.29188447328102
    vertex 34615.8924142741 -39571.8714058085 123.65491467795592
    vertex 34615.8924142741 -39581.871405808495 123.65491467795596
  endloop
endfacet
facet normal -0.6898732731185263 4.609920275041348e-15 0.7239301534241623
  outer loop
    vertex 34615.8924142741 -39571.8714058085 123.65491467795592
    vertex 34621.807663592765 -39581.871405808495 129.29188447328102
    vertex 34621.807663592765 -39571.8714058085 129.29188447328096
  endloop
endfacet
facet normal -0.6974854282099067 4.574975390013437e-15 0.7165989655552423
  outer loop
    vertex 34615.8924142741 -39581.871405808495 123.65491467795596
    vertex 34600.2101209087 -39571.8714058085 108.3909084079986
    vertex 34600.2101209087 -39581.871405808495 108.39090840799865
  endloop
endfacet
facet normal -0.6974854282099067 4.574975390013437e-15 0.7165989655552423
  outer loop
    vertex 34600.2101209087 -39571.8714058085 108.3909084079986
    vertex 34615.8924142741 -39581.871405808495 123.65491467795596
    vertex 34615.8924142741 -39571.8714058085 123.65491467795592
  endloop
endfacet
facet normal -0.9943591952671719 1.3937525009198654e-15 0.10606503093679123
  outer loop
    vertex 34650.48424576599 -39571.8714058085 200.60916888113942
    vertex 34649.56382328466 -39581.871405808495 191.98021219530506
    vertex 34650.48424576599 -39581.871405808495 200.60916888113945
  endloop
endfacet
facet normal -0.9943591952671719 1.3937525009198654e-15 0.10606503093679123
  outer loop
    vertex 34649.56382328466 -39581.871405808495 191.98021219530506
    vertex 34650.48424576599 -39571.8714058085 200.60916888113942
    vertex 34649.56382328466 -39571.8714058085 191.980212195305
  endloop
endfacet
facet normal -0.9282797604910145 2.829613330654237e-15 0.37188262430872593
  outer loop
    vertex 34648.31078943947 -39571.8714058085 175.9717425235546
    vertex 34644.61274323962 -39581.871405808495 166.7408153000482
    vertex 34648.31078943947 -39581.871405808495 175.97174252355464
  endloop
endfacet
facet normal -0.9282797604910145 2.829613330654237e-15 0.37188262430872593
  outer loop
    vertex 34644.61274323962 -39581.871405808495 166.7408153000482
    vertex 34648.31078943947 -39571.8714058085 175.9717425235546
    vertex 34644.61274323962 -39571.8714058085 166.74081530004818
  endloop
endfacet
facet normal 0.0 5.6015819947108235e-15 1.0
  outer loop
    vertex 34660.48424576598 -39581.871405808495 200.60916888113945
    vertex 34650.48424576599 -39571.8714058085 200.60916888113942
    vertex 34650.48424576599 -39581.871405808495 200.60916888113945
  endloop
endfacet
facet normal 0.0 5.6015819947108235e-15 1.0
  outer loop
    vertex 34650.48424576599 -39571.8714058085 200.60916888113942
    vertex 34660.48424576598 -39581.871405808495 200.60916888113945
    vertex 34660.48424576598 -39571.8714058085 200.60916888113942
  endloop
endfacet
facet normal -0.9227476161464145 2.9009100291130857e-15 0.3854047702041445
  outer loop
    vertex 34644.61274323962 -39571.8714058085 166.74081530004818
    vertex 34637.74991996617 -39581.871405808495 150.3096387677623
    vertex 34644.61274323962 -39581.871405808495 166.7408153000482
  endloop
endfacet
facet normal -0.9227476161464145 2.9009100291130857e-15 0.3854047702041445
  outer loop
    vertex 34637.74991996617 -39581.871405808495 150.3096387677623
    vertex 34644.61274323962 -39571.8714058085 166.74081530004818
    vertex 34637.74991996617 -39571.8714058085 150.30963876776227
  endloop
endfacet
facet normal -0.7960638230952113 4.030308454667726e-15 0.6052126812609238
  outer loop
    vertex 34633.25963754666 -39571.8714058085 144.35518775492244
    vertex 34621.807663592765 -39581.871405808495 129.29188447328102
    vertex 34633.25963754666 -39581.871405808495 144.3551877549225
  endloop
endfacet
facet normal -0.7960638230952113 4.030308454667726e-15 0.6052126812609238
  outer loop
    vertex 34621.807663592765 -39581.871405808495 129.29188447328102
    vertex 34633.25963754666 -39571.8714058085 144.35518775492244
    vertex 34621.807663592765 -39571.8714058085 129.29188447328096
  endloop
endfacet
endsolid Type XXI U-Boot
