solid Type XXI U-Boot
facet normal -0.005719347486050579 3.631708111379917e-14 -0.9999836443984141
  outer loop
    vertex 34634.12764677769 -38829.82708056142 214.8713363313176
    vertex 34508.48764677769 -38843.16638679685 215.5899269024483
    vertex 34508.48764677769 -38839.916775737576 215.58992690244852
  endloop
endfacet
facet normal -0.005719347486050579 3.631708111379917e-14 -0.9999836443984141
  outer loop
    vertex 34508.48764677769 -38843.16638679685 215.5899269024483
    vertex 34634.12764677769 -38829.82708056142 214.8713363313176
    vertex 34583.0929681934 -38846.39153597182 215.16322616601258
  endloop
endfacet
facet normal -0.005719347486050579 3.631708111379917e-14 -0.9999836443984141
  outer loop
    vertex 34508.48764677769 -38843.16638679685 215.5899269024483
    vertex 34583.0929681934 -38846.39153597182 215.16322616601258
    vertex 34508.48764677769 -38908.42690002726 215.58992690244384
  endloop
endfacet
facet normal -0.005719347486050579 3.631708111379917e-14 -0.9999836443984141
  outer loop
    vertex 34508.48764677769 -38908.42690002726 215.58992690244384
    vertex 34583.0929681934 -38846.39153597182 215.16322616601258
    vertex 34508.48764677769 -38911.580583615876 215.5899269024436
  endloop
endfacet
facet normal -0.005719347486050579 3.631708111379917e-14 -0.9999836443984141
  outer loop
    vertex 34508.48764677769 -38911.580583615876 215.5899269024436
    vertex 34583.0929681934 -38846.39153597182 215.16322616601258
    vertex 34583.092968193225 -38868.59153597181 215.16322616601258
  endloop
endfacet
facet normal -0.005719347486050579 3.631708111379917e-14 -0.9999836443984141
  outer loop
    vertex 34583.0929681934 -38846.39153597182 215.16322616601258
    vertex 34634.12764677769 -38829.82708056142 214.8713363313176
    vertex 34626.09226490253 -38846.391535972165 214.91729422411285
  endloop
endfacet
facet normal -0.005719347486050579 3.631708111379917e-14 -0.9999836443984141
  outer loop
    vertex 34626.09226490253 -38846.391535972165 214.91729422411285
    vertex 34634.12764677769 -38829.82708056142 214.8713363313176
    vertex 34626.09226490256 -38883.391535972165 214.91729422411245
  endloop
endfacet
facet normal -0.005719347486050579 3.631708111379917e-14 -0.9999836443984141
  outer loop
    vertex 34508.48764677769 -38911.580583615876 215.5899269024436
    vertex 34583.092968193254 -38905.59153597181 215.16322616601218
    vertex 34634.12764677769 -38921.1315967527 214.8713363313176
  endloop
endfacet
facet normal -0.005719347486050579 3.631708111379917e-14 -0.9999836443984141
  outer loop
    vertex 34583.092968193254 -38905.59153597181 215.16322616601218
    vertex 34508.48764677769 -38911.580583615876 215.5899269024436
    vertex 34583.092968193225 -38868.59153597181 215.16322616601258
  endloop
endfacet
facet normal -0.005719347486050579 3.631708111379917e-14 -0.9999836443984141
  outer loop
    vertex 34583.092968193254 -38905.59153597181 215.16322616601218
    vertex 34583.092968193225 -38868.59153597181 215.16322616601258
    vertex 34583.092968193254 -38886.991535971814 215.1632261660124
  endloop
endfacet
facet normal -0.005719347486050579 3.631708111379917e-14 -0.9999836443984141
  outer loop
    vertex 34634.12764677769 -38921.1315967527 214.8713363313176
    vertex 34583.092968193254 -38905.59153597181 215.16322616601218
    vertex 34626.092264902385 -38905.59153597216 214.91729422411245
  endloop
endfacet
facet normal -0.005719347486050579 3.631708111379917e-14 -0.9999836443984141
  outer loop
    vertex 34634.12764677769 -38921.1315967527 214.8713363313176
    vertex 34626.092264902385 -38905.59153597216 214.91729422411245
    vertex 34626.09226490256 -38883.391535972165 214.91729422411245
  endloop
endfacet
facet normal -0.005719347486050579 3.631708111379917e-14 -0.9999836443984141
  outer loop
    vertex 34634.12764677769 -38921.1315967527 214.8713363313176
    vertex 34626.09226490256 -38883.391535972165 214.91729422411245
    vertex 34634.12764677769 -38829.82708056142 214.8713363313176
  endloop
endfacet
facet normal -0.005719347486050579 3.631708111379917e-14 -0.9999836443984141
  outer loop
    vertex 34583.092968193225 -38868.59153597181 215.16322616601258
    vertex 34583.09296819343 -38883.391535971816 215.16322616601218
    vertex 34583.092968193254 -38886.991535971814 215.1632261660124
  endloop
endfacet
facet normal -0.005719347486050579 3.631708111379917e-14 -0.9999836443984141
  outer loop
    vertex 34583.09296819343 -38883.391535971816 215.16322616601218
    vertex 34583.092968193225 -38868.59153597181 215.16322616601258
    vertex 34626.092264902356 -38868.59153597216 214.91729422411285
  endloop
endfacet
facet normal -0.005719347486050579 3.631708111379917e-14 -0.9999836443984141
  outer loop
    vertex 34583.09296819343 -38883.391535971816 215.16322616601218
    vertex 34626.092264902356 -38868.59153597216 214.91729422411285
    vertex 34626.09226490256 -38883.391535972165 214.91729422411245
  endloop
endfacet
facet normal -0.005719347486050579 3.631708111379917e-14 -0.9999836443984141
  outer loop
    vertex 34626.09226490256 -38883.391535972165 214.91729422411245
    vertex 34626.092264902356 -38868.59153597216 214.91729422411285
    vertex 34626.09226490253 -38846.391535972165 214.91729422411285
  endloop
endfacet
facet normal -0.9999855973740758 9.462579917997107e-06 0.0053670247691575265
  outer loop
    vertex 34508.516243515114 -38908.86522032019 220.58984512443496
    vertex 34508.51376338065 -38908.99935730461 220.28592285100575
    vertex 34508.51376338065 -38908.99935730461 220.33695627445215
  endloop
endfacet
facet normal -0.9999855973740758 9.462579917997107e-06 0.0053670247691575265
  outer loop
    vertex 34508.500527042896 -38910.35067621214 217.84194158870312
    vertex 34508.48764677769 -38908.42690002726 215.58992690244384
    vertex 34508.48764677769 -38911.580583615876 215.5899269024436
  endloop
endfacet
facet normal -0.9999855973740758 9.462579917997107e-06 0.0053670247691575265
  outer loop
    vertex 34508.48764677769 -38908.42690002726 215.58992690244384
    vertex 34508.500527042896 -38910.35067621214 217.84194158870312
    vertex 34508.50374710919 -38910.04319936121 218.40494526026797
  endloop
endfacet
facet normal -0.9999855973740758 9.462579917997107e-06 0.0053670247691575265
  outer loop
    vertex 34508.48764677769 -38908.42690002726 215.58992690244384
    vertex 34508.50374710919 -38910.04319936121 218.40494526026797
    vertex 34508.50696717549 -38909.735722510275 218.9679489318328
  endloop
endfacet
facet normal -0.9999855973740758 9.462579917997107e-06 0.0053670247691575265
  outer loop
    vertex 34508.48764677769 -38908.42690002726 215.58992690244384
    vertex 34508.50696717549 -38909.735722510275 218.9679489318328
    vertex 34508.51018724179 -38909.42824565934 219.5309526033977
  endloop
endfacet
facet normal -0.9999855973740758 9.462579917997107e-06 0.0053670247691575265
  outer loop
    vertex 34508.48764677769 -38908.42690002726 215.58992690244384
    vertex 34508.51018724179 -38909.42824565934 219.5309526033977
    vertex 34508.511797274936 -38909.27450723387 219.81245443918013
  endloop
endfacet
facet normal -0.9999855973740758 9.462579917997107e-06 0.0053670247691575265
  outer loop
    vertex 34508.48764677769 -38908.42690002726 215.58992690244384
    vertex 34508.511797274936 -38909.27450723387 219.81245443918013
    vertex 34508.513185106094 -38909.14198637413 220.05510597657192
  endloop
endfacet
facet normal -0.9999855973740758 9.462579917997107e-06 0.0053670247691575265
  outer loop
    vertex 34508.48764677769 -38908.42690002726 215.58992690244384
    vertex 34508.513185106094 -38909.14198637413 220.05510597657192
    vertex 34508.513407308084 -38909.1207688084 220.09395627496258
  endloop
endfacet
facet normal -0.9999855973740758 9.462579917997107e-06 0.0053670247691575265
  outer loop
    vertex 34508.48764677769 -38908.42690002726 215.58992690244384
    vertex 34508.513407308084 -38909.1207688084 220.09395627496258
    vertex 34508.51206820583 -38909.09478632975 220.15482318913547
  endloop
endfacet
facet normal -0.9999855973740758 9.462579917997107e-06 0.0053670247691575265
  outer loop
    vertex 34508.48764677769 -38908.42690002726 215.58992690244384
    vertex 34508.51206820583 -38909.09478632975 220.15482318913547
    vertex 34508.49999973137 -38909.078019399334 220.17643605629456
  endloop
endfacet
facet normal -0.9999855973740758 9.462579917997107e-06 0.0053670247691575265
  outer loop
    vertex 34508.48764677769 -38908.42690002726 215.58992690244384
    vertex 34508.49999973137 -38909.078019399334 220.17643605629456
    vertex 34508.51376338065 -38908.99935730461 220.28592285100575
  endloop
endfacet
facet normal -0.9999855973740758 9.462579917997107e-06 0.0053670247691575265
  outer loop
    vertex 34508.48764677769 -38908.42690002726 215.58992690244384
    vertex 34508.51376338065 -38908.99935730461 220.28592285100575
    vertex 34508.516243515114 -38908.86522032019 220.58984512443496
  endloop
endfacet
facet normal -0.9999855973740758 9.462579917997107e-06 0.0053670247691575265
  outer loop
    vertex 34508.48764677769 -38908.42690002726 215.58992690244384
    vertex 34508.516243515114 -38908.86522032019 220.58984512443496
    vertex 34508.516243515114 -38842.632138327834 220.5898451244406
  endloop
endfacet
facet normal -0.9999855973740758 9.462579917997107e-06 0.0053670247691575265
  outer loop
    vertex 34508.48764677769 -38908.42690002726 215.58992690244384
    vertex 34508.516243515114 -38842.632138327834 220.5898451244406
    vertex 34508.48764677769 -38843.16638679685 215.5899269024483
  endloop
endfacet
facet normal -0.9999855973740758 9.462579917997107e-06 0.0053670247691575265
  outer loop
    vertex 34508.48764677769 -38843.16638679685 215.5899269024483
    vertex 34508.516243515114 -38842.632138327834 220.5898451244406
    vertex 34508.48764677769 -38839.916775737576 215.58992690244852
  endloop
endfacet
facet normal -0.9999855973740758 9.462579917997107e-06 0.0053670247691575265
  outer loop
    vertex 34508.48764677769 -38839.916775737576 215.58992690244852
    vertex 34508.516243515114 -38842.632138327834 220.5898451244406
    vertex 34508.50194514641 -38841.274457032705 218.08988601344458
  endloop
endfacet
facet normal 1.0 0.0 0.0
  outer loop
    vertex 34634.12764677769 -38829.82708056142 214.8713363313176
    vertex 34634.12764677769 -38918.37950924352 219.871418110662
    vertex 34634.12764677769 -38921.1315967527 214.8713363313176
  endloop
endfacet
facet normal 1.0 0.0 0.0
  outer loop
    vertex 34634.12764677769 -38918.37950924352 219.871418110662
    vertex 34634.12764677769 -38829.82708056142 214.8713363313176
    vertex 34634.12764677769 -38833.11786650387 219.87141811066422
  endloop
endfacet
facet normal -0.06380695317980181 0.8336183701184785 0.5486429492182706
  outer loop
    vertex 34634.12764677769 -38833.11786650387 219.87141811066422
    vertex 34634.12764677769 -38829.82708056142 214.8713363313176
    vertex 34508.48764677769 -38839.916775737576 215.58992690244852
  endloop
endfacet
facet normal -0.06368900222606566 0.8768338888971574 0.4765564418586068
  outer loop
    vertex 34508.516243515114 -38842.632138327834 220.5898451244406
    vertex 34634.12764677769 -38833.11786650387 219.87141811066422
    vertex 34508.50194514641 -38841.274457032705 218.08988601344458
  endloop
endfacet
facet normal -0.0636890022260634 0.8768338888970997 0.47655644185871315
  outer loop
    vertex 34634.12764677769 -38833.11786650387 219.87141811066422
    vertex 34508.48764677769 -38839.916775737576 215.58992690244852
    vertex 34508.50194514641 -38841.274457032705 218.08988601344458
  endloop
endfacet
facet normal -0.06371003890831042 -0.8742865470753302 0.4812110395090682
  outer loop
    vertex 34634.12764677769 -38918.37950924352 219.871418110662
    vertex 34508.48764677769 -38911.580583615876 215.5899269024436
    vertex 34634.12764677769 -38921.1315967527 214.8713363313176
  endloop
endfacet
facet normal -0.06371003890831042 -0.8742865470753302 0.4812110395090682
  outer loop
    vertex 34508.48764677769 -38911.580583615876 215.5899269024436
    vertex 34634.12764677769 -38918.37950924352 219.871418110662
    vertex 34518.93408984244 -38912.14588598801 215.94591507856032
  endloop
endfacet
facet normal -0.06371003890831042 -0.8742865470753302 0.4812110395090682
  outer loop
    vertex 34518.93408984244 -38912.14588598801 215.94591507856032
    vertex 34634.12764677769 -38918.37950924352 219.871418110662
    vertex 34633.931384654476 -38918.36696704942 219.8682480455187
  endloop
endfacet
facet normal -0.06371003890831042 -0.8742865470753302 0.4812110395090682
  outer loop
    vertex 34518.93408984244 -38912.14588598801 215.94591507856032
    vertex 34633.931384654476 -38918.36696704942 219.8682480455187
    vertex 34633.76468013563 -38918.35542721964 219.86718326626527
  endloop
endfacet
facet normal -0.06371003890831042 -0.8742865470753302 0.4812110395090682
  outer loop
    vertex 34633.931384654476 -38918.36696704942 219.8682480455187
    vertex 34634.12764677769 -38918.37950924352 219.871418110662
    vertex 34633.970909208234 -38918.368345097464 219.87099581908618
  endloop
endfacet
facet normal -0.06371003890831042 -0.8742865470753302 0.4812110395090682
  outer loop
    vertex 34633.90309128491 -38918.36406253087 219.86980560115364
    vertex 34633.76468013563 -38918.35542721964 219.86718326626527
    vertex 34633.931384654476 -38918.36696704942 219.8682480455187
  endloop
endfacet
facet normal -0.06369753195239422 -0.8758332869168383 0.478391762002254
  outer loop
    vertex 34518.93408984244 -38912.14588598801 215.94591507856032
    vertex 34508.69740635935 -38910.363846522625 217.84544216746593
    vertex 34508.48764677769 -38911.580583615876 215.5899269024436
  endloop
endfacet
facet normal -0.06369753195239422 -0.8758332869168383 0.478391762002254
  outer loop
    vertex 34508.69740635935 -38910.363846522625 217.84544216746593
    vertex 34518.93408984244 -38912.14588598801 215.94591507856032
    vertex 34633.76468013563 -38918.35542721964 219.86718326626527
  endloop
endfacet
facet normal -0.06371798214863655 -0.8764315005898455 0.4772921993126825
  outer loop
    vertex 34633.76468013563 -38918.35542721964 219.86718326626527
    vertex 34508.660353570354 -38910.05503546126 218.40755236610957
    vertex 34508.69740635935 -38910.363846522625 217.84544216746593
  endloop
endfacet
facet normal -0.06372912895215466 -0.8766800892127973 0.47683395359479325
  outer loop
    vertex 34633.76468013563 -38918.35542721964 219.86718326626527
    vertex 34508.62325562907 -38909.74631848843 218.97018386868908
    vertex 34508.660353570354 -38910.05503546126 218.40755236610957
  endloop
endfacet
facet normal 0.04025505115639717 0.883532606819228 -0.46663654330068843
  outer loop
    vertex 34508.48764677769 -38908.863831027986 220.59000868179064
    vertex 34508.516243515114 -38908.86522032019 220.58984512443496
    vertex 34508.51376338065 -38908.99935730461 220.33695627445215
  endloop
endfacet
facet normal -0.12284563629723076 -0.8707006596384024 0.47622401340963433
  outer loop
    vertex 34508.513185106094 -38909.14198637413 220.05510597657192
    vertex 34508.511797274936 -38909.27450723387 219.81245443918013
    vertex 34508.56766523898 -38909.28151216299 219.81405859850798
  endloop
endfacet
facet normal -0.04019623048514434 -0.8825425746242415 0.46851133073854306
  outer loop
    vertex 34508.48764677769 -38908.863831027986 220.59000868179064
    vertex 34508.51376338065 -38908.99935730461 220.33695627445215
    vertex 34508.516243515114 -38908.86522032019 220.58984512443496
  endloop
endfacet
facet normal -0.0910164013619492 -0.8817545742336245 0.46284434262633106
  outer loop
    vertex 34508.48764677769 -38908.863831027986 220.59000868179064
    vertex 34508.51376338065 -38908.99935730461 220.33695627445215
    vertex 34508.516243515114 -38908.86522032019 220.58984512443496
  endloop
endfacet
facet normal -0.06357534744495227 -0.8743620385925752 0.4810916759469961
  outer loop
    vertex 34633.76468013563 -38918.35542721964 219.86718326626527
    vertex 34508.56766523898 -38909.28151216299 219.81405859850798
    vertex 34508.58613394349 -38909.43740347455 219.53317630496403
  endloop
endfacet
facet normal -0.06357534744495227 -0.8743620385925752 0.4810916759469961
  outer loop
    vertex 34508.56766523898 -38909.28151216299 219.81405859850798
    vertex 34633.76468013563 -38918.35542721964 219.86718326626527
    vertex 34524.95500205547 -38910.468928254384 219.82154481851038
  endloop
endfacet
facet normal -0.06331405342739908 -0.8707122082116416 0.48770029845162016
  outer loop
    vertex 34524.95500205547 -38910.468928254384 219.82154481851038
    vertex 34508.56806165762 -38909.14824438512 220.05203872767365
    vertex 34508.56766523898 -38909.28151216299 219.81405859850798
  endloop
endfacet
facet normal -0.06331405342739908 -0.8707122082116416 0.48770029845162016
  outer loop
    vertex 34508.56806165762 -38909.14824438512 220.05203872767365
    vertex 34524.95500205547 -38910.468928254384 219.82154481851038
    vertex 34508.88058663859 -38909.04267127172 220.28109542989483
  endloop
endfacet
facet normal -0.06331405342739908 -0.8707122082116416 0.48770029845162016
  outer loop
    vertex 34508.56806165762 -38909.14824438512 220.05203872767365
    vertex 34508.88058663859 -38909.04267127172 220.28109542989483
    vertex 34508.56845807626 -38909.01497660726 220.29001885683928
  endloop
endfacet
facet normal -0.06718308390873645 -0.8975700373486788 0.43572291802291396
  outer loop
    vertex 34508.56766523898 -38908.86951019417 220.58955102091758
    vertex 34508.56845807626 -38909.01497660726 220.29001885683928
    vertex 34508.88058663859 -38909.04267127172 220.28109542989483
  endloop
endfacet
facet normal -0.2648385525210013 -0.7779885996195298 0.5697317614111258
  outer loop
    vertex 34508.56845807626 -38909.01497660726 220.29001885683928
    vertex 34508.49999973137 -38909.078019399334 220.17643605629456
    vertex 34508.51206820583 -38909.09478632975 220.15482318913547
  endloop
endfacet
facet normal -0.2648385525210013 -0.7779885996195298 0.5697317614111258
  outer loop
    vertex 34508.49999973137 -38909.078019399334 220.17643605629456
    vertex 34508.56845807626 -38909.01497660726 220.29001885683928
    vertex 34508.51376338065 -38908.99935730461 220.28592285100575
  endloop
endfacet
facet normal -0.07199113400196058 -0.8701926786670562 0.48742381827252274
  outer loop
    vertex 34508.513185106094 -38909.14198637413 220.05510597657192
    vertex 34508.56766523898 -38909.28151216299 219.81405859850798
    vertex 34508.56806165762 -38909.14824438512 220.05203872767365
  endloop
endfacet
facet normal 0.06357911929086066 -0.8707876154865152 0.48753115213851456
  outer loop
    vertex 34508.56845807626 -38909.01497660726 220.29001885683928
    vertex 34508.51206820583 -38909.09478632975 220.15482318913547
    vertex 34508.56806165762 -38909.14824438512 220.05203872767365
  endloop
endfacet
facet normal -0.0723622132550131 -0.8972495708277843 0.43555357620181784
  outer loop
    vertex 34508.516243515114 -38908.86522032019 220.58984512443496
    vertex 34508.56845807626 -38909.01497660726 220.29001885683928
    vertex 34508.56766523898 -38908.86951019417 220.58955102091758
  endloop
endfacet
facet normal -0.06718308391424212 -0.8975700373504852 0.43572291801834395
  outer loop
    vertex 34508.56766523898 -38908.86951019417 220.58955102091758
    vertex 34508.88058663859 -38909.04267127172 220.28109542989483
    vertex 34524.95500205547 -38910.468928254384 219.82154481851038
  endloop
endfacet
facet normal -0.07678531480075244 -0.9426728254367189 0.32476446790574653
  outer loop
    vertex 34524.95500205547 -38910.35277866717 220.15868471642614
    vertex 34508.56766523898 -38908.86951019417 220.58955102091758
    vertex 34524.95500205547 -38910.468928254384 219.82154481851038
  endloop
endfacet
facet normal -0.07678531480075244 -0.9426728254367189 0.32476446790574653
  outer loop
    vertex 34508.56766523898 -38908.86951019417 220.58955102091758
    vertex 34524.95500205547 -38910.35277866717 220.15868471642614
    vertex 34524.95500205547 -38910.23662907995 220.49582461434184
  endloop
endfacet
facet normal -0.06850233915352634 -0.9432432298633123 0.3249609805000012
  outer loop
    vertex 34524.95500205547 -38910.35277866717 220.15868471642614
    vertex 34524.95500205547 -38910.468928254384 219.82154481851038
    vertex 34633.76468013563 -38918.35542721964 219.86718326626527
  endloop
endfacet
facet normal 0.0057348053496568165 -1.4329334077877103e-05 0.9999835557659296
  outer loop
    vertex 34588.72074877365 -38915.556307169194 220.13112018619452
    vertex 34583.12156493078 -38905.59153597181 220.1631443880059
    vertex 34524.95500205547 -38910.23662907995 220.49582461434184
  endloop
endfacet
facet normal 0.0057348053496568165 -1.4329334077877103e-05 0.9999835557659296
  outer loop
    vertex 34583.12156493078 -38905.59153597181 220.1631443880059
    vertex 34588.72074877365 -38915.556307169194 220.13112018619452
    vertex 34626.12086163991 -38905.59153597216 219.9172124461062
  endloop
endfacet
facet normal 0.0057348053496568165 -1.4329334077877103e-05 0.9999835557659296
  outer loop
    vertex 34626.12086163991 -38905.59153597216 219.9172124461062
    vertex 34588.72074877365 -38915.556307169194 220.13112018619452
    vertex 34611.75019097302 -38917.145058506685 219.9994046495594
  endloop
endfacet
facet normal 0.0057348053496568165 -1.4329334077877103e-05 0.9999835557659296
  outer loop
    vertex 34626.12086163991 -38905.59153597216 219.9172124461062
    vertex 34611.75019097302 -38917.145058506685 219.9994046495594
    vertex 34622.566299228514 -38917.86356504133 219.93754255620775
  endloop
endfacet
facet normal 0.0057348053496568165 -1.4329334077877103e-05 0.9999835557659296
  outer loop
    vertex 34626.12086163991 -38905.59153597216 219.9172124461062
    vertex 34622.566299228514 -38917.86356504133 219.93754255620775
    vertex 34633.76468013563 -38918.35542721964 219.86718326626527
  endloop
endfacet
facet normal 0.0057348053496568165 -1.4329334077877103e-05 0.9999835557659296
  outer loop
    vertex 34626.12086163991 -38905.59153597216 219.9172124461062
    vertex 34633.76468013563 -38918.35542721964 219.86718326626527
    vertex 34626.12086164009 -38883.391535972165 219.9172124461062
  endloop
endfacet
facet normal 0.0057348053496568165 -1.4329334077877103e-05 0.9999835557659296
  outer loop
    vertex 34626.12086164009 -38883.391535972165 219.9172124461062
    vertex 34633.76468013563 -38918.35542721964 219.86718326626527
    vertex 34626.12086164009 -38846.391535972165 219.9172124461062
  endloop
endfacet
facet normal 0.0057348053496568165 -1.4329334077877103e-05 0.9999835557659296
  outer loop
    vertex 34508.56766523898 -38908.86951019417 220.58955102091758
    vertex 34508.516243515114 -38842.632138327834 220.5898451244406
    vertex 34508.516243515114 -38908.86522032019 220.58984512443496
  endloop
endfacet
facet normal 0.0057348053496568165 -1.4329334077877103e-05 0.9999835557659296
  outer loop
    vertex 34508.516243515114 -38842.632138327834 220.5898451244406
    vertex 34508.56766523898 -38908.86951019417 220.58955102091758
    vertex 34583.12156493096 -38846.39153597182 220.1631443880059
  endloop
endfacet
facet normal 0.0057348053496568165 -1.4329334077877103e-05 0.9999835557659296
  outer loop
    vertex 34508.516243515114 -38842.632138327834 220.5898451244406
    vertex 34583.12156493096 -38846.39153597182 220.1631443880059
    vertex 34634.12764677769 -38833.11786650387 219.87141811066422
  endloop
endfacet
facet normal 0.0057348053496568165 -1.4329334077877103e-05 0.9999835557659296
  outer loop
    vertex 34583.12156493096 -38846.39153597182 220.1631443880059
    vertex 34508.56766523898 -38908.86951019417 220.58955102091758
    vertex 34524.95500205547 -38910.23662907995 220.49582461434184
  endloop
endfacet
facet normal 0.0057348053496568165 -1.4329334077877103e-05 0.9999835557659296
  outer loop
    vertex 34583.12156493096 -38846.39153597182 220.1631443880059
    vertex 34524.95500205547 -38910.23662907995 220.49582461434184
    vertex 34583.12156493078 -38868.59153597181 220.1631443880059
  endloop
endfacet
facet normal 0.0057348053496568165 -1.4329334077877103e-05 0.9999835557659296
  outer loop
    vertex 34583.12156493078 -38868.59153597181 220.1631443880059
    vertex 34524.95500205547 -38910.23662907995 220.49582461434184
    vertex 34583.12156493078 -38905.59153597181 220.1631443880059
  endloop
endfacet
facet normal 0.0057348053496568165 -1.4329334077877103e-05 0.9999835557659296
  outer loop
    vertex 34583.12156493078 -38868.59153597181 220.1631443880059
    vertex 34583.12156493078 -38905.59153597181 220.1631443880059
    vertex 34583.12156493078 -38886.991535971814 220.1631443880059
  endloop
endfacet
facet normal 0.0057348053496568165 -1.4329334077877103e-05 0.9999835557659296
  outer loop
    vertex 34634.12764677769 -38833.11786650387 219.87141811066422
    vertex 34583.12156493096 -38846.39153597182 220.1631443880059
    vertex 34626.12086164009 -38846.391535972165 219.9172124461062
  endloop
endfacet
facet normal 0.0057348053496568165 -1.4329334077877103e-05 0.9999835557659296
  outer loop
    vertex 34634.12764677769 -38833.11786650387 219.87141811066422
    vertex 34626.12086164009 -38846.391535972165 219.9172124461062
    vertex 34633.76468013563 -38918.35542721964 219.86718326626527
  endloop
endfacet
facet normal 0.0057348053496568165 -1.4329334077877103e-05 0.9999835557659296
  outer loop
    vertex 34634.12764677769 -38833.11786650387 219.87141811066422
    vertex 34633.76468013563 -38918.35542721964 219.86718326626527
    vertex 34633.90309128491 -38918.36406253087 219.86980560115364
  endloop
endfacet
facet normal 0.0057348053496568165 -1.4329334077877103e-05 0.9999835557659296
  outer loop
    vertex 34634.12764677769 -38833.11786650387 219.87141811066422
    vertex 34633.90309128491 -38918.36406253087 219.86980560115364
    vertex 34633.931384654476 -38918.36696704942 219.8682480455187
  endloop
endfacet
facet normal 0.0057348053496568165 -1.4329334077877103e-05 0.9999835557659296
  outer loop
    vertex 34634.12764677769 -38833.11786650387 219.87141811066422
    vertex 34633.931384654476 -38918.36696704942 219.8682480455187
    vertex 34633.970909208234 -38918.368345097464 219.87099581908618
  endloop
endfacet
facet normal 0.0057348053496568165 -1.4329334077877103e-05 0.9999835557659296
  outer loop
    vertex 34634.12764677769 -38833.11786650387 219.87141811066422
    vertex 34633.970909208234 -38918.368345097464 219.87099581908618
    vertex 34634.12764677769 -38918.37950924352 219.871418110662
  endloop
endfacet
facet normal 0.0057348053496568165 -1.4329334077877103e-05 0.9999835557659296
  outer loop
    vertex 34583.12156493096 -38883.391535971816 220.1631443880059
    vertex 34583.12156493078 -38868.59153597181 220.1631443880059
    vertex 34583.12156493078 -38886.991535971814 220.1631443880059
  endloop
endfacet
facet normal 0.0057348053496568165 -1.4329334077877103e-05 0.9999835557659296
  outer loop
    vertex 34583.12156493078 -38868.59153597181 220.1631443880059
    vertex 34583.12156493096 -38883.391535971816 220.1631443880059
    vertex 34626.12086163991 -38868.59153597216 219.9172124461062
  endloop
endfacet
facet normal 0.0057348053496568165 -1.4329334077877103e-05 0.9999835557659296
  outer loop
    vertex 34626.12086163991 -38868.59153597216 219.9172124461062
    vertex 34583.12156493096 -38883.391535971816 220.1631443880059
    vertex 34626.12086164009 -38883.391535972165 219.9172124461062
  endloop
endfacet
facet normal 0.0057348053496568165 -1.4329334077877103e-05 0.9999835557659296
  outer loop
    vertex 34626.12086163991 -38868.59153597216 219.9172124461062
    vertex 34626.12086164009 -38883.391535972165 219.9172124461062
    vertex 34626.12086164009 -38846.391535972165 219.9172124461062
  endloop
endfacet
facet normal -0.06707567859181796 -0.8755058676269335 0.47852933984475565
  outer loop
    vertex 34508.69740635935 -38910.363846522625 217.84544216746593
    vertex 34508.500527042896 -38910.35067621214 217.84194158870312
    vertex 34508.48764677769 -38911.580583615876 215.5899269024436
  endloop
endfacet
facet normal -0.09792928431893819 -0.8741936541671147 0.4755999477362543
  outer loop
    vertex 34508.62325562907 -38909.74631848843 218.97018386868908
    vertex 34508.51018724179 -38909.42824565934 219.5309526033977
    vertex 34508.50696717549 -38909.735722510275 218.9679489318328
  endloop
endfacet
facet normal -0.09792928431893819 -0.8741936541671147 0.4755999477362543
  outer loop
    vertex 34508.51018724179 -38909.42824565934 219.5309526033977
    vertex 34508.62325562907 -38909.74631848843 218.97018386868908
    vertex 34508.58613394349 -38909.43740347455 219.53317630496403
  endloop
endfacet
facet normal -0.0698157211945305 -0.8757885599886084 0.47761926601338783
  outer loop
    vertex 34508.69740635935 -38910.363846522625 217.84544216746593
    vertex 34508.50374710919 -38910.04319936121 218.40494526026797
    vertex 34508.500527042896 -38910.35067621214 217.84194158870312
  endloop
endfacet
facet normal -0.0698157211945305 -0.8757885599886084 0.47761926601338783
  outer loop
    vertex 34508.50374710919 -38910.04319936121 218.40494526026797
    vertex 34508.69740635935 -38910.363846522625 217.84544216746593
    vertex 34508.660353570354 -38910.05503546126 218.40755236610957
  endloop
endfacet
facet normal -0.12035798854647198 -0.871158222518301 0.47602237965436206
  outer loop
    vertex 34508.58613394349 -38909.43740347455 219.53317630496403
    vertex 34508.511797274936 -38909.27450723387 219.81245443918013
    vertex 34508.51018724179 -38909.42824565934 219.5309526033977
  endloop
endfacet
facet normal -0.12035798854647198 -0.871158222518301 0.47602237965436206
  outer loop
    vertex 34508.511797274936 -38909.27450723387 219.81245443918013
    vertex 34508.58613394349 -38909.43740347455 219.53317630496403
    vertex 34508.56766523898 -38909.28151216299 219.81405859850798
  endloop
endfacet
facet normal -0.07937088501932663 -0.8754073790779687 0.4768251076307647
  outer loop
    vertex 34508.660353570354 -38910.05503546126 218.40755236610957
    vertex 34508.50696717549 -38909.735722510275 218.9679489318328
    vertex 34508.50374710919 -38910.04319936121 218.40494526026797
  endloop
endfacet
facet normal -0.07937088501932663 -0.8754073790779687 0.4768251076307647
  outer loop
    vertex 34508.50696717549 -38909.735722510275 218.9679489318328
    vertex 34508.660353570354 -38910.05503546126 218.40755236610957
    vertex 34508.62325562907 -38909.74631848843 218.97018386868908
  endloop
endfacet
facet normal 0.9999836443984143 -8.064464136700145e-12 -0.005719347486039876
  outer loop
    vertex 34583.0929681934 -38846.39153597182 215.16322616601258
    vertex 34583.12156493078 -38868.59153597181 220.1631443880059
    vertex 34583.092968193225 -38868.59153597181 215.16322616601258
  endloop
endfacet
facet normal 0.9999836443984143 -8.064464136700145e-12 -0.005719347486039876
  outer loop
    vertex 34583.12156493078 -38868.59153597181 220.1631443880059
    vertex 34583.0929681934 -38846.39153597182 215.16322616601258
    vertex 34583.12156493096 -38846.39153597182 220.1631443880059
  endloop
endfacet
facet normal 8.05867807890794e-12 1.0 3.4248730209932603e-17
  outer loop
    vertex 34583.092968193225 -38868.59153597181 215.16322616601258
    vertex 34626.12086163991 -38868.59153597216 219.9172124461062
    vertex 34626.092264902356 -38868.59153597216 214.91729422411285
  endloop
endfacet
facet normal 8.05867807890794e-12 1.0 3.4248730209932603e-17
  outer loop
    vertex 34626.12086163991 -38868.59153597216 219.9172124461062
    vertex 34583.092968193225 -38868.59153597181 215.16322616601258
    vertex 34583.12156493078 -38868.59153597181 220.1631443880059
  endloop
endfacet
facet normal -0.9999836443984143 8.064464136700145e-12 0.005719347486039876
  outer loop
    vertex 34626.12086164009 -38846.391535972165 219.9172124461062
    vertex 34626.092264902356 -38868.59153597216 214.91729422411285
    vertex 34626.12086163991 -38868.59153597216 219.9172124461062
  endloop
endfacet
facet normal -0.9999836443984143 8.064464136700145e-12 0.005719347486039876
  outer loop
    vertex 34626.092264902356 -38868.59153597216 214.91729422411285
    vertex 34626.12086164009 -38846.391535972165 219.9172124461062
    vertex 34626.09226490253 -38846.391535972165 214.91729422411285
  endloop
endfacet
facet normal -8.05867807890794e-12 -1.0 -3.4248730209932603e-17
  outer loop
    vertex 34626.12086164009 -38846.391535972165 219.9172124461062
    vertex 34583.0929681934 -38846.39153597182 215.16322616601258
    vertex 34626.09226490253 -38846.391535972165 214.91729422411285
  endloop
endfacet
facet normal -8.05867807890794e-12 -1.0 -3.4248730209932603e-17
  outer loop
    vertex 34583.0929681934 -38846.39153597182 215.16322616601258
    vertex 34626.12086164009 -38846.391535972165 219.9172124461062
    vertex 34583.12156493096 -38846.39153597182 220.1631443880059
  endloop
endfacet
facet normal 0.9999836443983038 -4.9731041451535503e-11 -0.005719347505353075
  outer loop
    vertex 34583.09296819343 -38883.391535971816 215.16322616601218
    vertex 34583.12156493078 -38886.991535971814 220.1631443880059
    vertex 34583.092968193254 -38886.991535971814 215.1632261660124
  endloop
endfacet
facet normal 0.9999836443983038 -4.9731041451535503e-11 -0.005719347505353075
  outer loop
    vertex 34583.12156493078 -38886.991535971814 220.1631443880059
    vertex 34583.09296819343 -38883.391535971816 215.16322616601218
    vertex 34583.12156493096 -38883.391535971816 220.1631443880059
  endloop
endfacet
facet normal 0.9999836443983038 3.463571290736214e-17 -0.005719347505353075
  outer loop
    vertex 34583.092968193254 -38886.991535971814 215.1632261660124
    vertex 34583.12156493078 -38905.59153597181 220.1631443880059
    vertex 34583.092968193254 -38905.59153597181 215.16322616601218
  endloop
endfacet
facet normal 0.9999836443983038 3.463571290736214e-17 -0.005719347505353075
  outer loop
    vertex 34583.12156493078 -38905.59153597181 220.1631443880059
    vertex 34583.092968193254 -38886.991535971814 215.1632261660124
    vertex 34583.12156493078 -38886.991535971814 220.1631443880059
  endloop
endfacet
facet normal 8.058631816458755e-12 1.0 -8.054382472546415e-15
  outer loop
    vertex 34583.092968193254 -38905.59153597181 215.16322616601218
    vertex 34626.12086163991 -38905.59153597216 219.9172124461062
    vertex 34626.092264902385 -38905.59153597216 214.91729422411245
  endloop
endfacet
facet normal 8.058631816458755e-12 1.0 -8.054382472546415e-15
  outer loop
    vertex 34626.12086163991 -38905.59153597216 219.9172124461062
    vertex 34583.092968193254 -38905.59153597181 215.16322616601218
    vertex 34583.12156493078 -38905.59153597181 220.1631443880059
  endloop
endfacet
facet normal -0.9999836443984143 8.064464136700145e-12 0.005719347486033696
  outer loop
    vertex 34626.12086164009 -38883.391535972165 219.9172124461062
    vertex 34626.092264902385 -38905.59153597216 214.91729422411245
    vertex 34626.12086163991 -38905.59153597216 219.9172124461062
  endloop
endfacet
facet normal -0.9999836443984143 8.064464136700145e-12 0.005719347486033696
  outer loop
    vertex 34626.092264902385 -38905.59153597216 214.91729422411245
    vertex 34626.12086164009 -38883.391535972165 219.9172124461062
    vertex 34626.09226490256 -38883.391535972165 214.91729422411245
  endloop
endfacet
facet normal -8.058631816458755e-12 -1.0 8.054382472546415e-15
  outer loop
    vertex 34626.12086164009 -38883.391535972165 219.9172124461062
    vertex 34583.09296819343 -38883.391535971816 215.16322616601218
    vertex 34626.09226490256 -38883.391535972165 214.91729422411245
  endloop
endfacet
facet normal -8.058631816458755e-12 -1.0 8.054382472546415e-15
  outer loop
    vertex 34583.09296819343 -38883.391535971816 215.16322616601218
    vertex 34626.12086164009 -38883.391535972165 219.9172124461062
    vertex 34583.12156493096 -38883.391535971816 220.1631443880059
  endloop
endfacet
facet normal -0.0637291289517779 -0.8766800892060178 0.476833953607308
  outer loop
    vertex 34633.76468013563 -38918.35542721964 219.86718326626527
    vertex 34508.58613394349 -38909.43740347455 219.53317630496403
    vertex 34508.62325562907 -38909.74631848843 218.97018386868908
  endloop
endfacet
endsolid Type XXI U-Boot
