solid Type XXI U-Boot
facet normal 2.0816681711721688e-17 4.6222318665293626e-33 1.0
  outer loop
    vertex 36027.29421447938 -38875.53375361251 165.1659418661703
    vertex 36001.91756542327 -38871.77533049716 165.1659418661703
    vertex 35950.00451219128 -38875.53375361251 165.1659418661703
  endloop
endfacet
facet normal 2.0816681711721688e-17 4.6222318665293626e-33 1.0
  outer loop
    vertex 36001.91756542327 -38871.77533049716 165.1659418661703
    vertex 35979.79280091658 -38869.97409205893 165.1659418661703
    vertex 35950.00451219128 -38875.53375361251 165.1659418661703
  endloop
endfacet
facet normal 2.0816681711721688e-17 4.6222318665293626e-33 1.0
  outer loop
    vertex 36027.29421447938 -38875.53375361251 165.1659418661703
    vertex 35950.00451219128 -38875.53375361251 165.1659418661703
    vertex 36001.91756542327 -38879.29217672787 165.1659418661703
  endloop
endfacet
facet normal 2.0816681711721688e-17 4.6222318665293626e-33 1.0
  outer loop
    vertex 35955.120093392965 -38878.88338076543 165.1659418661703
    vertex 35950.00451219128 -38875.53375361251 165.1659418661703
    vertex 35950.92278234533 -38877.13712184865 165.1659418661703
  endloop
endfacet
facet normal 2.0816681711721688e-17 4.6222318665293626e-33 1.0
  outer loop
    vertex 36001.91756542327 -38879.29217672787 165.1659418661703
    vertex 35950.00451219128 -38875.53375361251 165.1659418661703
    vertex 35979.79280091658 -38881.09341516608 165.1659418661703
  endloop
endfacet
facet normal 2.0816681711721688e-17 4.6222318665293626e-33 1.0
  outer loop
    vertex 35979.79280091658 -38881.09341516608 165.1659418661703
    vertex 35950.00451219128 -38875.53375361251 165.1659418661703
    vertex 35964.43298564227 -38880.632342556295 165.1659418661703
  endloop
endfacet
facet normal 2.0816681711721688e-17 4.6222318665293626e-33 1.0
  outer loop
    vertex 35955.120093392965 -38872.18412645957 165.1659418661703
    vertex 35950.92278234533 -38873.93038537635 165.1659418661703
    vertex 35950.00451219128 -38875.53375361251 165.1659418661703
  endloop
endfacet
facet normal 2.0816681711721688e-17 4.6222318665293626e-33 1.0
  outer loop
    vertex 35964.43298564227 -38870.435164668736 165.1659418661703
    vertex 35955.120093392965 -38872.18412645957 165.1659418661703
    vertex 35950.00451219128 -38875.53375361251 165.1659418661703
  endloop
endfacet
facet normal 2.0816681711721688e-17 4.6222318665293626e-33 1.0
  outer loop
    vertex 35979.79280091658 -38869.97409205893 165.1659418661703
    vertex 35964.43298564227 -38870.435164668736 165.1659418661703
    vertex 35950.00451219128 -38875.53375361251 165.1659418661703
  endloop
endfacet
facet normal 2.0816681711721688e-17 4.6222318665293626e-33 1.0
  outer loop
    vertex 35964.43298564227 -38880.632342556295 165.1659418661703
    vertex 35950.00451219128 -38875.53375361251 165.1659418661703
    vertex 35955.120093392965 -38878.88338076543 165.1659418661703
  endloop
endfacet
facet normal 0.1465074484239258 0.9892095670566025 -8.863521084151295e-18
  outer loop
    vertex 36027.29421447938 -38875.53375361251 165.1659418661703
    vertex 36027.29421447938 -38875.53375361251 101.58585224315283
    vertex 36001.91756542327 -38871.77533049716 101.58585224315283
  endloop
endfacet
facet normal 0.08114430364151928 0.996702363790983 2.163966247985788e-18
  outer loop
    vertex 36001.91756542327 -38871.77533049716 165.1659418661703
    vertex 36001.91756542327 -38871.77533049716 101.58585224315283
    vertex 35979.79280091658 -38869.97409205893 101.58585224315283
  endloop
endfacet
facet normal 0.1465074484239258 0.9892095670566025 -3.0497989222373455e-18
  outer loop
    vertex 36027.29421447938 -38875.53375361251 165.1659418661703
    vertex 36001.91756542327 -38871.77533049716 101.58585224315283
    vertex 36001.91756542327 -38871.77533049716 165.1659418661703
  endloop
endfacet
facet normal -0.030004593715542257 0.9995497608203233 6.245960772659663e-19
  outer loop
    vertex 35979.79280091658 -38869.97409205893 165.1659418661703
    vertex 35979.79280091658 -38869.97409205893 101.58585224315283
    vertex 35964.43298564227 -38870.435164668736 101.58585224315283
  endloop
endfacet
facet normal 0.08114430364151928 0.996702363790983 -1.6891551416248064e-18
  outer loop
    vertex 36001.91756542327 -38871.77533049716 165.1659418661703
    vertex 35979.79280091658 -38869.97409205893 101.58585224315283
    vertex 35979.79280091658 -38869.97409205893 165.1659418661703
  endloop
endfacet
facet normal -0.1845734231642505 0.9828187276712989 3.842206202453118e-18
  outer loop
    vertex 35964.43298564227 -38870.435164668736 165.1659418661703
    vertex 35964.43298564227 -38870.435164668736 101.58585224315283
    vertex 35955.120093392965 -38872.18412645957 101.58585224315283
  endloop
endfacet
facet normal -0.030004593715542257 0.9995497608203233 6.245960772659663e-19
  outer loop
    vertex 35979.79280091658 -38869.97409205893 165.1659418661703
    vertex 35964.43298564227 -38870.435164668736 101.58585224315283
    vertex 35964.43298564227 -38870.435164668736 165.1659418661703
  endloop
endfacet
facet normal -0.38412413531869494 0.9232814569055663 7.996189862719579e-18
  outer loop
    vertex 35955.120093392965 -38872.18412645957 165.1659418661703
    vertex 35955.120093392965 -38872.18412645957 101.58585224315283
    vertex 35950.92278234533 -38873.93038537635 101.58585224315283
  endloop
endfacet
facet normal -0.1845734231642505 0.9828187276712989 3.842206202453118e-18
  outer loop
    vertex 35964.43298564227 -38870.435164668736 165.1659418661703
    vertex 35955.120093392965 -38872.18412645957 101.58585224315283
    vertex 35955.120093392965 -38872.18412645957 165.1659418661703
  endloop
endfacet
facet normal 0.8677625341736667 -0.4969790581951077 -1.8063936475250198e-17
  outer loop
    vertex 35950.92278234533 -38873.93038537635 165.1659418661703
    vertex 35950.00451219128 -38875.53375361251 101.58585224315283
    vertex 35950.92278234533 -38873.93038537635 101.58585224315283
  endloop
endfacet
facet normal -0.38412413531869494 0.9232814569055663 7.996189862719577e-18
  outer loop
    vertex 35955.120093392965 -38872.18412645957 165.1659418661703
    vertex 35950.92278234533 -38873.93038537635 101.58585224315283
    vertex 35950.92278234533 -38873.93038537635 165.1659418661703
  endloop
endfacet
facet normal 0.8677625341736667 -0.4969790581951077 -1.8063936475250198e-17
  outer loop
    vertex 35950.92278234533 -38873.93038537635 165.1659418661703
    vertex 35950.00451219128 -38875.53375361251 165.1659418661703
    vertex 35950.00451219128 -38875.53375361251 101.58585224315283
  endloop
endfacet
facet normal 0.14650744842392616 -0.9892095670566025 -3.049798922237348e-18
  outer loop
    vertex 36001.91756542327 -38879.29217672787 165.1659418661703
    vertex 36001.91756542327 -38879.29217672787 101.58585224315283
    vertex 36027.29421447938 -38875.53375361251 101.58585224315283
  endloop
endfacet
facet normal 0.14650744842392616 -0.9892095670566025 2.7639232396766e-18
  outer loop
    vertex 36001.91756542327 -38879.29217672787 165.1659418661703
    vertex 36027.29421447938 -38875.53375361251 101.58585224315283
    vertex 36027.29421447938 -38875.53375361251 165.1659418661703
  endloop
endfacet
facet normal 0.08114430364151975 -0.996702363790983 -5.542276531235408e-18
  outer loop
    vertex 35979.79280091658 -38881.09341516608 165.1659418661703
    vertex 36001.91756542327 -38879.29217672787 101.58585224315283
    vertex 36001.91756542327 -38879.29217672787 165.1659418661703
  endloop
endfacet
facet normal 0.08114430364151975 -0.996702363790983 -1.6891551416248135e-18
  outer loop
    vertex 35979.79280091658 -38881.09341516608 165.1659418661703
    vertex 35979.79280091658 -38881.09341516608 101.58585224315283
    vertex 36001.91756542327 -38879.29217672787 101.58585224315283
  endloop
endfacet
facet normal -0.030004593715541816 -0.9995497608203233 6.245960772659602e-19
  outer loop
    vertex 35964.43298564227 -38880.632342556295 165.1659418661703
    vertex 35979.79280091658 -38881.09341516608 101.58585224315283
    vertex 35979.79280091658 -38881.09341516608 165.1659418661703
  endloop
endfacet
facet normal -0.030004593715541816 -0.9995497608203233 6.245960772659602e-19
  outer loop
    vertex 35964.43298564227 -38880.632342556295 165.1659418661703
    vertex 35964.43298564227 -38880.632342556295 101.58585224315283
    vertex 35979.79280091658 -38881.09341516608 101.58585224315283
  endloop
endfacet
facet normal -0.18457342316425027 -0.982818727671299 3.842206202453117e-18
  outer loop
    vertex 35955.120093392965 -38878.88338076543 165.1659418661703
    vertex 35964.43298564227 -38880.632342556295 101.58585224315283
    vertex 35964.43298564227 -38880.632342556295 165.1659418661703
  endloop
endfacet
facet normal -0.18457342316425027 -0.982818727671299 3.842206202453117e-18
  outer loop
    vertex 35955.120093392965 -38878.88338076543 165.1659418661703
    vertex 35955.120093392965 -38878.88338076543 101.58585224315283
    vertex 35964.43298564227 -38880.632342556295 101.58585224315283
  endloop
endfacet
facet normal -0.384124135318695 -0.9232814569055664 7.996189862719585e-18
  outer loop
    vertex 35950.92278234533 -38877.13712184865 165.1659418661703
    vertex 35955.120093392965 -38878.88338076543 101.58585224315283
    vertex 35955.120093392965 -38878.88338076543 165.1659418661703
  endloop
endfacet
facet normal -0.38412413531869494 -0.9232814569055664 7.996189862719579e-18
  outer loop
    vertex 35950.92278234533 -38877.13712184865 165.1659418661703
    vertex 35950.92278234533 -38877.13712184865 101.58585224315283
    vertex 35955.120093392965 -38878.88338076543 101.58585224315283
  endloop
endfacet
facet normal 0.8677625341736661 0.49697905819510846 -1.8063936475250213e-17
  outer loop
    vertex 35950.00451219128 -38875.53375361251 165.1659418661703
    vertex 35950.92278234533 -38877.13712184865 165.1659418661703
    vertex 35950.92278234533 -38877.13712184865 101.58585224315283
  endloop
endfacet
facet normal 0.8677625341736661 0.49697905819510846 -1.8063936475250213e-17
  outer loop
    vertex 35950.00451219128 -38875.53375361251 165.1659418661703
    vertex 35950.92278234533 -38877.13712184865 101.58585224315283
    vertex 35950.00451219128 -38875.53375361251 101.58585224315283
  endloop
endfacet
facet normal -2.0816681711721688e-17 -4.6222318665293626e-33 -1.0
  outer loop
    vertex 36027.29421447938 -38875.53375361251 101.58585224315283
    vertex 35950.00451219128 -38875.53375361251 101.58585224315283
    vertex 36001.91756542327 -38871.77533049716 101.58585224315283
  endloop
endfacet
facet normal -2.0816681711721688e-17 -4.6222318665293626e-33 -1.0
  outer loop
    vertex 36027.29421447938 -38875.53375361251 101.58585224315283
    vertex 36001.91756542327 -38879.29217672787 101.58585224315283
    vertex 35950.00451219128 -38875.53375361251 101.58585224315283
  endloop
endfacet
facet normal -2.0816681711721688e-17 -4.6222318665293626e-33 -1.0
  outer loop
    vertex 36001.91756542327 -38871.77533049716 101.58585224315283
    vertex 35950.00451219128 -38875.53375361251 101.58585224315283
    vertex 35979.79280091658 -38869.97409205893 101.58585224315283
  endloop
endfacet
facet normal -2.0816681711721688e-17 -4.6222318665293626e-33 -1.0
  outer loop
    vertex 35955.120093392965 -38878.88338076543 101.58585224315283
    vertex 35950.92278234533 -38877.13712184865 101.58585224315283
    vertex 35950.00451219128 -38875.53375361251 101.58585224315283
  endloop
endfacet
facet normal -2.0816681711721688e-17 -4.6222318665293626e-33 -1.0
  outer loop
    vertex 36001.91756542327 -38879.29217672787 101.58585224315283
    vertex 35979.79280091658 -38881.09341516608 101.58585224315283
    vertex 35950.00451219128 -38875.53375361251 101.58585224315283
  endloop
endfacet
facet normal -2.0816681711721688e-17 -4.6222318665293626e-33 -1.0
  outer loop
    vertex 35964.43298564227 -38880.632342556295 101.58585224315283
    vertex 35955.120093392965 -38878.88338076543 101.58585224315283
    vertex 35950.00451219128 -38875.53375361251 101.58585224315283
  endloop
endfacet
facet normal -2.0816681711721688e-17 -4.6222318665293626e-33 -1.0
  outer loop
    vertex 35955.120093392965 -38872.18412645957 101.58585224315283
    vertex 35950.00451219128 -38875.53375361251 101.58585224315283
    vertex 35950.92278234533 -38873.93038537635 101.58585224315283
  endloop
endfacet
facet normal -2.0816681711721688e-17 -4.6222318665293626e-33 -1.0
  outer loop
    vertex 35964.43298564227 -38870.435164668736 101.58585224315283
    vertex 35950.00451219128 -38875.53375361251 101.58585224315283
    vertex 35955.120093392965 -38872.18412645957 101.58585224315283
  endloop
endfacet
facet normal -2.0816681711721688e-17 -4.6222318665293626e-33 -1.0
  outer loop
    vertex 35979.79280091658 -38869.97409205893 101.58585224315283
    vertex 35950.00451219128 -38875.53375361251 101.58585224315283
    vertex 35964.43298564227 -38870.435164668736 101.58585224315283
  endloop
endfacet
facet normal -2.0816681711721688e-17 -4.6222318665293626e-33 -1.0
  outer loop
    vertex 35979.79280091658 -38881.09341516608 101.58585224315283
    vertex 35964.43298564227 -38880.632342556295 101.58585224315283
    vertex 35950.00451219128 -38875.53375361251 101.58585224315283
  endloop
endfacet
endsolid Type XXI U-Boot
