solid Type XXI U-Boot
facet normal -2.5323429235617725e-07 0.8881314081467921 0.45958960156114503
  outer loop
    vertex 35978.9901346268 -38947.57563837197 106.74071165147093
    vertex 35988.9901346268 -38946.48567881114 104.6344256864146
    vertex 35978.9901346268 -38946.48567881118 104.63442526844416
  endloop
endfacet
facet normal -2.5323429235617725e-07 0.8881314081467921 0.45958960156114503
  outer loop
    vertex 35988.9901346268 -38946.48567881114 104.6344256864146
    vertex 35978.9901346268 -38947.57563837197 106.74071165147093
    vertex 36035.573603012 -38946.48566552873 104.6344256864146
  endloop
endfacet
facet normal -2.5323429235617725e-07 0.8881314081467921 0.45958960156114503
  outer loop
    vertex 36035.573603012 -38946.48566552873 104.6344256864146
    vertex 35978.9901346268 -38947.57563837197 106.74071165147093
    vertex 35988.9901346268 -38947.575638371934 106.74071206944139
  endloop
endfacet
facet normal 1.8905859747406292e-07 -0.9945866136089241 -0.10391086579322227
  outer loop
    vertex 36035.573625149365 -38952.046553040425 93.47228512124904
    vertex 35988.9901346268 -38950.92229385165 82.71131284120413
    vertex 36035.573625149365 -38950.922284996705 82.71131284120413
  endloop
endfacet
facet normal 2.465190328815662e-32 0.99458669819112 -0.10391005620865623
  outer loop
    vertex 35978.990149016085 -38945.106259965694 93.4722847032786
    vertex 35988.9901346268 -38946.23051915444 82.71131284120413
    vertex 35978.9901346268 -38946.23051915447 82.7113124232337
  endloop
endfacet
facet normal 2.465190328815662e-32 0.99458669819112 -0.10391005620865623
  outer loop
    vertex 35988.9901346268 -38946.23051915444 82.71131284120413
    vertex 35978.990149016085 -38945.106259965694 93.4722847032786
    vertex 36035.573603012 -38946.23051915444 82.71131284120413
  endloop
endfacet
facet normal 2.465190328815662e-32 0.99458669819112 -0.10391005620865623
  outer loop
    vertex 36035.573603012 -38946.23051915444 82.71131284120413
    vertex 35978.990149016085 -38945.106259965694 93.4722847032786
    vertex 35988.990149016085 -38945.10625996566 93.47228512124904
  endloop
endfacet
facet normal 1.0 1.0263416486754037e-48 4.930380657631324e-32
  outer loop
    vertex 36035.573603012 -38948.57640207557 107.2015145325415
    vertex 36035.573603012 -38949.57716135173 106.74069823358744
    vertex 36035.573603012 -38950.66713862241 104.6344256864146
  endloop
endfacet
facet normal 3.7980198421605724e-07 -0.9990179174272115 0.044308020258789715
  outer loop
    vertex 36035.573625149365 -38951.75876734027 99.96102167868378
    vertex 35988.990149016085 -38952.04657075032 93.47228512124904
    vertex 36035.573625149365 -38952.046553040425 93.47228512124904
  endloop
endfacet
facet normal 5.508862178880404e-18 0.9868010645167598 -0.16193720717793672
  outer loop
    vertex 36035.573603012 -38946.23051915444 82.71131284120413
    vertex 36035.573625149365 -38948.57640207557 68.41614371888211
    vertex 35988.9901346268 -38946.23051915444 82.71131284120413
  endloop
endfacet
facet normal 1.0 1.0263416486754037e-48 4.930380657631324e-32
  outer loop
    vertex 36035.573603012 -38945.106246683245 93.47228512124904
    vertex 36035.573603012 -38945.3940323834 99.96102167868378
    vertex 36035.573603012 -38948.57640207557 107.2015145325415
  endloop
endfacet
facet normal 3.7020982530187855e-07 -0.9737873373329188 0.2274603738015208
  outer loop
    vertex 36035.573603012 -38950.66713862241 104.6344256864146
    vertex 35988.9901346268 -38951.75878505015 99.96102167868378
    vertex 36035.573625149365 -38951.75876734027 99.96102167868378
  endloop
endfacet
facet normal 0.9999999999820847 5.9585959693830004e-06 5.707657574517989e-07
  outer loop
    vertex 36035.573603012 -38946.23051915444 82.71131284120413
    vertex 36035.573603012 -38948.57640207557 107.2015145325415
    vertex 36035.573625149365 -38948.57640207557 68.41614371888211
  endloop
endfacet
facet normal -4.930380657631324e-32 -0.8881271277733102 0.4595978730511387
  outer loop
    vertex 36035.573603012 -38949.57716135173 106.74069823358744
    vertex 35988.9901346268 -38950.66713862241 104.6344256864146
    vertex 36035.573603012 -38950.66713862241 104.6344256864146
  endloop
endfacet
facet normal -4.930380657631324e-32 0.41825391600184453 0.908330150192716
  outer loop
    vertex 36035.573603012 -38947.575638371934 106.74069823358744
    vertex 35988.9901346268 -38948.57640207557 107.2015145325415
    vertex 36035.573603012 -38948.57640207557 107.2015145325415
  endloop
endfacet
facet normal 0.9999999999937886 3.4780904701589747e-06 5.707657574584786e-07
  outer loop
    vertex 36035.573603012 -38948.57640207557 107.2015145325415
    vertex 36035.573625149365 -38950.922284996705 82.71131284120413
    vertex 36035.573625149365 -38948.57640207557 68.41614371888211
  endloop
endfacet
facet normal 3.7980186689912033e-07 -0.9990179174271742 0.044308020259630314
  outer loop
    vertex 35988.990149016085 -38952.04657075032 93.47228512124904
    vertex 35978.9901346268 -38951.75878505019 99.96102126071334
    vertex 35978.990149016085 -38952.04657075035 93.4722847032786
  endloop
endfacet
facet normal 3.7980186689912033e-07 -0.9990179174271742 0.044308020259630314
  outer loop
    vertex 35978.9901346268 -38951.75878505019 99.96102126071334
    vertex 35988.990149016085 -38952.04657075032 93.47228512124904
    vertex 36035.573625149365 -38951.75876734027 99.96102167868378
  endloop
endfacet
facet normal 3.7980186689912033e-07 -0.9990179174271742 0.044308020259630314
  outer loop
    vertex 35978.9901346268 -38951.75878505019 99.96102126071334
    vertex 36035.573625149365 -38951.75876734027 99.96102167868378
    vertex 35988.9901346268 -38951.75878505015 99.96102167868378
  endloop
endfacet
facet normal -2.8485164933840804e-07 0.9990180079454696 0.044305979287049845
  outer loop
    vertex 35978.9901346268 -38945.39403238344 99.96102126071334
    vertex 35988.990149016085 -38945.10625996566 93.47228512124904
    vertex 35978.990149016085 -38945.106259965694 93.4722847032786
  endloop
endfacet
facet normal -2.8485164933840804e-07 0.9990180079454696 0.044305979287049845
  outer loop
    vertex 35988.990149016085 -38945.10625996566 93.47228512124904
    vertex 35978.9901346268 -38945.39403238344 99.96102126071334
    vertex 36035.573603012 -38945.106246683245 93.47228512124904
  endloop
endfacet
facet normal -2.8485164933840804e-07 0.9990180079454696 0.044305979287049845
  outer loop
    vertex 36035.573603012 -38945.106246683245 93.47228512124904
    vertex 35978.9901346268 -38945.39403238344 99.96102126071334
    vertex 35988.9901346268 -38945.3940323834 99.96102167868378
  endloop
endfacet
facet normal 1.365056644313942e-07 0.8881278897983463 0.4595964005106195
  outer loop
    vertex 35988.9901346268 -38947.575638371934 106.74071206944139
    vertex 36035.573603012 -38947.575638371934 106.74069823358744
    vertex 36035.573603012 -38946.48566552873 104.6344256864146
  endloop
endfacet
facet normal 1.1925782613464e-07 -0.4182554427000678 0.9083294472006047
  outer loop
    vertex 36035.573603012 -38948.57640207557 107.2015145325415
    vertex 35988.9901346268 -38949.57717463415 106.74069823358744
    vertex 36035.573603012 -38949.57716135173 106.74069823358744
  endloop
endfacet
facet normal 2.6978640779461577e-07 0.4182435548284455 0.9083349210750364
  outer loop
    vertex 35988.9901346268 -38948.57640207557 107.2015145325415
    vertex 35978.9901346268 -38947.57563837197 106.74071165147093
    vertex 35978.9901346268 -38948.5764020756 107.20151411457105
  endloop
endfacet
facet normal 2.6978640779461577e-07 0.4182435548284455 0.9083349210750364
  outer loop
    vertex 35978.9901346268 -38947.57563837197 106.74071165147093
    vertex 35988.9901346268 -38948.57640207557 107.2015145325415
    vertex 35988.9901346268 -38947.575638371934 106.74071206944139
  endloop
endfacet
facet normal 2.6978640779461577e-07 0.4182435548284455 0.9083349210750364
  outer loop
    vertex 35988.9901346268 -38947.575638371934 106.74071206944139
    vertex 35988.9901346268 -38948.57640207557 107.2015145325415
    vertex 36035.573603012 -38947.575638371934 106.74069823358744
  endloop
endfacet
facet normal -6.8355579761905705e-49 0.9990179174272834 0.0443080202587929
  outer loop
    vertex 36035.573603012 -38945.3940323834 99.96102167868378
    vertex 36035.573603012 -38945.106246683245 93.47228512124904
    vertex 35988.9901346268 -38945.3940323834 99.96102167868378
  endloop
endfacet
facet normal 2.5323372371832105e-07 -0.8881294138450139 0.45959345541820773
  outer loop
    vertex 35988.9901346268 -38950.66713862241 104.6344256864146
    vertex 35978.9901346268 -38949.57717463418 106.74069781561698
    vertex 35978.9901346268 -38950.66713862244 104.63442526844416
  endloop
endfacet
facet normal 2.5323372371832105e-07 -0.8881294138450139 0.45959345541820773
  outer loop
    vertex 35978.9901346268 -38949.57717463418 106.74069781561698
    vertex 35988.9901346268 -38950.66713862241 104.6344256864146
    vertex 36035.573603012 -38949.57716135173 106.74069823358744
  endloop
endfacet
facet normal 2.5323372371832105e-07 -0.8881294138450139 0.45959345541820773
  outer loop
    vertex 35978.9901346268 -38949.57717463418 106.74069781561698
    vertex 36035.573603012 -38949.57716135173 106.74069823358744
    vertex 35988.9901346268 -38949.57717463415 106.74069823358744
  endloop
endfacet
facet normal -0.9999999999999991 -3.2584897275138516e-12 -4.179704446989959e-08
  outer loop
    vertex 35978.9901346268 -38951.75878505019 99.96102126071334
    vertex 35978.9901346268 -38950.92229385168 82.7113124232337
    vertex 35978.990149016085 -38952.04657075035 93.4722847032786
  endloop
endfacet
facet normal -0.9999999999999991 -3.2584897275138516e-12 -4.179704446989959e-08
  outer loop
    vertex 35978.9901346268 -38950.92229385168 82.7113124232337
    vertex 35978.9901346268 -38951.75878505019 99.96102126071334
    vertex 35978.9901346268 -38950.66713862244 104.63442526844416
  endloop
endfacet
facet normal -0.9999999999999991 -3.2584897275138516e-12 -4.179704446989959e-08
  outer loop
    vertex 35978.9901346268 -38950.92229385168 82.7113124232337
    vertex 35978.9901346268 -38950.66713862244 104.63442526844416
    vertex 35978.9901346268 -38948.5764020756 68.41614330091167
  endloop
endfacet
facet normal -0.9999999999999991 -3.2584897275138516e-12 -4.179704446989959e-08
  outer loop
    vertex 35978.9901346268 -38948.5764020756 68.41614330091167
    vertex 35978.9901346268 -38950.66713862244 104.63442526844416
    vertex 35978.9901346268 -38949.57717463418 106.74069781561698
  endloop
endfacet
facet normal -0.9999999999999991 -3.2584897275138516e-12 -4.179704446989959e-08
  outer loop
    vertex 35978.9901346268 -38948.5764020756 68.41614330091167
    vertex 35978.9901346268 -38949.57717463418 106.74069781561698
    vertex 35978.9901346268 -38948.5764020756 107.20151411457105
  endloop
endfacet
facet normal -0.9999999999999991 -3.2584897275138516e-12 -4.179704446989959e-08
  outer loop
    vertex 35978.9901346268 -38948.5764020756 68.41614330091167
    vertex 35978.9901346268 -38948.5764020756 107.20151411457105
    vertex 35978.9901346268 -38947.57563837197 106.74071165147093
  endloop
endfacet
facet normal -0.9999999999999991 -3.2584897275138516e-12 -4.179704446989959e-08
  outer loop
    vertex 35978.9901346268 -38948.5764020756 68.41614330091167
    vertex 35978.9901346268 -38947.57563837197 106.74071165147093
    vertex 35978.9901346268 -38946.23051915447 82.7113124232337
  endloop
endfacet
facet normal -0.9999999999999991 -3.2584897275138516e-12 -4.179704446989959e-08
  outer loop
    vertex 35978.9901346268 -38946.23051915447 82.7113124232337
    vertex 35978.9901346268 -38947.57563837197 106.74071165147093
    vertex 35978.9901346268 -38946.48567881118 104.63442526844416
  endloop
endfacet
facet normal -0.9999999999999991 -3.2584897275138516e-12 -4.179704446989959e-08
  outer loop
    vertex 35978.9901346268 -38946.23051915447 82.7113124232337
    vertex 35978.9901346268 -38946.48567881118 104.63442526844416
    vertex 35978.9901346268 -38945.39403238344 99.96102126071334
  endloop
endfacet
facet normal -0.9999999999999991 -3.2584897275138516e-12 -4.179704446989959e-08
  outer loop
    vertex 35978.9901346268 -38946.23051915447 82.7113124232337
    vertex 35978.9901346268 -38945.39403238344 99.96102126071334
    vertex 35978.990149016085 -38945.106259965694 93.4722847032786
  endloop
endfacet
facet normal 1.8757864244870606e-07 -0.9868009668373002 -0.16193780240862365
  outer loop
    vertex 35988.9901346268 -38948.57640207557 68.41614371888211
    vertex 35978.9901346268 -38950.92229385168 82.7113124232337
    vertex 35978.9901346268 -38948.5764020756 68.41614330091167
  endloop
endfacet
facet normal 1.8757864244870606e-07 -0.9868009668373002 -0.16193780240862365
  outer loop
    vertex 35978.9901346268 -38950.92229385168 82.7113124232337
    vertex 35988.9901346268 -38948.57640207557 68.41614371888211
    vertex 36035.573625149365 -38950.922284996705 82.71131284120413
  endloop
endfacet
facet normal 1.8757864244870606e-07 -0.9868009668373002 -0.16193780240862365
  outer loop
    vertex 35978.9901346268 -38950.92229385168 82.7113124232337
    vertex 36035.573625149365 -38950.922284996705 82.71131284120413
    vertex 35988.9901346268 -38950.92229385165 82.71131284120413
  endloop
endfacet
facet normal 0.9999999999897025 4.513654275286767e-06 4.715705170557894e-07
  outer loop
    vertex 36035.573603012 -38948.57640207557 107.2015145325415
    vertex 36035.573625149365 -38952.046553040425 93.47228512124904
    vertex 36035.573625149365 -38950.922284996705 82.71131284120413
  endloop
endfacet
facet normal 0.9999999999700107 7.736987153721596e-06 -3.431475828100663e-07
  outer loop
    vertex 36035.573603012 -38948.57640207557 107.2015145325415
    vertex 36035.573625149365 -38951.75876734027 99.96102167868378
    vertex 36035.573625149365 -38952.046553040425 93.47228512124904
  endloop
endfacet
facet normal 0.9999999999446916 -8.155008562007325e-06 6.641754712195226e-06
  outer loop
    vertex 36035.573603012 -38948.57640207557 107.2015145325415
    vertex 36035.573603012 -38950.66713862241 104.6344256864146
    vertex 36035.573625149365 -38951.75876734027 99.96102167868378
  endloop
endfacet
facet normal 1.0 1.0263416486754037e-48 4.930380657631324e-32
  outer loop
    vertex 36035.573603012 -38945.106246683245 93.47228512124904
    vertex 36035.573603012 -38948.57640207557 107.2015145325415
    vertex 36035.573603012 -38946.23051915444 82.71131284120413
  endloop
endfacet
facet normal 1.8488927466117464e-32 -0.9868010645167598 -0.1619372071779367
  outer loop
    vertex 36035.573625149365 -38950.922284996705 82.71131284120413
    vertex 35988.9901346268 -38948.57640207557 68.41614371888211
    vertex 36035.573625149365 -38948.57640207557 68.41614371888211
  endloop
endfacet
facet normal -1.0103795841701877e-18 -0.4182508626352831 0.9083315561538317
  outer loop
    vertex 35988.9901346268 -38949.57717463415 106.74069823358744
    vertex 35978.9901346268 -38948.5764020756 107.20151411457105
    vertex 35978.9901346268 -38949.57717463418 106.74069781561698
  endloop
endfacet
facet normal -1.0103795841701877e-18 -0.4182508626352831 0.9083315561538317
  outer loop
    vertex 35978.9901346268 -38948.5764020756 107.20151411457105
    vertex 35988.9901346268 -38949.57717463415 106.74069823358744
    vertex 35988.9901346268 -38948.57640207557 107.2015145325415
  endloop
endfacet
facet normal -1.0103795841701877e-18 -0.4182508626352831 0.9083315561538317
  outer loop
    vertex 35988.9901346268 -38948.57640207557 107.2015145325415
    vertex 35988.9901346268 -38949.57717463415 106.74069823358744
    vertex 36035.573603012 -38948.57640207557 107.2015145325415
  endloop
endfacet
facet normal 1.0 1.0263416486754037e-48 4.930380657631324e-32
  outer loop
    vertex 36035.573603012 -38945.3940323834 99.96102167868378
    vertex 36035.573603012 -38946.48566552873 104.6344256864146
    vertex 36035.573603012 -38948.57640207557 107.2015145325415
  endloop
endfacet
facet normal -5.508856943049211e-18 0.9868010645167598 -0.1619372071779368
  outer loop
    vertex 35978.9901346268 -38946.23051915447 82.7113124232337
    vertex 35988.9901346268 -38948.57640207557 68.41614371888211
    vertex 35978.9901346268 -38948.5764020756 68.41614330091167
  endloop
endfacet
facet normal -5.508856943049211e-18 0.9868010645167598 -0.1619372071779368
  outer loop
    vertex 35988.9901346268 -38948.57640207557 68.41614371888211
    vertex 35978.9901346268 -38946.23051915447 82.7113124232337
    vertex 36035.573625149365 -38948.57640207557 68.41614371888211
  endloop
endfacet
facet normal -5.508856943049211e-18 0.9868010645167598 -0.1619372071779368
  outer loop
    vertex 36035.573625149365 -38948.57640207557 68.41614371888211
    vertex 35978.9901346268 -38946.23051915447 82.7113124232337
    vertex 35988.9901346268 -38946.23051915444 82.71131284120413
  endloop
endfacet
facet normal -2.8358810651327473e-07 0.9945865713175712 -0.10391127058542636
  outer loop
    vertex 36035.573603012 -38945.106246683245 93.47228512124904
    vertex 36035.573603012 -38946.23051915444 82.71131284120413
    vertex 35988.990149016085 -38945.10625996566 93.47228512124904
  endloop
endfacet
facet normal -1.8488927466117464e-32 -0.9737865199618775 0.22746387304478943
  outer loop
    vertex 35988.9901346268 -38951.75878505015 99.96102167868378
    vertex 35978.9901346268 -38950.66713862244 104.63442526844416
    vertex 35978.9901346268 -38951.75878505019 99.96102126071334
  endloop
endfacet
facet normal -1.8488927466117464e-32 -0.9737865199618775 0.22746387304478943
  outer loop
    vertex 35978.9901346268 -38950.66713862244 104.63442526844416
    vertex 35988.9901346268 -38951.75878505015 99.96102167868378
    vertex 36035.573603012 -38950.66713862241 104.6344256864146
  endloop
endfacet
facet normal -1.8488927466117464e-32 -0.9737865199618775 0.22746387304478943
  outer loop
    vertex 35978.9901346268 -38950.66713862244 104.63442526844416
    vertex 36035.573603012 -38950.66713862241 104.6344256864146
    vertex 35988.9901346268 -38950.66713862241 104.6344256864146
  endloop
endfacet
facet normal -3.1789816119995874e-18 0.9737865199618774 0.2274638730447897
  outer loop
    vertex 35978.9901346268 -38946.48567881118 104.63442526844416
    vertex 35988.9901346268 -38945.3940323834 99.96102167868378
    vertex 35978.9901346268 -38945.39403238344 99.96102126071334
  endloop
endfacet
facet normal -3.1789816119995874e-18 0.9737865199618774 0.2274638730447897
  outer loop
    vertex 35988.9901346268 -38945.3940323834 99.96102167868378
    vertex 35978.9901346268 -38946.48567881118 104.63442526844416
    vertex 36035.573603012 -38945.3940323834 99.96102167868378
  endloop
endfacet
facet normal -3.1789816119995874e-18 0.9737865199618774 0.2274638730447897
  outer loop
    vertex 36035.573603012 -38945.3940323834 99.96102167868378
    vertex 35978.9901346268 -38946.48567881118 104.63442526844416
    vertex 35988.9901346268 -38946.48567881114 104.6344256864146
  endloop
endfacet
facet normal 1.0 1.0263416486754037e-48 4.930380657631324e-32
  outer loop
    vertex 36035.573603012 -38946.48566552873 104.6344256864146
    vertex 36035.573603012 -38947.575638371934 106.74069823358744
    vertex 36035.573603012 -38948.57640207557 107.2015145325415
  endloop
endfacet
facet normal 3.781172795937471e-07 -0.9945865290259958 -0.10391167537807812
  outer loop
    vertex 35988.9901346268 -38950.92229385165 82.71131284120413
    vertex 35978.990149016085 -38952.04657075035 93.4722847032786
    vertex 35978.9901346268 -38950.92229385168 82.7113124232337
  endloop
endfacet
facet normal 3.781172795937471e-07 -0.9945865290259958 -0.10391167537807812
  outer loop
    vertex 35978.990149016085 -38952.04657075035 93.4722847032786
    vertex 35988.9901346268 -38950.92229385165 82.71131284120413
    vertex 36035.573625149365 -38952.046553040425 93.47228512124904
  endloop
endfacet
facet normal 3.781172795937471e-07 -0.9945865290259958 -0.10391167537807812
  outer loop
    vertex 35978.990149016085 -38952.04657075035 93.4722847032786
    vertex 36035.573625149365 -38952.046553040425 93.47228512124904
    vertex 35988.990149016085 -38952.04657075032 93.47228512124904
  endloop
endfacet
facet normal -2.7765744265367994e-07 0.9737871329915123 0.22746124861192035
  outer loop
    vertex 36035.573603012 -38946.48566552873 104.6344256864146
    vertex 36035.573603012 -38945.3940323834 99.96102167868378
    vertex 35988.9901346268 -38946.48567881114 104.6344256864146
  endloop
endfacet
endsolid Type XXI U-Boot
