solid Type XXI U-Boot
facet normal -0.45958960156114503 2.532328763667372e-07 0.8881314081467921
  outer loop
    vertex 35910.21256637757 -38943.0700644282 134.0073391899161
    vertex 35908.10628041237 -38886.48659604301 132.91736634669905
    vertex 35908.10627999443 -38896.48659604301 132.91736634672972
  endloop
endfacet
facet normal -0.45958960156114503 2.532328763667372e-07 0.8881314081467921
  outer loop
    vertex 35908.10628041237 -38886.48659604301 132.91736634669905
    vertex 35910.21256637757 -38943.0700644282 134.0073391899161
    vertex 35910.21256637746 -38896.486596042996 134.00732590752114
  endloop
endfacet
facet normal -0.45958960156114503 2.532328763667372e-07 0.8881314081467921
  outer loop
    vertex 35910.2125667954 -38886.486596042996 134.0073259074905
    vertex 35908.10628041237 -38886.48659604301 132.91736634669905
    vertex 35910.21256637746 -38896.486596042996 134.00732590752114
  endloop
endfacet
facet normal 0.10391086579322227 -1.8905796050160562e-07 -0.9945866136089241
  outer loop
    vertex 35932.13567922278 -38943.0700865655 129.5707197219441
    vertex 35921.37470694273 -38943.07008656552 128.44645167822202
    vertex 35932.135679222665 -38896.48659604294 129.57071086702032
  endloop
endfacet
facet normal 0.10391005620865623 -1.5697117514680892e-13 0.99458669819112
  outer loop
    vertex 35932.13567922278 -38943.07006442814 134.26248556421072
    vertex 35921.37470736057 -38886.486610432265 135.38674475297836
    vertex 35921.374706942624 -38896.486610432265 135.386744753009
  endloop
endfacet
facet normal 0.10391005620865623 -1.5697117514680892e-13 0.99458669819112
  outer loop
    vertex 35921.37470736057 -38886.486610432265 135.38674475297836
    vertex 35932.13567922278 -38943.07006442814 134.26248556421072
    vertex 35932.135679222665 -38896.48659604294 134.2624855642293
  endloop
endfacet
facet normal 0.10391005620865623 -1.5697117514680892e-13 0.99458669819112
  outer loop
    vertex 35932.13567964061 -38886.486596042945 134.26248556419864
    vertex 35921.37470736057 -38886.486610432265 135.38674475297836
    vertex 35932.135679222665 -38896.48659604294 134.2624855642293
  endloop
endfacet
facet normal 2.3096871637484635e-12 -1.0 -3.99131517522107e-13
  outer loop
    vertex 35907.64547753144 -38943.0700644282 131.9166026430774
    vertex 35908.106293830395 -38943.0700644282 130.91584336692065
    vertex 35910.21256637757 -38943.0700644282 129.82586609623868
  endloop
endfacet
facet normal -0.044308020258789715 -3.7980168781418546e-07 -0.9990179174272115
  outer loop
    vertex 35921.37470694273 -38943.07008656552 128.44645167822202
    vertex 35914.8859703853 -38943.070086565545 128.734237378383
    vertex 35921.374706942624 -38896.48661043225 128.4464339683501
  endloop
endfacet
facet normal 0.16193720717793672 -1.9844626483027743e-14 0.9868010645167598
  outer loop
    vertex 35946.4308483451 -38943.070086565465 131.9166026430774
    vertex 35932.135679222665 -38896.48659604294 134.2624855642293
    vertex 35932.13567922278 -38943.07006442814 134.26248556421072
  endloop
endfacet
facet normal -1.3032087545204263e-07 -0.9999999999956746 2.93837950794955e-06
  outer loop
    vertex 35921.37470694273 -38943.07006442818 135.38675803540397
    vertex 35914.8859703853 -38943.07006442818 135.098972335243
    vertex 35918.709869974824 -38943.07006606006 134.71320250677297
  endloop
endfacet
facet normal -0.2274603738015208 -3.702099619949665e-07 -0.9737873373329188
  outer loop
    vertex 35914.8859703853 -38943.070086565545 128.734237378383
    vertex 35910.21256637757 -38943.0700644282 129.82586609623868
    vertex 35914.885970385185 -38896.48659604298 128.73421966851106
  endloop
endfacet
facet normal -5.707633140670159e-07 -0.9999999999820848 5.958596438178492e-06
  outer loop
    vertex 35919.7136258789 -38943.07006823186 132.43424073326307
    vertex 35907.64547753144 -38943.0700644282 131.9166026430774
    vertex 35919.64547753148 -38943.07007127736 131.91660264307637
  endloop
endfacet
facet normal -5.707633140670159e-07 -0.9999999999820848 5.958596438178492e-06
  outer loop
    vertex 35907.64547753144 -38943.0700644282 131.9166026430774
    vertex 35919.7136258789 -38943.07006823186 132.43424073326307
    vertex 35919.913426723906 -38943.07006547169 132.91660264304102
  endloop
endfacet
facet normal -5.707633140670159e-07 -0.9999999999820848 5.958596438178492e-06
  outer loop
    vertex 35907.64547753144 -38943.0700644282 131.9166026430774
    vertex 35919.913426723906 -38943.07006547169 132.91660264304102
    vertex 35920.05846957923 -38943.07006442817 133.10562617224508
  endloop
endfacet
facet normal -0.4595978730511387 -7.070477796115994e-13 -0.8881271277733102
  outer loop
    vertex 35910.21256637757 -38943.0700644282 129.82586609623868
    vertex 35908.106293830395 -38943.0700644282 130.91584336692065
    vertex 35910.21256637746 -38896.486596042996 129.8258660962573
  endloop
endfacet
facet normal -0.908330150192716 -2.26489680854921e-12 0.41825391600184453
  outer loop
    vertex 35907.645477531325 -38896.486596042996 131.91660264309598
    vertex 35907.64547753144 -38943.0700644282 131.9166026430774
    vertex 35908.106293830395 -38943.07006442821 132.91736634671113
  endloop
endfacet
facet normal -0.044308020259630314 -3.7980157049724855e-07 -0.9990179174271742
  outer loop
    vertex 35914.88597080313 -38886.48659604298 128.73421966848042
    vertex 35914.8859703853 -38943.070086565545 128.734237378383
    vertex 35914.885970385185 -38896.48659604298 128.73421966851106
  endloop
endfacet
facet normal -0.044308020259630314 -3.7980157049724855e-07 -0.9990179174271742
  outer loop
    vertex 35914.8859703853 -38943.070086565545 128.734237378383
    vertex 35914.88597080313 -38886.48659604298 128.73421966848042
    vertex 35921.374706942624 -38896.48661043225 128.4464339683501
  endloop
endfacet
facet normal -0.044308020259630314 -3.7980157049724855e-07 -0.9990179174271742
  outer loop
    vertex 35921.374706942624 -38896.48661043225 128.4464339683501
    vertex 35914.88597080313 -38886.48659604298 128.73421966848042
    vertex 35921.37470736057 -38886.48661043225 128.44643396831944
  endloop
endfacet
facet normal -0.04430597928704985 2.848511482658829e-07 0.9990180079454698
  outer loop
    vertex 35921.37470694273 -38943.07006442818 135.38675803540397
    vertex 35914.88597080313 -38886.48659604298 135.09897233523094
    vertex 35914.885970385185 -38896.48659604298 135.09897233526158
  endloop
endfacet
facet normal -0.04430597928704985 2.848511482658829e-07 0.9990180079454698
  outer loop
    vertex 35914.88597080313 -38886.48659604298 135.09897233523094
    vertex 35921.37470694273 -38943.07006442818 135.38675803540397
    vertex 35921.374706942624 -38896.486610432265 135.386744753009
  endloop
endfacet
facet normal -0.04430597928704985 2.848511482658829e-07 0.9990180079454698
  outer loop
    vertex 35921.37470736057 -38886.486610432265 135.38674475297836
    vertex 35914.88597080313 -38886.48659604298 135.09897233523094
    vertex 35921.374706942624 -38896.486610432265 135.386744753009
  endloop
endfacet
facet normal -0.4595964005106195 -1.3650708043513336e-07 0.8881278897983463
  outer loop
    vertex 35910.21256637757 -38943.0700644282 134.0073391899161
    vertex 35908.10627999443 -38896.48659604301 132.91736634672972
    vertex 35908.106293830395 -38943.07006442821 132.91736634671113
  endloop
endfacet
facet normal -0.9083294472006047 -1.1925975715257508e-07 -0.4182554427000678
  outer loop
    vertex 35908.106293830286 -38896.486596042996 130.9158300845199
    vertex 35908.106293830395 -38943.0700644282 130.91584336692065
    vertex 35907.64547753144 -38943.0700644282 131.9166026430774
  endloop
endfacet
facet normal -0.9083349210750362 -2.69788672698308e-07 0.4182435548284454
  outer loop
    vertex 35908.10627999443 -38896.48659604301 132.91736634672972
    vertex 35907.645477531325 -38896.486596042996 131.91660264309598
    vertex 35908.106293830395 -38943.07006442821 132.91736634671113
  endloop
endfacet
facet normal -0.9083349210750362 -2.69788672698308e-07 0.4182435548284454
  outer loop
    vertex 35907.645477531325 -38896.486596042996 131.91660264309598
    vertex 35908.10627999443 -38896.48659604301 132.91736634672972
    vertex 35908.10628041237 -38886.48659604301 132.91736634669905
  endloop
endfacet
facet normal -0.9083349210750362 -2.69788672698308e-07 0.4182435548284454
  outer loop
    vertex 35907.645477531325 -38896.486596042996 131.91660264309598
    vertex 35908.10628041237 -38886.48659604301 132.91736634669905
    vertex 35907.64547794928 -38886.486596043 131.91660264306535
  endloop
endfacet
facet normal -0.0443080202587929 -5.010772030573675e-13 0.9990179174272834
  outer loop
    vertex 35921.37470694273 -38943.07006442818 135.38675803540397
    vertex 35914.885970385185 -38896.48659604298 135.09897233526158
    vertex 35914.8859703853 -38943.07006442818 135.098972335243
  endloop
endfacet
facet normal -0.45959345541820773 -2.532344307549849e-07 -0.8881294138450139
  outer loop
    vertex 35908.106293830286 -38896.486596042996 130.9158300845199
    vertex 35908.106293830395 -38943.0700644282 130.91584336692065
    vertex 35908.10629424823 -38886.486596042996 130.91583008448924
  endloop
endfacet
facet normal -0.45959345541820773 -2.532344307549849e-07 -0.8881294138450139
  outer loop
    vertex 35910.21256637746 -38896.486596042996 129.8258660962573
    vertex 35908.10629424823 -38886.486596042996 130.91583008448924
    vertex 35908.106293830395 -38943.0700644282 130.91584336692065
  endloop
endfacet
facet normal -0.45959345541820773 -2.532344307549849e-07 -0.8881294138450139
  outer loop
    vertex 35910.2125667954 -38886.486596042996 129.82586609622663
    vertex 35908.10629424823 -38886.486596042996 130.91583008448924
    vertex 35910.21256637746 -38896.486596042996 129.8258660962573
  endloop
endfacet
facet normal 4.179473478273584e-08 0.9999999999999991 -2.859358209991745e-12
  outer loop
    vertex 35908.10629424823 -38886.486596042996 130.91583008448924
    vertex 35921.645509697875 -38886.48664177265 129.91629116945018
    vertex 35910.2125667954 -38886.486596042996 129.82586609622663
  endloop
endfacet
facet normal 4.179473478273584e-08 0.9999999999999991 -2.859358209991745e-12
  outer loop
    vertex 35921.645509697875 -38886.48664177265 129.91629116945018
    vertex 35908.10629424823 -38886.486596042996 130.91583008448924
    vertex 35921.127871607685 -38886.48664107113 129.98443951686934
  endloop
endfacet
facet normal 4.179473478273584e-08 0.9999999999999991 -2.859358209991745e-12
  outer loop
    vertex 35921.127871607685 -38886.48664107113 129.98443951686934
    vertex 35908.10629424823 -38886.486596042996 130.91583008448924
    vertex 35920.6455096979 -38886.48663960529 130.18424036187128
  endloop
endfacet
facet normal 4.179473478273584e-08 0.9999999999999991 -2.859358209991745e-12
  outer loop
    vertex 35920.6455096979 -38886.48663960529 130.18424036187128
    vertex 35908.10629424823 -38886.486596042996 130.91583008448924
    vertex 35920.350298973135 -38886.48663307407 130.41076351809429
  endloop
endfacet
facet normal 4.179473478273584e-08 0.9999999999999991 -2.859358209991745e-12
  outer loop
    vertex 35920.350298973135 -38886.48663307407 130.41076351809429
    vertex 35908.10629424823 -38886.486596042996 130.91583008448924
    vertex 35920.231296135535 -38886.486637475005 130.50207760705555
  endloop
endfacet
facet normal 4.179473478273584e-08 0.9999999999999991 -2.859358209991745e-12
  outer loop
    vertex 35920.231296135535 -38886.486637475005 130.50207760705555
    vertex 35908.10629424823 -38886.486596042996 130.91583008448924
    vertex 35920.058501745654 -38886.48663455987 130.72726764022264
  endloop
endfacet
facet normal 4.179473478273584e-08 0.9999999999999991 -2.859358209991745e-12
  outer loop
    vertex 35920.058501745654 -38886.48663455987 130.72726764022264
    vertex 35908.10629424823 -38886.486596042996 130.91583008448924
    vertex 35919.91345889034 -38886.486634825465 130.9162911694138
  endloop
endfacet
facet normal 4.179473478273584e-08 0.9999999999999991 -2.859358209991745e-12
  outer loop
    vertex 35919.91345889034 -38886.486634825465 130.9162911694138
    vertex 35908.10629424823 -38886.486596042996 130.91583008448924
    vertex 35907.64547794928 -38886.486596043 131.91660264306535
  endloop
endfacet
facet normal 4.179473478273584e-08 0.9999999999999991 -2.859358209991745e-12
  outer loop
    vertex 35919.91345889034 -38886.486634825465 130.9162911694138
    vertex 35907.64547794928 -38886.486596043 131.91660264306535
    vertex 35919.71365804534 -38886.48663183723 131.3986530791915
  endloop
endfacet
facet normal 4.179473478273584e-08 0.9999999999999991 -2.859358209991745e-12
  outer loop
    vertex 35919.71365804534 -38886.48663183723 131.3986530791915
    vertex 35907.64547794928 -38886.486596043 131.91660264306535
    vertex 35919.64550969792 -38886.48662871393 131.91629116937813
  endloop
endfacet
facet normal 4.179473478273584e-08 0.9999999999999991 -2.859358209991745e-12
  outer loop
    vertex 35919.64550969792 -38886.48662871393 131.91629116937813
    vertex 35907.64547794928 -38886.486596043 131.91660264306535
    vertex 35919.713658045344 -38886.48662566843 132.43392925956482
  endloop
endfacet
facet normal 4.179473478273584e-08 0.9999999999999991 -2.859358209991745e-12
  outer loop
    vertex 35919.713658045344 -38886.48662566843 132.43392925956482
    vertex 35907.64547794928 -38886.486596043 131.91660264306535
    vertex 35908.10628041237 -38886.48659604301 132.91736634669905
  endloop
endfacet
facet normal 4.179473478273584e-08 0.9999999999999991 -2.859358209991745e-12
  outer loop
    vertex 35919.713658045344 -38886.48662566843 132.43392925956482
    vertex 35908.10628041237 -38886.48659604301 132.91736634669905
    vertex 35919.91345889035 -38886.48662290827 132.91629116934277
  endloop
endfacet
facet normal 4.179473478273584e-08 0.9999999999999991 -2.859358209991745e-12
  outer loop
    vertex 35919.91345889035 -38886.48662290827 132.91629116934277
    vertex 35908.10628041237 -38886.48659604301 132.91736634669905
    vertex 35920.058501745676 -38886.486621864744 133.10531469854683
  endloop
endfacet
facet normal 4.179473478273584e-08 0.9999999999999991 -2.859358209991745e-12
  outer loop
    vertex 35920.058501745676 -38886.486621864744 133.10531469854683
    vertex 35908.10628041237 -38886.48659604301 132.91736634669905
    vertex 35910.2125667954 -38886.486596042996 134.0073259074905
  endloop
endfacet
facet normal 4.179473478273584e-08 0.9999999999999991 -2.859358209991745e-12
  outer loop
    vertex 35920.058501745676 -38886.486621864744 133.10531469854683
    vertex 35910.2125667954 -38886.486596042996 134.0073259074905
    vertex 35920.23129613554 -38886.48662062155 133.33050473170132
  endloop
endfacet
facet normal 4.179473478273584e-08 0.9999999999999991 -2.859358209991745e-12
  outer loop
    vertex 35920.23129613554 -38886.48662062155 133.33050473170132
    vertex 35910.2125667954 -38886.486596042996 134.0073259074905
    vertex 35920.35029897315 -38886.48662410324 133.42181882066885
  endloop
endfacet
facet normal 4.179473478273584e-08 0.9999999999999991 -2.859358209991745e-12
  outer loop
    vertex 35920.35029897315 -38886.48662410324 133.42181882066885
    vertex 35910.2125667954 -38886.486596042996 134.0073259074905
    vertex 35920.645509697904 -38886.48661896411 133.648341976886
  endloop
endfacet
facet normal 4.179473478273584e-08 0.9999999999999991 -2.859358209991745e-12
  outer loop
    vertex 35920.645509697904 -38886.48661896411 133.648341976886
    vertex 35910.2125667954 -38886.486596042996 134.0073259074905
    vertex 35921.12787160769 -38886.48661804889 133.84814282188842
  endloop
endfacet
facet normal 4.179473478273584e-08 0.9999999999999991 -2.859358209991745e-12
  outer loop
    vertex 35921.12787160769 -38886.48661804889 133.84814282188842
    vertex 35910.2125667954 -38886.486596042996 134.0073259074905
    vertex 35921.64550969789 -38886.486617938266 133.91629116930812
  endloop
endfacet
facet normal 4.179473478273584e-08 0.9999999999999991 -2.859358209991745e-12
  outer loop
    vertex 35914.88597080313 -38886.48659604298 128.73421966848042
    vertex 35932.13567964061 -38886.486596042945 129.57071086698966
    vertex 35921.37470736057 -38886.48661043225 128.44643396831944
  endloop
endfacet
facet normal 4.179473478273584e-08 0.9999999999999991 -2.859358209991745e-12
  outer loop
    vertex 35932.13567964061 -38886.486596042945 129.57071086698966
    vertex 35914.88597080313 -38886.48659604298 128.73421966848042
    vertex 35910.2125667954 -38886.486596042996 129.82586609622663
  endloop
endfacet
facet normal 4.179473478273584e-08 0.9999999999999991 -2.859358209991745e-12
  outer loop
    vertex 35932.13567964061 -38886.486596042945 129.57071086698966
    vertex 35910.2125667954 -38886.486596042996 129.82586609622663
    vertex 35921.645509697875 -38886.48664177265 129.91629116945018
  endloop
endfacet
facet normal 4.179473478273584e-08 0.9999999999999991 -2.859358209991745e-12
  outer loop
    vertex 35932.13567964061 -38886.486596042945 129.57071086698966
    vertex 35921.645509697875 -38886.48664177265 129.91629116945018
    vertex 35946.43084876293 -38886.48659604291 131.91660264306535
  endloop
endfacet
facet normal 4.179473478273584e-08 0.9999999999999991 -2.859358209991745e-12
  outer loop
    vertex 35946.43084876293 -38886.48659604291 131.91660264306535
    vertex 35921.645509697875 -38886.48664177265 129.91629116945018
    vertex 35922.16314778807 -38886.486641662035 129.98443951686988
  endloop
endfacet
facet normal 4.179473478273584e-08 0.9999999999999991 -2.859358209991745e-12
  outer loop
    vertex 35946.43084876293 -38886.48659604291 131.91660264306535
    vertex 35922.16314778807 -38886.486641662035 129.98443951686988
    vertex 35922.64550969786 -38886.486640746814 130.1842403618723
  endloop
endfacet
facet normal 4.179473478273584e-08 0.9999999999999991 -2.859358209991745e-12
  outer loop
    vertex 35946.43084876293 -38886.48659604291 131.91660264306535
    vertex 35922.64550969786 -38886.486640746814 130.1842403618723
    vertex 35922.98755115601 -38886.4866375555 130.44669800370082
  endloop
endfacet
facet normal 4.179473478273584e-08 0.9999999999999991 -2.859358209991745e-12
  outer loop
    vertex 35946.43084876293 -38886.48659604291 131.91660264306535
    vertex 35922.98755115601 -38886.4866375555 130.44669800370082
    vertex 35923.05972326023 -38886.48663908937 130.502077607057
  endloop
endfacet
facet normal 4.179473478273584e-08 0.9999999999999991 -2.859358209991745e-12
  outer loop
    vertex 35946.43084876293 -38886.48659604291 131.91660264306535
    vertex 35923.05972326023 -38886.48663908937 130.502077607057
    vertex 35923.111983533534 -38886.486634231245 130.57018452117902
  endloop
endfacet
facet normal 4.179473478273584e-08 0.9999999999999991 -2.859358209991745e-12
  outer loop
    vertex 35946.43084876293 -38886.48659604291 131.91660264306535
    vertex 35923.111983533534 -38886.486634231245 130.57018452117902
    vertex 35923.377560505425 -38886.48663680265 130.91629116941556
  endloop
endfacet
facet normal 4.179473478273584e-08 0.9999999999999991 -2.859358209991745e-12
  outer loop
    vertex 35946.43084876293 -38886.48659604291 131.91660264306535
    vertex 35923.377560505425 -38886.48663680265 130.91629116941556
    vertex 35923.57736135043 -38886.48663404249 131.39865307919348
  endloop
endfacet
facet normal 4.179473478273584e-08 0.9999999999999991 -2.859358209991745e-12
  outer loop
    vertex 35946.43084876293 -38886.48659604291 131.91660264306535
    vertex 35923.57736135043 -38886.48663404249 131.39865307919348
    vertex 35923.645509697846 -38886.48663099699 131.9162911693802
  endloop
endfacet
facet normal 4.179473478273584e-08 0.9999999999999991 -2.859358209991745e-12
  outer loop
    vertex 35946.43084876293 -38886.48659604291 131.91660264306535
    vertex 35923.645509697846 -38886.48663099699 131.9162911693802
    vertex 35923.57736135043 -38886.486627873695 132.4339292595668
  endloop
endfacet
facet normal 4.179473478273584e-08 0.9999999999999991 -2.859358209991745e-12
  outer loop
    vertex 35946.43084876293 -38886.48659604291 131.91660264306535
    vertex 35923.57736135043 -38886.486627873695 132.4339292595668
    vertex 35932.13567964061 -38886.486596042945 134.26248556419864
  endloop
endfacet
facet normal 4.179473478273584e-08 0.9999999999999991 -2.859358209991745e-12
  outer loop
    vertex 35932.13567964061 -38886.486596042945 134.26248556419864
    vertex 35923.57736135043 -38886.486627873695 132.4339292595668
    vertex 35923.377560505425 -38886.48662488547 132.91629116934453
  endloop
endfacet
facet normal 4.179473478273584e-08 0.9999999999999991 -2.859358209991745e-12
  outer loop
    vertex 35932.13567964061 -38886.486596042945 134.26248556419864
    vertex 35923.377560505425 -38886.48662488547 132.91629116934453
    vertex 35923.11198353352 -38886.486626210346 133.26239781758622
  endloop
endfacet
facet normal 4.179473478273584e-08 0.9999999999999991 -2.859358209991745e-12
  outer loop
    vertex 35932.13567964061 -38886.486596042945 134.26248556419864
    vertex 35923.11198353352 -38886.486626210346 133.26239781758622
    vertex 35923.05972326023 -38886.48662223592 133.33050473170275
  endloop
endfacet
facet normal 4.179473478273584e-08 0.9999999999999991 -2.859358209991745e-12
  outer loop
    vertex 35932.13567964061 -38886.486596042945 134.26248556419864
    vertex 35923.05972326023 -38886.48662223592 133.33050473170275
    vertex 35922.987551155995 -38886.486621864744 133.38588433506618
  endloop
endfacet
facet normal 4.179473478273584e-08 0.9999999999999991 -2.859358209991745e-12
  outer loop
    vertex 35932.13567964061 -38886.486596042945 134.26248556419864
    vertex 35922.987551155995 -38886.486621864744 133.38588433506618
    vertex 35922.645509697875 -38886.48662010563 133.64834197688705
  endloop
endfacet
facet normal 4.179473478273584e-08 0.9999999999999991 -2.859358209991745e-12
  outer loop
    vertex 35932.13567964061 -38886.486596042945 134.26248556419864
    vertex 35922.645509697875 -38886.48662010563 133.64834197688705
    vertex 35922.16314778809 -38886.486618639785 133.84814282188896
  endloop
endfacet
facet normal 4.179473478273584e-08 0.9999999999999991 -2.859358209991745e-12
  outer loop
    vertex 35932.13567964061 -38886.486596042945 134.26248556419864
    vertex 35922.16314778809 -38886.486618639785 133.84814282188896
    vertex 35921.64550969789 -38886.486617938266 133.91629116930812
  endloop
endfacet
facet normal 4.179473478273584e-08 0.9999999999999991 -2.859358209991745e-12
  outer loop
    vertex 35932.13567964061 -38886.486596042945 134.26248556419864
    vertex 35921.64550969789 -38886.486617938266 133.91629116930812
    vertex 35910.2125667954 -38886.486596042996 134.0073259074905
  endloop
endfacet
facet normal 4.179473478273584e-08 0.9999999999999991 -2.859358209991745e-12
  outer loop
    vertex 35932.13567964061 -38886.486596042945 134.26248556419864
    vertex 35910.2125667954 -38886.486596042996 134.0073259074905
    vertex 35914.88597080313 -38886.48659604298 135.09897233523094
  endloop
endfacet
facet normal 4.179473478273584e-08 0.9999999999999991 -2.859358209991745e-12
  outer loop
    vertex 35932.13567964061 -38886.486596042945 134.26248556419864
    vertex 35914.88597080313 -38886.48659604298 135.09897233523094
    vertex 35921.37470736057 -38886.486610432265 135.38674475297836
  endloop
endfacet
facet normal 0.16193780240862365 -1.8757787455967512e-07 -0.9868009668373002
  outer loop
    vertex 35932.13567964061 -38886.486596042945 129.57071086698966
    vertex 35932.13567922278 -38943.0700865655 129.5707197219441
    vertex 35932.135679222665 -38896.48659604294 129.57071086702032
  endloop
endfacet
facet normal 0.16193780240862365 -1.8757787455967512e-07 -0.9868009668373002
  outer loop
    vertex 35932.13567922278 -38943.0700865655 129.5707197219441
    vertex 35932.13567964061 -38886.486596042945 129.57071086698966
    vertex 35946.430848344986 -38896.48659604291 131.91660264309598
  endloop
endfacet
facet normal 0.16193780240862365 -1.8757787455967512e-07 -0.9868009668373002
  outer loop
    vertex 35946.430848344986 -38896.48659604291 131.91660264309598
    vertex 35932.13567964061 -38886.486596042945 129.57071086698966
    vertex 35946.43084876293 -38886.48659604291 131.91660264306535
  endloop
endfacet
facet normal -1.1380630435968902e-07 -0.9999999999938052 3.518088907441932e-06
  outer loop
    vertex 35907.64547753144 -38943.0700644282 131.9166026430774
    vertex 35912.14809693642 -38943.07007190295 129.937596533416
    vertex 35914.856591997384 -38943.07007166113 130.0939471194361
  endloop
endfacet
facet normal -3.6062565329548615e-06 -0.9999999999836944 -4.427906859575377e-06
  outer loop
    vertex 35907.64547753144 -38943.0700644282 131.9166026430774
    vertex 35910.21256637757 -38943.0700644282 129.82586609623868
    vertex 35912.14809693642 -38943.07007190295 129.937596533416
  endloop
endfacet
facet normal 0.1619372071779367 7.678876951251609e-13 -0.9868010645167598
  outer loop
    vertex 35946.4308483451 -38943.070086565465 131.9166026430774
    vertex 35932.13567922278 -38943.0700865655 129.5707197219441
    vertex 35946.430848344986 -38896.48659604291 131.91660264309598
  endloop
endfacet
facet normal -0.9083315561538319 -1.931023623788037e-12 -0.4182508626352832
  outer loop
    vertex 35907.645477531325 -38896.486596042996 131.91660264309598
    vertex 35908.106293830286 -38896.486596042996 130.9158300845199
    vertex 35907.64547753144 -38943.0700644282 131.9166026430774
  endloop
endfacet
facet normal -0.9083315561538319 -1.931023623788037e-12 -0.4182508626352832
  outer loop
    vertex 35908.106293830286 -38896.486596042996 130.9158300845199
    vertex 35907.645477531325 -38896.486596042996 131.91660264309598
    vertex 35907.64547794928 -38886.486596043 131.91660264306535
  endloop
endfacet
facet normal -0.9083315561538319 -1.931023623788037e-12 -0.4182508626352832
  outer loop
    vertex 35908.106293830286 -38896.486596042996 130.9158300845199
    vertex 35907.64547794928 -38886.486596043 131.91660264306535
    vertex 35908.10629424823 -38886.486596042996 130.91583008448924
  endloop
endfacet
facet normal -2.450479134837561e-07 -0.9999999999994198 1.0490882000480499e-06
  outer loop
    vertex 35914.8859703853 -38943.07006442818 135.098972335243
    vertex 35910.21256637757 -38943.0700644282 134.0073391899161
    vertex 35912.14809139949 -38943.0700650197 133.89560907239414
  endloop
endfacet
facet normal 0.1619372071779368 -1.9833608763905672e-14 0.9868010645167598
  outer loop
    vertex 35946.4308483451 -38943.070086565465 131.9166026430774
    vertex 35932.13567964061 -38886.486596042945 134.26248556419864
    vertex 35932.135679222665 -38896.48659604294 134.2624855642293
  endloop
endfacet
facet normal 0.1619372071779368 -1.9833608763905672e-14 0.9868010645167598
  outer loop
    vertex 35932.13567964061 -38886.486596042945 134.26248556419864
    vertex 35946.4308483451 -38943.070086565465 131.9166026430774
    vertex 35946.430848344986 -38896.48659604291 131.91660264309598
  endloop
endfacet
facet normal 0.1619372071779368 -1.9833608763905672e-14 0.9868010645167598
  outer loop
    vertex 35946.43084876293 -38886.48659604291 131.91660264306535
    vertex 35932.13567964061 -38886.486596042945 134.26248556419864
    vertex 35946.430848344986 -38896.48659604291 131.91660264309598
  endloop
endfacet
facet normal 0.10391127058542636 2.8358794954495504e-07 0.9945865713175712
  outer loop
    vertex 35932.13567922278 -38943.07006442814 134.26248556421072
    vertex 35921.374706942624 -38896.486610432265 135.386744753009
    vertex 35921.37470694273 -38943.07006442818 135.38675803540397
  endloop
endfacet
facet normal -0.22746387304478943 -1.3670149633310463e-13 -0.9737865199618775
  outer loop
    vertex 35910.2125667954 -38886.486596042996 129.82586609622663
    vertex 35910.21256637757 -38943.0700644282 129.82586609623868
    vertex 35910.21256637746 -38896.486596042996 129.8258660962573
  endloop
endfacet
facet normal -0.22746387304478943 -1.3670149633310463e-13 -0.9737865199618775
  outer loop
    vertex 35910.21256637757 -38943.0700644282 129.82586609623868
    vertex 35910.2125667954 -38886.486596042996 129.82586609622663
    vertex 35914.885970385185 -38896.48659604298 128.73421966851106
  endloop
endfacet
facet normal -0.22746387304478943 -1.3670149633310463e-13 -0.9737865199618775
  outer loop
    vertex 35914.885970385185 -38896.48659604298 128.73421966851106
    vertex 35910.2125667954 -38886.486596042996 129.82586609622663
    vertex 35914.88597080313 -38886.48659604298 128.73421966848042
  endloop
endfacet
facet normal -0.2274638730447897 -9.140361002614046e-13 0.9737865199618774
  outer loop
    vertex 35914.8859703853 -38943.07006442818 135.098972335243
    vertex 35910.2125667954 -38886.486596042996 134.0073259074905
    vertex 35910.21256637746 -38896.486596042996 134.00732590752114
  endloop
endfacet
facet normal -0.2274638730447897 -9.140361002614046e-13 0.9737865199618774
  outer loop
    vertex 35910.2125667954 -38886.486596042996 134.0073259074905
    vertex 35914.8859703853 -38943.07006442818 135.098972335243
    vertex 35914.885970385185 -38896.48659604298 135.09897233526158
  endloop
endfacet
facet normal -0.2274638730447897 -9.140361002614046e-13 0.9737865199618774
  outer loop
    vertex 35914.88597080313 -38886.48659604298 135.09897233523094
    vertex 35910.2125667954 -38886.486596042996 134.0073259074905
    vertex 35914.885970385185 -38896.48659604298 135.09897233526158
  endloop
endfacet
facet normal 2.3096871637484635e-12 -1.0 -3.99131517522107e-13
  outer loop
    vertex 35910.21256637757 -38943.0700644282 134.0073391899161
    vertex 35908.106293830395 -38943.07006442821 132.91736634671113
    vertex 35907.64547753144 -38943.0700644282 131.9166026430774
  endloop
endfacet
facet normal 0.10391167537807812 -3.7811664261945367e-07 -0.9945865290259958
  outer loop
    vertex 35921.37470736057 -38886.48661043225 128.44643396831944
    vertex 35921.37470694273 -38943.07008656552 128.44645167822202
    vertex 35921.374706942624 -38896.48661043225 128.4464339683501
  endloop
endfacet
facet normal 0.10391167537807812 -3.7811664261945367e-07 -0.9945865290259958
  outer loop
    vertex 35921.37470694273 -38943.07008656552 128.44645167822202
    vertex 35921.37470736057 -38886.48661043225 128.44643396831944
    vertex 35932.135679222665 -38896.48659604294 129.57071086702032
  endloop
endfacet
facet normal 0.10391167537807812 -3.7811664261945367e-07 -0.9945865290259958
  outer loop
    vertex 35932.135679222665 -38896.48659604294 129.57071086702032
    vertex 35921.37470736057 -38886.48661043225 128.44643396831944
    vertex 35932.13567964061 -38886.486596042945 129.57071086698966
  endloop
endfacet
facet normal -0.22746124861192035 2.776565286202176e-07 0.9737871329915123
  outer loop
    vertex 35914.8859703853 -38943.07006442818 135.098972335243
    vertex 35910.21256637746 -38896.486596042996 134.00732590752114
    vertex 35910.21256637757 -38943.0700644282 134.0073391899161
  endloop
endfacet
facet normal 3.939782160396423e-08 -0.9999999999531795 9.676751285380851e-06
  outer loop
    vertex 35932.13567922278 -38943.07006442814 134.26248556421072
    vertex 35927.54057450124 -38943.07006886849 133.82232676835557
    vertex 35946.4308483451 -38943.070086565465 131.9166026430774
  endloop
endfacet
facet normal -1.090256457890482e-06 -0.9999999999993197 -4.148528538849988e-07
  outer loop
    vertex 35920.350266806694 -38943.07007563749 130.41107499179253
    vertex 35907.64547753144 -38943.0700644282 131.9166026430774
    vertex 35914.856591997384 -38943.07007166113 130.0939471194361
  endloop
endfacet
facet normal -1.090256457890482e-06 -0.9999999999993197 -4.148528538849988e-07
  outer loop
    vertex 35907.64547753144 -38943.0700644282 131.9166026430774
    vertex 35920.350266806694 -38943.07007563749 130.41107499179253
    vertex 35920.23126396909 -38943.07008003843 130.5023890807538
  endloop
endfacet
facet normal -1.090256457890482e-06 -0.9999999999993197 -4.148528538849988e-07
  outer loop
    vertex 35907.64547753144 -38943.0700644282 131.9166026430774
    vertex 35920.23126396909 -38943.07008003843 130.5023890807538
    vertex 35920.058469579206 -38943.0700771233 130.72757911392088
  endloop
endfacet
facet normal -5.347493447996839e-07 -0.9999999999947002 3.2114911465164685e-06
  outer loop
    vertex 35946.4308483451 -38943.070086565465 131.9166026430774
    vertex 35923.37752833898 -38943.07007936608 130.9166026431138
    vertex 35923.111951367086 -38943.07007679467 130.5704959948773
  endloop
endfacet
facet normal -5.347493447996839e-07 -0.9999999999947002 3.2114911465164685e-06
  outer loop
    vertex 35923.37752833898 -38943.07007936608 130.9166026431138
    vertex 35946.4308483451 -38943.070086565465 131.9166026430774
    vertex 35923.57732918398 -38943.070076605916 131.39896455289173
  endloop
endfacet
facet normal -5.347493447996839e-07 -0.9999999999947002 3.2114911465164685e-06
  outer loop
    vertex 35923.57732918398 -38943.070076605916 131.39896455289173
    vertex 35946.4308483451 -38943.070086565465 131.9166026430774
    vertex 35923.645477531405 -38943.07007356041 131.91660264307845
  endloop
endfacet
facet normal -5.892481684701189e-07 -0.99999999998698 5.068839365457753e-06
  outer loop
    vertex 35919.9134267239 -38943.07007738889 130.91660264311204
    vertex 35907.64547753144 -38943.0700644282 131.9166026430774
    vertex 35920.058469579206 -38943.0700771233 130.72757911392088
  endloop
endfacet
facet normal -5.892481684701189e-07 -0.99999999998698 5.068839365457753e-06
  outer loop
    vertex 35907.64547753144 -38943.0700644282 131.9166026430774
    vertex 35919.9134267239 -38943.07007738889 130.91660264311204
    vertex 35919.713625878896 -38943.07007440065 131.39896455288977
  endloop
endfacet
facet normal -5.892481684701189e-07 -0.99999999998698 5.068839365457753e-06
  outer loop
    vertex 35907.64547753144 -38943.0700644282 131.9166026430774
    vertex 35919.713625878896 -38943.07007440065 131.39896455288977
    vertex 35919.64547753148 -38943.07007127736 131.91660264307637
  endloop
endfacet
facet normal -2.853801693610415e-07 -0.9999999999998979 3.5040379720324876e-07
  outer loop
    vertex 35910.21256637757 -38943.0700644282 134.0073391899161
    vertex 35907.64547753144 -38943.0700644282 131.9166026430774
    vertex 35912.14809139949 -38943.0700650197 133.89560907239414
  endloop
endfacet
facet normal 1.1903033687750095e-07 -0.9999999999990439 -1.3778070378028741e-06
  outer loop
    vertex 35920.05846957923 -38943.07006442817 133.10562617224508
    vertex 35914.85658450757 -38943.070065847445 133.73925859908667
    vertex 35907.64547753144 -38943.0700644282 131.9166026430774
  endloop
endfacet
facet normal 1.1903033687750095e-07 -0.9999999999990439 -1.3778070378028741e-06
  outer loop
    vertex 35914.85658450757 -38943.070065847445 133.73925859908667
    vertex 35920.05846957923 -38943.07006442817 133.10562617224508
    vertex 35920.2312639691 -38943.070063184976 133.33081620539957
  endloop
endfacet
facet normal 1.1903033687750095e-07 -0.9999999999990439 -1.3778070378028741e-06
  outer loop
    vertex 35914.85658450757 -38943.070065847445 133.73925859908667
    vertex 35920.2312639691 -38943.070063184976 133.33081620539957
    vertex 35920.35026680671 -38943.07006666667 133.4221302943671
  endloop
endfacet
facet normal -2.853826535806671e-07 -0.9999999999998979 3.504094492726766e-07
  outer loop
    vertex 35912.14809139949 -38943.0700650197 133.89560907239414
    vertex 35907.64547753144 -38943.0700644282 131.9166026430774
    vertex 35914.85658450757 -38943.070065847445 133.73925859908667
  endloop
endfacet
facet normal -5.991975027023264e-07 -0.9999999999926397 3.7896749790318424e-06
  outer loop
    vertex 35946.4308483451 -38943.070086565465 131.9166026430774
    vertex 35923.57732918399 -38943.07007043712 132.43424073326506
    vertex 35923.645477531405 -38943.07007356041 131.91660264307845
  endloop
endfacet
facet normal -5.991975027023264e-07 -0.9999999999926397 3.7896749790318424e-06
  outer loop
    vertex 35923.57732918399 -38943.07007043712 132.43424073326506
    vertex 35946.4308483451 -38943.070086565465 131.9166026430774
    vertex 35923.377528338984 -38943.07006744889 132.91660264304278
  endloop
endfacet
facet normal -5.991975027023264e-07 -0.9999999999926397 3.7896749790318424e-06
  outer loop
    vertex 35923.377528338984 -38943.07006744889 132.91660264304278
    vertex 35946.4308483451 -38943.070086565465 131.9166026430774
    vertex 35923.11195136708 -38943.07006877377 133.26270929128447
  endloop
endfacet
facet normal 1.1903033687750095e-07 -0.9999999999990439 -1.3778070378028741e-06
  outer loop
    vertex 35920.05846957923 -38943.07006442817 133.10562617224508
    vertex 35914.85658450757 -38943.070065847445 133.73925859908667
    vertex 35907.64547753144 -38943.0700644282 131.9166026430774
  endloop
endfacet
facet normal 1.1903033687750095e-07 -0.9999999999990439 -1.3778070378028741e-06
  outer loop
    vertex 35914.85658450757 -38943.070065847445 133.73925859908667
    vertex 35920.05846957923 -38943.07006442817 133.10562617224508
    vertex 35920.2312639691 -38943.070063184976 133.33081620539957
  endloop
endfacet
facet normal 1.1903033687750095e-07 -0.9999999999990439 -1.3778070378028741e-06
  outer loop
    vertex 35914.85658450757 -38943.070065847445 133.73925859908667
    vertex 35920.2312639691 -38943.070063184976 133.33081620539957
    vertex 35920.35026680671 -38943.07006666667 133.4221302943671
  endloop
endfacet
facet normal 2.5685747435766176e-07 -0.9999999999930318 3.724330933326959e-06
  outer loop
    vertex 35932.13567922278 -38943.07006442814 134.26248556421072
    vertex 35918.709869974824 -38943.07006606006 134.71320250677297
    vertex 35927.54057450124 -38943.07006886849 133.82232676835557
  endloop
endfacet
facet normal 2.5685747435766176e-07 -0.9999999999930318 3.724330933326959e-06
  outer loop
    vertex 35918.709869974824 -38943.07006606006 134.71320250677297
    vertex 35932.13567922278 -38943.07006442814 134.26248556421072
    vertex 35921.37470694273 -38943.07006442818 135.38675803540397
  endloop
endfacet
facet normal 1.1903033687750098e-07 -0.9999999999990439 -1.3778070378028743e-06
  outer loop
    vertex 35920.05846957923 -38943.07006442817 133.10562617224508
    vertex 35914.85658450757 -38943.070065847445 133.73925859908667
    vertex 35907.64547753144 -38943.0700644282 131.9166026430774
  endloop
endfacet
facet normal 1.1903033687750098e-07 -0.9999999999990439 -1.3778070378028743e-06
  outer loop
    vertex 35914.85658450757 -38943.070065847445 133.73925859908667
    vertex 35920.05846957923 -38943.07006442817 133.10562617224508
    vertex 35920.2312639691 -38943.070063184976 133.33081620539957
  endloop
endfacet
facet normal 1.1903033687750098e-07 -0.9999999999990439 -1.3778070378028743e-06
  outer loop
    vertex 35914.85658450757 -38943.070065847445 133.73925859908667
    vertex 35920.2312639691 -38943.070063184976 133.33081620539957
    vertex 35920.35026680671 -38943.07006666667 133.4221302943671
  endloop
endfacet
facet normal -3.87439241687034e-07 -0.9999999999391627 1.1023822926048397e-05
  outer loop
    vertex 35918.70986906251 -38943.0700835188 129.1200065780917
    vertex 35912.14809693642 -38943.07007190295 129.937596533416
    vertex 35914.8859703853 -38943.070086565545 128.734237378383
  endloop
endfacet
facet normal -3.87439241687034e-07 -0.9999999999391627 1.1023822926048397e-05
  outer loop
    vertex 35912.14809693642 -38943.07007190295 129.937596533416
    vertex 35918.70986906251 -38943.0700835188 129.1200065780917
    vertex 35914.856591997384 -38943.07007166113 130.0939471194361
  endloop
endfacet
facet normal -6.441761543912822e-07 -0.9999999999836673 5.678959381733014e-06
  outer loop
    vertex 35946.4308483451 -38943.070086565465 131.9166026430774
    vertex 35922.98751898956 -38943.07008011892 130.44700947739906
    vertex 35927.54056102049 -38943.070084946456 130.01087980912817
  endloop
endfacet
facet normal -6.441761543912822e-07 -0.9999999999836673 5.678959381733014e-06
  outer loop
    vertex 35922.98751898956 -38943.07008011892 130.44700947739906
    vertex 35946.4308483451 -38943.070086565465 131.9166026430774
    vertex 35923.05969109378 -38943.0700816528 130.50238908075525
  endloop
endfacet
facet normal -6.441761543912822e-07 -0.9999999999836673 5.678959381733014e-06
  outer loop
    vertex 35923.05969109378 -38943.0700816528 130.50238908075525
    vertex 35946.4308483451 -38943.070086565465 131.9166026430774
    vertex 35923.111951367086 -38943.07007679467 130.5704959948773
  endloop
endfacet
facet normal -4.035255812824407e-06 -0.9999999999873472 3.003740566701116e-06
  outer loop
    vertex 35912.14809693642 -38943.07007190295 129.937596533416
    vertex 35910.21256637757 -38943.0700644282 129.82586609623868
    vertex 35914.8859703853 -38943.070086565545 128.734237378383
  endloop
endfacet
facet normal -1.090256457890482e-06 -0.9999999999993197 -4.148528538849988e-07
  outer loop
    vertex 35920.350266806694 -38943.07007563749 130.41107499179253
    vertex 35907.64547753144 -38943.0700644282 131.9166026430774
    vertex 35914.856591997384 -38943.07007166113 130.0939471194361
  endloop
endfacet
facet normal -1.090256457890482e-06 -0.9999999999993197 -4.148528538849988e-07
  outer loop
    vertex 35907.64547753144 -38943.0700644282 131.9166026430774
    vertex 35920.350266806694 -38943.07007563749 130.41107499179253
    vertex 35920.23126396909 -38943.07008003843 130.5023890807538
  endloop
endfacet
facet normal -1.090256457890482e-06 -0.9999999999993197 -4.148528538849988e-07
  outer loop
    vertex 35907.64547753144 -38943.0700644282 131.9166026430774
    vertex 35920.23126396909 -38943.07008003843 130.5023890807538
    vertex 35920.058469579206 -38943.0700771233 130.72757911392088
  endloop
endfacet
facet normal -1.0902564578904822e-06 -0.9999999999993197 -4.14852853885002e-07
  outer loop
    vertex 35920.350266806694 -38943.07007563749 130.41107499179253
    vertex 35907.64547753144 -38943.0700644282 131.9166026430774
    vertex 35914.856591997384 -38943.07007166113 130.0939471194361
  endloop
endfacet
facet normal -1.0902564578904822e-06 -0.9999999999993197 -4.14852853885002e-07
  outer loop
    vertex 35907.64547753144 -38943.0700644282 131.9166026430774
    vertex 35920.350266806694 -38943.07007563749 130.41107499179253
    vertex 35920.23126396909 -38943.07008003843 130.5023890807538
  endloop
endfacet
facet normal -1.0902564578904822e-06 -0.9999999999993197 -4.14852853885002e-07
  outer loop
    vertex 35907.64547753144 -38943.0700644282 131.9166026430774
    vertex 35920.23126396909 -38943.07008003843 130.5023890807538
    vertex 35920.058469579206 -38943.0700771233 130.72757911392088
  endloop
endfacet
facet normal -1.0860113979490263e-06 -0.99999999997837 6.4869818659757376e-06
  outer loop
    vertex 35927.54056102049 -38943.070084946456 130.01087980912817
    vertex 35921.645477531434 -38943.070084336076 129.91660264314842
    vertex 35918.70986906251 -38943.0700835188 129.1200065780917
  endloop
endfacet
facet normal -1.0860113979490263e-06 -0.99999999997837 6.4869818659757376e-06
  outer loop
    vertex 35921.645477531434 -38943.070084336076 129.91660264314842
    vertex 35927.54056102049 -38943.070084946456 130.01087980912817
    vertex 35922.16311562163 -38943.07008422546 129.98475099056813
  endloop
endfacet
facet normal -1.0860113979490263e-06 -0.99999999997837 6.4869818659757376e-06
  outer loop
    vertex 35922.16311562163 -38943.07008422546 129.98475099056813
    vertex 35927.54056102049 -38943.070084946456 130.01087980912817
    vertex 35922.64547753142 -38943.070083310246 130.18455183557055
  endloop
endfacet
facet normal -1.0860113979490263e-06 -0.99999999997837 6.4869818659757376e-06
  outer loop
    vertex 35922.64547753142 -38943.070083310246 130.18455183557055
    vertex 35927.54056102049 -38943.070084946456 130.01087980912817
    vertex 35922.98751898956 -38943.07008011892 130.44700947739906
  endloop
endfacet
facet normal -1.0860113979490263e-06 -0.99999999997837 6.4869818659757376e-06
  outer loop
    vertex 35921.645477531434 -38943.070084336076 129.91660264314842
    vertex 35914.856591997384 -38943.07007166113 130.0939471194361
    vertex 35918.70986906251 -38943.0700835188 129.1200065780917
  endloop
endfacet
facet normal -1.0860113979490263e-06 -0.99999999997837 6.4869818659757376e-06
  outer loop
    vertex 35914.856591997384 -38943.07007166113 130.0939471194361
    vertex 35921.645477531434 -38943.070084336076 129.91660264314842
    vertex 35921.12783944124 -38943.07008363456 129.9847509905676
  endloop
endfacet
facet normal -1.0860113979490263e-06 -0.99999999997837 6.4869818659757376e-06
  outer loop
    vertex 35914.856591997384 -38943.07007166113 130.0939471194361
    vertex 35921.12783944124 -38943.07008363456 129.9847509905676
    vertex 35920.645477531456 -38943.07008216871 130.18455183556952
  endloop
endfacet
facet normal -1.0860113979490263e-06 -0.99999999997837 6.4869818659757376e-06
  outer loop
    vertex 35914.856591997384 -38943.07007166113 130.0939471194361
    vertex 35920.645477531456 -38943.07008216871 130.18455183556952
    vertex 35920.350266806694 -38943.07007563749 130.41107499179253
  endloop
endfacet
facet normal -2.224777067774675e-07 -0.9999999999990563 1.355733087711787e-06
  outer loop
    vertex 35946.4308483451 -38943.070086565465 131.9166026430774
    vertex 35927.54056102049 -38943.070084946456 130.01087980912817
    vertex 35932.13567922278 -38943.0700865655 129.5707197219441
  endloop
endfacet
facet normal 2.4331496547756177e-07 -0.9999999999849225 5.48598969548538e-06
  outer loop
    vertex 35918.70986906251 -38943.0700835188 129.1200065780917
    vertex 35914.8859703853 -38943.070086565545 128.734237378383
    vertex 35921.37470694273 -38943.07008656552 128.44645167822202
  endloop
endfacet
facet normal -2.983499217481514e-07 -0.9999999999973808 2.269319250963696e-06
  outer loop
    vertex 35932.13567922278 -38943.0700865655 129.5707197219441
    vertex 35918.70986906251 -38943.0700835188 129.1200065780917
    vertex 35921.37470694273 -38943.07008656552 128.44645167822202
  endloop
endfacet
facet normal -2.983499217481514e-07 -0.9999999999973808 2.269319250963696e-06
  outer loop
    vertex 35918.70986906251 -38943.0700835188 129.1200065780917
    vertex 35932.13567922278 -38943.0700865655 129.5707197219441
    vertex 35927.54056102049 -38943.070084946456 130.01087980912817
  endloop
endfacet
facet normal -1.0860113979490263e-06 -0.99999999997837 6.486981865975737e-06
  outer loop
    vertex 35927.54056102049 -38943.070084946456 130.01087980912817
    vertex 35921.645477531434 -38943.070084336076 129.91660264314842
    vertex 35918.70986906251 -38943.0700835188 129.1200065780917
  endloop
endfacet
facet normal -1.0860113979490263e-06 -0.99999999997837 6.486981865975737e-06
  outer loop
    vertex 35921.645477531434 -38943.070084336076 129.91660264314842
    vertex 35927.54056102049 -38943.070084946456 130.01087980912817
    vertex 35922.16311562163 -38943.07008422546 129.98475099056813
  endloop
endfacet
facet normal -1.0860113979490263e-06 -0.99999999997837 6.486981865975737e-06
  outer loop
    vertex 35922.16311562163 -38943.07008422546 129.98475099056813
    vertex 35927.54056102049 -38943.070084946456 130.01087980912817
    vertex 35922.64547753142 -38943.070083310246 130.18455183557055
  endloop
endfacet
facet normal -1.0860113979490263e-06 -0.99999999997837 6.486981865975737e-06
  outer loop
    vertex 35922.64547753142 -38943.070083310246 130.18455183557055
    vertex 35927.54056102049 -38943.070084946456 130.01087980912817
    vertex 35922.98751898956 -38943.07008011892 130.44700947739906
  endloop
endfacet
facet normal -1.0860113979490263e-06 -0.99999999997837 6.486981865975737e-06
  outer loop
    vertex 35921.645477531434 -38943.070084336076 129.91660264314842
    vertex 35914.856591997384 -38943.07007166113 130.0939471194361
    vertex 35918.70986906251 -38943.0700835188 129.1200065780917
  endloop
endfacet
facet normal -1.0860113979490263e-06 -0.99999999997837 6.486981865975737e-06
  outer loop
    vertex 35914.856591997384 -38943.07007166113 130.0939471194361
    vertex 35921.645477531434 -38943.070084336076 129.91660264314842
    vertex 35921.12783944124 -38943.07008363456 129.9847509905676
  endloop
endfacet
facet normal -1.0860113979490263e-06 -0.99999999997837 6.486981865975737e-06
  outer loop
    vertex 35914.856591997384 -38943.07007166113 130.0939471194361
    vertex 35921.12783944124 -38943.07008363456 129.9847509905676
    vertex 35920.645477531456 -38943.07008216871 130.18455183556952
  endloop
endfacet
facet normal -1.0860113979490263e-06 -0.99999999997837 6.486981865975737e-06
  outer loop
    vertex 35914.856591997384 -38943.07007166113 130.0939471194361
    vertex 35920.645477531456 -38943.07008216871 130.18455183556952
    vertex 35920.350266806694 -38943.07007563749 130.41107499179253
  endloop
endfacet
facet normal -2.952275473246822e-07 -0.9999999999993807 1.0730211049866825e-06
  outer loop
    vertex 35918.709869974824 -38943.07006606006 134.71320250677297
    vertex 35912.14809139949 -38943.0700650197 133.89560907239414
    vertex 35914.85658450757 -38943.070065847445 133.73925859908667
  endloop
endfacet
facet normal -2.952275473246822e-07 -0.9999999999993807 1.0730211049866825e-06
  outer loop
    vertex 35912.14809139949 -38943.0700650197 133.89560907239414
    vertex 35918.709869974824 -38943.07006606006 134.71320250677297
    vertex 35914.8859703853 -38943.07006442818 135.098972335243
  endloop
endfacet
facet normal -1.0087030093778094e-07 -0.9999999999997882 -6.432893794142741e-07
  outer loop
    vertex 35927.54057450124 -38943.07006886849 133.82232676835557
    vertex 35922.64547753143 -38943.07006266906 133.6486534505853
    vertex 35922.98751898955 -38943.07006442817 133.38619580876443
  endloop
endfacet
facet normal -1.0087030093778094e-07 -0.9999999999997882 -6.432893794142741e-07
  outer loop
    vertex 35922.64547753143 -38943.07006266906 133.6486534505853
    vertex 35927.54057450124 -38943.07006886849 133.82232676835557
    vertex 35922.163115621646 -38943.070061203216 133.8484542955872
  endloop
endfacet
facet normal -1.0087030093778094e-07 -0.9999999999997882 -6.432893794142741e-07
  outer loop
    vertex 35922.163115621646 -38943.070061203216 133.8484542955872
    vertex 35927.54057450124 -38943.07006886849 133.82232676835557
    vertex 35918.709869974824 -38943.07006606006 134.71320250677297
  endloop
endfacet
facet normal -1.0087030093778094e-07 -0.9999999999997882 -6.432893794142741e-07
  outer loop
    vertex 35922.163115621646 -38943.070061203216 133.8484542955872
    vertex 35918.709869974824 -38943.07006606006 134.71320250677297
    vertex 35921.64547753145 -38943.0700605017 133.91660264300637
  endloop
endfacet
facet normal -1.0087030093778094e-07 -0.9999999999997882 -6.432893794142741e-07
  outer loop
    vertex 35920.64547753146 -38943.070061527535 133.64865345058425
    vertex 35914.85658450757 -38943.070065847445 133.73925859908667
    vertex 35920.35026680671 -38943.07006666667 133.4221302943671
  endloop
endfacet
facet normal -1.0087030093778094e-07 -0.9999999999997882 -6.432893794142741e-07
  outer loop
    vertex 35914.85658450757 -38943.070065847445 133.73925859908667
    vertex 35920.64547753146 -38943.070061527535 133.64865345058425
    vertex 35921.12783944125 -38943.070060612314 133.84845429558666
  endloop
endfacet
facet normal -1.0087030093778094e-07 -0.9999999999997882 -6.432893794142741e-07
  outer loop
    vertex 35914.85658450757 -38943.070065847445 133.73925859908667
    vertex 35921.12783944125 -38943.070060612314 133.84845429558666
    vertex 35918.709869974824 -38943.07006606006 134.71320250677297
  endloop
endfacet
facet normal -1.0087030093778094e-07 -0.9999999999997882 -6.432893794142741e-07
  outer loop
    vertex 35918.709869974824 -38943.07006606006 134.71320250677297
    vertex 35921.12783944125 -38943.070060612314 133.84845429558666
    vertex 35921.64547753145 -38943.0700605017 133.91660264300637
  endloop
endfacet
facet normal -7.632763386739562e-07 -0.9999999999978608 1.9224109990643053e-06
  outer loop
    vertex 35927.54057450124 -38943.07006886849 133.82232676835557
    vertex 35923.11195136708 -38943.07006877377 133.26270929128447
    vertex 35946.4308483451 -38943.070086565465 131.9166026430774
  endloop
endfacet
facet normal -7.632763386739562e-07 -0.9999999999978608 1.9224109990643053e-06
  outer loop
    vertex 35923.11195136708 -38943.07006877377 133.26270929128447
    vertex 35927.54057450124 -38943.07006886849 133.82232676835557
    vertex 35923.05969109379 -38943.07006479935 133.330816205401
  endloop
endfacet
facet normal -7.632763386739562e-07 -0.9999999999978608 1.9224109990643053e-06
  outer loop
    vertex 35923.05969109379 -38943.07006479935 133.330816205401
    vertex 35927.54057450124 -38943.07006886849 133.82232676835557
    vertex 35922.98751898955 -38943.07006442817 133.38619580876443
  endloop
endfacet
facet normal 2.5685747435766176e-07 -0.9999999999930318 3.724330933326959e-06
  outer loop
    vertex 35932.13567922278 -38943.07006442814 134.26248556421072
    vertex 35918.709869974824 -38943.07006606006 134.71320250677297
    vertex 35927.54057450124 -38943.07006886849 133.82232676835557
  endloop
endfacet
facet normal 2.5685747435766176e-07 -0.9999999999930318 3.724330933326959e-06
  outer loop
    vertex 35918.709869974824 -38943.07006606006 134.71320250677297
    vertex 35932.13567922278 -38943.07006442814 134.26248556421072
    vertex 35921.37470694273 -38943.07006442818 135.38675803540397
  endloop
endfacet
facet normal -7.632763386739558e-07 -0.9999999999978608 1.9224109990643036e-06
  outer loop
    vertex 35927.54057450124 -38943.07006886849 133.82232676835557
    vertex 35923.11195136708 -38943.07006877377 133.26270929128447
    vertex 35946.4308483451 -38943.070086565465 131.9166026430774
  endloop
endfacet
facet normal -7.632763386739558e-07 -0.9999999999978608 1.9224109990643036e-06
  outer loop
    vertex 35923.11195136708 -38943.07006877377 133.26270929128447
    vertex 35927.54057450124 -38943.07006886849 133.82232676835557
    vertex 35923.05969109379 -38943.07006479935 133.330816205401
  endloop
endfacet
facet normal -7.632763386739558e-07 -0.9999999999978608 1.9224109990643036e-06
  outer loop
    vertex 35923.05969109379 -38943.07006479935 133.330816205401
    vertex 35927.54057450124 -38943.07006886849 133.82232676835557
    vertex 35922.98751898955 -38943.07006442817 133.38619580876443
  endloop
endfacet
facet normal 0.9914448613728002 -1.2821192243935502e-06 -0.1305261922214282
  outer loop
    vertex 35919.64550969792 -38886.48662871393 131.91629116937813
    vertex 35919.7136258789 -38943.07006823186 132.43424073326307
    vertex 35919.64547753148 -38943.07007127736 131.91660264307637
  endloop
endfacet
facet normal 0.9914448613728002 -1.2821192243935502e-06 -0.1305261922214282
  outer loop
    vertex 35919.7136258789 -38943.07006823186 132.43424073326307
    vertex 35919.64550969792 -38886.48662871393 131.91629116937813
    vertex 35919.713658045344 -38886.48662566843 132.43392925956482
  endloop
endfacet
facet normal 0.9914448613741765 1.5489040190371896e-07 0.13052619221717934
  outer loop
    vertex 35919.71365804534 -38886.48663183723 131.3986530791915
    vertex 35919.64547753148 -38943.07007127736 131.91660264307637
    vertex 35919.713625878896 -38943.07007440065 131.39896455288977
  endloop
endfacet
facet normal 0.9914448613741765 1.5489040190371896e-07 0.13052619221717934
  outer loop
    vertex 35919.64547753148 -38943.07007127736 131.91660264307637
    vertex 35919.71365804534 -38886.48663183723 131.3986530791915
    vertex 35919.64550969792 -38886.48662871393 131.91629116937813
  endloop
endfacet
facet normal 0.9238795325130092 1.5813445032618293e-06 0.38268343235766406
  outer loop
    vertex 35919.91345889034 -38886.486634825465 130.9162911694138
    vertex 35919.713625878896 -38943.07007440065 131.39896455288977
    vertex 35919.9134267239 -38943.07007738889 130.91660264311204
  endloop
endfacet
facet normal 0.9238795325130092 1.5813445032618293e-06 0.38268343235766406
  outer loop
    vertex 35919.713625878896 -38943.07007440065 131.39896455288977
    vertex 35919.91345889034 -38886.486634825465 130.9162911694138
    vertex 35919.71365804534 -38886.48663183723 131.3986530791915
  endloop
endfacet
facet normal 0.7933533402894678 2.9000325900584966e-06 0.6087614290041163
  outer loop
    vertex 35920.058469579206 -38943.0700771233 130.72757911392088
    vertex 35919.91345889034 -38886.486634825465 130.9162911694138
    vertex 35919.9134267239 -38943.07007738889 130.91660264311204
  endloop
endfacet
facet normal 0.7933533402894678 2.9000325900584966e-06 0.6087614290041163
  outer loop
    vertex 35919.91345889034 -38886.486634825465 130.9162911694138
    vertex 35920.058469579206 -38943.0700771233 130.72757911392088
    vertex 35920.058501745654 -38886.48663455987 130.72726764022264
  endloop
endfacet
facet normal 0.7933533402858314 2.9000325900866524e-06 0.6087614290088555
  outer loop
    vertex 35920.231296135535 -38886.486637475005 130.50207760705555
    vertex 35920.058469579206 -38943.0700771233 130.72757911392088
    vertex 35920.23126396909 -38943.07008003843 130.5023890807538
  endloop
endfacet
facet normal 0.7933533402858314 2.9000325900866524e-06 0.6087614290088555
  outer loop
    vertex 35920.058469579206 -38943.0700771233 130.72757911392088
    vertex 35920.231296135535 -38886.486637475005 130.50207760705555
    vertex 35920.058501745654 -38886.48663455987 130.72726764022264
  endloop
endfacet
facet normal 0.6087614290042211 4.0210882483437675e-06 0.7933533402844973
  outer loop
    vertex 35920.350266806694 -38943.07007563749 130.41107499179253
    vertex 35920.231296135535 -38886.486637475005 130.50207760705555
    vertex 35920.23126396909 -38943.07008003843 130.5023890807538
  endloop
endfacet
facet normal 0.6087614290042211 4.0210882483437675e-06 0.7933533402844973
  outer loop
    vertex 35920.231296135535 -38886.486637475005 130.50207760705555
    vertex 35920.350266806694 -38943.07007563749 130.41107499179253
    vertex 35920.350298973135 -38886.48663307407 130.41076351809429
  endloop
endfacet
facet normal 0.6087614290184264 4.0210882482756915e-06 0.7933533402735975
  outer loop
    vertex 35920.645477531456 -38943.07008216871 130.18455183556952
    vertex 35920.350298973135 -38886.48663307407 130.41076351809429
    vertex 35920.350266806694 -38943.07007563749 130.41107499179253
  endloop
endfacet
facet normal 0.6087614290184264 4.0210882482756915e-06 0.7933533402735975
  outer loop
    vertex 35920.350298973135 -38886.48663307407 130.41076351809429
    vertex 35920.645477531456 -38943.07008216871 130.18455183556952
    vertex 35920.6455096979 -38886.48663960529 130.18424036187128
  endloop
endfacet
facet normal 0.38268343236795965 4.868113387630528e-06 0.9238795324972725
  outer loop
    vertex 35921.12783944124 -38943.07008363456 129.9847509905676
    vertex 35920.6455096979 -38886.48663960529 130.18424036187128
    vertex 35920.645477531456 -38943.07008216871 130.18455183556952
  endloop
endfacet
facet normal 0.38268343236795965 4.868113387630528e-06 0.9238795324972725
  outer loop
    vertex 35920.6455096979 -38886.48663960529 130.18424036187128
    vertex 35921.12783944124 -38943.07008363456 129.9847509905676
    vertex 35921.127871607685 -38886.48664107113 129.98443951686934
  endloop
endfacet
facet normal 0.13052619222212852 5.383384644522532e-06 0.9914448613589217
  outer loop
    vertex 35921.645477531434 -38943.070084336076 129.91660264314842
    vertex 35921.127871607685 -38886.48664107113 129.98443951686934
    vertex 35921.12783944124 -38943.07008363456 129.9847509905676
  endloop
endfacet
facet normal 0.13052619222212852 5.383384644522532e-06 0.9914448613589217
  outer loop
    vertex 35921.127871607685 -38886.48664107113 129.98443951686934
    vertex 35921.645477531434 -38943.070084336076 129.91660264314842
    vertex 35921.645509697875 -38886.48664177265 129.91629116945018
  endloop
endfacet
facet normal -0.1305261922170327 5.531787134351446e-06 0.9914448613587755
  outer loop
    vertex 35922.16311562163 -38943.07008422546 129.98475099056813
    vertex 35921.645509697875 -38886.48664177265 129.91629116945018
    vertex 35921.645477531434 -38943.070084336076 129.91660264314842
  endloop
endfacet
facet normal -0.1305261922170327 5.531787134351446e-06 0.9914448613587755
  outer loop
    vertex 35921.645509697875 -38886.48664177265 129.91629116945018
    vertex 35922.16311562163 -38943.07008422546 129.98475099056813
    vertex 35922.16314778807 -38886.486641662035 129.98443951686988
  endloop
endfacet
facet normal -0.38268343236388563 5.303207472683122e-06 0.9238795324965648
  outer loop
    vertex 35922.64547753142 -38943.070083310246 130.18455183557055
    vertex 35922.16314778807 -38886.486641662035 129.98443951686988
    vertex 35922.16311562163 -38943.07008422546 129.98475099056813
  endloop
endfacet
facet normal -0.38268343236388563 5.303207472683122e-06 0.9238795324965648
  outer loop
    vertex 35922.16314778807 -38886.486641662035 129.98443951686988
    vertex 35922.64547753142 -38943.070083310246 130.18455183557055
    vertex 35922.64550969786 -38886.486640746814 130.1842403618723
  endloop
endfacet
facet normal -0.6087614290069033 4.713222985719141e-06 0.7933533402786292
  outer loop
    vertex 35922.98751898956 -38943.07008011892 130.44700947739906
    vertex 35922.64550969786 -38886.486640746814 130.1842403618723
    vertex 35922.64547753142 -38943.070083310246 130.18455183557055
  endloop
endfacet
facet normal -0.6087614290069033 4.713222985719141e-06 0.7933533402786292
  outer loop
    vertex 35922.64550969786 -38886.486640746814 130.1842403618723
    vertex 35922.98751898956 -38943.07008011892 130.44700947739906
    vertex 35922.98755115601 -38886.4866375555 130.44669800370082
  endloop
endfacet
facet normal -0.608761429004625 4.71322298572747e-06 0.7933533402803775
  outer loop
    vertex 35923.05969109378 -38943.0700816528 130.50238908075525
    vertex 35922.98755115601 -38886.4866375555 130.44669800370082
    vertex 35922.98751898956 -38943.07008011892 130.44700947739906
  endloop
endfacet
facet normal -0.608761429004625 4.71322298572747e-06 0.7933533402803775
  outer loop
    vertex 35922.98755115601 -38886.4866375555 130.44669800370082
    vertex 35923.05969109378 -38943.0700816528 130.50238908075525
    vertex 35923.05972326023 -38886.48663908937 130.502077607057
  endloop
endfacet
facet normal -0.7933533402419795 3.8020401415619814e-06 0.6087614290610391
  outer loop
    vertex 35923.111951367086 -38943.07007679467 130.5704959948773
    vertex 35923.05972326023 -38886.48663908937 130.502077607057
    vertex 35923.05969109378 -38943.0700816528 130.50238908075525
  endloop
endfacet
facet normal -0.7933533402419795 3.8020401415619814e-06 0.6087614290610391
  outer loop
    vertex 35923.05972326023 -38886.48663908937 130.502077607057
    vertex 35923.111951367086 -38943.07007679467 130.5704959948773
    vertex 35923.111983533534 -38886.486634231245 130.57018452117902
  endloop
endfacet
facet normal -0.7933533402952548 3.8020401412100777e-06 0.6087614289916092
  outer loop
    vertex 35923.377560505425 -38886.48663680265 130.91629116941556
    vertex 35923.111951367086 -38943.07007679467 130.5704959948773
    vertex 35923.37752833898 -38943.07007936608 130.9166026431138
  endloop
endfacet
facet normal -0.7933533402952548 3.8020401412100777e-06 0.6087614289916092
  outer loop
    vertex 35923.111951367086 -38943.07007679467 130.5704959948773
    vertex 35923.377560505425 -38886.48663680265 130.91629116941556
    vertex 35923.111983533534 -38886.486634231245 130.57018452117902
  endloop
endfacet
facet normal -0.923879532512889 2.6317545442828923e-06 0.38268343235217234
  outer loop
    vertex 35923.57732918398 -38943.070076605916 131.39896455289173
    vertex 35923.377560505425 -38886.48663680265 130.91629116941556
    vertex 35923.37752833898 -38943.07007936608 130.9166026431138
  endloop
endfacet
facet normal -0.923879532512889 2.6317545442828923e-06 0.38268343235217234
  outer loop
    vertex 35923.377560505425 -38886.48663680265 130.91629116941556
    vertex 35923.57732918398 -38943.070076605916 131.39896455289173
    vertex 35923.57736135043 -38886.48663404249 131.39865307919348
  endloop
endfacet
facet normal -0.9914448613728002 1.2821192243935502e-06 0.1305261922214282
  outer loop
    vertex 35923.645477531405 -38943.07007356041 131.91660264307845
    vertex 35923.57736135043 -38886.48663404249 131.39865307919348
    vertex 35923.57732918398 -38943.070076605916 131.39896455289173
  endloop
endfacet
facet normal -0.9914448613728002 1.2821192243935502e-06 0.1305261922214282
  outer loop
    vertex 35923.57736135043 -38886.48663404249 131.39865307919348
    vertex 35923.645477531405 -38943.07007356041 131.91660264307845
    vertex 35923.645509697846 -38886.48663099699 131.9162911693802
  endloop
endfacet
facet normal -0.9914448613741765 -1.5489040190371896e-07 -0.13052619221717934
  outer loop
    vertex 35923.57732918399 -38943.07007043712 132.43424073326506
    vertex 35923.645509697846 -38886.48663099699 131.9162911693802
    vertex 35923.645477531405 -38943.07007356041 131.91660264307845
  endloop
endfacet
facet normal -0.9914448613741765 -1.5489040190371896e-07 -0.13052619221717934
  outer loop
    vertex 35923.645509697846 -38886.48663099699 131.9162911693802
    vertex 35923.57732918399 -38943.07007043712 132.43424073326506
    vertex 35923.57736135043 -38886.486627873695 132.4339292595668
  endloop
endfacet
facet normal -0.9238795325130092 -1.5813445032618293e-06 -0.38268343235766406
  outer loop
    vertex 35923.377528338984 -38943.07006744889 132.91660264304278
    vertex 35923.57736135043 -38886.486627873695 132.4339292595668
    vertex 35923.57732918399 -38943.07007043712 132.43424073326506
  endloop
endfacet
facet normal -0.9238795325130092 -1.5813445032618293e-06 -0.38268343235766406
  outer loop
    vertex 35923.57736135043 -38886.486627873695 132.4339292595668
    vertex 35923.377528338984 -38943.07006744889 132.91660264304278
    vertex 35923.377560505425 -38886.48662488547 132.91629116934453
  endloop
endfacet
facet normal -0.7933533402911417 -2.900032590045538e-06 -0.608761429001935
  outer loop
    vertex 35923.11198353352 -38886.486626210346 133.26239781758622
    vertex 35923.377528338984 -38943.07006744889 132.91660264304278
    vertex 35923.11195136708 -38943.07006877377 133.26270929128447
  endloop
endfacet
facet normal -0.7933533402911417 -2.900032590045538e-06 -0.608761429001935
  outer loop
    vertex 35923.377528338984 -38943.07006744889 132.91660264304278
    vertex 35923.11198353352 -38886.486626210346 133.26239781758622
    vertex 35923.377560505425 -38886.48662488547 132.91629116934453
  endloop
endfacet
facet normal -0.7933533402689379 -2.9000325902174482e-06 -0.6087614290308717
  outer loop
    vertex 35923.05969109379 -38943.07006479935 133.330816205401
    vertex 35923.11198353352 -38886.486626210346 133.26239781758622
    vertex 35923.11195136708 -38943.07006877377 133.26270929128447
  endloop
endfacet
facet normal -0.7933533402689379 -2.9000325902174482e-06 -0.6087614290308717
  outer loop
    vertex 35923.11198353352 -38886.486626210346 133.26239781758622
    vertex 35923.05969109379 -38943.07006479935 133.330816205401
    vertex 35923.05972326023 -38886.48662223592 133.33050473170275
  endloop
endfacet
facet normal -0.6087614290099898 -4.021088248316124e-06 -0.793353340280071
  outer loop
    vertex 35922.987551155995 -38886.486621864744 133.38588433506618
    vertex 35923.05969109379 -38943.07006479935 133.330816205401
    vertex 35922.98751898955 -38943.07006442817 133.38619580876443
  endloop
endfacet
facet normal -0.6087614290099898 -4.021088248316124e-06 -0.793353340280071
  outer loop
    vertex 35923.05969109379 -38943.07006479935 133.330816205401
    vertex 35922.987551155995 -38886.486621864744 133.38588433506618
    vertex 35923.05972326023 -38886.48662223592 133.33050473170275
  endloop
endfacet
facet normal -0.6087614290152642 -4.021088248290844e-06 -0.7933533402760238
  outer loop
    vertex 35922.645509697875 -38886.48662010563 133.64834197688705
    vertex 35922.98751898955 -38943.07006442817 133.38619580876443
    vertex 35922.64547753143 -38943.07006266906 133.6486534505853
  endloop
endfacet
facet normal -0.6087614290152642 -4.021088248290844e-06 -0.7933533402760238
  outer loop
    vertex 35922.98751898955 -38943.07006442817 133.38619580876443
    vertex 35922.645509697875 -38886.48662010563 133.64834197688705
    vertex 35922.987551155995 -38886.486621864744 133.38588433506618
  endloop
endfacet
facet normal -0.38268343236795965 -4.868113387630528e-06 -0.9238795324972725
  outer loop
    vertex 35922.16314778809 -38886.486618639785 133.84814282188896
    vertex 35922.64547753143 -38943.07006266906 133.6486534505853
    vertex 35922.163115621646 -38943.070061203216 133.8484542955872
  endloop
endfacet
facet normal -0.38268343236795965 -4.868113387630528e-06 -0.9238795324972725
  outer loop
    vertex 35922.64547753143 -38943.07006266906 133.6486534505853
    vertex 35922.16314778809 -38886.486618639785 133.84814282188896
    vertex 35922.645509697875 -38886.48662010563 133.64834197688705
  endloop
endfacet
facet normal -0.13052619222212852 -5.383384644522532e-06 -0.9914448613589217
  outer loop
    vertex 35921.64550969789 -38886.486617938266 133.91629116930812
    vertex 35922.163115621646 -38943.070061203216 133.8484542955872
    vertex 35921.64547753145 -38943.0700605017 133.91660264300637
  endloop
endfacet
facet normal -0.13052619222212852 -5.383384644522532e-06 -0.9914448613589217
  outer loop
    vertex 35922.163115621646 -38943.070061203216 133.8484542955872
    vertex 35921.64550969789 -38886.486617938266 133.91629116930812
    vertex 35922.16314778809 -38886.486618639785 133.84814282188896
  endloop
endfacet
facet normal 0.1305261922170327 -5.531787134351446e-06 -0.9914448613587755
  outer loop
    vertex 35921.12787160769 -38886.48661804889 133.84814282188842
    vertex 35921.64547753145 -38943.0700605017 133.91660264300637
    vertex 35921.12783944125 -38943.070060612314 133.84845429558666
  endloop
endfacet
facet normal 0.1305261922170327 -5.531787134351446e-06 -0.9914448613587755
  outer loop
    vertex 35921.64547753145 -38943.0700605017 133.91660264300637
    vertex 35921.12787160769 -38886.48661804889 133.84814282188842
    vertex 35921.64550969789 -38886.486617938266 133.91629116930812
  endloop
endfacet
facet normal 0.38268343236388563 -5.303207472683122e-06 -0.9238795324965648
  outer loop
    vertex 35920.645509697904 -38886.48661896411 133.648341976886
    vertex 35921.12783944125 -38943.070060612314 133.84845429558666
    vertex 35920.64547753146 -38943.070061527535 133.64865345058425
  endloop
endfacet
facet normal 0.38268343236388563 -5.303207472683122e-06 -0.9238795324965648
  outer loop
    vertex 35921.12783944125 -38943.070060612314 133.84845429558666
    vertex 35920.645509697904 -38886.48661896411 133.648341976886
    vertex 35921.12787160769 -38886.48661804889 133.84814282188842
  endloop
endfacet
facet normal 0.608761429002352 -4.7132229857357784e-06 -0.7933533402821218
  outer loop
    vertex 35920.35029897315 -38886.48662410324 133.42181882066885
    vertex 35920.64547753146 -38943.070061527535 133.64865345058425
    vertex 35920.35026680671 -38943.07006666667 133.4221302943671
  endloop
endfacet
facet normal 0.608761429002352 -4.7132229857357784e-06 -0.7933533402821218
  outer loop
    vertex 35920.64547753146 -38943.070061527535 133.64865345058425
    vertex 35920.35029897315 -38886.48662410324 133.42181882066885
    vertex 35920.645509697904 -38886.48661896411 133.648341976886
  endloop
endfacet
facet normal 0.6087614290168121 -4.713222985682921e-06 -0.7933533402710261
  outer loop
    vertex 35920.23129613554 -38886.48662062155 133.33050473170132
    vertex 35920.35026680671 -38943.07006666667 133.4221302943671
    vertex 35920.2312639691 -38943.070063184976 133.33081620539957
  endloop
endfacet
facet normal 0.6087614290168121 -4.713222985682921e-06 -0.7933533402710261
  outer loop
    vertex 35920.35026680671 -38943.07006666667 133.4221302943671
    vertex 35920.23129613554 -38886.48662062155 133.33050473170132
    vertex 35920.35029897315 -38886.48662410324 133.42181882066885
  endloop
endfacet
facet normal 0.7933533402884839 -3.8020401412548023e-06 -0.6087614290004333
  outer loop
    vertex 35920.058501745676 -38886.486621864744 133.10531469854683
    vertex 35920.2312639691 -38943.070063184976 133.33081620539957
    vertex 35920.05846957923 -38943.07006442817 133.10562617224508
  endloop
endfacet
facet normal 0.7933533402884839 -3.8020401412548023e-06 -0.6087614290004333
  outer loop
    vertex 35920.2312639691 -38943.070063184976 133.33081620539957
    vertex 35920.058501745676 -38886.486621864744 133.10531469854683
    vertex 35920.23129613554 -38886.48662062155 133.33050473170132
  endloop
endfacet
facet normal 0.7933533402841257 -3.8020401412835896e-06 -0.6087614290061131
  outer loop
    vertex 35919.91345889035 -38886.48662290827 132.91629116934277
    vertex 35920.05846957923 -38943.07006442817 133.10562617224508
    vertex 35919.913426723906 -38943.07006547169 132.91660264304102
  endloop
endfacet
facet normal 0.7933533402841257 -3.8020401412835896e-06 -0.6087614290061131
  outer loop
    vertex 35920.05846957923 -38943.07006442817 133.10562617224508
    vertex 35919.91345889035 -38886.48662290827 132.91629116934277
    vertex 35920.058501745676 -38886.486621864744 133.10531469854683
  endloop
endfacet
facet normal 0.923879532512889 -2.6317545442828923e-06 -0.38268343235217234
  outer loop
    vertex 35919.713658045344 -38886.48662566843 132.43392925956482
    vertex 35919.913426723906 -38943.07006547169 132.91660264304102
    vertex 35919.7136258789 -38943.07006823186 132.43424073326307
  endloop
endfacet
facet normal 0.923879532512889 -2.6317545442828923e-06 -0.38268343235217234
  outer loop
    vertex 35919.913426723906 -38943.07006547169 132.91660264304102
    vertex 35919.713658045344 -38886.48662566843 132.43392925956482
    vertex 35919.91345889035 -38886.48662290827 132.91629116934277
  endloop
endfacet
endsolid Type XXI U-Boot
