solid Type XXI U-Boot
facet normal -1.0 -3.870545308909902e-14 7.994607003837478e-13
  outer loop
    vertex 35652.749452602664 -38912.9589121771 185.56278107666782
    vertex 35652.74945260266 -38836.71043457384 181.95078921136124
    vertex 35652.749452602664 -38914.67749146386 181.9507892113501
  endloop
endfacet
facet normal -1.0 -3.870545308909902e-14 7.994607003837478e-13
  outer loop
    vertex 35652.74945260266 -38836.71043457384 181.95078921136124
    vertex 35652.749452602664 -38912.9589121771 185.56278107666782
    vertex 35652.749452602664 -38838.42902066595 185.56278107666782
  endloop
endfacet
facet normal 1.0 -8.977396814296677e-14 -5.017620120155831e-20
  outer loop
    vertex 35712.749452602664 -38843.555941311926 181.9507892113123
    vertex 35712.74945260266 -38906.524770027056 185.56278107661984
    vertex 35712.749452602664 -38907.83198582712 181.9507892113031
  endloop
endfacet
facet normal 1.0 -8.977396814296677e-14 -5.017620120155831e-20
  outer loop
    vertex 35712.74945260266 -38906.524770027056 185.56278107661984
    vertex 35712.749452602664 -38843.555941311926 181.9507892113123
    vertex 35712.749452602664 -38844.86316114976 185.56278107661984
  endloop
endfacet
facet normal 7.992391472174826e-13 9.831566006722688e-16 1.0
  outer loop
    vertex 35669.96098859084 -38911.13899134166 185.56278107665406
    vertex 35712.74945260266 -38906.524770027056 185.56278107661984
    vertex 35652.749452602664 -38912.9589121771 185.56278107666782
  endloop
endfacet
facet normal 7.992391472174826e-13 9.831566006722688e-16 1.0
  outer loop
    vertex 35712.74945260266 -38906.524770027056 185.56278107661984
    vertex 35669.96098859084 -38911.13899134166 185.56278107665406
    vertex 35704.085786003176 -38907.545550327945 185.56278107662678
  endloop
endfacet
facet normal -7.995544953709166e-13 1.4318669064240757e-13 -1.0
  outer loop
    vertex 35652.74945260266 -38836.71043457384 181.95078921136124
    vertex 35659.667928123716 -38864.42613315275 181.95078921135303
    vertex 35652.749452602664 -38914.67749146386 181.9507892113501
  endloop
endfacet
facet normal -7.995544953709166e-13 1.4318669064240757e-13 -1.0
  outer loop
    vertex 35659.667928123716 -38864.42613315275 181.95078921135303
    vertex 35652.74945260266 -38836.71043457384 181.95078921136124
    vertex 35712.749452602664 -38843.555941311926 181.9507892113123
  endloop
endfacet
facet normal -7.995544953709166e-13 1.4318669064240757e-13 -1.0
  outer loop
    vertex 35659.667928123716 -38864.42613315275 181.95078921135303
    vertex 35712.749452602664 -38843.555941311926 181.9507892113123
    vertex 35701.46792812371 -38864.42613315275 181.95078921135303
  endloop
endfacet
facet normal -7.995544953709166e-13 1.4318669064240757e-13 -1.0
  outer loop
    vertex 35701.46792812371 -38864.42613315275 181.95078921135303
    vertex 35712.749452602664 -38843.555941311926 181.9507892113123
    vertex 35701.46792812371 -38886.42613315275 181.95078921135303
  endloop
endfacet
facet normal -7.995544953709166e-13 1.4318669064240757e-13 -1.0
  outer loop
    vertex 35652.749452602664 -38914.67749146386 181.9507892113501
    vertex 35659.667928123716 -38886.42613315275 181.95078921135303
    vertex 35712.749452602664 -38907.83198582712 181.9507892113031
  endloop
endfacet
facet normal -7.995544953709166e-13 1.4318669064240757e-13 -1.0
  outer loop
    vertex 35659.667928123716 -38886.42613315275 181.95078921135303
    vertex 35652.749452602664 -38914.67749146386 181.9507892113501
    vertex 35659.667928123716 -38864.42613315275 181.95078921135303
  endloop
endfacet
facet normal -7.995544953709166e-13 1.4318669064240757e-13 -1.0
  outer loop
    vertex 35712.749452602664 -38907.83198582712 181.9507892113031
    vertex 35659.667928123716 -38886.42613315275 181.95078921135303
    vertex 35701.46792812371 -38886.42613315275 181.95078921135303
  endloop
endfacet
facet normal -7.995544953709166e-13 1.4318669064240757e-13 -1.0
  outer loop
    vertex 35712.749452602664 -38907.83198582712 181.9507892113031
    vertex 35701.46792812371 -38886.42613315275 181.95078921135303
    vertex 35712.749452602664 -38843.555941311926 181.9507892113123
  endloop
endfacet
facet normal -8.040200727445502e-13 1.008230970770376e-13 -1.0
  outer loop
    vertex 35669.960988590836 -38838.530355672156 181.9507892113472
    vertex 35712.749452602664 -38843.555941311926 181.9507892113123
    vertex 35652.74945260266 -38836.71043457384 181.95078921136124
  endloop
endfacet
facet normal -8.040200727445502e-13 1.008230970770376e-13 -1.0
  outer loop
    vertex 35712.749452602664 -38843.555941311926 181.9507892113123
    vertex 35669.960988590836 -38838.530355672156 181.9507892113472
    vertex 35671.22980848042 -38838.66396604011 181.9507892113462
  endloop
endfacet
facet normal -8.048466818230705e-13 1.862268827901576e-13 -1.0
  outer loop
    vertex 35712.749452602664 -38907.83198582712 181.9507892113031
    vertex 35669.96098859083 -38912.85757062842 181.9507892113366
    vertex 35652.749452602664 -38914.67749146386 181.9507892113501
  endloop
endfacet
facet normal -8.048466818230705e-13 1.862268827901576e-13 -1.0
  outer loop
    vertex 35669.96098859083 -38912.85757062842 181.9507892113366
    vertex 35712.749452602664 -38907.83198582712 181.9507892113031
    vertex 35671.229808480544 -38912.72396018152 181.95078921133558
  endloop
endfacet
facet normal 0.10666992589463453 0.9349483973268257 0.3383681741027566
  outer loop
    vertex 35712.749452602664 -38844.86316114976 185.56278107661984
    vertex 35712.749452602664 -38843.555941311926 181.9507892113123
    vertex 35652.74945260266 -38836.71043457384 181.95078921136124
  endloop
endfacet
facet normal 0.10248218663357288 -0.8982435373357915 0.4273826728557047
  outer loop
    vertex 35652.749452602664 -38912.9589121771 185.56278107666782
    vertex 35652.749452602664 -38914.67749146386 181.9507892113501
    vertex 35712.749452602664 -38907.83198582712 181.9507892113031
  endloop
endfacet
facet normal 7.992391080357192e-13 -9.835242922276875e-16 1.0
  outer loop
    vertex 35712.749452602664 -38844.86316114976 185.56278107661984
    vertex 35669.96098859085 -38840.24894176426 185.56278107665406
    vertex 35652.749452602664 -38838.42902066595 185.56278107666782
  endloop
endfacet
facet normal 7.992391080357192e-13 -9.835242922276875e-16 1.0
  outer loop
    vertex 35669.96098859085 -38840.24894176426 185.56278107665406
    vertex 35712.749452602664 -38844.86316114976 185.56278107661984
    vertex 35704.085786002826 -38843.84238065738 185.56278107662678
  endloop
endfacet
facet normal 0.10032644407282111 -0.9355694207526303 0.33859188350031505
  outer loop
    vertex 35652.749452602664 -38912.9589121771 185.56278107666782
    vertex 35712.749452602664 -38907.83198582712 181.9507892113031
    vertex 35712.74945260266 -38906.524770027056 185.56278107661984
  endloop
endfacet
facet normal 7.993664989196052e-13 -6.08420379191762e-26 1.0
  outer loop
    vertex 35652.749452602664 -38912.9589121771 185.56278107666782
    vertex 35659.667928123716 -38886.42613315275 185.56278107666236
    vertex 35652.749452602664 -38838.42902066595 185.56278107666782
  endloop
endfacet
facet normal 7.993664989196052e-13 -6.08420379191762e-26 1.0
  outer loop
    vertex 35659.667928123716 -38886.42613315275 185.56278107666236
    vertex 35652.749452602664 -38912.9589121771 185.56278107666782
    vertex 35712.74945260266 -38906.524770027056 185.56278107661984
  endloop
endfacet
facet normal 7.993664989196052e-13 -6.08420379191762e-26 1.0
  outer loop
    vertex 35659.667928123716 -38886.42613315275 185.56278107666236
    vertex 35712.74945260266 -38906.524770027056 185.56278107661984
    vertex 35701.46792812371 -38886.42613315275 185.56278107666236
  endloop
endfacet
facet normal 7.993664989196052e-13 -6.08420379191762e-26 1.0
  outer loop
    vertex 35701.46792812371 -38886.42613315275 185.56278107666236
    vertex 35712.74945260266 -38906.524770027056 185.56278107661984
    vertex 35701.46792812371 -38864.42613315275 185.56278107666236
  endloop
endfacet
facet normal 7.993664989196052e-13 -6.08420379191762e-26 1.0
  outer loop
    vertex 35652.749452602664 -38838.42902066595 185.56278107666782
    vertex 35659.667928123716 -38864.42613315275 185.56278107666236
    vertex 35712.749452602664 -38844.86316114976 185.56278107661984
  endloop
endfacet
facet normal 7.993664989196052e-13 -6.08420379191762e-26 1.0
  outer loop
    vertex 35659.667928123716 -38864.42613315275 185.56278107666236
    vertex 35652.749452602664 -38838.42902066595 185.56278107666782
    vertex 35659.667928123716 -38886.42613315275 185.56278107666236
  endloop
endfacet
facet normal 7.993664989196052e-13 -6.08420379191762e-26 1.0
  outer loop
    vertex 35712.749452602664 -38844.86316114976 185.56278107661984
    vertex 35659.667928123716 -38864.42613315275 185.56278107666236
    vertex 35701.46792812371 -38864.42613315275 185.56278107666236
  endloop
endfacet
facet normal 7.993664989196052e-13 -6.08420379191762e-26 1.0
  outer loop
    vertex 35712.749452602664 -38844.86316114976 185.56278107661984
    vertex 35701.46792812371 -38864.42613315275 185.56278107666236
    vertex 35712.74945260266 -38906.524770027056 185.56278107661984
  endloop
endfacet
facet normal 0.09638270239516421 0.8987932666742487 0.4276459265093477
  outer loop
    vertex 35652.749452602664 -38838.42902066595 185.56278107666782
    vertex 35712.749452602664 -38844.86316114976 185.56278107661984
    vertex 35652.74945260266 -38836.71043457384 181.95078921136124
  endloop
endfacet
facet normal 0.0 1.0 0.0
  outer loop
    vertex 35659.667928123716 -38886.42613315275 185.56278107666236
    vertex 35701.46792812371 -38886.42613315275 181.95078921135303
    vertex 35659.667928123716 -38886.42613315275 181.95078921135303
  endloop
endfacet
facet normal 0.0 1.0 0.0
  outer loop
    vertex 35701.46792812371 -38886.42613315275 181.95078921135303
    vertex 35659.667928123716 -38886.42613315275 185.56278107666236
    vertex 35701.46792812371 -38886.42613315275 185.56278107666236
  endloop
endfacet
facet normal -1.0 0.0 0.0
  outer loop
    vertex 35701.46792812371 -38864.42613315275 185.56278107666236
    vertex 35701.46792812371 -38886.42613315275 181.95078921135303
    vertex 35701.46792812371 -38886.42613315275 185.56278107666236
  endloop
endfacet
facet normal -1.0 0.0 0.0
  outer loop
    vertex 35701.46792812371 -38886.42613315275 181.95078921135303
    vertex 35701.46792812371 -38864.42613315275 185.56278107666236
    vertex 35701.46792812371 -38864.42613315275 181.95078921135303
  endloop
endfacet
facet normal -0.0 -1.0 0.0
  outer loop
    vertex 35701.46792812371 -38864.42613315275 185.56278107666236
    vertex 35659.667928123716 -38864.42613315275 181.95078921135303
    vertex 35701.46792812371 -38864.42613315275 181.95078921135303
  endloop
endfacet
facet normal -0.0 -1.0 0.0
  outer loop
    vertex 35659.667928123716 -38864.42613315275 181.95078921135303
    vertex 35701.46792812371 -38864.42613315275 185.56278107666236
    vertex 35659.667928123716 -38864.42613315275 185.56278107666236
  endloop
endfacet
facet normal 1.0 0.0 0.0
  outer loop
    vertex 35659.667928123716 -38864.42613315275 181.95078921135303
    vertex 35659.667928123716 -38886.42613315275 185.56278107666236
    vertex 35659.667928123716 -38886.42613315275 181.95078921135303
  endloop
endfacet
facet normal 1.0 0.0 0.0
  outer loop
    vertex 35659.667928123716 -38886.42613315275 185.56278107666236
    vertex 35659.667928123716 -38864.42613315275 181.95078921135303
    vertex 35659.667928123716 -38864.42613315275 185.56278107666236
  endloop
endfacet
endsolid Type XXI U-Boot
